<svg width="63" height="62" viewBox="0 0 63 62" fill="none" xmlns="http://www.w3.org/2000/svg">
<g clip-path="url(#clip0_1779_14727)">
<mask id="mask0_1779_14727" style="mask-type:alpha" maskUnits="userSpaceOnUse" x="-9" y="5" width="21" height="53">
<path d="M11.5273 5.92578V57.8375L-3.50253 50.7438L-9 27.8805L-0.37549 7.49037L11.5273 5.92578Z" fill="#C4C4C4"/>
</mask>
<g mask="url(#mask0_1779_14727)">
<path d="M63.8855 31.7802C63.8855 32.9294 63.8244 34.0644 63.7052 35.182H0.699801C0.580623 34.0644 0.519531 32.9294 0.519531 31.7802C0.519531 30.5842 0.585713 29.4037 0.714615 28.2422H63.6905C63.8193 29.4037 63.8855 30.5842 63.8855 31.7802Z" fill="#222222"/>
<path d="M5.54569 48.9251C4.16249 46.7757 3.0317 44.4487 2.19531 41.9854H62.2066C61.3702 44.4487 60.2395 46.7757 58.8563 48.9251H5.54569Z" fill="#222222"/>
<path d="M11.4375 55.7285C16.998 60.5603 24.2579 63.4845 32.2004 63.4845C40.1428 63.4845 47.4026 60.5603 52.9634 55.7285H11.4375Z" fill="#222222"/>
<path d="M62.1606 21.4387C61.3109 18.9737 60.166 16.6464 58.7685 14.499H5.63426C4.23655 16.6464 3.09176 18.9737 2.24219 21.4387H62.1606Z" fill="#222222"/>
</g>
<mask id="mask1_1779_14727" style="mask-type:alpha" maskUnits="userSpaceOnUse" x="1" y="-8" width="52" height="64">
<path d="M52.505 -7.00098V55.7845L1.74219 -2.98683L52.505 -7.00098Z" fill="#C4C4C4"/>
</mask>
<g mask="url(#mask1_1779_14727)">
<path fill-rule="evenodd" clip-rule="evenodd" d="M63.3382 31.7801C63.3382 32.9293 63.2771 34.0642 63.158 35.1818H0.152874C0.0337472 34.0642 -0.0273438 32.9293 -0.0273438 31.7801C-0.0273438 30.5841 0.0388374 29.4037 0.167688 28.2421H63.1433C63.2721 29.4037 63.3382 30.5841 63.3382 31.7801ZM5.00018 48.9253C3.61693 46.7759 2.48614 44.4489 1.64975 41.9854H61.6613C60.8248 44.4489 59.6942 46.7759 58.311 48.9253H5.00018ZM10.8927 55.7288C16.4532 60.5606 23.7131 63.4848 31.6556 63.4848C39.598 63.4848 46.8579 60.5606 52.4182 55.7288H10.8927ZM61.615 21.4385C60.7653 18.9735 59.6203 16.6462 58.2229 14.4988H5.08846C3.6907 16.6462 2.54596 18.9735 1.69639 21.4385H61.615ZM31.6556 0.0751953C39.523 0.0751953 46.7205 2.94484 52.2604 7.69517H11.0506C16.5903 2.94484 23.7881 0.0751953 31.6556 0.0751953Z" fill="#222222"/>
</g>
<mask id="mask2_1779_14727" style="mask-type:alpha" maskUnits="userSpaceOnUse" x="51" y="3" width="24" height="53">
<path d="M51.6445 3.06934V55.9627H74.996V15.3842L51.6445 3.06934Z" fill="#C4C4C4"/>
</mask>
<g mask="url(#mask2_1779_14727)">
<path fill-rule="evenodd" clip-rule="evenodd" d="M62.5221 29.8758C62.5221 31.025 62.461 32.16 62.3419 33.2776H-0.663481C-0.782609 32.16 -0.84375 31.025 -0.84375 29.8758C-0.84375 28.6799 -0.777568 27.4994 -0.648667 26.3379H62.3272C62.456 27.4994 62.5221 28.6799 62.5221 29.8758ZM4.18393 47.0211C2.80063 44.8717 1.66978 42.5446 0.833399 40.0812H60.8447C60.0088 42.5446 58.8775 44.8717 57.4943 47.0211H4.18393ZM10.0765 53.8246C15.6369 58.6564 22.8968 61.5806 30.8392 61.5806C38.7815 61.5806 46.0413 58.6564 51.6016 53.8246H10.0765ZM60.7984 19.5343C59.9487 17.0693 58.8042 14.7419 57.4063 12.5945H4.27205C2.87434 14.7419 1.7295 17.0693 0.879981 19.5343H60.7984ZM30.8392 -1.8291C38.7066 -1.8291 45.9044 1.04054 51.4443 5.79087H10.2342C15.774 1.04054 22.9717 -1.8291 30.8392 -1.8291Z" fill="#222222"/>
</g>
<mask id="mask3_1779_14727" style="mask-type:alpha" maskUnits="userSpaceOnUse" x="11" y="5" width="50" height="60">
<path d="M11.3984 64.6292L11.5344 5.79004L60.4185 62.3964L11.3984 64.6292Z" fill="#C4C4C4"/>
</mask>
<g mask="url(#mask3_1779_14727)">
<path fill-rule="evenodd" clip-rule="evenodd" d="M63.8854 29.8748C63.8854 31.0241 63.8243 32.159 63.7052 33.2766H0.699749C0.580622 32.159 0.519531 31.0241 0.519531 29.8748C0.519531 28.6789 0.585713 27.4984 0.714564 26.3369H63.6904C63.8192 27.4984 63.8854 28.6789 63.8854 29.8748ZM5.54716 47.0201C4.16391 44.8708 3.03307 42.5436 2.19668 40.0802H62.208C61.3715 42.5436 60.2408 44.8708 58.8576 47.0201H5.54716ZM11.4397 53.8236C17.0002 58.6554 24.26 61.5796 32.2025 61.5796C40.1448 61.5796 47.4046 58.6554 52.9649 53.8236H11.4397ZM62.1616 19.5333C61.312 17.0683 60.167 14.7409 58.7696 12.5935H5.63534C4.23758 14.7409 3.09278 17.0683 2.24321 19.5333H62.1616ZM32.2025 -1.83008C40.0699 -1.83008 47.2677 1.03957 52.8071 5.78989H11.5975C17.1372 1.03957 24.335 -1.83008 32.2025 -1.83008Z" fill="#222222"/>
</g>
</g>
<defs>
<clipPath id="clip0_1779_14727">
<rect width="63" height="62" fill="white"/>
</clipPath>
</defs>
</svg>
