<svg viewBox="0 0 48 48" fill="none" xmlns="http://www.w3.org/2000/svg">
    <path d="M23.9996 0.600098C11.0765 0.600098 0.599609 11.077 0.599609 24.0001C0.599609 36.9232 11.0765 47.4001 23.9996 47.4001C36.9227 47.4001 47.3996 36.9232 47.3996 24.0001C47.3996 11.077 36.9227 0.600098 23.9996 0.600098ZM17.6996 34.8001H13.1996V18.6001H17.6996V34.8001ZM15.4361 16.8001H15.4109C14.0681 16.8001 13.1996 15.7993 13.1996 14.5492C13.1996 13.2721 14.0951 12.3001 15.4622 12.3001C16.8311 12.3001 17.6744 13.2721 17.6996 14.5492C17.6996 15.7984 16.8311 16.8001 15.4361 16.8001ZM34.7996 34.8001H30.2996V26.7001C30.2996 24.0001 28.9982 23.1001 27.5996 23.1001C26.2991 23.1001 24.8996 24.0001 24.8996 26.7001V34.8001H20.3996V18.6001H24.8996V21.3001C25.2083 20.4172 26.6852 18.6001 29.3996 18.6001C32.9996 18.6001 34.7996 21.3001 34.7996 25.8001V34.8001Z" fill="#46BABA"/>
</svg>
