<svg viewBox="0 0 5177 1091" fill="none" xmlns="http://www.w3.org/2000/svg">
    <path d="M1080.83 773.128V141.515H1210.78L1421.19 493.981C1427.08 503.993 1433.57 516.36 1440.64 531.083C1448.3 545.806 1454.2 558.173 1458.32 568.185L1465.39 582.319H1467.16C1464.8 538.739 1463.63 502.226 1463.63 472.78V141.515H1590.05V773.128H1466.28L1250.57 424.195C1244.67 414.183 1237.9 402.11 1230.23 387.976C1222.57 373.253 1216.68 360.886 1212.55 350.875L1205.48 336.741H1203.71C1206.07 380.909 1207.25 417.716 1207.25 447.162V773.128H1080.83Z" fill="black"/>
    <path d="M2062.62 718.358C2018.42 763.705 1961.54 786.378 1892 786.378C1822.45 786.378 1765.57 763.705 1721.37 718.358C1677.17 672.423 1655.07 615.298 1655.07 546.984C1655.07 478.669 1677.17 421.839 1721.37 376.492C1765.57 330.557 1822.45 307.589 1892 307.589C1961.54 307.589 2018.42 330.557 2062.62 376.492C2106.82 421.839 2128.92 478.669 2128.92 546.984C2128.92 615.298 2106.82 672.423 2062.62 718.358ZM1892 694.507C1927.95 694.507 1955.94 681.257 1975.98 654.755C1996.61 627.665 2006.92 591.741 2006.92 546.984C2006.92 502.226 1996.61 466.302 1975.98 439.212C1955.94 412.122 1927.95 398.577 1892 398.577C1855.45 398.577 1827.16 412.122 1807.13 439.212C1787.09 465.713 1777.07 501.637 1777.07 546.984C1777.07 591.741 1787.09 627.665 1807.13 654.755C1827.16 681.257 1855.45 694.507 1892 694.507Z" fill="black"/>
    <path d="M2300.63 319.956V392.393H2303.28C2317.42 365.892 2333.04 346.458 2350.13 334.09C2367.23 321.134 2388.74 314.656 2414.67 314.656C2427.05 314.656 2436.48 315.834 2442.96 318.19V423.311H2440.31C2399.64 419.189 2366.93 428.023 2342.18 449.812C2317.42 471.602 2305.05 505.759 2305.05 552.284V773.128H2184.81V319.956H2300.63Z" fill="black"/>
    <path d="M2678.64 786.378C2613.81 786.378 2563.12 772.244 2526.58 743.976C2490.04 715.119 2470 675.956 2466.46 626.487H2577.86C2585.52 676.545 2618.52 701.574 2676.87 701.574C2703.39 701.574 2723.73 696.863 2737.87 687.44C2752.61 678.017 2759.97 665.356 2759.97 649.455C2759.97 643.566 2758.79 638.266 2756.44 633.554C2754.67 628.843 2751.13 624.721 2745.83 621.187C2741.11 617.065 2736.69 613.826 2732.57 611.47C2729.03 609.114 2722.55 606.759 2713.12 604.403C2703.69 602.047 2696.32 600.281 2691.02 599.103C2686.3 597.925 2677.75 596.453 2665.38 594.686C2653.59 592.33 2645.34 590.563 2640.62 589.386C2615.87 584.674 2595.54 579.963 2579.62 575.252C2564.3 569.951 2548.09 562.59 2531 553.167C2513.91 543.156 2500.94 529.905 2492.1 513.415C2483.85 496.337 2479.72 476.019 2479.72 452.463C2479.72 405.349 2496.82 369.425 2531 344.691C2565.77 319.956 2610.27 307.589 2664.49 307.589C2722.84 307.589 2768.52 321.134 2801.52 348.224C2835.12 374.726 2854.27 411.238 2858.99 457.763H2750.25C2745.53 413.594 2716.36 391.51 2662.73 391.51C2638.56 391.51 2619.41 395.927 2605.26 404.76C2591.71 413.594 2584.93 425.961 2584.93 441.862C2584.93 447.162 2585.81 452.168 2587.58 456.879C2589.94 461.002 2593.47 464.83 2598.19 468.363C2603.49 471.308 2608.5 473.958 2613.22 476.314C2617.93 478.08 2624.71 480.142 2633.55 482.497C2642.39 484.264 2650.05 486.031 2656.54 487.798C2663.02 488.975 2671.86 490.742 2683.06 493.098C2694.26 494.865 2703.1 496.337 2709.58 497.515C2728.44 501.637 2743.76 505.465 2755.55 508.999C2767.93 511.943 2782.07 517.243 2797.99 524.899C2813.9 531.966 2826.28 540.211 2835.12 549.634C2844.55 558.467 2852.5 570.835 2858.99 586.735C2866.06 602.047 2869.6 620.009 2869.6 640.621C2869.6 685.379 2851.91 721.008 2816.55 747.51C2781.78 773.422 2735.81 786.378 2678.64 786.378Z" fill="black"/>
    <path d="M3222.65 773.128L3095.34 566.418L3043.18 620.304V773.128H2923.83V141.515H3043.18V491.331L3204.08 319.956H3348.18L3181.1 492.214L3368.52 773.128H3222.65Z" fill="black"/>
    <path d="M3524.02 319.957V381.793H3526.68C3557.91 332.324 3602.71 307.589 3661.05 307.589C3707.61 307.589 3745.33 323.49 3774.21 355.292C3803.09 386.504 3817.53 427.139 3817.53 477.197V773.128H3697.3V494.865C3697.3 470.13 3690.23 450.107 3676.08 434.795C3662.53 419.484 3643.37 411.828 3618.62 411.828C3592.1 411.828 3570 421.545 3552.31 440.979C3535.22 460.413 3526.68 485.442 3526.68 516.066V773.128H3406.44V319.957H3524.02Z" fill="#0E6D6D"/>
    <path d="M4104.7 786.378C4031.62 786.378 3974.15 764 3932.31 719.242C3890.46 673.895 3869.54 616.182 3869.54 546.101C3869.54 478.375 3890.46 421.839 3932.31 376.493C3974.15 330.557 4027.79 307.589 4093.21 307.589C4164.52 307.589 4219.63 332.324 4258.53 381.793C4297.43 431.262 4316.88 497.515 4316.88 580.552H3988.01C3992.72 616.476 4004.8 644.45 4024.25 664.473C4043.7 683.907 4070.22 693.624 4103.82 693.624C4148.02 693.624 4177.19 675.073 4191.34 637.972H4309.8C4300.96 680.374 4278.57 715.708 4242.61 743.976C4206.66 772.244 4160.69 786.378 4104.7 786.378ZM4094.98 400.344C4036.63 400.344 4001.56 432.734 3989.77 497.515H4191.34C4189.57 468.658 4179.85 445.396 4162.17 427.728C4144.48 409.472 4122.09 400.344 4094.98 400.344Z" fill="#0E6D6D"/>
    <path d="M4556.41 786.378C4491.58 786.378 4440.89 772.244 4404.35 743.976C4367.81 715.12 4347.77 675.957 4344.23 626.488H4455.63C4463.29 676.546 4496.29 701.574 4554.64 701.574C4581.16 701.574 4601.5 696.863 4615.64 687.44C4630.38 678.018 4637.74 665.356 4637.74 649.455C4637.74 643.566 4636.56 638.266 4634.21 633.555C4632.44 628.843 4628.9 624.721 4623.6 621.187C4618.88 617.065 4614.46 613.826 4610.34 611.47C4606.8 609.115 4600.32 606.759 4590.89 604.403C4581.46 602.048 4574.09 600.281 4568.79 599.103C4564.07 597.925 4555.52 596.453 4543.15 594.686C4531.36 592.33 4523.11 590.564 4518.39 589.386C4493.64 584.675 4473.31 579.963 4457.39 575.252C4442.07 569.952 4425.86 562.59 4408.77 553.168C4391.68 543.156 4378.71 529.905 4369.87 513.416C4361.62 496.337 4357.49 476.02 4357.49 452.463C4357.49 405.35 4374.59 369.426 4408.77 344.691C4443.54 319.957 4488.04 307.589 4542.26 307.589C4600.61 307.589 4646.29 321.135 4679.29 348.225C4712.89 374.726 4732.04 411.239 4736.76 457.763H4628.02C4623.3 413.594 4594.13 391.51 4540.5 391.51C4516.33 391.51 4497.18 395.927 4483.03 404.761C4469.48 413.594 4462.7 425.962 4462.7 441.862C4462.7 447.163 4463.58 452.168 4465.35 456.88C4467.71 461.002 4471.24 464.83 4475.96 468.364C4481.26 471.308 4486.27 473.958 4490.99 476.314C4495.7 478.081 4502.48 480.142 4511.32 482.498C4520.16 484.264 4527.82 486.031 4534.31 487.798C4540.79 488.976 4549.63 490.742 4560.83 493.098C4572.03 494.865 4580.87 496.337 4587.35 497.515C4606.21 501.637 4621.53 505.465 4633.32 508.999C4645.7 511.943 4659.84 517.244 4675.76 524.9C4691.67 531.967 4704.05 540.211 4712.89 549.634C4722.32 558.468 4730.27 570.835 4736.76 586.736C4743.83 602.048 4747.37 620.01 4747.37 640.622C4747.37 685.379 4729.69 721.009 4694.32 747.51C4659.55 773.422 4613.58 786.378 4556.41 786.378Z" fill="#0E6D6D"/>
    <path d="M4985.49 786.378C4920.66 786.378 4869.97 772.244 4833.43 743.976C4796.89 715.12 4776.85 675.957 4773.31 626.488H4884.71C4892.37 676.546 4925.37 701.574 4983.72 701.574C5010.24 701.574 5030.58 696.863 5044.72 687.44C5059.46 678.018 5066.82 665.356 5066.82 649.455C5066.82 643.566 5065.64 638.266 5063.29 633.555C5061.52 628.843 5057.98 624.721 5052.68 621.187C5047.96 617.065 5043.54 613.826 5039.42 611.47C5035.88 609.115 5029.4 606.759 5019.97 604.403C5010.54 602.048 5003.17 600.281 4997.87 599.103C4993.15 597.925 4984.61 596.453 4972.23 594.686C4960.44 592.33 4952.19 590.564 4947.48 589.386C4922.72 584.675 4902.39 579.963 4886.47 575.252C4871.15 569.952 4854.94 562.59 4837.85 553.168C4820.76 543.156 4807.79 529.905 4798.95 513.416C4790.7 496.337 4786.58 476.02 4786.58 452.463C4786.58 405.35 4803.67 369.426 4837.85 344.691C4872.62 319.957 4917.12 307.589 4971.34 307.589C5029.69 307.589 5075.37 321.135 5108.37 348.225C5141.97 374.726 5161.12 411.239 5165.84 457.763H5057.1C5052.38 413.594 5023.21 391.51 4969.58 391.51C4945.41 391.51 4926.26 395.927 4912.11 404.761C4898.56 413.594 4891.78 425.962 4891.78 441.862C4891.78 447.163 4892.66 452.168 4894.43 456.88C4896.79 461.002 4900.33 464.83 4905.04 468.364C4910.34 471.308 4915.35 473.958 4920.07 476.314C4924.78 478.081 4931.56 480.142 4940.4 482.498C4949.24 484.264 4956.91 486.031 4963.39 487.798C4969.87 488.976 4978.71 490.742 4989.91 493.098C5001.11 494.865 5009.95 496.337 5016.43 497.515C5035.29 501.637 5050.62 505.465 5062.4 508.999C5074.78 511.943 5088.92 517.244 5104.84 524.9C5120.75 531.967 5133.13 540.211 5141.97 549.634C5151.4 558.468 5159.36 570.835 5165.84 586.736C5172.91 602.048 5176.45 620.01 5176.45 640.622C5176.45 685.379 5158.77 721.009 5123.4 747.51C5088.63 773.422 5042.66 786.378 4985.49 786.378Z" fill="#0E6D6D"/>
    <mask id="mask0_197_361" style="mask-type:alpha" maskUnits="userSpaceOnUse" x="0" y="160" width="254" height="644">
        <path d="M253.955 160.854L253.955 803.075L68.0149 715.316L0.00317383 432.466L106.7 180.211L253.955 160.854Z" fill="#C4C4C4"/>
    </mask>
    <g mask="url(#mask0_197_361)">
        <path fill-rule="evenodd" clip-rule="evenodd" d="M901.681 480.701C901.681 494.919 900.926 508.96 899.452 522.786H119.987C118.513 508.96 117.757 494.919 117.757 480.701C117.757 465.906 118.576 451.302 120.17 436.932H899.268C900.863 451.302 901.681 465.906 901.681 480.701ZM179.955 692.809C162.842 666.221 148.853 637.431 138.506 606.956L880.933 606.956C870.586 637.431 856.596 666.221 839.484 692.809H179.955ZM252.853 776.979C321.645 836.754 411.46 872.936 509.719 872.936C607.979 872.936 697.794 836.754 766.585 776.979H252.853ZM880.357 352.761C869.847 322.266 855.684 293.473 838.392 266.907H181.047C163.755 293.473 149.592 322.266 139.082 352.761H880.357ZM509.719 88.4668C607.051 88.4668 696.097 123.968 764.632 182.737H254.807C323.341 123.968 412.387 88.4668 509.719 88.4668Z" fill="black"/>
    </g>
    <mask id="mask1_197_361" style="mask-type:alpha" maskUnits="userSpaceOnUse" x="132" y="0" width="629" height="778">
        <path d="M760.909 0.930481L760.909 777.676L132.899 50.5911L760.909 0.930481Z" fill="#C4C4C4"/>
    </mask>
    <g mask="url(#mask1_197_361)">
        <path fill-rule="evenodd" clip-rule="evenodd" d="M894.957 480.703C894.957 494.92 894.201 508.961 892.727 522.787H113.263C111.789 508.961 111.033 494.92 111.033 480.703C111.033 465.907 111.852 451.303 113.446 436.933H892.544C894.139 451.303 894.957 465.907 894.957 480.703ZM173.231 692.81C156.118 666.223 142.129 637.433 131.781 606.958H874.209C863.862 637.433 849.872 666.223 832.759 692.81H173.231ZM246.129 776.981C314.921 836.756 404.736 872.937 502.995 872.937C601.254 872.937 691.069 836.756 759.861 776.981H246.129ZM873.632 352.763C863.122 322.267 848.96 293.475 831.668 266.909H174.323C157.031 293.475 142.868 322.267 132.358 352.763H873.632ZM502.995 88.4684C600.327 88.4684 689.373 123.97 757.907 182.738H248.083C316.617 123.97 405.663 88.4684 502.995 88.4684Z" fill="black"/>
    </g>
    <mask id="mask2_197_361" style="mask-type:alpha" maskUnits="userSpaceOnUse" x="750" y="125" width="290" height="655">
        <path d="M750.284 125.504V779.868H1039.18V277.856L750.284 125.504Z" fill="#C4C4C4"/>
    </mask>
    <g mask="url(#mask2_197_361)">
        <path fill-rule="evenodd" clip-rule="evenodd" d="M884.861 457.137C884.861 471.354 884.105 485.396 882.631 499.222H103.167C101.693 485.396 100.937 471.354 100.937 457.137C100.937 442.341 101.756 427.738 103.35 413.368H882.448C884.043 427.738 884.861 442.341 884.861 457.137ZM163.136 669.247C146.023 642.659 132.033 613.868 121.686 583.392H864.113C853.765 613.868 839.775 642.659 822.662 669.247H163.136ZM236.036 753.417C304.827 813.191 394.641 849.371 492.899 849.371C591.158 849.371 680.971 813.191 749.763 753.417H236.036ZM863.537 329.197C853.027 298.702 838.864 269.909 821.572 243.343L164.227 243.343C146.935 269.909 132.772 298.702 122.262 329.197H863.537ZM492.899 64.9023C590.231 64.9023 679.277 100.404 747.811 159.172H237.987C306.521 100.404 395.567 64.9023 492.899 64.9023Z" fill="black"/>
    </g>
    <mask id="mask3_197_361" style="mask-type:alpha" maskUnits="userSpaceOnUse" x="252" y="159" width="607" height="729">
        <path d="M252.338 887.098L254.02 159.171L858.786 859.469L252.338 887.098Z" fill="#C4C4C4"/>
    </mask>
    <g mask="url(#mask3_197_361)">
        <path fill-rule="evenodd" clip-rule="evenodd" d="M901.681 457.135C901.681 471.353 900.925 485.394 899.452 499.22H119.987C118.513 485.394 117.757 471.353 117.757 457.135C117.757 442.34 118.576 427.736 120.17 413.366H899.268C900.863 427.736 901.681 442.34 901.681 457.135ZM179.957 669.245C162.843 642.657 148.853 613.866 138.506 583.391H880.933C870.585 613.866 856.595 642.657 839.482 669.245H179.957ZM252.856 753.415C321.647 813.189 411.461 849.37 509.719 849.37C607.977 849.37 697.791 813.189 766.583 753.415H252.856ZM880.357 329.196C869.847 298.7 855.684 269.907 838.392 243.341L181.047 243.341C163.755 269.907 149.592 298.7 139.082 329.196H880.357ZM509.719 64.9008C607.051 64.9008 696.097 100.402 764.631 159.171H254.807C323.341 100.402 412.387 64.9008 509.719 64.9008Z" fill="black"/>
    </g>
    <path d="M1090.65 1086.86V933.376H1146.42C1168.88 933.376 1185.82 940.317 1197.26 954.198C1208.7 968.08 1214.42 986.898 1214.42 1010.65C1214.42 1034.27 1208.49 1052.87 1196.62 1066.47C1184.75 1080.06 1167.52 1086.86 1144.92 1086.86H1090.65ZM1109.96 1069.9H1144.28C1177.89 1069.9 1194.69 1050.15 1194.69 1010.65C1194.69 970.298 1178.39 950.12 1145.78 950.12H1109.96V1069.9Z" fill="black"/>
    <path d="M1267.75 1086.86V933.376H1287.06V1086.86H1267.75Z" fill="black"/>
    <path d="M1466.29 1086.86L1460.71 1066.68H1460.28C1449.13 1082.28 1433.18 1090.08 1412.45 1090.08C1390.99 1090.08 1373.62 1082.71 1360.32 1067.97C1347.02 1053.23 1340.37 1034.12 1340.37 1010.65C1340.37 987.184 1346.81 967.936 1359.68 952.91C1372.69 937.741 1390.85 930.156 1414.16 930.156C1431.61 930.156 1445.7 934.592 1456.42 943.465C1467.29 952.195 1474.01 964.216 1476.58 979.528H1456.64C1454.49 969.081 1449.77 961.067 1442.48 955.486C1435.18 949.762 1425.6 946.9 1413.73 946.9C1396 946.9 1382.63 952.767 1373.62 964.502C1364.61 976.237 1360.11 991.621 1360.11 1010.65C1360.11 1029.4 1365.04 1044.57 1374.91 1056.16C1384.77 1067.61 1397.5 1073.33 1413.09 1073.33C1428.11 1073.33 1439.55 1068.9 1447.41 1060.03C1455.42 1051.15 1459.42 1039.85 1459.42 1026.11V1022.46H1413.3V1005.72H1478.73V1086.86H1466.29Z" fill="black"/>
    <path d="M1535.83 1086.86V933.376H1555.14V1086.86H1535.83Z" fill="black"/>
    <path d="M1604.59 950.334V933.376H1726V950.334H1674.95V1086.86H1655.64V950.334H1604.59Z" fill="black"/>
    <path d="M1743.7 1086.86L1800.12 933.376H1821.78L1878.41 1086.86H1857.39L1841.09 1040.06H1779.95L1763.44 1086.86H1743.7ZM1803.76 972.874L1785.53 1024.39H1835.73L1818.14 972.874L1811.27 951.193H1810.84C1808.13 959.779 1805.77 967.006 1803.76 972.874Z" fill="black"/>
    <path d="M1925.06 1086.86V933.376H1944.36V1069.04H2024.8V1086.86H1925.06Z" fill="black"/>
    <path d="M2128.39 950.334V933.376H2249.8V950.334H2198.75V1086.86H2179.44V950.334H2128.39Z" fill="black"/>
    <path d="M2299 1086.86V933.376H2407.33V950.334H2318.31V998.847H2399.18V1015.16H2318.31V1069.04H2409.9V1086.86H2299Z" fill="black"/>
    <path d="M2525.4 1089.86C2503.81 1089.86 2486.43 1082.42 2473.28 1067.54C2460.12 1052.66 2453.54 1033.48 2453.54 1010.01C2453.54 986.826 2460.05 967.722 2473.06 952.696C2486.22 937.526 2503.95 929.942 2526.26 929.942C2543.71 929.942 2557.79 934.449 2568.52 943.465C2579.24 952.481 2585.68 964.287 2587.82 978.884H2568.95C2567.09 969.153 2562.37 961.353 2554.79 955.486C2547.35 949.619 2537.7 946.685 2525.83 946.685C2509.38 946.685 2496.51 952.624 2487.22 964.502C2477.92 976.237 2473.28 991.406 2473.28 1010.01C2473.28 1028.9 2478.07 1044.14 2487.65 1055.73C2497.37 1067.18 2510.17 1072.91 2526.04 1072.91C2539.77 1072.91 2550.36 1068.9 2557.79 1060.88C2565.37 1052.87 2569.66 1042.78 2570.66 1030.62H2589.75C2589.61 1038.2 2587.82 1046 2584.39 1054.02C2581.1 1061.89 2576.74 1068.47 2571.31 1073.76C2560.3 1084.5 2544.99 1089.86 2525.4 1089.86Z" fill="black"/>
    <path d="M2641.45 1086.86V933.376H2660.75V998.633H2742.7V933.376H2762V1086.86H2742.7V1014.3H2660.75V1086.86H2641.45Z" fill="black"/>
    <path d="M2820.84 1086.86V933.376H2841.22L2911.15 1040.06L2922.31 1059.81H2922.73V933.376H2940.75V1086.86H2921.02L2850.66 979.957L2839.29 960.853H2838.86V1086.86H2820.84Z" fill="black"/>
    <path d="M3123.38 1067.54C3109.79 1082.57 3091.63 1090.08 3068.89 1090.08C3046.16 1090.08 3027.92 1082.57 3014.19 1067.54C3000.61 1052.51 2993.81 1033.34 2993.81 1010.01C2993.81 986.683 3000.61 967.507 3014.19 952.481C3027.92 937.455 3046.16 929.942 3068.89 929.942C3091.63 929.942 3109.79 937.455 3123.38 952.481C3137.11 967.507 3143.97 986.683 3143.97 1010.01C3143.97 1033.34 3137.11 1052.51 3123.38 1067.54ZM3028.14 1055.52C3037.86 1067.25 3051.45 1073.12 3068.89 1073.12C3086.34 1073.12 3099.93 1067.25 3109.65 1055.52C3119.38 1043.78 3124.24 1028.61 3124.24 1010.01C3124.24 991.406 3119.38 976.237 3109.65 964.502C3099.93 952.624 3086.34 946.685 3068.89 946.685C3051.45 946.685 3037.86 952.624 3028.14 964.502C3018.41 976.237 3013.55 991.406 3013.55 1010.01C3013.55 1028.61 3018.41 1043.78 3028.14 1055.52Z" fill="black"/>
    <path d="M3197.02 1086.86V933.376H3216.32V1069.04H3296.76V1086.86H3197.02Z" fill="black"/>
    <path d="M3459.96 1067.54C3446.37 1082.57 3428.21 1090.08 3405.47 1090.08C3382.74 1090.08 3364.5 1082.57 3350.77 1067.54C3337.19 1052.51 3330.4 1033.34 3330.4 1010.01C3330.4 986.683 3337.19 967.507 3350.77 952.481C3364.5 937.455 3382.74 929.942 3405.47 929.942C3428.21 929.942 3446.37 937.455 3459.96 952.481C3473.69 967.507 3480.55 986.683 3480.55 1010.01C3480.55 1033.34 3473.69 1052.51 3459.96 1067.54ZM3364.72 1055.52C3374.44 1067.25 3388.03 1073.12 3405.47 1073.12C3422.92 1073.12 3436.51 1067.25 3446.23 1055.52C3455.96 1043.78 3460.82 1028.61 3460.82 1010.01C3460.82 991.406 3455.96 976.237 3446.23 964.502C3436.51 952.624 3422.92 946.685 3405.47 946.685C3388.03 946.685 3374.44 952.624 3364.72 964.502C3354.99 976.237 3350.13 991.406 3350.13 1010.01C3350.13 1028.61 3354.99 1043.78 3364.72 1055.52Z" fill="black"/>
    <path d="M3653.72 1086.86L3648.15 1066.68H3647.72C3636.56 1082.28 3620.62 1090.08 3599.88 1090.08C3578.43 1090.08 3561.05 1082.71 3547.75 1067.97C3534.45 1053.23 3527.8 1034.12 3527.8 1010.65C3527.8 987.184 3534.24 967.936 3547.11 952.91C3560.12 937.741 3578.29 930.156 3601.6 930.156C3619.04 930.156 3633.13 934.592 3643.85 943.465C3654.72 952.195 3661.45 964.216 3664.02 979.528H3644.07C3641.92 969.081 3637.21 961.067 3629.91 955.486C3622.62 949.762 3613.04 946.9 3601.17 946.9C3583.43 946.9 3570.06 952.767 3561.05 964.502C3552.04 976.237 3547.54 991.621 3547.54 1010.65C3547.54 1029.4 3552.47 1044.57 3562.34 1056.16C3572.21 1067.61 3584.94 1073.33 3600.52 1073.33C3615.54 1073.33 3626.98 1068.9 3634.85 1060.03C3642.85 1051.15 3646.86 1039.85 3646.86 1026.11V1022.46H3600.74V1005.72H3666.16V1086.86H3653.72Z" fill="black"/>
    <path d="M3757.58 1086.86V1021.82L3702.02 933.376H3723.47L3767.45 1006.36H3767.87L3812.49 933.376H3833.09L3776.88 1022.25V1086.86H3757.58Z" fill="black"/>
    <path d="M3999.55 1089.86C3978.96 1089.86 3963.09 1084.78 3951.93 1074.62C3940.92 1064.46 3934.99 1051.22 3934.13 1034.91H3953.01C3955.58 1061.24 3971.38 1074.41 4000.41 1074.41C4011.42 1074.41 4020.22 1071.98 4026.8 1067.11C4033.52 1062.1 4036.88 1054.95 4036.88 1045.64C4036.88 1041.49 4036.09 1037.84 4034.52 1034.7C4032.95 1031.55 4031.02 1028.97 4028.73 1026.97C4026.58 1024.96 4023.29 1023.1 4018.86 1021.39C4014.43 1019.67 4010.28 1018.31 4006.42 1017.31C4002.7 1016.31 3997.55 1015.09 3990.97 1013.66C3983.11 1011.94 3976.6 1010.22 3971.45 1008.51C3966.31 1006.65 3961.16 1004.14 3956.01 1000.99C3950.86 997.846 3947 993.839 3944.43 988.973C3941.99 983.964 3940.78 977.954 3940.78 970.942C3940.78 958.348 3945.5 948.474 3954.94 941.319C3964.52 934.02 3977.17 930.371 3992.9 930.371C4027.37 930.371 4046.75 946.327 4051.04 978.24H4032.8C4031.37 967.364 4027.3 959.207 4020.58 953.769C4013.86 948.188 4004.77 945.397 3993.33 945.397C3982.75 945.397 3974.31 947.544 3968.02 951.837C3961.87 956.13 3958.8 962.212 3958.8 970.083C3958.8 973.518 3959.44 976.594 3960.73 979.313C3962.16 981.889 3963.95 984.107 3966.09 985.968C3968.38 987.685 3971.31 989.259 3974.89 990.69C3978.6 992.121 3982.25 993.338 3985.83 994.34C3989.4 995.198 3993.76 996.128 3998.91 997.13C4006.06 998.561 4011.92 999.921 4016.5 1001.21C4021.08 1002.35 4026.15 1004.14 4031.73 1006.58C4037.31 1009.01 4041.6 1011.8 4044.6 1014.95C4047.75 1018.1 4050.39 1022.25 4052.54 1027.4C4054.83 1032.41 4055.97 1038.27 4055.97 1045C4055.97 1059.02 4050.75 1070.04 4040.31 1078.06C4030.02 1085.93 4016.43 1089.86 3999.55 1089.86Z" fill="black"/>
    <path d="M4108.09 1086.86V933.376H4216.42V950.334H4127.4V998.847H4208.27V1015.16H4127.4V1069.04H4218.99V1086.86H4108.09Z" fill="black"/>
    <path d="M4271.56 1086.86V933.376H4343.21C4356.65 933.376 4367.52 937.24 4375.82 944.968C4384.25 952.696 4388.47 962.856 4388.47 975.45C4388.47 995.055 4379.61 1007.72 4361.87 1013.44V1014.09C4369.45 1016.81 4374.82 1021.1 4377.96 1026.97C4381.25 1032.69 4383.25 1041.42 4383.97 1053.16C4385.4 1072.76 4387.76 1083.71 4391.05 1086V1086.86H4370.24C4368.67 1085.57 4367.52 1082.85 4366.81 1078.7C4366.24 1074.55 4365.52 1065.82 4364.66 1052.51C4363.95 1041.35 4361.16 1033.48 4356.3 1028.9C4351.58 1024.32 4344 1022.03 4333.56 1022.03H4290.87V1086.86H4271.56ZM4290.87 950.12V1006.36H4336.35C4346.93 1006.36 4354.94 1003.93 4360.37 999.062C4365.81 994.053 4368.52 987.113 4368.52 978.24C4368.52 968.652 4366.09 961.568 4361.23 956.989C4356.37 952.409 4348.43 950.12 4337.42 950.12H4290.87Z" fill="black"/>
    <path d="M4483.14 1086.86L4429.72 933.376H4450.53L4488.28 1047.58L4494.29 1068.18H4494.72C4497.15 1059.02 4499.15 1052.15 4500.73 1047.58L4538.05 933.376H4558.22L4504.37 1086.86H4483.14Z" fill="black"/>
    <path d="M4605.22 1086.86V933.376H4624.53V1086.86H4605.22Z" fill="black"/>
    <path d="M4749.7 1089.86C4728.11 1089.86 4710.74 1082.42 4697.58 1067.54C4684.42 1052.66 4677.84 1033.48 4677.84 1010.01C4677.84 986.826 4684.35 967.722 4697.36 952.696C4710.52 937.526 4728.25 929.942 4750.56 929.942C4768.01 929.942 4782.1 934.449 4792.82 943.465C4803.55 952.481 4809.98 964.287 4812.13 978.884H4793.25C4791.39 969.153 4786.67 961.353 4779.09 955.486C4771.66 949.619 4762 946.685 4750.13 946.685C4733.69 946.685 4720.82 952.624 4711.52 964.502C4702.23 976.237 4697.58 991.406 4697.58 1010.01C4697.58 1028.9 4702.37 1044.14 4711.95 1055.73C4721.68 1067.18 4734.47 1072.91 4750.35 1072.91C4764.08 1072.91 4774.66 1068.9 4782.1 1060.88C4789.68 1052.87 4793.97 1042.78 4794.97 1030.62H4814.06C4813.92 1038.2 4812.13 1046 4808.7 1054.02C4805.41 1061.89 4801.04 1068.47 4795.61 1073.76C4784.6 1084.5 4769.3 1089.86 4749.7 1089.86Z" fill="black"/>
    <path d="M4865.75 1086.86V933.376H4974.08V950.334H4885.06V998.847H4965.93V1015.16H4885.06V1069.04H4976.65V1086.86H4865.75Z" fill="black"/>
    <path d="M5082.9 1089.86C5062.31 1089.86 5046.44 1084.78 5035.28 1074.62C5024.27 1064.46 5018.33 1051.22 5017.48 1034.91H5036.35C5038.93 1061.24 5054.73 1074.41 5083.76 1074.41C5094.77 1074.41 5103.57 1071.98 5110.15 1067.11C5116.87 1062.1 5120.23 1054.95 5120.23 1045.64C5120.23 1041.49 5119.44 1037.84 5117.87 1034.7C5116.29 1031.55 5114.36 1028.97 5112.08 1026.97C5109.93 1024.96 5106.64 1023.1 5102.21 1021.39C5097.78 1019.67 5093.63 1018.31 5089.77 1017.31C5086.05 1016.31 5080.9 1015.09 5074.32 1013.66C5066.46 1011.94 5059.95 1010.22 5054.8 1008.51C5049.65 1006.65 5044.5 1004.14 5039.36 1000.99C5034.21 997.846 5030.35 993.839 5027.77 988.973C5025.34 983.964 5024.13 977.954 5024.13 970.942C5024.13 958.348 5028.85 948.474 5038.28 941.319C5047.87 934.02 5060.52 930.371 5076.25 930.371C5110.72 930.371 5130.09 946.327 5134.39 978.24H5116.15C5114.72 967.364 5110.65 959.207 5103.92 953.769C5097.2 948.188 5088.12 945.397 5076.68 945.397C5066.1 945.397 5057.66 947.544 5051.37 951.837C5045.22 956.13 5042.15 962.212 5042.15 970.083C5042.15 973.518 5042.79 976.594 5044.08 979.313C5045.51 981.889 5047.29 984.107 5049.44 985.968C5051.73 987.685 5054.66 989.259 5058.23 990.69C5061.95 992.121 5065.6 993.338 5069.17 994.34C5072.75 995.198 5077.11 996.128 5082.26 997.13C5089.41 998.561 5095.27 999.921 5099.85 1001.21C5104.43 1002.35 5109.5 1004.14 5115.08 1006.58C5120.66 1009.01 5124.95 1011.8 5127.95 1014.95C5131.1 1018.1 5133.74 1022.25 5135.89 1027.4C5138.17 1032.41 5139.32 1038.27 5139.32 1045C5139.32 1059.02 5134.1 1070.04 5123.66 1078.06C5113.36 1085.93 5099.78 1089.86 5082.9 1089.86Z" fill="black"/>
</svg>
