<svg width="6000" height="1913" viewBox="2765 400 450 1630" fill="none" xmlns="http://www.w3.org/2000/svg">
<rect width="6000" height="1913" fill=""/>
<path d="M1427.83 1113.13V481.515H1557.78L1768.19 833.981C1774.08 843.993 1780.57 856.36 1787.64 871.083C1795.3 885.806 1801.2 898.173 1805.32 908.185L1812.39 922.319H1814.16C1811.8 878.739 1810.63 842.226 1810.63 812.78V481.515H1937.05V1113.13H1813.28L1597.57 764.195C1591.67 754.183 1584.89 742.11 1577.23 727.976C1569.57 713.253 1563.68 700.886 1559.55 690.875L1552.48 676.741H1550.71C1553.07 720.909 1554.25 757.716 1554.25 787.162V1113.13H1427.83Z" fill="#F9F9FA"/>
<path d="M2409.62 1058.36C2365.42 1103.7 2308.54 1126.38 2239 1126.38C2169.45 1126.38 2112.57 1103.7 2068.37 1058.36C2024.17 1012.42 2002.07 955.298 2002.07 886.984C2002.07 818.669 2024.17 761.839 2068.37 716.492C2112.57 670.557 2169.45 647.589 2239 647.589C2308.54 647.589 2365.42 670.557 2409.62 716.492C2453.82 761.839 2475.92 818.669 2475.92 886.984C2475.92 955.298 2453.82 1012.42 2409.62 1058.36ZM2239 1034.51C2274.95 1034.51 2302.94 1021.26 2322.98 994.755C2343.61 967.665 2353.92 931.741 2353.92 886.984C2353.92 842.226 2343.61 806.302 2322.98 779.212C2302.94 752.122 2274.95 738.577 2239 738.577C2202.45 738.577 2174.16 752.122 2154.13 779.212C2134.09 805.713 2124.07 841.637 2124.07 886.984C2124.07 931.741 2134.09 967.665 2154.13 994.755C2174.16 1021.26 2202.45 1034.51 2239 1034.51Z" fill="#F9F9FA"/>
<path d="M2647.63 659.956V732.393H2650.28C2664.42 705.892 2680.04 686.458 2697.13 674.09C2714.22 661.134 2735.74 654.656 2761.67 654.656C2774.05 654.656 2783.48 655.834 2789.96 658.19V763.311H2787.31C2746.64 759.189 2713.93 768.023 2689.18 789.812C2664.42 811.602 2652.05 845.759 2652.05 892.284V1113.13H2531.81V659.956H2647.63Z" fill="#F9F9FA"/>
<path d="M3025.64 1126.38C2960.81 1126.38 2910.12 1112.24 2873.58 1083.98C2837.04 1055.12 2817 1015.96 2813.46 966.487H2924.86C2932.52 1016.55 2965.52 1041.57 3023.87 1041.57C3050.39 1041.57 3070.73 1036.86 3084.87 1027.44C3099.6 1018.02 3106.97 1005.36 3106.97 989.455C3106.97 983.566 3105.79 978.266 3103.44 973.554C3101.67 968.843 3098.13 964.721 3092.83 961.187C3088.11 957.065 3083.69 953.826 3079.57 951.47C3076.03 949.114 3069.55 946.759 3060.12 944.403C3050.69 942.047 3043.32 940.281 3038.01 939.103C3033.3 937.925 3024.75 936.453 3012.38 934.686C3000.59 932.33 2992.34 930.563 2987.62 929.386C2962.87 924.674 2942.54 919.963 2926.62 915.252C2911.3 909.951 2895.09 902.59 2878 893.167C2860.91 883.156 2847.94 869.905 2839.1 853.415C2830.85 836.337 2826.72 816.019 2826.72 792.463C2826.72 745.349 2843.82 709.425 2878 684.691C2912.77 659.956 2957.27 647.589 3011.49 647.589C3069.84 647.589 3115.52 661.134 3148.52 688.224C3182.12 714.726 3201.27 751.238 3205.99 797.763H3097.25C3092.53 753.594 3063.36 731.51 3009.72 731.51C2985.56 731.51 2966.41 735.927 2952.26 744.76C2938.71 753.594 2931.93 765.961 2931.93 781.862C2931.93 787.162 2932.81 792.168 2934.58 796.879C2936.94 801.002 2940.47 804.83 2945.19 808.363C2950.49 811.308 2955.5 813.958 2960.22 816.314C2964.93 818.08 2971.71 820.142 2980.55 822.497C2989.39 824.264 2997.05 826.031 3003.54 827.798C3010.02 828.975 3018.86 830.742 3030.06 833.098C3041.26 834.865 3050.1 836.337 3056.58 837.515C3075.44 841.637 3090.76 845.465 3102.55 848.999C3114.93 851.943 3129.07 857.243 3144.99 864.899C3160.9 871.966 3173.28 880.211 3182.12 889.634C3191.55 898.467 3199.5 910.835 3205.99 926.735C3213.06 942.047 3216.6 960.009 3216.6 980.621C3216.6 1025.38 3198.91 1061.01 3163.55 1087.51C3128.78 1113.42 3082.81 1126.38 3025.64 1126.38Z" fill="#F9F9FA"/>
<path d="M3569.65 1113.13L3442.34 906.418L3390.18 960.304V1113.13H3270.83V481.515H3390.18V831.331L3551.08 659.956H3695.18L3528.1 832.214L3715.52 1113.13H3569.65Z" fill="#F9F9FA"/>
<path d="M3871.02 659.957V721.793H3873.68C3904.91 672.324 3949.71 647.589 4008.05 647.589C4054.61 647.589 4092.33 663.49 4121.21 695.292C4150.09 726.504 4164.53 767.139 4164.53 817.197V1113.13H4044.3V834.865C4044.3 810.13 4037.23 790.107 4023.08 774.795C4009.53 759.484 3990.37 751.828 3965.62 751.828C3939.1 751.828 3916.99 761.545 3899.31 780.979C3882.22 800.413 3873.68 825.442 3873.68 856.066V1113.13H3753.44V659.957H3871.02Z" fill="#F9F9FA"/>
<path d="M4451.7 1126.38C4378.62 1126.38 4321.15 1104 4279.31 1059.24C4237.46 1013.9 4216.54 956.182 4216.54 886.101C4216.54 818.375 4237.46 761.839 4279.31 716.493C4321.15 670.557 4374.79 647.589 4440.21 647.589C4511.52 647.589 4566.63 672.324 4605.53 721.793C4644.43 771.262 4663.88 837.515 4663.88 920.552H4335C4339.72 956.476 4351.8 984.45 4371.25 1004.47C4390.7 1023.91 4417.22 1033.62 4450.82 1033.62C4495.02 1033.62 4524.19 1015.07 4538.34 977.972H4656.8C4647.96 1020.37 4625.57 1055.71 4589.61 1083.98C4553.66 1112.24 4507.69 1126.38 4451.7 1126.38ZM4441.98 740.344C4383.63 740.344 4348.56 772.734 4336.77 837.515H4538.34C4536.57 808.658 4526.85 785.396 4509.16 767.728C4491.48 749.472 4469.09 740.344 4441.98 740.344Z" fill="#F9F9FA"/>
<path d="M4903.41 1126.38C4838.58 1126.38 4787.89 1112.24 4751.35 1083.98C4714.81 1055.12 4694.77 1015.96 4691.23 966.488H4802.63C4810.29 1016.55 4843.29 1041.57 4901.64 1041.57C4928.16 1041.57 4948.5 1036.86 4962.64 1027.44C4977.37 1018.02 4984.74 1005.36 4984.74 989.455C4984.74 983.566 4983.56 978.266 4981.21 973.555C4979.44 968.843 4975.9 964.721 4970.6 961.187C4965.88 957.065 4961.46 953.826 4957.34 951.47C4953.8 949.115 4947.32 946.759 4937.89 944.403C4928.46 942.048 4921.09 940.281 4915.79 939.103C4911.07 937.925 4902.52 936.453 4890.15 934.686C4878.36 932.33 4870.11 930.564 4865.39 929.386C4840.64 924.675 4820.31 919.963 4804.39 915.252C4789.07 909.952 4772.86 902.59 4755.77 893.168C4738.68 883.156 4725.71 869.905 4716.87 853.416C4708.62 836.337 4704.49 816.02 4704.49 792.463C4704.49 745.35 4721.59 709.426 4755.77 684.691C4790.54 659.957 4835.04 647.589 4889.26 647.589C4947.61 647.589 4993.29 661.135 5026.29 688.225C5059.89 714.726 5079.04 751.239 5083.76 797.763H4975.02C4970.3 753.594 4941.13 731.51 4887.5 731.51C4863.33 731.51 4844.18 735.927 4830.03 744.761C4816.48 753.594 4809.7 765.962 4809.7 781.862C4809.7 787.163 4810.58 792.168 4812.35 796.88C4814.71 801.002 4818.24 804.83 4822.96 808.364C4828.26 811.308 4833.27 813.958 4837.99 816.314C4842.7 818.081 4849.48 820.142 4858.32 822.498C4867.16 824.264 4874.82 826.031 4881.31 827.798C4887.79 828.976 4896.63 830.742 4907.83 833.098C4919.03 834.865 4927.87 836.337 4934.35 837.515C4953.21 841.637 4968.53 845.465 4980.32 848.999C4992.7 851.943 5006.84 857.244 5022.76 864.9C5038.67 871.967 5051.05 880.211 5059.89 889.634C5069.32 898.468 5077.27 910.835 5083.76 926.736C5090.83 942.048 5094.37 960.01 5094.37 980.622C5094.37 1025.38 5076.68 1061.01 5041.32 1087.51C5006.55 1113.42 4960.58 1126.38 4903.41 1126.38Z" fill="#F9F9FA"/>
<path d="M5332.49 1126.38C5267.66 1126.38 5216.97 1112.24 5180.43 1083.98C5143.89 1055.12 5123.85 1015.96 5120.31 966.488H5231.71C5239.37 1016.55 5272.37 1041.57 5330.72 1041.57C5357.24 1041.57 5377.58 1036.86 5391.72 1027.44C5406.46 1018.02 5413.82 1005.36 5413.82 989.455C5413.82 983.566 5412.64 978.266 5410.29 973.555C5408.52 968.843 5404.98 964.721 5399.68 961.187C5394.96 957.065 5390.54 953.826 5386.42 951.47C5382.88 949.115 5376.4 946.759 5366.97 944.403C5357.54 942.048 5350.17 940.281 5344.87 939.103C5340.15 937.925 5331.61 936.453 5319.23 934.686C5307.44 932.33 5299.19 930.564 5294.47 929.386C5269.72 924.675 5249.39 919.963 5233.47 915.252C5218.15 909.952 5201.94 902.59 5184.85 893.168C5167.76 883.156 5154.79 869.905 5145.95 853.416C5137.7 836.337 5133.58 816.02 5133.58 792.463C5133.58 745.35 5150.67 709.426 5184.85 684.691C5219.62 659.957 5264.12 647.589 5318.34 647.589C5376.69 647.589 5422.37 661.135 5455.37 688.225C5488.97 714.726 5508.12 751.239 5512.84 797.763H5404.1C5399.38 753.594 5370.21 731.51 5316.58 731.51C5292.41 731.51 5273.26 735.927 5259.11 744.761C5245.56 753.594 5238.78 765.962 5238.78 781.862C5238.78 787.163 5239.66 792.168 5241.43 796.88C5243.79 801.002 5247.32 804.83 5252.04 808.364C5257.34 811.308 5262.35 813.958 5267.07 816.314C5271.78 818.081 5278.56 820.142 5287.4 822.498C5296.24 824.264 5303.9 826.031 5310.39 827.798C5316.87 828.976 5325.71 830.742 5336.91 833.098C5348.11 834.865 5356.95 836.337 5363.43 837.515C5382.29 841.637 5397.62 845.465 5409.4 848.999C5421.78 851.943 5435.92 857.244 5451.84 864.9C5467.75 871.967 5480.13 880.211 5488.97 889.634C5498.4 898.468 5506.35 910.835 5512.84 926.736C5519.91 942.048 5523.45 960.01 5523.45 980.622C5523.45 1025.38 5505.77 1061.01 5470.4 1087.51C5435.63 1113.42 5389.66 1126.38 5332.49 1126.38Z" fill="#F9F9FA"/>
<mask id="mask0_198_496" style="mask-type:alpha" maskUnits="userSpaceOnUse" x="347" y="500" width="254" height="644">
<path d="M600.955 500.854V1143.08L415.015 1055.32L347.003 772.466L453.7 520.211L600.955 500.854Z" fill="#C4C4C4"/>
</mask>
<g mask="url(#mask0_198_496)">
<path fill-rule="evenodd" clip-rule="evenodd" d="M1248.68 820.701C1248.68 834.919 1247.93 848.96 1246.45 862.786H466.987C465.513 848.96 464.757 834.919 464.757 820.701C464.757 805.906 465.575 791.302 467.17 776.932H1246.27C1247.86 791.302 1248.68 805.906 1248.68 820.701ZM526.955 1032.81C509.842 1006.22 495.852 977.431 485.505 946.956H1227.93C1217.59 977.431 1203.6 1006.22 1186.48 1032.81H526.955ZM599.853 1116.98C668.645 1176.75 758.459 1212.94 856.719 1212.94C954.978 1212.94 1044.79 1176.75 1113.59 1116.98H599.853ZM1227.36 692.761C1216.85 662.266 1202.68 633.473 1185.39 606.907H528.046C510.754 633.473 496.592 662.266 486.082 692.761H1227.36ZM856.719 428.467C954.051 428.467 1043.1 463.968 1111.63 522.737H601.807C670.341 463.968 759.387 428.467 856.719 428.467Z" fill="#F9F9FA"/>
</g>
<mask id="mask1_198_496" style="mask-type:alpha" maskUnits="userSpaceOnUse" x="479" y="340" width="629" height="778">
<path d="M1107.91 340.93L1107.91 1117.68L479.898 390.591L1107.91 340.93Z" fill="#C4C4C4"/>
</mask>
<g mask="url(#mask1_198_496)">
<path fill-rule="evenodd" clip-rule="evenodd" d="M1241.96 820.703C1241.96 834.92 1241.2 848.961 1239.73 862.787H460.262C458.788 848.961 458.032 834.92 458.032 820.703C458.032 805.907 458.851 791.303 460.445 776.933H1239.54C1241.14 791.303 1241.96 805.907 1241.96 820.703ZM520.23 1032.81C503.117 1006.22 489.128 977.433 478.781 946.958H1221.21C1210.86 977.433 1196.87 1006.22 1179.76 1032.81H520.23ZM593.128 1116.98C661.92 1176.76 751.735 1212.94 849.994 1212.94C948.254 1212.94 1038.07 1176.76 1106.86 1116.98H593.128ZM1220.63 692.763C1210.12 662.267 1195.96 633.475 1178.67 606.909H521.322C504.03 633.475 489.867 662.267 479.357 692.763H1220.63ZM849.994 428.468C947.326 428.468 1036.37 463.97 1104.91 522.738H595.082C663.617 463.97 752.662 428.468 849.994 428.468Z" fill="#F9F9FA"/>
</g>
<mask id="mask2_198_496" style="mask-type:alpha" maskUnits="userSpaceOnUse" x="1097" y="465" width="290" height="655">
<path d="M1097.28 465.504V1119.87H1386.18V617.856L1097.28 465.504Z" fill="#C4C4C4"/>
</mask>
<g mask="url(#mask2_198_496)">
<path fill-rule="evenodd" clip-rule="evenodd" d="M1231.86 797.137C1231.86 811.354 1231.1 825.396 1229.63 839.222H450.166C448.692 825.396 447.937 811.354 447.937 797.137C447.937 782.341 448.755 767.738 450.349 753.368H1229.45C1231.04 767.738 1231.86 782.341 1231.86 797.137ZM510.136 1009.25C493.023 982.659 479.033 953.868 468.685 923.392H1211.11C1200.76 953.868 1186.77 982.659 1169.66 1009.25H510.136ZM583.035 1093.42C651.826 1153.19 741.64 1189.37 839.899 1189.37C938.157 1189.37 1027.97 1153.19 1096.76 1093.42H583.035ZM1210.54 669.197C1200.03 638.702 1185.86 609.909 1168.57 583.343H511.226C493.934 609.909 479.771 638.702 469.261 669.197H1210.54ZM839.899 404.902C937.231 404.902 1026.28 440.404 1094.81 499.172L584.986 499.172C653.521 440.404 742.567 404.902 839.899 404.902Z" fill="#F9F9FA"/>
</g>
<mask id="mask3_198_496" style="mask-type:alpha" maskUnits="userSpaceOnUse" x="599" y="499" width="607" height="729">
<path d="M599.338 1227.1L601.02 499.171L1205.79 1199.47L599.338 1227.1Z" fill="#C4C4C4"/>
</mask>
<g mask="url(#mask3_198_496)">
<path fill-rule="evenodd" clip-rule="evenodd" d="M1248.68 797.135C1248.68 811.353 1247.92 825.394 1246.45 839.22H466.987C465.513 825.394 464.757 811.353 464.757 797.135C464.757 782.34 465.575 767.736 467.17 753.366H1246.27C1247.86 767.736 1248.68 782.34 1248.68 797.135ZM526.956 1009.24C509.843 982.657 495.853 953.866 485.505 923.391H1227.93C1217.58 953.866 1203.59 982.657 1186.48 1009.24H526.956ZM599.855 1093.42C668.647 1153.19 758.461 1189.37 856.719 1189.37C954.977 1189.37 1044.79 1153.19 1113.58 1093.42H599.855ZM1227.36 669.196C1216.85 638.7 1202.68 609.907 1185.39 583.341H528.046C510.754 609.907 496.592 638.7 486.081 669.196H1227.36ZM856.719 404.901C954.051 404.901 1043.1 440.402 1111.63 499.171L601.807 499.171C670.341 440.402 759.387 404.901 856.719 404.901Z" fill="#F9F9FA"/>
</g>
<path d="M1437.65 1426.86V1273.38H1493.42C1515.88 1273.38 1532.82 1280.32 1544.26 1294.2C1555.7 1308.08 1561.42 1326.9 1561.42 1350.65C1561.42 1374.27 1555.49 1392.87 1543.62 1406.47C1531.75 1420.06 1514.52 1426.86 1491.92 1426.86H1437.65ZM1456.96 1409.9H1491.28C1524.88 1409.9 1541.69 1390.15 1541.69 1350.65C1541.69 1310.3 1525.39 1290.12 1492.78 1290.12H1456.96V1409.9Z" fill="#F9F9FA"/>
<path d="M1614.75 1426.86V1273.38H1634.06V1426.86H1614.75Z" fill="#F9F9FA"/>
<path d="M1813.29 1426.86L1807.71 1406.68H1807.28C1796.13 1422.28 1780.18 1430.08 1759.45 1430.08C1737.99 1430.08 1720.62 1422.71 1707.32 1407.97C1694.02 1393.23 1687.37 1374.12 1687.37 1350.65C1687.37 1327.18 1693.81 1307.94 1706.68 1292.91C1719.69 1277.74 1737.85 1270.16 1761.16 1270.16C1778.61 1270.16 1792.69 1274.59 1803.42 1283.47C1814.29 1292.19 1821.01 1304.22 1823.58 1319.53H1803.63C1801.49 1309.08 1796.77 1301.07 1789.48 1295.49C1782.18 1289.76 1772.6 1286.9 1760.73 1286.9C1743 1286.9 1729.63 1292.77 1720.62 1304.5C1711.61 1316.24 1707.1 1331.62 1707.1 1350.65C1707.1 1369.4 1712.04 1384.57 1721.91 1396.16C1731.77 1407.61 1744.5 1413.33 1760.09 1413.33C1775.1 1413.33 1786.55 1408.9 1794.41 1400.03C1802.42 1391.15 1806.42 1379.85 1806.42 1366.11V1362.46H1760.3V1345.72H1825.73V1426.86H1813.29Z" fill="#F9F9FA"/>
<path d="M1882.83 1426.86V1273.38H1902.14V1426.86H1882.83Z" fill="#F9F9FA"/>
<path d="M1951.59 1290.33V1273.38H2073V1290.33H2021.95V1426.86H2002.64V1290.33H1951.59Z" fill="#F9F9FA"/>
<path d="M2090.7 1426.86L2147.12 1273.38H2168.78L2225.41 1426.86H2204.39L2188.09 1380.06H2126.95L2110.44 1426.86H2090.7ZM2150.76 1312.87L2132.53 1364.39H2182.73L2165.14 1312.87L2158.27 1291.19H2157.84C2155.13 1299.78 2152.77 1307.01 2150.76 1312.87Z" fill="#F9F9FA"/>
<path d="M2272.06 1426.86V1273.38H2291.36V1409.04H2371.8V1426.86H2272.06Z" fill="#F9F9FA"/>
<path d="M2475.39 1290.33V1273.38H2596.8V1290.33H2545.75V1426.86H2526.44V1290.33H2475.39Z" fill="#F9F9FA"/>
<path d="M2646 1426.86V1273.38H2754.33V1290.33H2665.31V1338.85H2746.18V1355.16H2665.31V1409.04H2756.9V1426.86H2646Z" fill="#F9F9FA"/>
<path d="M2872.4 1429.86C2850.81 1429.86 2833.43 1422.42 2820.27 1407.54C2807.12 1392.66 2800.54 1373.48 2800.54 1350.01C2800.54 1326.83 2807.05 1307.72 2820.06 1292.7C2833.22 1277.53 2850.95 1269.94 2873.26 1269.94C2890.71 1269.94 2904.79 1274.45 2915.52 1283.47C2926.24 1292.48 2932.68 1304.29 2934.82 1318.88H2915.95C2914.09 1309.15 2909.37 1301.35 2901.79 1295.49C2894.35 1289.62 2884.7 1286.69 2872.83 1286.69C2856.38 1286.69 2843.51 1292.62 2834.22 1304.5C2824.92 1316.24 2820.27 1331.41 2820.27 1350.01C2820.27 1368.9 2825.07 1384.14 2834.65 1395.73C2844.37 1407.18 2857.17 1412.91 2873.04 1412.91C2886.77 1412.91 2897.36 1408.9 2904.79 1400.88C2912.37 1392.87 2916.66 1382.78 2917.66 1370.62H2936.75C2936.61 1378.2 2934.82 1386 2931.39 1394.02C2928.1 1401.89 2923.74 1408.47 2918.31 1413.76C2907.29 1424.5 2891.99 1429.86 2872.4 1429.86Z" fill="#F9F9FA"/>
<path d="M2988.45 1426.86V1273.38H3007.75V1338.63H3089.7V1273.38H3109V1426.86H3089.7V1354.3H3007.75V1426.86H2988.45Z" fill="#F9F9FA"/>
<path d="M3167.84 1426.86V1273.38H3188.22L3258.15 1380.06L3269.3 1399.81H3269.73V1273.38H3287.75V1426.86H3268.02L3197.66 1319.96L3186.29 1300.85H3185.86V1426.86H3167.84Z" fill="#F9F9FA"/>
<path d="M3470.38 1407.54C3456.79 1422.57 3438.63 1430.08 3415.89 1430.08C3393.15 1430.08 3374.92 1422.57 3361.19 1407.54C3347.61 1392.51 3340.81 1373.34 3340.81 1350.01C3340.81 1326.68 3347.61 1307.51 3361.19 1292.48C3374.92 1277.45 3393.15 1269.94 3415.89 1269.94C3438.63 1269.94 3456.79 1277.45 3470.38 1292.48C3484.11 1307.51 3490.97 1326.68 3490.97 1350.01C3490.97 1373.34 3484.11 1392.51 3470.38 1407.54ZM3375.14 1395.52C3384.86 1407.25 3398.45 1413.12 3415.89 1413.12C3433.34 1413.12 3446.93 1407.25 3456.65 1395.52C3466.37 1383.78 3471.24 1368.61 3471.24 1350.01C3471.24 1331.41 3466.37 1316.24 3456.65 1304.5C3446.93 1292.62 3433.34 1286.69 3415.89 1286.69C3398.45 1286.69 3384.86 1292.62 3375.14 1304.5C3365.41 1316.24 3360.55 1331.41 3360.55 1350.01C3360.55 1368.61 3365.41 1383.78 3375.14 1395.52Z" fill="#F9F9FA"/>
<path d="M3544.01 1426.86V1273.38H3563.32V1409.04H3643.76V1426.86H3544.01Z" fill="#F9F9FA"/>
<path d="M3806.96 1407.54C3793.37 1422.57 3775.21 1430.08 3752.47 1430.08C3729.74 1430.08 3711.5 1422.57 3697.77 1407.54C3684.19 1392.51 3677.4 1373.34 3677.4 1350.01C3677.4 1326.68 3684.19 1307.51 3697.77 1292.48C3711.5 1277.45 3729.74 1269.94 3752.47 1269.94C3775.21 1269.94 3793.37 1277.45 3806.96 1292.48C3820.69 1307.51 3827.55 1326.68 3827.55 1350.01C3827.55 1373.34 3820.69 1392.51 3806.96 1407.54ZM3711.72 1395.52C3721.44 1407.25 3735.03 1413.12 3752.47 1413.12C3769.92 1413.12 3783.51 1407.25 3793.23 1395.52C3802.96 1383.78 3807.82 1368.61 3807.82 1350.01C3807.82 1331.41 3802.96 1316.24 3793.23 1304.5C3783.51 1292.62 3769.92 1286.69 3752.47 1286.69C3735.03 1286.69 3721.44 1292.62 3711.72 1304.5C3701.99 1316.24 3697.13 1331.41 3697.13 1350.01C3697.13 1368.61 3701.99 1383.78 3711.72 1395.52Z" fill="#F9F9FA"/>
<path d="M4000.72 1426.86L3995.14 1406.68H3994.72C3983.56 1422.28 3967.62 1430.08 3946.88 1430.08C3925.43 1430.08 3908.05 1422.71 3894.75 1407.97C3881.45 1393.23 3874.8 1374.12 3874.8 1350.65C3874.8 1327.18 3881.24 1307.94 3894.11 1292.91C3907.12 1277.74 3925.29 1270.16 3948.6 1270.16C3966.04 1270.16 3980.13 1274.59 3990.85 1283.47C4001.72 1292.19 4008.44 1304.22 4011.02 1319.53H3991.07C3988.92 1309.08 3984.2 1301.07 3976.91 1295.49C3969.62 1289.76 3960.04 1286.9 3948.17 1286.9C3930.43 1286.9 3917.06 1292.77 3908.05 1304.5C3899.04 1316.24 3894.54 1331.62 3894.54 1350.65C3894.54 1369.4 3899.47 1384.57 3909.34 1396.16C3919.21 1407.61 3931.94 1413.33 3947.52 1413.33C3962.54 1413.33 3973.98 1408.9 3981.85 1400.03C3989.85 1391.15 3993.86 1379.85 3993.86 1366.11V1362.46H3947.74V1345.72H4013.16V1426.86H4000.72Z" fill="#F9F9FA"/>
<path d="M4104.58 1426.86V1361.82L4049.02 1273.38H4070.47L4114.44 1346.36H4114.87L4159.49 1273.38H4180.09L4123.88 1362.25V1426.86H4104.58Z" fill="#F9F9FA"/>
<path d="M4346.55 1429.86C4325.96 1429.86 4310.09 1424.78 4298.93 1414.62C4287.92 1404.46 4281.99 1391.22 4281.13 1374.91H4300.01C4302.58 1401.24 4318.38 1414.41 4347.41 1414.41C4358.42 1414.41 4367.22 1411.98 4373.8 1407.11C4380.52 1402.1 4383.88 1394.95 4383.88 1385.64C4383.88 1381.49 4383.09 1377.84 4381.52 1374.7C4379.95 1371.55 4378.02 1368.97 4375.73 1366.97C4373.58 1364.96 4370.29 1363.1 4365.86 1361.39C4361.43 1359.67 4357.28 1358.31 4353.42 1357.31C4349.7 1356.31 4344.55 1355.09 4337.97 1353.66C4330.11 1351.94 4323.6 1350.22 4318.45 1348.51C4313.3 1346.65 4308.16 1344.14 4303.01 1340.99C4297.86 1337.85 4294 1333.84 4291.42 1328.97C4288.99 1323.96 4287.78 1317.95 4287.78 1310.94C4287.78 1298.35 4292.5 1288.47 4301.94 1281.32C4311.52 1274.02 4324.17 1270.37 4339.9 1270.37C4374.37 1270.37 4393.75 1286.33 4398.04 1318.24H4379.8C4378.37 1307.36 4374.3 1299.21 4367.58 1293.77C4360.85 1288.19 4351.77 1285.4 4340.33 1285.4C4329.75 1285.4 4321.31 1287.54 4315.02 1291.84C4308.87 1296.13 4305.8 1302.21 4305.8 1310.08C4305.8 1313.52 4306.44 1316.59 4307.73 1319.31C4309.16 1321.89 4310.95 1324.11 4313.09 1325.97C4315.38 1327.69 4318.31 1329.26 4321.89 1330.69C4325.6 1332.12 4329.25 1333.34 4332.83 1334.34C4336.4 1335.2 4340.76 1336.13 4345.91 1337.13C4353.06 1338.56 4358.92 1339.92 4363.5 1341.21C4368.08 1342.35 4373.15 1344.14 4378.73 1346.58C4384.31 1349.01 4388.6 1351.8 4391.6 1354.95C4394.75 1358.1 4397.39 1362.25 4399.54 1367.4C4401.83 1372.41 4402.97 1378.27 4402.97 1385C4402.97 1399.02 4397.75 1410.04 4387.31 1418.06C4377.01 1425.93 4363.43 1429.86 4346.55 1429.86Z" fill="#F9F9FA"/>
<path d="M4455.09 1426.86V1273.38H4563.42V1290.33H4474.4V1338.85H4555.27V1355.16H4474.4V1409.04H4565.99V1426.86H4455.09Z" fill="#F9F9FA"/>
<path d="M4618.56 1426.86V1273.38H4690.21C4703.65 1273.38 4714.52 1277.24 4722.82 1284.97C4731.25 1292.7 4735.47 1302.86 4735.47 1315.45C4735.47 1335.06 4726.61 1347.72 4708.87 1353.44V1354.09C4716.45 1356.81 4721.82 1361.1 4724.96 1366.97C4728.25 1372.69 4730.25 1381.42 4730.97 1393.16C4732.4 1412.76 4734.76 1423.71 4738.05 1426V1426.86H4717.24C4715.67 1425.57 4714.52 1422.85 4713.81 1418.7C4713.23 1414.55 4712.52 1405.82 4711.66 1392.51C4710.95 1381.35 4708.16 1373.48 4703.3 1368.9C4698.58 1364.32 4691 1362.03 4680.56 1362.03H4637.87V1426.86H4618.56ZM4637.87 1290.12V1346.36H4683.35C4693.93 1346.36 4701.94 1343.93 4707.37 1339.06C4712.81 1334.05 4715.52 1327.11 4715.52 1318.24C4715.52 1308.65 4713.09 1301.57 4708.23 1296.99C4703.37 1292.41 4695.43 1290.12 4684.42 1290.12H4637.87Z" fill="#F9F9FA"/>
<path d="M4830.14 1426.86L4776.72 1273.38H4797.53L4835.28 1387.58L4841.29 1408.18H4841.72C4844.15 1399.02 4846.15 1392.15 4847.73 1387.58L4885.05 1273.38H4905.21L4851.37 1426.86H4830.14Z" fill="#F9F9FA"/>
<path d="M4952.22 1426.86V1273.38H4971.53V1426.86H4952.22Z" fill="#F9F9FA"/>
<path d="M5096.7 1429.86C5075.11 1429.86 5057.73 1422.42 5044.58 1407.54C5031.42 1392.66 5024.84 1373.48 5024.84 1350.01C5024.84 1326.83 5031.35 1307.72 5044.36 1292.7C5057.52 1277.53 5075.25 1269.94 5097.56 1269.94C5115.01 1269.94 5129.1 1274.45 5139.82 1283.47C5150.55 1292.48 5156.98 1304.29 5159.13 1318.88H5140.25C5138.39 1309.15 5133.67 1301.35 5126.09 1295.49C5118.66 1289.62 5109 1286.69 5097.13 1286.69C5080.69 1286.69 5067.82 1292.62 5058.52 1304.5C5049.23 1316.24 5044.58 1331.41 5044.58 1350.01C5044.58 1368.9 5049.37 1384.14 5058.95 1395.73C5068.67 1407.18 5081.47 1412.91 5097.35 1412.91C5111.08 1412.91 5121.66 1408.9 5129.1 1400.88C5136.67 1392.87 5140.97 1382.78 5141.97 1370.62H5161.06C5160.91 1378.2 5159.13 1386 5155.69 1394.02C5152.41 1401.89 5148.04 1408.47 5142.61 1413.76C5131.6 1424.5 5116.3 1429.86 5096.7 1429.86Z" fill="#F9F9FA"/>
<path d="M5212.75 1426.86V1273.38H5321.08V1290.33H5232.06V1338.85H5312.93V1355.16H5232.06V1409.04H5323.65V1426.86H5212.75Z" fill="#F9F9FA"/>
<path d="M5429.9 1429.86C5409.31 1429.86 5393.44 1424.78 5382.28 1414.62C5371.27 1404.46 5365.33 1391.22 5364.48 1374.91H5383.35C5385.93 1401.24 5401.73 1414.41 5430.76 1414.41C5441.77 1414.41 5450.57 1411.98 5457.14 1407.11C5463.87 1402.1 5467.23 1394.95 5467.23 1385.64C5467.23 1381.49 5466.44 1377.84 5464.87 1374.7C5463.29 1371.55 5461.36 1368.97 5459.08 1366.97C5456.93 1364.96 5453.64 1363.1 5449.21 1361.39C5444.77 1359.67 5440.63 1358.31 5436.77 1357.31C5433.05 1356.31 5427.9 1355.09 5421.32 1353.66C5413.46 1351.94 5406.95 1350.22 5401.8 1348.51C5396.65 1346.65 5391.5 1344.14 5386.36 1340.99C5381.21 1337.85 5377.35 1333.84 5374.77 1328.97C5372.34 1323.96 5371.13 1317.95 5371.13 1310.94C5371.13 1298.35 5375.85 1288.47 5385.28 1281.32C5394.87 1274.02 5407.52 1270.37 5423.25 1270.37C5457.72 1270.37 5477.09 1286.33 5481.38 1318.24H5463.15C5461.72 1307.36 5457.65 1299.21 5450.92 1293.77C5444.2 1288.19 5435.12 1285.4 5423.68 1285.4C5413.1 1285.4 5404.66 1287.54 5398.37 1291.84C5392.22 1296.13 5389.14 1302.21 5389.14 1310.08C5389.14 1313.52 5389.79 1316.59 5391.08 1319.31C5392.51 1321.89 5394.29 1324.11 5396.44 1325.97C5398.73 1327.69 5401.66 1329.26 5405.23 1330.69C5408.95 1332.12 5412.6 1333.34 5416.17 1334.34C5419.75 1335.2 5424.11 1336.13 5429.26 1337.13C5436.41 1338.56 5442.27 1339.92 5446.85 1341.21C5451.42 1342.35 5456.5 1344.14 5462.08 1346.58C5467.66 1349.01 5471.95 1351.8 5474.95 1354.95C5478.1 1358.1 5480.74 1362.25 5482.89 1367.4C5485.17 1372.41 5486.32 1378.27 5486.32 1385C5486.32 1399.02 5481.1 1410.04 5470.66 1418.06C5460.36 1425.93 5446.78 1429.86 5429.9 1429.86Z" fill="#F9F9FA"/>
</svg>
