<svg width="354" height="358" viewBox="0 0 354 358" fill="none" xmlns="http://www.w3.org/2000/svg">
    <path d="M10.21 154.69C12.2293 154.69 14.2033 155.289 15.8823 156.411C17.5613 157.533 18.8701 159.128 19.6428 160.993C20.4156 162.859 20.6177 164.912 20.2238 166.892C19.8298 168.873 18.8575 170.692 17.4296 172.12C16.0017 173.548 14.1825 174.52 12.2019 174.914C10.2214 175.308 8.16849 175.106 6.30286 174.333C4.43722 173.56 2.84259 172.252 1.7207 170.573C0.598814 168.894 0 166.92 0 164.9C0 162.193 1.07573 159.596 2.99048 157.681C4.90522 155.766 7.5021 154.69 10.21 154.69Z" fill="#7AD8D8"/>
    <path d="M30.1355 129.17C31.1266 123.065 26.9805 117.312 20.8748 116.321C14.7691 115.33 9.0161 119.476 8.02501 125.581C7.03392 131.687 11.18 137.44 17.2857 138.431C23.3914 139.422 29.1444 135.276 30.1355 129.17Z" fill="#7AD8D8"/>
    <path d="M36.0216 104.83C42.7429 104.83 48.1915 99.3815 48.1915 92.6602C48.1915 85.9389 42.7429 80.4902 36.0216 80.4902C29.3003 80.4902 23.8516 85.9389 23.8516 92.6602C23.8516 99.3815 29.3003 104.83 36.0216 104.83Z" fill="#7AD8D8"/>
    <path d="M60.32 49.6006C62.9078 49.5986 65.4381 50.3643 67.5906 51.8008C69.7431 53.2373 71.4212 55.2799 72.4125 57.6704C73.4037 60.0609 73.6636 62.6917 73.1592 65.2299C72.6548 67.7681 71.4089 70.0997 69.579 71.9296C67.7491 73.7594 65.4175 75.0054 62.8793 75.5098C60.3411 76.0141 57.7103 75.7542 55.3198 74.7629C52.9294 73.7717 50.8867 72.0937 49.4502 69.9412C48.0137 67.7886 47.248 65.2584 47.25 62.6705C47.25 59.2042 48.627 55.8798 51.0781 53.4287C53.5292 50.9776 56.8536 49.6006 60.32 49.6006Z" fill="#7AD8D8"/>
    <path d="M104.055 41.9285C105.806 34.5108 101.212 27.0784 93.7945 25.3276C86.3767 23.5769 78.9442 28.1708 77.1934 35.5885C75.4427 43.0062 80.0367 50.4388 87.4545 52.1895C94.8722 53.9403 102.305 49.3463 104.055 41.9285Z" fill="#7AD8D8"/>
    <path d="M125.549 8.18067C128.34 8.17869 131.069 9.00461 133.391 10.5538C135.713 12.1031 137.523 14.3059 138.592 16.884C139.662 19.4621 139.943 22.2995 139.399 25.0372C138.856 27.775 137.513 30.2901 135.54 32.2644C133.567 34.2387 131.053 35.5835 128.316 36.1288C125.578 36.674 122.741 36.3952 120.162 35.3275C117.583 34.2599 115.379 32.4515 113.828 30.1309C112.277 27.8103 111.449 25.0818 111.449 22.2907C111.449 18.5502 112.935 14.9627 115.578 12.3169C118.222 9.67105 121.809 8.18332 125.549 8.18067Z" fill="#7AD8D8"/>
    <path d="M163.25 0C166.019 0 168.726 0.821035 171.028 2.35938C173.33 3.89771 175.125 6.08417 176.184 8.64233C177.244 11.2005 177.521 14.0155 176.981 16.7312C176.441 19.4469 175.107 21.9415 173.15 23.8994C171.192 25.8573 168.697 27.1908 165.981 27.731C163.265 28.2712 160.451 27.9938 157.892 26.9342C155.334 25.8746 153.148 24.0802 151.609 21.778C150.071 19.4757 149.25 16.7689 149.25 14C149.25 10.287 150.725 6.72597 153.35 4.10046C155.976 1.47495 159.537 0 163.25 0Z" fill="#7AD8D8"/>
    <path d="M201.869 0.870121C204.526 0.868143 207.124 1.65433 209.334 3.12928C211.544 4.60422 213.267 6.70159 214.285 9.15601C215.303 11.6104 215.57 14.3116 215.052 16.9177C214.534 19.5238 213.255 21.9177 211.376 23.7965C209.497 25.6753 207.103 26.9547 204.497 27.4725C201.891 27.9904 199.19 27.7235 196.735 26.7058C194.281 25.6881 192.183 23.9652 190.708 21.7551C189.234 19.545 188.447 16.9471 188.449 14.29C188.449 12.5277 188.796 10.7826 189.471 9.15442C190.145 7.52623 191.134 6.04683 192.38 4.80066C193.626 3.5545 195.105 2.56602 196.734 1.89161C198.362 1.21719 200.107 0.870121 201.869 0.870121Z" fill="#7AD8D8"/>
    <path d="M239.42 35.39C246.191 35.39 251.68 29.9011 251.68 23.1301C251.68 16.3591 246.191 10.8701 239.42 10.8701C232.649 10.8701 227.16 16.3591 227.16 23.1301C227.16 29.9011 232.649 35.39 239.42 35.39Z" fill="#7AD8D8"/>
    <path d="M274.079 29.96C276.096 29.96 278.068 30.5582 279.746 31.679C281.423 32.7997 282.73 34.3928 283.502 36.2566C284.274 38.1204 284.476 40.1713 284.083 42.1499C283.689 44.1285 282.718 45.9459 281.291 47.3724C279.865 48.7989 278.047 49.7704 276.069 50.1639C274.09 50.5575 272.039 50.3555 270.176 49.5835C268.312 48.8115 266.719 47.5042 265.598 45.8268C264.477 44.1494 263.879 42.1773 263.879 40.1599C263.879 37.4547 264.954 34.8604 266.866 32.9475C268.779 31.0346 271.374 29.96 274.079 29.96Z" fill="#7AD8D8"/>
    <path d="M304.071 57C305.556 57.002 307.007 57.4441 308.24 58.2705C309.474 59.0969 310.435 60.2705 311.002 61.643C311.569 63.0154 311.716 64.5251 311.425 65.9812C311.134 67.4373 310.418 68.7746 309.368 69.8239C308.317 70.8732 306.979 71.5874 305.522 71.8763C304.066 72.1653 302.556 72.016 301.184 71.4473C299.813 70.8786 298.64 69.9161 297.816 68.6813C296.991 67.4465 296.551 65.9948 296.551 64.5099C296.551 63.5228 296.745 62.5455 297.123 61.6337C297.501 60.7219 298.055 59.8936 298.754 59.1961C299.452 58.4986 300.281 57.9456 301.194 57.5687C302.106 57.1919 303.084 56.9987 304.071 57Z" fill="#7AD8D8"/>
    <path d="M327.871 90.2305C328.795 90.2285 329.699 90.5006 330.468 91.0126C331.238 91.5245 331.838 92.2532 332.193 93.1063C332.548 93.9595 332.641 94.8989 332.462 95.8054C332.283 96.712 331.839 97.545 331.187 98.1991C330.534 98.8532 329.702 99.299 328.796 99.48C327.89 99.661 326.95 99.5691 326.096 99.216C325.242 98.8628 324.512 98.2642 323.999 97.496C323.485 96.7278 323.211 95.8245 323.211 94.9004C323.211 93.6636 323.702 92.4773 324.575 91.6018C325.449 90.7263 326.634 90.2331 327.871 90.2305Z" fill="#7AD8D8"/>
    <path d="M344.439 127.58C344.878 127.58 345.307 127.71 345.672 127.954C346.037 128.198 346.322 128.545 346.49 128.951C346.658 129.356 346.702 129.803 346.616 130.233C346.53 130.664 346.319 131.059 346.009 131.37C345.698 131.68 345.302 131.892 344.872 131.977C344.441 132.063 343.995 132.019 343.589 131.851C343.184 131.683 342.837 131.399 342.593 131.033C342.349 130.668 342.219 130.239 342.219 129.8C342.219 129.211 342.453 128.647 342.869 128.23C343.285 127.814 343.85 127.58 344.439 127.58Z" fill="#7AD8D8"/>
    <path d="M352.762 166.83C352.935 166.833 353.1 166.903 353.222 167.027C353.343 167.15 353.412 167.317 353.412 167.49C353.412 167.575 353.395 167.66 353.362 167.739C353.329 167.818 353.282 167.889 353.221 167.95C353.161 168.01 353.089 168.058 353.01 168.091C352.932 168.123 352.847 168.14 352.762 168.14C352.588 168.14 352.422 168.072 352.298 167.95C352.175 167.829 352.104 167.663 352.102 167.49C352.104 167.316 352.175 167.149 352.298 167.026C352.421 166.903 352.587 166.833 352.762 166.83Z" fill="#7AD8D8"/>
    <path d="M352.44 206.18C352.507 206.18 352.56 206.127 352.56 206.06C352.56 205.994 352.507 205.94 352.44 205.94C352.374 205.94 352.32 205.994 352.32 206.06C352.32 206.127 352.374 206.18 352.44 206.18Z" fill="#7AD8D8"/>
    <path d="M343.62 243.49C343.652 243.49 343.682 243.503 343.705 243.525C343.727 243.548 343.74 243.578 343.74 243.61C343.74 243.642 343.727 243.673 343.705 243.695C343.682 243.718 343.652 243.73 343.62 243.73C343.588 243.73 343.558 243.718 343.535 243.695C343.513 243.673 343.5 243.642 343.5 243.61C343.5 243.578 343.513 243.548 343.535 243.525C343.558 243.503 343.588 243.49 343.62 243.49Z" fill="#7AD8D8"/>
    <path d="M326.622 278.12C326.651 278.12 326.679 278.132 326.699 278.152C326.72 278.173 326.732 278.201 326.732 278.23C326.732 278.259 326.72 278.287 326.699 278.308C326.679 278.328 326.651 278.34 326.622 278.34C326.593 278.34 326.565 278.328 326.544 278.308C326.523 278.287 326.512 278.259 326.512 278.23C326.512 278.201 326.523 278.173 326.544 278.152C326.565 278.132 326.593 278.12 326.622 278.12Z" fill="#7AD8D8"/>
    <path d="M302.321 308.08C302.347 308.082 302.371 308.094 302.389 308.112C302.407 308.13 302.419 308.154 302.421 308.18C302.421 308.208 302.411 308.234 302.392 308.255C302.374 308.275 302.348 308.288 302.321 308.29C302.292 308.29 302.264 308.278 302.243 308.258C302.223 308.237 302.211 308.209 302.211 308.18C302.213 308.153 302.226 308.127 302.247 308.109C302.267 308.09 302.293 308.08 302.321 308.08Z" fill="#7AD8D8"/>
    <path d="M271.959 331.82C271.989 331.814 272.019 331.814 272.048 331.82C272.078 331.827 272.105 331.84 272.129 331.859C272.152 331.878 272.171 331.902 272.184 331.929C272.197 331.956 272.204 331.985 272.204 332.015C272.204 332.045 272.197 332.075 272.184 332.102C272.171 332.129 272.152 332.153 272.129 332.172C272.105 332.19 272.078 332.204 272.048 332.21C272.019 332.217 271.989 332.217 271.959 332.21C271.91 332.208 271.863 332.187 271.828 332.152C271.793 332.117 271.772 332.07 271.77 332.02C271.769 331.969 271.789 331.92 271.824 331.882C271.86 331.845 271.908 331.823 271.959 331.82Z" fill="#7AD8D8"/>
    <path d="M237.081 348.17C237.154 348.17 237.226 348.192 237.286 348.232C237.347 348.273 237.395 348.331 237.423 348.398C237.451 348.466 237.458 348.54 237.444 348.612C237.43 348.684 237.394 348.75 237.343 348.802C237.291 348.853 237.225 348.889 237.153 348.903C237.081 348.917 237.007 348.91 236.939 348.882C236.872 348.854 236.814 348.806 236.773 348.745C236.733 348.685 236.711 348.613 236.711 348.54C236.711 348.442 236.75 348.348 236.819 348.278C236.889 348.209 236.983 348.17 237.081 348.17Z" fill="#7AD8D8"/>
    <path d="M199.392 356.32C199.536 356.323 199.673 356.382 199.774 356.485C199.875 356.588 199.932 356.726 199.932 356.87C199.932 356.941 199.918 357.011 199.891 357.077C199.863 357.142 199.824 357.202 199.773 357.252C199.723 357.302 199.664 357.342 199.598 357.369C199.533 357.396 199.463 357.41 199.392 357.41C199.321 357.41 199.25 357.396 199.185 357.369C199.119 357.342 199.06 357.302 199.01 357.252C198.96 357.202 198.92 357.142 198.893 357.077C198.866 357.011 198.852 356.941 198.852 356.87C198.852 356.726 198.908 356.588 199.009 356.485C199.11 356.382 199.247 356.323 199.392 356.32Z" fill="#7AD8D8"/>
    <path d="M160.79 355.811C160.933 355.811 161.072 355.853 161.19 355.932C161.309 356.011 161.401 356.123 161.456 356.255C161.51 356.387 161.524 356.531 161.497 356.671C161.469 356.811 161.4 356.939 161.299 357.04C161.199 357.14 161.07 357.209 160.931 357.237C160.791 357.264 160.646 357.25 160.515 357.196C160.383 357.141 160.271 357.049 160.192 356.931C160.113 356.812 160.07 356.673 160.07 356.531C160.07 356.34 160.146 356.157 160.281 356.021C160.416 355.886 160.599 355.811 160.79 355.811Z" fill="#7AD8D8"/>
    <path d="M123.209 346.46C123.538 346.46 123.853 346.591 124.086 346.823C124.318 347.056 124.449 347.371 124.449 347.7C124.449 348.029 124.318 348.344 124.086 348.577C123.853 348.809 123.538 348.94 123.209 348.94C122.88 348.94 122.564 348.809 122.332 348.577C122.099 348.344 121.969 348.029 121.969 347.7C121.969 347.371 122.099 347.056 122.332 346.823C122.564 346.591 122.88 346.46 123.209 346.46Z" fill="#7AD8D8"/>
    <path d="M88.5604 328.381C89.0188 328.383 89.4665 328.521 89.8467 328.777C90.2269 329.033 90.5227 329.396 90.6968 329.82C90.8708 330.244 90.9154 330.71 90.8247 331.16C90.7341 331.609 90.5124 332.021 90.1875 332.345C89.8626 332.668 89.4492 332.888 88.9994 332.977C88.5496 333.066 88.0837 333.019 87.6604 332.843C87.2371 332.667 86.8753 332.37 86.6208 331.989C86.3664 331.607 86.2305 331.159 86.2305 330.701C86.2305 330.395 86.2909 330.093 86.4081 329.811C86.5253 329.529 86.6971 329.272 86.9136 329.057C87.1301 328.841 87.3869 328.671 87.6696 328.555C87.9522 328.439 88.2549 328.38 88.5604 328.381Z" fill="#7AD8D8"/>
    <path d="M58.5714 302.5C59.3412 302.498 60.0943 302.724 60.7354 303.151C61.3764 303.577 61.8765 304.184 62.1725 304.894C62.4684 305.605 62.5469 306.387 62.3979 307.143C62.249 307.898 61.8793 308.592 61.3357 309.137C60.7921 309.682 60.0989 310.054 59.344 310.204C58.5891 310.355 57.8065 310.279 57.0951 309.985C56.3837 309.691 55.7757 309.192 55.3478 308.552C54.9199 307.912 54.6914 307.16 54.6914 306.39C54.6914 305.36 55.0999 304.372 55.8273 303.643C56.5546 302.914 57.5415 302.503 58.5714 302.5Z" fill="#7AD8D8"/>
    <path d="M34.7312 270.32C35.8586 270.32 36.9606 270.655 37.8979 271.281C38.8353 271.907 39.5659 272.797 39.9973 273.839C40.4287 274.881 40.5416 276.027 40.3217 277.132C40.1017 278.238 39.5589 279.254 38.7617 280.051C37.9646 280.848 36.949 281.391 35.8433 281.611C34.7376 281.831 33.5915 281.718 32.5499 281.286C31.5084 280.855 30.6181 280.124 29.9918 279.187C29.3655 278.25 29.0312 277.148 29.0312 276.02C29.0312 274.509 29.6317 273.059 30.7007 271.99C31.7696 270.921 33.2195 270.32 34.7312 270.32Z" fill="#7AD8D8"/>
    <path d="M25.4868 242.81C26.4434 238.757 23.9333 234.696 19.8804 233.74C15.8276 232.783 11.7667 235.293 10.8101 239.346C9.85355 243.399 12.3635 247.46 16.4164 248.417C20.4693 249.373 24.5303 246.863 25.4868 242.81Z" fill="#7AD8D8"/>
    <path d="M9.86902 194.381C11.6677 194.379 13.4265 194.911 14.9229 195.909C16.4192 196.907 17.5859 198.326 18.2752 199.988C18.9644 201.649 19.1452 203.477 18.7948 205.242C18.4444 207.006 17.5785 208.627 16.3066 209.898C15.0348 211.17 13.4141 212.036 11.6499 212.387C9.88569 212.737 8.05715 212.556 6.39576 211.867C4.73437 211.178 3.31484 210.011 2.31678 208.515C1.31872 207.018 0.78709 205.26 0.789068 203.461C0.789068 201.053 1.74566 198.743 3.44849 197.04C5.15132 195.337 7.46086 194.381 9.86902 194.381Z" fill="#7AD8D8"/>
    <path d="M45.7606 159.54C47.6661 159.538 49.5293 160.101 51.1145 161.159C52.6997 162.216 53.9355 163.72 54.6657 165.48C55.3958 167.24 55.5873 169.177 55.2161 171.046C54.8448 172.915 53.9275 174.632 52.5801 175.979C51.2327 177.327 49.5158 178.244 47.6469 178.615C45.7779 178.987 43.8408 178.795 42.0807 178.065C40.3206 177.335 38.8168 176.099 37.7594 174.514C36.702 172.929 36.1387 171.066 36.1406 169.16C36.1433 166.609 37.1577 164.164 38.9612 162.361C40.7647 160.557 43.2101 159.543 45.7606 159.54Z" fill="#7AD8D8"/>
    <path d="M55.8022 120.801C57.9403 120.801 60.0302 121.435 61.8079 122.623C63.5856 123.81 64.9711 125.499 65.7893 127.474C66.6075 129.449 66.8216 131.623 66.4045 133.72C65.9874 135.817 64.9579 137.743 63.446 139.255C61.9342 140.766 60.0081 141.796 57.9111 142.213C55.8142 142.63 53.6407 142.416 51.6654 141.598C49.6901 140.78 48.0018 139.394 46.814 137.616C45.6261 135.839 44.9922 133.749 44.9922 131.611C44.9922 128.744 46.1311 125.994 48.1583 123.967C50.1856 121.94 52.9353 120.801 55.8022 120.801Z" fill="#7AD8D8"/>
    <path d="M76.0494 86.5C78.4109 86.5 80.7193 87.2002 82.6829 88.5122C84.6464 89.8242 86.1769 91.689 87.0806 93.8707C87.9843 96.0525 88.2207 98.4532 87.76 100.769C87.2993 103.085 86.162 105.213 84.4922 106.883C82.8223 108.553 80.6949 109.69 78.3788 110.151C76.0627 110.611 73.6619 110.375 71.4801 109.471C69.2984 108.567 67.4336 107.037 66.1216 105.073C64.8096 103.11 64.1094 100.801 64.1094 98.4399C64.112 95.2741 65.3709 92.2386 67.6095 90C69.8481 87.7614 72.8836 86.5026 76.0494 86.5Z" fill="#7AD8D8"/>
    <path d="M104.818 85.2307C111.954 85.2307 117.738 79.4462 117.738 72.3107C117.738 65.1751 111.954 59.3906 104.818 59.3906C97.6828 59.3906 91.8984 65.1751 91.8984 72.3107C91.8984 79.4462 97.6828 85.2307 104.818 85.2307Z" fill="#7AD8D8"/>
    <path d="M139.769 41.9902C142.404 41.9902 144.979 42.7714 147.169 44.235C149.36 45.6986 151.067 47.779 152.075 50.2129C153.083 52.6468 153.347 55.325 152.833 57.9088C152.319 60.4926 151.051 62.866 149.188 64.7289C147.325 66.5917 144.952 67.8603 142.368 68.3743C139.784 68.8882 137.106 68.6244 134.672 67.6162C132.238 66.6081 130.158 64.9008 128.694 62.7103C127.23 60.5199 126.449 57.9446 126.449 55.3102C126.449 51.7775 127.853 48.3895 130.351 45.8915C132.849 43.3935 136.237 41.9902 139.769 41.9902Z" fill="#7AD8D8"/>
    <path d="M178.109 35.9004C180.681 35.9004 183.194 36.6629 185.332 38.0913C187.47 39.5198 189.136 41.5501 190.12 43.9255C191.104 46.301 191.361 48.9149 190.86 51.4366C190.358 53.9584 189.12 56.2747 187.302 58.0928C185.484 59.9109 183.167 61.149 180.646 61.6506C178.124 62.1522 175.51 61.8948 173.135 60.9109C170.759 59.9269 168.729 58.2606 167.3 56.1228C165.872 53.985 165.109 51.4715 165.109 48.9004C165.109 45.4526 166.479 42.146 168.917 39.708C171.355 37.27 174.662 35.9004 178.109 35.9004Z" fill="#7AD8D8"/>
    <path d="M216.699 41.4902C219.073 41.4902 221.393 42.194 223.366 43.5126C225.339 44.8312 226.878 46.7052 227.786 48.8979C228.694 51.0907 228.932 53.5035 228.469 55.8313C228.006 58.1591 226.863 60.2972 225.185 61.9755C223.506 63.6537 221.368 64.7966 219.04 65.2596C216.713 65.7227 214.3 65.485 212.107 64.5768C209.914 63.6685 208.04 62.1304 206.722 60.157C205.403 58.1836 204.699 55.8636 204.699 53.4902C204.699 50.3076 205.964 47.2553 208.214 45.0049C210.464 42.7544 213.517 41.4902 216.699 41.4902Z" fill="#7AD8D8"/>
    <path d="M252.428 59.0098C254.377 59.0098 256.282 59.5878 257.902 60.6705C259.522 61.7533 260.784 63.2922 261.529 65.0927C262.275 66.8931 262.469 68.8742 262.088 70.7852C261.707 72.6961 260.768 74.4512 259.39 75.8284C258.011 77.2055 256.255 78.1428 254.344 78.5217C252.432 78.9007 250.452 78.7042 248.652 77.9572C246.852 77.2101 245.314 75.9461 244.233 74.325C243.152 72.7038 242.576 70.7984 242.578 68.8499C242.581 66.2392 243.62 63.7363 245.467 61.8912C247.314 60.0462 249.818 59.0098 252.428 59.0098Z" fill="#7AD8D8"/>
    <path d="M282.369 87.0899C283.673 87.0879 284.948 87.4726 286.033 88.1956C287.118 88.9185 287.964 89.947 288.464 91.151C288.965 92.355 289.097 93.6804 288.844 94.9594C288.59 96.2384 287.964 97.4134 287.042 98.3361C286.121 99.2587 284.947 99.8874 283.668 100.142C282.39 100.398 281.064 100.268 279.859 99.7692C278.655 99.2707 277.625 98.426 276.9 97.342C276.176 96.2581 275.789 94.9836 275.789 93.6798C275.789 91.9338 276.482 90.2591 277.716 89.0236C278.949 87.788 280.623 87.0925 282.369 87.0899Z" fill="#7AD8D8"/>
    <path d="M304.16 122.65C304.806 122.648 305.437 122.838 305.975 123.196C306.513 123.553 306.932 124.062 307.18 124.658C307.428 125.254 307.493 125.911 307.368 126.544C307.242 127.177 306.932 127.759 306.475 128.216C306.019 128.672 305.437 128.983 304.804 129.108C304.17 129.234 303.514 129.168 302.918 128.92C302.322 128.672 301.813 128.253 301.455 127.715C301.098 127.178 300.908 126.546 300.91 125.9C300.913 125.039 301.256 124.214 301.865 123.605C302.474 122.996 303.299 122.653 304.16 122.65Z" fill="#7AD8D8"/>
    <path d="M316.01 161.981C316.199 161.979 316.383 162.032 316.541 162.136C316.698 162.239 316.822 162.387 316.895 162.56C316.969 162.733 316.989 162.925 316.953 163.11C316.918 163.295 316.828 163.465 316.696 163.599C316.563 163.732 316.394 163.824 316.209 163.861C316.025 163.899 315.833 163.881 315.659 163.809C315.485 163.738 315.336 163.616 315.231 163.459C315.126 163.303 315.07 163.119 315.07 162.93C315.07 162.68 315.169 162.44 315.345 162.262C315.521 162.084 315.76 161.983 316.01 161.981Z" fill="#7AD8D8"/>
    <path d="M316.872 201.641C316.901 201.641 316.929 201.652 316.949 201.673C316.97 201.693 316.982 201.722 316.982 201.751C316.982 201.78 316.97 201.808 316.949 201.828C316.929 201.849 316.901 201.861 316.872 201.861C316.843 201.861 316.815 201.849 316.794 201.828C316.773 201.808 316.762 201.78 316.762 201.751C316.762 201.722 316.773 201.693 316.794 201.673C316.815 201.652 316.843 201.641 316.872 201.641Z" fill="#7AD8D8"/>
    <path d="M306.87 239.161C306.884 239.159 306.898 239.161 306.912 239.165C306.925 239.17 306.937 239.177 306.947 239.186C306.958 239.196 306.966 239.207 306.972 239.22C306.977 239.233 306.98 239.247 306.98 239.261C306.98 239.29 306.969 239.318 306.948 239.339C306.927 239.359 306.899 239.371 306.87 239.371C306.856 239.371 306.842 239.368 306.829 239.362C306.817 239.357 306.805 239.348 306.796 239.338C306.786 239.328 306.779 239.315 306.775 239.302C306.77 239.289 306.769 239.275 306.77 239.261C306.769 239.247 306.77 239.234 306.774 239.221C306.779 239.208 306.786 239.196 306.796 239.187C306.806 239.177 306.817 239.17 306.83 239.165C306.843 239.161 306.857 239.159 306.87 239.161Z" fill="#7AD8D8"/>
    <path d="M286.62 272.32C286.646 272.32 286.671 272.331 286.69 272.35C286.709 272.368 286.719 272.394 286.719 272.42C286.719 272.447 286.709 272.472 286.69 272.491C286.671 272.51 286.646 272.52 286.62 272.52C286.593 272.52 286.568 272.51 286.549 272.491C286.53 272.472 286.52 272.447 286.52 272.42C286.52 272.394 286.53 272.368 286.549 272.35C286.568 272.331 286.593 272.32 286.62 272.32Z" fill="#7AD8D8"/>
    <path d="M257.869 298.32C257.909 298.32 257.947 298.336 257.975 298.364C258.003 298.392 258.019 298.431 258.019 298.47C258.019 298.51 258.003 298.548 257.975 298.576C257.947 298.605 257.909 298.62 257.869 298.62C257.849 298.622 257.829 298.619 257.81 298.612C257.791 298.605 257.774 298.594 257.76 298.58C257.746 298.565 257.735 298.548 257.728 298.529C257.721 298.511 257.718 298.49 257.719 298.47C257.719 298.431 257.735 298.392 257.763 298.364C257.791 298.336 257.829 298.32 257.869 298.32Z" fill="#7AD8D8"/>
    <path d="M222.872 315.141C222.967 315.141 223.059 315.179 223.126 315.246C223.194 315.314 223.232 315.405 223.232 315.501C223.232 315.596 223.194 315.688 223.126 315.755C223.059 315.823 222.967 315.861 222.872 315.861C222.776 315.861 222.685 315.823 222.617 315.755C222.55 315.688 222.512 315.596 222.512 315.501C222.512 315.453 222.521 315.407 222.539 315.363C222.557 315.319 222.584 315.28 222.617 315.246C222.651 315.213 222.69 315.186 222.734 315.168C222.778 315.15 222.824 315.141 222.872 315.141Z" fill="#7AD8D8"/>
    <path d="M184.57 321.32C184.71 321.339 184.838 321.407 184.931 321.513C185.023 321.619 185.074 321.755 185.074 321.895C185.074 322.036 185.023 322.172 184.931 322.278C184.838 322.383 184.71 322.452 184.57 322.47C184.431 322.452 184.303 322.383 184.21 322.278C184.117 322.172 184.066 322.036 184.066 321.895C184.066 321.755 184.117 321.619 184.21 321.513C184.303 321.407 184.431 321.339 184.57 321.32Z" fill="#7AD8D8"/>
    <path d="M145.98 316.32C146.178 316.32 146.372 316.379 146.536 316.489C146.7 316.599 146.829 316.755 146.904 316.938C146.98 317.12 147 317.321 146.961 317.515C146.923 317.709 146.827 317.888 146.688 318.027C146.548 318.167 146.37 318.263 146.176 318.301C145.982 318.34 145.781 318.32 145.598 318.244C145.415 318.168 145.259 318.04 145.149 317.876C145.039 317.711 144.98 317.518 144.98 317.32C144.98 317.055 145.086 316.801 145.273 316.613C145.461 316.426 145.715 316.32 145.98 316.32Z" fill="#7AD8D8"/>
    <path d="M110.24 299.96C110.647 299.96 111.045 300.081 111.384 300.307C111.723 300.533 111.987 300.855 112.143 301.232C112.299 301.608 112.339 302.022 112.26 302.422C112.181 302.821 111.984 303.188 111.696 303.477C111.408 303.765 111.041 303.961 110.641 304.04C110.242 304.12 109.828 304.079 109.451 303.923C109.075 303.767 108.753 303.503 108.527 303.164C108.3 302.826 108.18 302.427 108.18 302.02C108.182 301.474 108.4 300.952 108.786 300.566C109.172 300.18 109.694 299.963 110.24 299.96Z" fill="#7AD8D8"/>
    <path d="M80.2891 273.32C81.0802 273.32 81.8536 273.555 82.5114 273.994C83.1691 274.434 83.6817 275.059 83.9845 275.79C84.2872 276.52 84.3665 277.325 84.2122 278.101C84.0578 278.877 83.6768 279.589 83.1174 280.149C82.558 280.708 81.8453 281.089 81.0693 281.243C80.2934 281.398 79.4892 281.319 78.7583 281.016C78.0274 280.713 77.4027 280.2 76.9631 279.543C76.5236 278.885 76.2891 278.111 76.2891 277.32C76.2891 276.259 76.7104 275.242 77.4606 274.492C78.2107 273.742 79.2282 273.32 80.2891 273.32Z" fill="#7AD8D8"/>
    <path d="M58.4999 238.91C59.7182 238.91 60.9092 239.271 61.9222 239.948C62.9352 240.625 63.7247 241.587 64.1909 242.713C64.6572 243.838 64.7792 245.077 64.5415 246.272C64.3038 247.467 63.7171 248.565 62.8556 249.426C61.9941 250.288 60.8966 250.874 59.7017 251.112C58.5067 251.35 57.2682 251.227 56.1426 250.761C55.017 250.295 54.0549 249.506 53.3781 248.493C52.7012 247.48 52.3398 246.289 52.3398 245.07C52.3398 243.436 52.9888 241.87 54.144 240.714C55.2993 239.559 56.8661 238.91 58.4999 238.91Z" fill="#7AD8D8"/>
    <path d="M46.6488 199.881C48.2667 199.881 49.8482 200.361 51.1934 201.259C52.5386 202.158 53.5869 203.436 54.2061 204.93C54.8252 206.425 54.9873 208.07 54.6716 209.657C54.356 211.243 53.5769 212.701 52.4329 213.845C51.2889 214.989 49.8314 215.768 48.2446 216.084C46.6579 216.399 45.0131 216.237 43.5184 215.618C42.0237 214.999 40.7462 213.951 39.8474 212.605C38.9486 211.26 38.4688 209.679 38.4688 208.061C38.4688 205.891 39.3306 203.811 40.8646 202.277C42.3987 200.743 44.4793 199.881 46.6488 199.881Z" fill="#7AD8D8"/>
    <path d="M79.25 181.931C84.0825 181.931 88 178.013 88 173.181C88 168.348 84.0825 164.431 79.25 164.431C74.4175 164.431 70.5 168.348 70.5 173.181C70.5 178.013 74.4175 181.931 79.25 181.931Z" fill="#7AD8D8"/>
    <path d="M90.5407 126.971C92.5486 126.971 94.5113 127.566 96.1807 128.682C97.85 129.798 99.151 131.384 99.919 133.239C100.687 135.094 100.887 137.135 100.495 139.104C100.102 141.074 99.1347 142.882 97.7142 144.301C96.2937 145.721 94.4842 146.686 92.5147 147.077C90.5451 147.467 88.5039 147.265 86.6494 146.495C84.7949 145.725 83.2104 144.423 82.0963 142.752C80.9822 141.082 80.3887 139.119 80.3906 137.111C80.3906 135.778 80.6532 134.459 81.1635 133.228C81.6737 131.997 82.4215 130.879 83.3641 129.937C84.3068 128.995 85.4257 128.249 86.6571 127.74C87.8885 127.231 89.2082 126.969 90.5407 126.971Z" fill="#7AD8D8"/>
    <path d="M114.129 96.1602C116.393 96.1582 118.606 96.8277 120.489 98.084C122.372 99.3403 123.839 101.127 124.707 103.218C125.574 105.308 125.801 107.61 125.36 109.83C124.919 112.05 123.829 114.089 122.229 115.689C120.628 117.29 118.589 118.38 116.369 118.821C114.149 119.262 111.848 119.035 109.757 118.167C107.666 117.3 105.879 115.833 104.623 113.95C103.367 112.067 102.697 109.854 102.699 107.59C102.702 104.56 103.907 101.654 106.05 99.5109C108.193 97.3679 111.099 96.1628 114.129 96.1602Z" fill="#7AD8D8"/>
    <path d="M146.771 76.4707C149.161 76.4707 151.496 77.1791 153.483 78.5065C155.469 79.8338 157.018 81.7205 157.932 83.9279C158.846 86.1352 159.085 88.5641 158.619 90.9073C158.153 93.2506 157.003 95.4031 155.313 97.0925C153.624 98.7819 151.471 99.9324 149.128 100.399C146.785 100.865 144.356 100.625 142.149 99.7112C139.941 98.7969 138.055 97.2485 136.727 95.262C135.4 93.2754 134.691 90.9399 134.691 88.5507C134.691 85.3468 135.964 82.2742 138.23 80.0088C140.495 77.7433 143.568 76.4707 146.771 76.4707Z" fill="#7AD8D8"/>
    <path d="M184.091 70.9307C186.405 70.9307 188.667 71.6169 190.591 72.9025C192.515 74.1881 194.014 76.0154 194.9 78.1533C195.786 80.2912 196.017 82.6436 195.566 84.9132C195.114 87.1828 194 89.2675 192.364 90.9038C190.727 92.5401 188.643 93.6544 186.373 94.1058C184.104 94.5573 181.751 94.3256 179.613 93.4401C177.475 92.5545 175.648 91.0549 174.362 89.1309C173.077 87.2068 172.391 84.9448 172.391 82.6307C172.391 79.5277 173.623 76.5517 175.818 74.3575C178.012 72.1634 180.988 70.9307 184.091 70.9307Z" fill="#7AD8D8"/>
    <path d="M221.041 100.72C226.646 100.72 231.191 96.1756 231.191 90.5699C231.191 84.9643 226.646 80.4199 221.041 80.4199C215.435 80.4199 210.891 84.9643 210.891 90.5699C210.891 96.1756 215.435 100.72 221.041 100.72Z" fill="#7AD8D8"/>
    <path d="M252.609 118.12C256.326 118.12 259.339 115.107 259.339 111.39C259.339 107.673 256.326 104.66 252.609 104.66C248.892 104.66 245.879 107.673 245.879 111.39C245.879 115.107 248.892 118.12 252.609 118.12Z" fill="#7AD8D8"/>
    <path d="M274.572 139.391C275.125 139.393 275.665 139.559 276.125 139.867C276.584 140.176 276.941 140.614 277.151 141.126C277.362 141.638 277.416 142.201 277.307 142.743C277.197 143.286 276.93 143.784 276.538 144.174C276.146 144.565 275.647 144.83 275.104 144.938C274.561 145.045 273.999 144.989 273.488 144.777C272.977 144.564 272.54 144.205 272.233 143.745C271.926 143.285 271.762 142.744 271.762 142.191C271.762 141.822 271.834 141.457 271.976 141.117C272.117 140.776 272.324 140.467 272.585 140.207C272.846 139.947 273.156 139.741 273.497 139.601C273.838 139.461 274.203 139.389 274.572 139.391Z" fill="#7AD8D8"/>
    <path d="M283.932 179.24C284.175 179.24 284.372 179.043 284.372 178.8C284.372 178.557 284.175 178.36 283.932 178.36C283.689 178.36 283.492 178.557 283.492 178.8C283.492 179.043 283.689 179.24 283.932 179.24Z" fill="#7AD8D8"/>
    <path d="M279.44 216.181C279.466 216.183 279.49 216.194 279.509 216.213C279.527 216.231 279.538 216.255 279.541 216.281C279.541 216.307 279.53 216.333 279.511 216.351C279.492 216.37 279.467 216.381 279.44 216.381C279.427 216.382 279.413 216.381 279.4 216.376C279.388 216.372 279.376 216.365 279.366 216.355C279.357 216.345 279.349 216.334 279.345 216.321C279.34 216.308 279.339 216.294 279.34 216.281C279.34 216.254 279.351 216.229 279.37 216.21C279.389 216.191 279.414 216.181 279.44 216.181Z" fill="#7AD8D8"/>
    <path d="M261.69 249.501C261.703 249.501 261.716 249.503 261.727 249.508C261.739 249.513 261.749 249.521 261.758 249.53C261.766 249.54 261.773 249.551 261.777 249.563C261.781 249.575 261.782 249.588 261.781 249.601C261.781 249.624 261.771 249.647 261.754 249.664C261.737 249.681 261.714 249.691 261.69 249.691C261.678 249.692 261.665 249.691 261.653 249.687C261.641 249.683 261.63 249.677 261.62 249.668C261.611 249.659 261.603 249.649 261.598 249.637C261.593 249.626 261.59 249.613 261.59 249.601C261.589 249.587 261.59 249.573 261.595 249.56C261.599 249.548 261.607 249.536 261.616 249.526C261.626 249.517 261.638 249.509 261.65 249.505C261.663 249.5 261.677 249.499 261.69 249.501Z" fill="#7AD8D8"/>
    <path d="M233.078 274.08C233.114 274.08 233.149 274.091 233.178 274.11C233.208 274.13 233.231 274.158 233.245 274.191C233.258 274.224 233.262 274.26 233.255 274.295C233.248 274.33 233.231 274.362 233.206 274.387C233.181 274.413 233.148 274.43 233.114 274.437C233.079 274.444 233.042 274.44 233.01 274.426C232.977 274.413 232.948 274.39 232.929 274.36C232.909 274.331 232.898 274.296 232.898 274.26C232.898 274.236 232.903 274.213 232.912 274.191C232.921 274.169 232.934 274.15 232.951 274.133C232.968 274.116 232.988 274.103 233.01 274.094C233.031 274.085 233.055 274.08 233.078 274.08Z" fill="#7AD8D8"/>
    <path d="M197.5 286.54C197.614 286.54 197.724 286.585 197.804 286.666C197.885 286.747 197.93 286.856 197.93 286.97C197.93 287.084 197.885 287.194 197.804 287.274C197.724 287.355 197.614 287.4 197.5 287.4C197.386 287.4 197.277 287.355 197.196 287.274C197.116 287.194 197.07 287.084 197.07 286.97C197.07 286.856 197.116 286.747 197.196 286.666C197.277 286.585 197.386 286.54 197.5 286.54Z" fill="#7AD8D8"/>
    <path d="M159.729 285.18C159.877 285.182 160.021 285.227 160.143 285.311C160.265 285.395 160.359 285.512 160.415 285.65C160.47 285.787 160.483 285.937 160.453 286.082C160.423 286.227 160.351 286.36 160.246 286.464C160.14 286.567 160.007 286.638 159.861 286.666C159.716 286.694 159.566 286.679 159.429 286.622C159.293 286.565 159.176 286.469 159.094 286.345C159.013 286.222 158.969 286.078 158.969 285.93C158.969 285.83 158.989 285.732 159.027 285.64C159.065 285.549 159.121 285.466 159.192 285.396C159.263 285.326 159.347 285.271 159.439 285.234C159.531 285.197 159.629 285.178 159.729 285.18Z" fill="#7AD8D8"/>
    <path d="M124.871 269.32C125.281 269.32 125.681 269.442 126.022 269.67C126.362 269.898 126.628 270.222 126.784 270.6C126.94 270.979 126.981 271.396 126.9 271.798C126.819 272.2 126.621 272.568 126.331 272.858C126.04 273.147 125.671 273.343 125.268 273.422C124.866 273.501 124.45 273.458 124.072 273.3C123.694 273.142 123.371 272.875 123.145 272.533C122.918 272.191 122.799 271.79 122.801 271.38C122.801 271.109 122.854 270.84 122.959 270.59C123.063 270.339 123.215 270.112 123.408 269.92C123.6 269.729 123.828 269.577 124.079 269.474C124.33 269.371 124.599 269.319 124.871 269.32Z" fill="#7AD8D8"/>
    <path d="M97.6505 240.721C98.5247 240.721 99.3792 240.98 100.106 241.466C100.833 241.951 101.399 242.642 101.734 243.449C102.069 244.257 102.156 245.146 101.986 246.003C101.815 246.86 101.394 247.648 100.776 248.266C100.158 248.884 99.3702 249.305 98.5128 249.476C97.6554 249.646 96.7666 249.559 95.959 249.224C95.1513 248.89 94.461 248.323 93.9753 247.596C93.4897 246.869 93.2305 246.015 93.2305 245.141C93.2305 243.968 93.6961 242.844 94.525 242.015C95.3539 241.186 96.4783 240.721 97.6505 240.721Z" fill="#7AD8D8"/>
    <path d="M81.7 217.84C85.5383 217.84 88.65 214.729 88.65 210.89C88.65 207.052 85.5383 203.94 81.7 203.94C77.8616 203.94 74.75 207.052 74.75 210.89C74.75 214.729 77.8616 217.84 81.7 217.84Z" fill="#7AD8D8"/>
    <path d="M118.613 178.697C119.575 174.622 117.051 170.54 112.977 169.578C108.902 168.617 104.82 171.14 103.858 175.214C102.897 179.289 105.42 183.371 109.494 184.333C113.569 185.295 117.651 182.771 118.613 178.697Z" fill="#7AD8D8"/>
    <path d="M131.415 149.66C135.035 146.04 135.035 140.171 131.415 136.551C127.795 132.93 121.925 132.93 118.305 136.551C114.685 140.171 114.685 146.04 118.305 149.66C121.925 153.281 127.795 153.281 131.415 149.66Z" fill="#7AD8D8"/>
    <path d="M153.578 130.961C159.339 130.961 164.008 126.291 164.008 120.531C164.008 114.77 159.339 110.101 153.578 110.101C147.818 110.101 143.148 114.77 143.148 120.531C143.148 126.291 147.818 130.961 153.578 130.961Z" fill="#7AD8D8"/>
    <path d="M189.73 105.4C191.708 105.4 193.642 105.987 195.286 107.086C196.931 108.185 198.212 109.746 198.969 111.574C199.726 113.401 199.924 115.412 199.538 117.351C199.152 119.291 198.2 121.073 196.802 122.472C195.403 123.87 193.621 124.822 191.681 125.208C189.742 125.594 187.731 125.396 185.904 124.639C184.076 123.882 182.515 122.601 181.416 120.956C180.317 119.312 179.73 117.378 179.73 115.4C179.73 112.748 180.784 110.205 182.659 108.329C184.535 106.454 187.078 105.4 189.73 105.4Z" fill="#7AD8D8"/>
    <path d="M223.629 122.061C225.003 122.059 226.346 122.464 227.489 123.226C228.631 123.988 229.523 125.072 230.049 126.34C230.576 127.609 230.714 129.005 230.446 130.352C230.179 131.699 229.518 132.937 228.547 133.908C227.575 134.879 226.338 135.54 224.991 135.808C223.644 136.075 222.247 135.937 220.979 135.41C219.71 134.884 218.627 133.993 217.865 132.85C217.103 131.707 216.697 130.364 216.699 128.991C216.702 127.153 217.433 125.392 218.732 124.093C220.031 122.794 221.792 122.063 223.629 122.061Z" fill="#7AD8D8"/>
    <path d="M246.199 159.961C247.403 159.961 248.38 158.984 248.38 157.781C248.38 156.577 247.403 155.601 246.199 155.601C244.995 155.601 244.02 156.577 244.02 157.781C244.02 158.984 244.995 159.961 246.199 159.961Z" fill="#7AD8D8"/>
    <path d="M251.371 193.82C251.389 193.82 251.406 193.826 251.421 193.835C251.436 193.845 251.448 193.859 251.454 193.876C251.461 193.892 251.463 193.91 251.459 193.928C251.456 193.945 251.447 193.961 251.435 193.974C251.422 193.987 251.406 193.995 251.389 193.999C251.371 194.002 251.353 194 251.337 193.993C251.32 193.987 251.306 193.975 251.296 193.96C251.286 193.946 251.281 193.928 251.281 193.91C251.281 193.886 251.291 193.864 251.308 193.847C251.324 193.83 251.347 193.82 251.371 193.82Z" fill="#7AD8D8"/>
    <path d="M237.789 227.681C237.81 227.683 237.829 227.692 237.843 227.707C237.858 227.721 237.867 227.74 237.869 227.761C237.869 227.782 237.861 227.802 237.846 227.817C237.831 227.832 237.811 227.841 237.789 227.841C237.778 227.842 237.767 227.841 237.756 227.838C237.745 227.834 237.735 227.829 237.726 227.821C237.718 227.813 237.711 227.804 237.706 227.794C237.702 227.783 237.699 227.772 237.699 227.761C237.702 227.739 237.712 227.718 237.729 227.703C237.746 227.689 237.767 227.681 237.789 227.681Z" fill="#7AD8D8"/>
    <path d="M209.058 250.521C209.185 250.521 209.288 250.418 209.288 250.291C209.288 250.164 209.185 250.061 209.058 250.061C208.931 250.061 208.828 250.164 208.828 250.291C208.828 250.418 208.931 250.521 209.058 250.521Z" fill="#7AD8D8"/>
    <path d="M172.87 254.92C172.94 254.919 173.01 254.931 173.076 254.957C173.141 254.984 173.201 255.022 173.251 255.072C173.301 255.121 173.341 255.18 173.369 255.245C173.396 255.31 173.41 255.38 173.41 255.45C173.392 255.579 173.328 255.698 173.23 255.784C173.132 255.869 173.005 255.917 172.875 255.917C172.744 255.917 172.618 255.869 172.52 255.784C172.422 255.698 172.358 255.579 172.34 255.45C172.34 255.309 172.396 255.175 172.495 255.075C172.595 254.976 172.729 254.92 172.87 254.92Z" fill="#7AD8D8"/>
    <path d="M139 239.771C139.413 239.771 139.818 239.893 140.161 240.123C140.505 240.352 140.773 240.679 140.931 241.061C141.089 241.443 141.131 241.863 141.05 242.268C140.969 242.674 140.77 243.046 140.478 243.338C140.186 243.631 139.813 243.83 139.408 243.91C139.002 243.991 138.582 243.95 138.2 243.792C137.818 243.633 137.492 243.365 137.262 243.022C137.033 242.678 136.91 242.274 136.91 241.861C136.913 241.307 137.134 240.777 137.525 240.386C137.917 239.994 138.447 239.773 139 239.771Z" fill="#7AD8D8"/>
    <path d="M116.451 207.99C117.47 207.99 118.466 208.292 119.313 208.859C120.16 209.425 120.82 210.23 121.21 211.172C121.599 212.113 121.701 213.149 121.501 214.149C121.301 215.148 120.81 216.065 120.089 216.785C119.368 217.505 118.449 217.995 117.449 218.193C116.45 218.39 115.414 218.287 114.473 217.895C113.532 217.504 112.729 216.842 112.164 215.994C111.599 215.146 111.299 214.149 111.301 213.13C111.301 212.454 111.434 211.785 111.693 211.161C111.952 210.537 112.331 209.969 112.81 209.492C113.288 209.015 113.856 208.636 114.481 208.379C115.105 208.121 115.775 207.989 116.451 207.99Z" fill="#7AD8D8"/>
</svg>
