<svg width="847" height="1101" viewBox="0 0 847 1101" fill="none" xmlns="http://www.w3.org/2000/svg">
<path d="M651.633 1.0415C649.234 1.66313 650.212 3.26147 653.943 5.12631C655.72 6.01435 657.231 7.07997 657.231 7.4352C657.231 7.79042 656.076 8.94482 654.743 9.92162C651.633 12.1416 649.234 17.0258 649.234 20.7554C649.234 24.9291 647.368 27.9483 643.637 29.8131C638.839 32.2996 637.684 31.6779 638.661 26.8827C639.816 21.0218 639.638 19.8674 637.684 19.3346C635.462 18.713 635.462 18.7129 637.861 15.5161C639.816 12.852 640.616 5.92553 639.016 5.65912C637.95 5.39272 632.442 14.6281 623.112 32.3884C613.783 50.0599 611.562 51.9247 610.407 43.0446C609.963 40.2029 610.318 38.3381 611.74 35.5852C612.717 33.5428 614.583 29.1027 615.827 25.7283C617.071 22.265 619.736 17.3809 621.691 14.8057C625.867 9.38881 626.044 8.23442 623.023 6.63598C621.246 5.65917 620.625 5.65917 619.469 6.63598C618.759 7.25761 618.137 8.23442 618.137 8.94482C618.137 11.7865 616.271 10.8097 614.672 7.08002C613.25 3.8832 612.45 3.08393 610.673 3.08393C608.363 3.08393 606.586 5.21513 606.586 8.1456C606.586 11.4312 604.632 16.4041 602.41 19.0682C600.456 21.4659 600.189 22.3538 600.633 26.2611C601.255 30.9676 601.166 30.9675 596.724 27.7707C595.48 26.7939 593.881 26.3498 593.17 26.6163C591.126 27.5043 588.639 31.5004 588.283 34.5196C588.194 36.0292 588.017 37.5389 588.017 37.8053C587.928 38.0717 586.95 38.7821 585.706 39.3149C583.041 40.5581 582.952 42.0677 585.262 48.8166C586.24 51.6583 587.039 54.1447 587.039 54.3223C587.039 54.4998 585.973 54.3223 584.729 54.0559C583.13 53.6119 581.708 54.0559 579.842 55.3879L577.177 57.3415L577.799 55.1215C578.243 53.2567 577.71 52.5463 574.6 50.5039C571.668 48.5502 571.224 47.9287 572.29 47.307C574.778 45.8862 573.801 44.9094 570.957 45.8862C569.003 46.5078 567.226 46.5078 564.294 45.7086C560.118 44.5542 558.874 44.8206 560.029 46.7742C560.473 47.3958 560.828 49.8822 560.917 52.3686C560.917 54.7663 561.628 58.1408 562.517 59.828C563.672 62.048 563.849 63.0248 563.05 63.824C562.072 64.8008 561.362 64.2681 559.051 60.3608C558.518 59.4727 556.564 58.6736 553.987 58.4072C550.611 57.9632 549.1 58.3184 545.991 60.1832C543.414 61.6928 541.37 62.2256 539.771 61.9592C534.618 60.9824 534.618 69.8625 539.682 75.1906L542.17 77.7659L538.172 75.9898C533.018 73.5922 531.064 73.5922 531.064 75.901C531.064 78.2987 528.132 84.0708 526.088 85.758C524.667 86.9124 524.578 86.8236 525.288 85.2252C527.154 80.7851 529.376 70.3954 529.909 63.7352C530.353 57.4304 530.264 56.3647 529.109 56.3647C527.51 56.3647 526.444 58.94 524.4 67.0209C523.6 70.2177 521.468 75.3682 519.602 78.565C517.736 81.7619 515.782 85.6692 515.071 87.1788C514.449 88.7772 513.827 90.1092 513.649 90.1092C513.383 90.1092 512.139 88.7772 510.717 87.2676C508.585 84.87 507.519 84.3372 504.586 84.3372C502.276 84.3372 500.322 84.9588 499.078 86.1132L497.123 87.8892L497.745 84.9588C498.1 83.0939 497.923 81.5843 497.301 80.7851C495.701 78.8315 494.635 80.0747 494.635 83.8043C494.635 89.2212 493.125 92.5069 490.282 93.0397C488.06 93.4837 482.196 98.4566 482.196 99.9662C482.196 100.321 483.262 101.476 484.684 102.63C486.372 103.962 486.728 104.673 485.839 105.028C485.039 105.294 485.395 106.005 487.172 107.426L489.571 109.379L485.306 109.912C482.907 110.267 477.754 112.132 473.844 113.997C463.271 119.147 459.628 123.854 466.292 123.854C469.58 123.854 469.58 125.186 466.381 126.873C461.938 129.182 461.317 130.514 463.449 133.444L465.226 136.02L463.094 138.062L460.872 140.193L462.738 142.147C466.648 146.32 462.383 149.073 451.099 149.873C442.569 150.494 438.127 151.737 436.883 154.046C435.017 157.509 439.993 158.753 443.724 155.822C446.39 153.78 448.344 153.602 450.655 155.201C452.609 156.71 451.454 157.687 446.656 158.486C444.435 158.842 443.458 159.463 443.28 160.795C442.836 163.726 445.057 164.969 449.055 163.903C453.498 162.66 454.297 163.726 452.076 168.166C450.121 171.895 449.411 172.428 447.9 171.007C447.456 170.563 445.679 169.764 443.813 169.231C442.036 168.61 440.348 167.544 440.081 166.834C439.637 165.679 439.282 165.679 437.149 166.834C433.684 168.61 428.531 174.115 429.242 175.27C429.597 175.803 430.663 176.247 431.641 176.247C432.618 176.247 436.172 176.868 439.637 177.667C444.346 178.733 446.212 179.621 447.278 181.219C449.144 184.15 448.078 185.038 445.501 182.64C441.059 178.467 430.13 178.555 426.665 182.818C425.688 184.061 424.266 185.127 423.555 185.127C421.956 185.127 417.336 189.567 417.336 190.988C417.336 191.609 418.224 192.764 419.29 193.474C421.334 194.895 420.89 195.339 416.447 196.049C414.404 196.316 414.493 196.493 417.78 198.092L421.334 199.779L418.047 200.045C414.315 200.401 413.693 201.466 416.447 202.887C419.113 204.308 418.669 205.018 413.782 207.327C411.383 208.481 408.451 210.346 407.385 211.501C404.364 214.698 406.407 215.408 417.513 215.142C424.888 214.875 426.843 215.053 425.954 215.852C421.601 220.026 415.026 225.087 413.871 225.087C413.16 225.087 411.827 224.377 410.939 223.578C409.428 222.157 409.162 222.246 406.851 223.933C403.564 226.331 403.297 229.439 406.23 232.191C409.428 235.122 408.984 235.832 404.986 234.234C403.031 233.435 400.899 233.079 400.188 233.346C398.766 233.879 395.123 242.67 395.123 245.423C395.123 246.311 395.923 248.087 396.9 249.33C397.878 250.573 398.677 251.728 398.677 251.994C398.677 252.261 396.811 252.438 394.501 252.349C390.592 252.172 390.237 252.349 389.97 254.392C389.792 255.99 390.503 257.411 392.369 259.187C394.679 261.318 395.212 261.496 396.989 260.608C398.144 259.986 400.01 258.654 401.165 257.677C402.231 256.701 403.12 256.257 403.12 256.789C403.12 258.388 395.923 265.936 389.615 270.909C386.327 273.573 383.573 276.326 383.573 277.036C383.573 277.658 381.44 280.055 378.953 282.275L374.244 286.36H378.419C383.395 286.36 384.55 287.515 380.907 289.024C379.397 289.646 378.242 290.8 378.242 291.6C378.242 292.488 377.353 293.997 376.198 295.063L374.155 297.016L371.578 294.352C368.557 291.156 365.714 290.8 366.069 293.642C366.158 295.063 365.625 295.684 363.67 296.217C359.583 297.372 357.007 300.48 355.141 306.607C354.252 309.893 352.386 313.445 351.054 314.865L348.566 317.441H351.231C354.963 317.441 355.407 318.151 353.275 321.17C352.209 322.591 351.676 324.012 351.942 324.367C353.63 325.966 367.58 319.75 367.58 317.441C367.58 316.908 366.247 316.553 364.737 316.553L361.805 316.464L365.536 313.001C372.111 306.785 376.465 307.317 376.465 314.421C376.465 317.53 376.021 318.506 374.244 319.838C369.001 323.568 368.291 324.278 367.669 327.12C366.958 330.761 365.892 331.383 359.317 332.093C354.43 332.626 354.163 332.803 355.496 334.224C357.54 336.444 357.273 336.977 354.075 336.977C349.899 336.977 348.566 335.823 349.277 332.981C350.698 327.475 346.522 325.255 341.813 328.985C339.681 330.672 339.681 330.85 341.191 332.004C342.613 333.159 342.435 333.514 338.704 336.799C336.482 338.753 332.129 341.417 328.93 342.749L323.244 345.236L325.82 347.633C327.508 349.143 328.486 351.008 328.486 352.428C328.486 355.004 326.709 355.537 324.932 353.405C323.599 351.807 321.378 351.629 321.378 353.139C321.378 353.76 322.177 355.27 323.155 356.513C324.132 357.757 324.932 359.089 324.932 359.444C324.932 359.888 322.266 359.888 318.979 359.621C315.158 359.266 311.96 359.355 310.272 360.065C307.873 361.042 307.695 361.22 309.205 362.197C310.005 362.818 310.716 363.529 310.716 363.795C310.716 364.061 305.651 364.239 299.432 364.15C289.658 364.061 288.059 364.239 287.793 365.482C287.615 366.637 288.503 366.992 291.968 367.347C296.766 367.791 301.387 370.81 302.364 374.007C302.719 375.339 302.275 376.938 300.942 378.714C298.455 382.177 297.388 382.088 297.388 378.358C297.388 373.741 295.967 370.722 293.834 370.722C291.435 370.722 287.615 372.675 285.482 375.073C283.972 376.76 283.883 377.026 285.305 379.069L286.726 381.289L280.862 381.111C275.442 380.934 274.909 381.111 272.866 383.42C271.711 384.841 270.911 386.262 271.178 386.617C271.355 387.061 276.064 387.594 281.573 387.949C292.502 388.659 296.5 389.281 296.5 390.258C296.5 391.501 291.968 392.922 288.059 392.922C285.838 392.922 283.617 393.455 282.817 394.254C281.662 395.408 281.306 395.32 279.885 393.543C276.153 388.837 272.688 388.571 268.601 392.655C265.669 395.586 265.669 396.296 268.69 396.652C270.378 396.829 271.266 397.54 271.444 398.694C271.622 399.671 272.421 401.003 273.221 401.536C274.465 402.512 274.287 402.779 271.8 403.667C267.89 404.999 268.246 406.242 272.51 406.242C277.397 406.242 276.953 407.397 271.355 409.173C266.113 410.86 262.826 412.902 263.892 413.879C264.247 414.234 269.045 414.767 274.554 414.945C290.103 415.566 290.458 417.431 275.176 419.651C267.09 420.806 265.758 421.96 268.956 425.334C271.089 427.554 273.488 428.709 276.42 428.798C278.819 428.886 279.618 431.994 278.197 435.991C276.331 441.496 276.686 447.979 278.908 447.979C279.441 447.979 281.218 446.736 282.995 445.226C285.038 443.45 286.371 442.828 286.549 443.45C287.171 445.403 284.15 452.064 281.218 454.994C277.752 458.546 278.819 459.7 285.216 459.345C287.526 459.168 289.392 459.345 289.392 459.612C289.392 461.033 284.772 464.851 282.995 464.851C281.04 464.851 270.2 473.287 268.69 475.951C267.712 477.816 268.69 479.059 271 479.059C273.399 479.059 277.219 476.573 276.509 475.507C275.709 474.175 281.484 470.179 286.46 468.758C293.124 466.805 294.456 468.137 290.28 472.399C287.526 475.241 287.437 475.507 289.214 475.507C291.968 475.507 291.613 476.839 288.503 479.237C286.904 480.391 286.016 481.723 286.282 482.522C286.549 483.144 286.104 484.565 285.216 485.453C283.617 487.229 283.705 487.229 288.948 486.607L294.279 486.074L290.547 488.383C288.059 489.893 286.726 491.314 286.726 492.468C286.726 494.244 286.637 494.244 283.972 492.291C281.662 490.692 281.04 490.603 280.418 491.58C279.974 492.291 279.618 493.179 279.618 493.711C279.618 494.155 278.819 493.711 277.93 492.557C275.709 489.982 275.176 490.071 275.176 493.09C275.176 496.553 279.085 502.059 284.949 507.032C290.813 512.004 292.857 514.491 292.946 516.533C292.946 520.263 309.205 519.109 315.247 515.024C316.935 513.781 319.334 512.804 320.4 512.804C323.599 512.804 334.705 501.171 334.705 497.796C334.705 495.843 335.238 495.132 336.749 494.688C337.815 494.422 340.836 492.379 343.501 490.159C346.256 487.762 349.099 486.163 350.165 486.252C353.63 486.519 354.163 486.163 355.674 483.233C356.829 481.19 357.184 477.905 357.273 471.067C357.362 460.944 358.784 456.859 362.16 456.859C364.47 456.859 364.914 458.546 364.914 467.781C364.914 477.55 365.892 479.858 370.778 481.723C375.132 483.322 377.353 485.009 377.353 486.785C377.353 487.495 377.886 487.939 378.419 487.762C380.374 487.051 381.885 479.858 381.263 474.086C380.818 469.913 381.085 467.87 382.24 465.473C383.04 463.697 383.484 461.921 383.217 461.477C382.951 461.033 384.195 459.345 385.972 457.658C392.635 451.264 394.768 440.963 392.014 427.288C391.125 423.026 390.592 419.385 390.77 419.296C390.947 419.207 392.28 418.497 393.702 417.786C397.078 416.099 399.921 411.304 399.21 408.64C398.944 407.485 396.723 404.288 394.324 401.536C391.036 397.806 389.703 395.408 388.904 391.856C387.393 384.486 386.594 337.51 387.926 330.672C389.97 320.638 395.656 311.935 402.587 308.383C405.608 306.873 407.207 306.607 412.716 307.051C418.846 307.495 419.468 307.406 421.423 305.453C424.888 301.989 423.822 296.484 418.757 291.777C415.47 288.758 415.825 285.916 420.446 275.971C426.754 262.473 427.998 257.589 429.242 239.828C430.486 222.157 430.752 221.535 436.972 221.535C438.926 221.535 441.148 220.825 442.658 219.582C444.879 217.806 445.057 217.362 444.524 213.099C444.08 208.837 444.168 208.304 447.634 203.775C451.81 198.181 461.761 181.663 461.761 180.331C461.761 179.799 460.517 177.579 459.095 175.359C455.63 170.119 455.719 168.166 459.54 165.235C461.583 163.637 463.715 160.44 466.114 155.467C469.668 148.097 473.844 142.324 476.954 140.637C478.198 140.016 479.353 140.193 481.219 141.17C488.416 144.811 490.904 142.058 491.881 129.271C492.681 119.414 493.658 117.282 497.212 117.904C498.456 118.17 504.498 120.568 510.628 123.232C525.733 129.803 525.111 129.803 525.822 123.854C526.088 121.19 527.243 117.016 528.221 114.618C530.619 109.29 530.619 107.603 528.398 102.63C525.644 96.6805 525.999 95.7038 530.531 95.2598C533.196 94.9045 536.306 93.5725 539.949 91.1748C548.301 85.5804 553.987 85.314 557.097 90.2868C568.558 108.846 572.29 112.754 578.51 112.754C581.175 112.754 583.663 111.777 587.661 109.29L593.259 105.827L600.367 110.001C604.276 112.221 608.274 114.086 609.252 114.086C610.407 114.086 611.562 112.842 612.895 110.267C615.382 105.383 617.87 102.63 621.513 101.209C623.023 100.499 624.445 99.4334 624.445 98.8118C624.534 98.1901 624.623 93.8389 624.712 89.2212C624.8 81.7619 625.245 79.8971 628.177 72.4378C629.954 67.9089 631.464 63.2912 631.464 62.1368C631.464 60.4496 632.264 59.7392 635.729 58.5848C647.901 54.3223 652.344 52.3686 657.231 49.1718C660.163 47.307 662.828 45.7086 663.095 45.7086C663.983 45.7086 677.044 56.8976 680.865 60.9824C686.462 66.8433 687.44 68.7081 687.44 73.681C687.44 77.3219 686.818 79.1867 683.886 83.8932C679.976 90.198 679.621 91.9741 681.664 93.6613C683.353 95.0821 683.264 95.1709 685.929 89.0436C687.529 85.4027 689.217 83.2715 692.06 81.3179C701.745 74.569 702.544 72.9706 698.99 67.1985C696.947 63.8241 696.414 63.7352 693.393 66.1329C689.039 69.5961 687.351 67.0209 691.527 63.2024C694.548 60.3608 694.103 57.6968 690.638 57.6968C688.861 57.6968 687.973 57.2527 687.795 56.0983C687.44 53.7895 685.929 52.1911 680.687 48.7278C675.534 45.3534 674.468 43.6661 676.333 42.1565C677.933 40.8245 681.576 41.6237 688.062 44.5542C691.349 46.0638 693.57 46.5966 695.259 46.1526C697.213 45.7086 712.14 36.6509 715.25 34.0756C716.227 33.2764 710.896 27.3267 707.697 25.6394C705.654 24.5738 704.499 24.4851 702.366 25.1955C698.724 26.5275 698.457 25.9947 700.856 22.709C702.988 19.7786 702.722 18.8018 699.168 17.7361C697.48 17.2921 696.947 17.5586 696.591 18.9794C696.147 20.8442 694.548 21.6434 694.548 19.9562C694.548 19.4234 692.593 18.0025 690.105 16.5817C686.107 14.3617 685.13 13.2073 683.53 8.1456C682.198 4.06073 676.955 8.94482 673.668 17.2921C671.269 23.4194 667.626 27.9483 665.049 27.9483C663.006 27.9483 663.006 27.0603 665.405 22.1762C666.471 20.045 667.093 17.9138 666.738 17.5585C666.382 17.2033 664.25 17.8249 662.117 18.8906C659.896 19.9562 658.119 20.6666 658.119 20.4002C658.119 20.2226 658.919 18.7129 659.896 17.0257C660.874 15.3385 661.584 13.0296 661.496 11.8752C661.229 10.0992 661.762 9.74404 665.138 9.1224C672.158 7.87919 673.846 3.97192 668.337 1.66308C665.494 0.508684 655.276 0.0646895 651.633 1.0415Z" fill="#ACDBDB"/>
<path opacity="0.4" d="M590.056 15.9607C589.256 18.0032 590.411 21.7328 592.1 22.3544C593.699 22.976 597.164 19.424 596.276 18.092C596.009 17.648 594.588 16.6711 593.166 15.9607C590.856 14.7175 590.5 14.7175 590.056 15.9607Z" fill="#ACDBDB"/>
<path opacity="0.4" d="M510.894 50.0621C510.361 50.9501 508.584 51.9269 507.074 52.1933L504.23 52.8149L506.185 55.479C508.051 58.143 511.516 59.6526 513.115 58.6758C514.626 57.7878 515.159 53.5253 514.093 50.8613C512.938 47.9308 512.316 47.7532 510.894 50.0621Z" fill="#ACDBDB"/>
<path d="M653.676 53.3448C649.056 56.0089 643.547 58.5841 641.415 59.1169C637.328 60.1825 635.817 61.8697 632.086 69.3291C628.532 76.4332 626.755 84.3365 627.199 91.6182C627.732 98.9887 626.933 100.765 622.046 103.074C618.669 104.672 615.115 109.911 614.138 114.973C613.783 116.66 613.338 118.347 613.161 118.703C612.894 119.058 608.896 117.104 604.098 114.351C599.389 111.599 594.502 109.378 593.258 109.378C592.015 109.378 589.082 110.622 586.684 112.131C576.555 118.614 569.18 114.529 558.607 96.5023C553.543 87.9774 553.009 87.6222 548.123 89.3094C545.102 90.375 543.947 92.595 544.835 95.5255C545.457 97.3015 545.28 97.3903 540.926 96.7687C537.461 96.3247 536.395 96.4135 536.395 97.3015C536.395 99.3439 545.457 107.336 556.475 114.973C570.602 124.919 579.931 134.243 583.663 142.057C586.15 147.385 586.506 149.428 587.039 158.308C587.483 166.3 587.927 168.698 589.082 169.497C590.149 170.385 590.504 171.895 590.415 175.891C590.326 179.887 590.859 182.284 592.636 186.014C595.391 191.697 595.48 193.029 593.614 204.396C590.682 222.778 596.457 237.341 609.34 243.824C612.45 245.333 615.027 247.376 615.826 248.885C617.426 251.993 620.091 268.067 619.736 272.595L619.469 276.147L615.382 275.881C609.696 275.437 607.83 277.302 595.657 295.24C586.239 309.004 585.351 310.07 580.464 312.645C577.532 314.243 574.422 316.374 573.534 317.529C570.779 320.992 566.603 330.139 566.603 332.803C566.603 335.378 565.804 335.911 558.874 337.776C555.853 338.575 554.964 339.285 554.52 341.239C553.454 346.034 553.098 346.833 549.633 351.362C545.724 356.601 545.457 358.91 547.501 367.613C548.212 370.543 548.834 375.96 548.834 379.601C548.834 384.84 549.367 387.238 551.144 391.145C553.809 396.828 554.076 401.801 552.121 408.905C550.166 415.566 548.656 432.26 549.722 435.013C550.699 437.766 551.321 438.121 557.985 439.453C563.405 440.608 563.494 440.608 563.227 443.36C562.872 447.268 566.07 447.978 572.29 445.403C574.778 444.426 577.177 443.538 577.532 443.538C577.799 443.538 577.887 445.847 577.621 448.6C577.177 452.862 577.354 454.105 578.776 455.793L580.464 457.924L593.614 454.638C601.788 452.596 608.896 450.287 612.628 448.333C615.915 446.646 620.98 444.87 624.089 444.426C627.11 443.893 632.352 442.295 635.906 440.785C639.816 439.187 644.969 437.766 649.234 437.322C653.143 436.878 657.408 435.901 658.741 435.191C662.739 433.059 690.46 403.844 701.744 389.813C710.007 379.601 719.07 366.37 721.646 360.864C724.401 354.914 724.578 348.432 722.18 344.436C720.491 341.683 717.382 338.93 709.652 333.158C705.476 330.05 697.213 320.459 697.213 318.683C697.213 318.062 699.256 316.374 701.655 314.776C709.207 309.981 709.741 306.429 704.232 300.035C699.701 294.796 698.901 292.664 699.523 287.869C699.967 284.672 699.701 283.696 697.302 280.765C694.103 276.68 693.214 272.063 693.303 261.051C693.481 251.638 694.814 246.133 697.746 242.581C699.523 240.449 699.789 239.384 699.345 236.72C698.368 231.569 694.37 220.38 687.972 204.929L681.931 190.543L686.373 183.172C688.772 179.088 692.504 172.427 694.547 168.343L698.279 160.883L696.324 157.242C692.148 149.783 687.439 144.366 682.375 141.347C675.445 137.351 673.934 134.598 673.401 124.297C673.046 117.815 673.312 115.239 674.556 111.954C676.066 108.046 676.066 107.78 674.556 106.093C673.046 104.406 673.134 104.228 675.711 100.143C677.577 97.2127 678.377 94.9039 678.288 92.595C678.199 90.375 679.087 87.9774 680.953 84.9581C686.462 76.078 686.728 71.9931 682.108 65.0666C679.62 61.2481 664.516 48.2831 662.917 48.4608C662.472 48.5496 658.296 50.7696 653.676 53.3448Z" fill="#ACDBDB"/>
<path opacity="0.4" d="M497.834 63.6468C497.123 64.8012 496.235 67.3764 495.88 69.4188C495.346 72.8821 495.435 73.2373 497.123 73.2373C499.345 73.2373 502.632 69.2412 502.632 66.4884C502.632 64.8012 500.589 61.6931 499.522 61.6931C499.256 61.6931 498.545 62.5811 497.834 63.6468Z" fill="#ACDBDB"/>
<path opacity="0.4" d="M512.407 63.2918C509.919 65.3343 509.119 71.4616 510.807 76.3456C513.117 83.3609 516.938 80.2529 518.182 70.4848C519.159 62.759 516.76 59.7398 512.407 63.2918Z" fill="#ACDBDB"/>
<path opacity="0.4" d="M485.215 75.9023C481.572 77.3231 477.929 89.7553 480.95 90.7321C482.372 91.1761 487.969 87.0912 487.969 85.6704C488.058 84.96 488.769 83.2728 489.569 82.0295C490.813 80.1647 490.901 79.1879 490.279 77.3231C489.302 74.9254 488.325 74.659 485.215 75.9023Z" fill="#ACDBDB"/>
<path d="M529.999 98.6359C529.643 98.9023 530.265 101.389 531.332 104.23L533.197 109.381L530.354 114.798C527.866 119.504 527.6 120.57 528.577 122.079C529.555 123.589 529.466 124.3 528.4 126.253C525.734 130.871 524.135 131.137 517.471 128.207C514.095 126.697 508.941 125.01 505.921 124.388C502.189 123.589 500.145 122.701 499.257 121.369C498.546 120.303 497.391 119.415 496.769 119.415C495.436 119.415 495.17 120.392 493.837 131.137C493.037 138.33 490.549 145.168 488.417 146.5C487.973 146.766 485.574 145.967 483.175 144.635C476.955 141.083 475.356 142.06 470.647 152.006C464.25 165.503 463.983 165.947 460.962 166.924C459.452 167.368 458.208 168.256 458.208 168.878C458.208 169.411 459.541 172.252 461.229 175.005C464.161 179.889 464.25 180.244 463.095 183.086C462.384 184.684 459.363 189.835 456.342 194.453C450.212 203.954 446.746 211.68 446.658 215.854C446.658 219.228 444.703 221.093 439.194 222.958C433.063 225.089 432.442 226.51 431.553 241.251C430.665 255.015 428.888 262.741 424.445 272.598C422.846 276.061 420.891 280.856 420.003 283.343L418.403 287.96L420.891 289.736C426.133 293.644 426.133 304.921 420.891 308.651C418.936 309.983 418.048 310.072 413.605 309.273C406.497 307.852 402.499 309.184 397.879 314.423C392.015 321.083 390.504 326.323 389.794 342.307C389.172 357.758 390.149 385.908 391.659 392.124C392.281 394.877 394.058 397.985 396.99 401.449C400.456 405.533 401.344 407.309 401.344 409.796C401.344 413.97 398.767 418.854 395.835 420.274C392.903 421.606 392.903 421.695 394.769 428.799C396.457 435.282 396.013 445.849 393.881 451.089C393.081 453.042 390.949 455.884 389.26 457.482C387.128 459.436 386.151 460.945 386.328 462.366C386.506 463.521 385.973 465.386 385.173 466.629C384.285 468.05 383.663 471.69 383.307 476.93C382.952 485.099 380.909 491.404 378.51 492.204C377.976 492.381 376.644 491.671 375.666 490.694C374.6 489.628 373.623 488.829 373.356 488.829C372.379 488.829 373.09 497.798 374.689 504.991C377.355 517.334 392.015 550.546 398.501 558.982C400.544 561.646 400.9 563.156 401.166 569.283C401.433 575.233 401.255 576.742 399.922 577.986C398.412 579.495 398.501 579.85 401.788 586.333C404.098 590.862 405.165 594.059 405.076 596.368C404.809 601.518 406.408 602.228 414.05 600.364C424.534 597.788 424.445 597.877 424.445 592.549C424.445 586.244 427.022 581.804 430.487 582.248C432.353 582.426 432.975 582.071 433.152 580.561C433.685 576.92 435.462 576.387 443.459 577.453C447.546 577.986 451.722 578.163 452.788 577.897C456.431 576.92 462.739 561.646 463.983 550.99C464.25 547.793 465.138 542.732 465.849 539.712C466.471 536.693 467.626 528.168 468.426 520.709C469.225 512.805 470.381 506.057 471.18 504.281C471.98 502.593 474.734 499.396 477.4 497.176C479.976 494.956 482.82 491.582 483.797 489.628C484.774 487.675 485.84 486.52 486.196 486.964C487.262 488.74 489.483 487.941 492.593 484.833C494.903 482.524 495.525 481.281 495.081 479.86C494.548 478.262 494.637 478.173 496.236 478.972C501.478 481.725 504.144 478.528 499.879 474.532C498.368 473.2 497.391 471.602 497.746 471.069C498.102 470.536 500.323 469.115 502.722 467.872C509.119 464.675 509.919 462.366 506.631 456.15C502.811 448.868 489.217 435.282 483.975 433.595C477.666 431.641 476.511 428.355 476.422 412.904C476.422 401.093 476.6 400.028 479.532 391.148C482.553 382.001 483.086 377.117 481.753 372.322C481.22 370.19 481.576 369.658 485.752 366.638C488.861 364.418 490.905 362.11 491.971 359.712C495.703 350.921 512.495 333.693 525.823 324.991C535.063 318.863 536.485 317.354 540.661 308.562C542.171 305.365 545.459 300.393 547.858 297.462C550.346 294.621 552.389 291.956 552.389 291.69C552.389 291.335 550.79 289.47 548.835 287.428C544.215 282.81 544.215 280.235 548.835 271.532C550.879 267.803 552.211 264.162 551.945 263.274C551.678 262.297 553.278 259.722 556.92 255.637C562.696 249.154 564.828 245.336 564.828 241.34C564.828 236.722 565.805 234.768 567.582 235.301C568.56 235.656 569.271 235.568 569.271 235.124C569.271 234.768 569.626 233.792 570.159 233.081C570.87 232.016 571.136 232.016 572.558 233.17C573.447 233.969 575.49 235.035 577.178 235.656C580.821 236.811 592.905 236.988 593.704 235.745C593.971 235.301 593.349 231.216 592.283 226.776C590.328 218.518 590.328 214.522 592.016 196.584C592.46 191.345 592.283 190.101 589.884 184.596C588.107 180.511 587.307 177.669 587.663 175.982C588.018 174.383 587.663 172.963 586.596 171.808C585.352 170.387 584.908 167.723 584.464 158.754C583.931 149.075 583.487 146.677 581.443 142.237C578.244 135.311 569.981 127.141 555.943 117.195C549.812 112.844 542.349 106.717 539.328 103.698C534.353 98.6359 531.42 97.1263 529.999 98.6359Z" fill="#ACDBDB"/>
<path opacity="0.4" d="M440.434 105.206C440.434 105.738 438.746 106.893 436.614 107.781C434.57 108.669 432.349 110.09 431.638 110.889C429.772 113.109 432.793 113.819 436.525 112.043C440.256 110.267 440.256 110.8 436.88 115.862C435.458 118.082 434.215 120.124 434.215 120.479C434.215 121.368 439.723 121.368 440.878 120.479C441.411 120.124 441.856 119.236 441.944 118.526C442.033 117.815 442.566 115.951 443.1 114.53C443.899 112.487 443.988 110.978 443.188 108.047C442.211 104.762 440.434 102.808 440.434 105.206Z" fill="#ACDBDB"/>
<path opacity="0.4" d="M450.833 106.716C450.122 107.604 449.056 110.002 448.523 112.044C447.901 114.087 446.835 116.129 446.035 116.573C445.324 117.017 444.347 118.971 444.08 120.836C443.547 124.21 443.458 124.299 439.016 124.832C431.908 125.72 425.333 130.071 426.488 133.179C427.643 136.021 432.441 134.511 437.95 129.361C439.194 128.206 440.704 127.496 441.237 127.762C441.77 128.117 443.725 126.963 445.591 125.187C447.545 123.5 449.322 122.079 449.589 122.079C449.856 122.079 449.678 123.322 449.145 124.832C448.612 126.253 448.434 127.762 448.789 128.029C449.411 128.65 456.164 123.145 461.051 118.172C464.693 114.264 465.849 111.689 464.96 108.936C463.894 105.739 461.85 105.917 458.563 109.469L455.542 112.755V110.002C455.542 107.515 454.209 105.207 452.876 105.207C452.521 105.207 451.633 105.917 450.833 106.716Z" fill="#ACDBDB"/>
<path d="M618.76 471.424C617.782 472.223 615.827 472.489 613.34 472.223C607.653 471.512 600.19 473.999 596.725 477.728C595.125 479.416 592.638 481.014 591.305 481.369C586.596 482.346 585.796 489.361 589.706 494.423C591.483 496.643 591.483 496.643 589.706 497.087C587.395 497.709 587.484 498.153 590.683 503.747C594.148 509.786 596.902 511.206 599.834 508.454L601.967 506.411L603.477 508.72C604.632 510.407 604.899 512.006 604.455 514.492C604.099 517.067 604.277 518.399 605.343 519.376C606.587 520.619 607.031 520.619 609.963 519.287C611.74 518.488 614.406 517.867 615.827 517.955C619.559 518.133 625.868 522.129 632.265 528.523C635.375 531.631 638.307 534.117 638.751 534.117C639.195 534.117 640.794 533.496 642.216 532.696C643.815 531.897 645.859 531.542 647.369 531.897C650.39 532.519 655.099 529.588 657.409 525.592C659.009 522.839 659.009 522.662 657.232 518.222C653.411 508.365 655.455 495.222 662.918 482.613L666.827 475.952L655.543 475.331C647.28 474.976 642.394 474.176 636.885 472.489C628.711 470.003 621.247 469.559 618.76 471.424Z" fill="#ACDBDB"/>
<path d="M91.7905 505.878C90.4578 509.075 88.0588 517.155 87.2592 520.974C86.9038 522.661 86.1041 523.638 84.5937 523.993C81.1285 524.881 77.9299 529.232 77.9299 533.14C77.9299 536.869 79.9735 540.333 82.2836 540.333C84.9491 540.333 85.0379 541.398 82.639 544.24C77.7522 550.012 73.3097 562.533 76.1529 562.533C76.686 562.533 77.0414 562.888 77.0414 563.421C77.0414 563.865 76.0641 564.309 74.909 564.309C73.754 564.309 72.3324 564.931 71.7104 565.641C70.1111 567.595 72.9543 570.525 76.5083 570.525C78.6407 570.525 80.24 569.459 84.3271 565.108C87.1703 562.178 89.4804 559.958 89.4804 560.135C89.4804 560.402 88.0588 563.51 86.3707 567.151C82.639 574.965 81.8393 578.872 83.2609 582.513L84.3271 585.177L85.1268 583.046C85.9264 581.004 86.0153 581.004 87.7923 582.602C89.125 583.757 90.8132 584.201 93.5675 584.112C97.8323 583.934 97.6546 583.579 96.0553 589.173C95.7888 590.239 96.1442 592.015 96.9438 593.169C98.8985 596.1 98.8097 596.366 95.3445 604.181C90.6355 614.659 90.7243 614.571 94.1895 618.034C98.01 621.852 98.9874 621.941 99.6982 618.478C100.409 615.37 100.676 615.281 104.496 617.235C108.139 619.011 111.426 618.3 114.536 614.837C116.491 612.706 117.646 612.262 120.933 612.262C124.843 612.262 126.175 613.239 124.043 614.482C123.51 614.837 121.911 616.702 120.489 618.655C118.623 621.32 117.912 623.273 117.912 626.115C117.912 631.532 118.623 632.686 122.888 634.462C126.175 635.883 126.886 636.682 127.775 639.968C128.486 642.898 128.486 644.763 127.775 647.782C127.153 650.002 126.442 652.666 126.175 653.732C125.909 655.064 126.442 656.574 128.041 658.527C130.796 661.724 130.707 662.523 127.419 665.01L125.02 666.786L122.977 664.832C121.822 663.767 119.689 662.701 118.268 662.346C114.447 661.635 108.317 663.5 105.829 666.164C102.897 669.361 103.074 671.403 106.451 672.114C108.583 672.469 109.116 673.002 108.672 674.068C108.317 674.867 108.761 676.288 109.472 677.087C110.716 678.508 110.716 679.04 109.027 683.48C106.628 690.052 102.275 694.314 95.6999 696.712C89.6581 698.932 88.4142 700.442 89.125 704.793C90.1024 710.21 90.1024 710.299 93.5675 708.167C96.0553 706.569 97.3881 706.302 100.409 706.835C102.453 707.102 106.273 707.723 108.761 708.078C112.404 708.522 114.181 709.41 116.58 711.719L119.601 714.65L123.421 712.963C125.553 712.075 129.196 709.499 131.595 707.279L135.949 703.283L133.994 707.013C131.595 711.808 127.242 716.781 124.043 718.468C122.71 719.09 119.601 719.711 117.29 719.711C109.027 719.8 103.163 724.329 91.8794 739.337C84.9491 748.572 85.1268 749.904 92.8567 745.997C100.409 742.178 103.785 741.557 107.606 743.155C113.115 745.464 114.98 745.02 116.935 741.113C118.979 737.205 123.243 733.298 126.442 732.499C127.775 732.144 130.351 732.676 133.017 733.831C138.526 736.229 142.435 736.317 143.057 734.008C143.59 731.966 145.456 731.7 169.445 730.545C183.306 729.835 186.593 729.48 190.414 727.792C194.768 725.928 202.32 719.356 201.254 718.379C201.076 718.113 197.966 717.58 194.501 717.136C191.036 716.692 187.837 716.071 187.304 715.715C185.616 714.739 186.238 712.785 188.992 710.831C190.503 709.766 191.569 708.256 191.48 707.457C191.303 706.48 193.079 704.704 196.367 702.573C202.764 698.31 205.963 693.604 206.585 687.832C207.384 679.396 202.32 674.956 191.836 674.867C187.482 674.867 185.971 675.222 185.083 676.376C183.661 678.241 180.196 678.419 177.886 676.732C176.287 675.577 176.287 675.4 178.508 672.736C181.529 669.272 182.151 667.052 181.529 663.323C180.818 659.593 176.465 655.863 170.334 653.643C167.935 652.755 165.891 651.778 165.891 651.423C165.891 651.157 167.046 649.47 168.379 647.782C175.665 638.902 174.51 634.285 163.492 628.779C156.296 625.227 155.496 623.717 149.454 602.405C147.855 596.722 143.146 591.305 136.127 587.309C132.484 585.266 130.618 584.733 125.998 584.733C119.778 584.733 113.292 583.135 113.736 581.803C113.914 581.27 116.757 579.76 120.134 578.428C123.51 577.008 127.064 575.054 128.041 573.988L129.907 572.124L125.287 572.656C122.71 573.012 120.578 572.923 120.578 572.479C120.578 572.124 122.444 570.614 124.665 569.193C130.263 565.641 133.905 561.112 138.703 551.788C143.768 541.931 145.989 534.561 144.567 532.785C141.546 529.144 120.489 530.653 110.538 535.182C107.25 536.692 104.318 537.669 103.963 537.313C103.608 537.047 104.674 534.117 106.273 531.008C107.961 527.723 109.027 524.704 108.672 523.816C108.139 522.306 110.982 519.198 120.045 511.295C124.665 507.299 125.198 504.901 121.466 503.835C120.223 503.48 113.292 503.214 106.095 503.125L92.9456 503.036L91.7905 505.878Z" fill="#ACDBDB"/>
<path d="M608.807 522.75C602.232 526.125 601.966 526.569 602.588 533.762C603.298 541.221 601.521 546.46 596.901 550.279C590.326 555.873 583.307 553.92 578.687 545.306C574.777 538.113 569.891 533.229 566.603 533.229C562.605 533.229 554.431 536.604 552.387 539.179C551.41 540.511 550.61 542.82 550.61 544.684C550.61 547.526 549.278 551.7 545.013 563.155C543.413 567.151 541.992 578.518 542.969 578.518C543.325 578.518 546.345 576.919 549.544 574.966C558.696 569.638 561.183 569.371 583.218 571.147C601.255 572.568 602.499 572.568 604.986 571.147C608.541 569.105 608.985 569.194 612.894 572.746C614.849 574.433 616.981 575.854 617.781 575.854C620.535 575.854 624.978 578.873 631.642 585.355L638.483 591.927L642.659 589.529C645.502 587.842 647.901 587.131 650.655 587.22C655.542 587.22 659.185 584.911 663.272 578.962C665.938 575.054 666.204 574.078 665.849 570.348C665.227 565.375 662.384 559.425 659.896 558.093C658.297 557.294 658.208 556.495 658.741 550.279C659.007 546.016 658.918 542.642 658.297 541.576C657.763 540.6 655.276 538.646 652.788 537.314C648.168 534.827 646.835 534.739 640.082 536.426C637.861 536.959 636.973 536.337 631.464 530.654C627.999 527.191 623.912 523.55 622.312 522.573C618.669 520.264 613.338 520.353 608.807 522.75Z" fill="#ACDBDB"/>
<path d="M349.366 539.267C342.791 545.128 339.414 547.081 334.528 547.881C330.529 548.502 324.132 553.209 322.266 556.761C321.2 558.892 320.934 563.155 320.934 576.83V594.235L324.754 598.32C327.686 601.605 328.486 603.115 328.486 605.602C328.486 607.378 329.019 610.13 329.73 611.729C330.796 614.304 331.596 614.837 335.505 615.814C338.881 616.613 340.747 616.613 343.057 615.814C346.167 614.837 349.188 612.262 347.322 612.262C345.989 612.262 344.479 606.49 344.479 601.517C344.479 594.679 345.367 591.749 347.766 590.861C349.366 590.239 349.81 589.617 349.366 588.285C348.921 586.953 349.366 586.42 351.765 585.799C354.43 585.177 354.697 584.733 354.785 581.803C354.874 577.807 357.273 574.965 360.472 574.965C363.049 574.965 367.224 571.235 366.247 569.726C365.981 569.193 364.559 568.749 363.137 568.749C356.474 568.749 354.43 560.846 357.806 548.413C358.873 544.773 359.583 540.155 359.406 538.201C358.961 532.607 356.651 532.873 349.366 539.267Z" fill="#ACDBDB"/>
<path d="M606.409 573.455C604.188 575.143 603.566 575.143 590.416 574.166C561.362 572.035 553.988 572.923 548.479 579.494C546.08 582.247 545.991 582.78 546.524 588.285C547.235 596.277 549.367 602.138 552.921 605.602C555.853 608.532 556.831 608.887 565.893 610.042C568.559 610.397 571.136 611.462 572.913 612.883C575.4 615.014 575.667 615.636 575.223 619.277C575.045 621.497 574.512 624.072 574.157 624.871C573.801 625.848 574.245 626.914 575.489 627.979C576.644 628.867 579.932 632.064 583.042 635.084C589.439 641.477 591.482 642.454 598.768 642.454C603.566 642.454 604.366 642.188 606.676 639.701C608.008 638.192 610.674 636.593 612.54 636.06C616.982 634.906 624.001 627.713 625.068 623.184C625.601 621.319 626.223 618.833 626.489 617.59C626.756 616.258 628.088 614.837 629.865 614.038C631.642 613.238 632.975 611.818 633.242 610.486C633.597 608.976 634.663 607.999 636.529 607.378C639.106 606.49 639.195 606.312 638.04 604.714C637.24 603.648 636.973 602.049 637.24 600.629C638.75 593.969 624.623 578.517 617.16 578.517C616.005 578.517 613.872 577.096 612.007 575.054L608.808 571.679L606.409 573.455Z" fill="#ACDBDB"/>
<path d="M663.897 583.935C658.833 589.086 656.256 590.24 651.103 589.53C647.193 588.997 646.66 589.175 644.972 591.395C643.906 592.727 642.573 595.479 641.951 597.433C641.063 600.452 641.063 601.074 642.395 602.051C645.416 604.271 643.55 608.533 638.841 609.954C635.82 610.931 628.979 619.101 628.268 622.475C628.002 624.162 626.935 626.116 626.047 627.004C624.981 627.981 624.359 629.668 624.359 631.799C624.359 634.996 624.181 635.174 620.716 635.706C615.829 636.506 610.498 639.347 609.876 641.479C609.343 643.787 603.301 645.386 598.148 644.675C589.796 643.343 588.73 645.83 591.573 659.328C594.772 674.957 593.261 683.659 587.22 684.37C582.511 684.902 582.333 690.852 587.042 693.694C590.063 695.47 590.951 697.335 590.951 702.307C591.04 707.28 593.084 708.257 597.526 705.327C603.301 701.508 607.655 700.709 623.026 700.709C638.753 700.709 645.772 701.775 651.725 705.149C656.523 707.991 661.054 708.701 681.312 709.944C699.704 711.099 703.702 711.898 705.568 714.473C707.078 716.605 707.434 716.072 708.233 710.832C709.388 702.84 714.63 696.891 722.183 694.848C724.67 694.138 725.737 693.339 726.181 691.74C726.803 689.342 725.292 681.528 722.893 674.157C721.028 668.652 721.472 666.432 724.759 664.656C726.092 663.945 727.158 664.034 729.113 665.1C732.667 666.876 735.688 666.787 739.864 664.656C744.928 662.08 745.817 659.86 743.062 656.664C741.818 655.154 741.108 653.378 741.374 652.401C741.818 650.536 739.686 649.559 734.799 649.559C731.69 649.559 729.202 647.606 729.202 645.208C729.202 644.409 727.425 641.567 725.204 638.992C720.317 633.22 714.008 620.788 713.92 616.703C713.92 615.016 714.186 611.908 714.542 609.865C715.785 603.028 710.543 595.035 701.925 590.595C698.193 588.731 695.261 588.819 692.507 590.951C689.042 593.703 687.442 593.259 687.442 589.619C687.442 585.622 684.51 583.491 680.068 584.29C677.491 584.823 676.958 584.646 676.514 583.047C676.158 581.538 675.625 581.271 673.404 581.715C671.894 582.07 670.561 581.804 670.205 581.271C669.05 579.495 667.451 580.206 663.897 583.935Z" fill="#ACDBDB"/>
<path d="M383.31 585.089C371.493 590.328 370.426 591.571 373.447 597.255C374.158 598.764 374.602 600.629 374.336 601.34C373.625 603.027 378.067 607.2 384.82 611.197C390.506 614.66 392.55 614.66 389.884 611.197C387.397 608.088 387.486 607.378 390.684 606.046C392.195 605.424 393.35 604.803 393.35 604.536C393.35 604.359 392.55 603.027 391.484 601.695C389.796 599.386 389.707 598.853 390.862 596.633C391.661 594.857 392.728 594.058 394.238 594.058C396.282 594.058 396.459 593.791 396.371 589.884C396.371 585.444 394.327 582.07 391.661 582.07C390.862 582.07 387.13 583.491 383.31 585.089Z" fill="#ACDBDB"/>
<path d="M45.9402 605.425C39.2765 608.71 33.5012 612.618 33.5012 613.95C33.5012 614.571 32.7016 616.525 31.6354 618.123L29.7695 621.143H35.0117C42.7416 621.143 46.4733 618.567 50.8269 610.309C54.6475 603.027 53.4036 601.784 45.9402 605.425Z" fill="#ACDBDB"/>
<path d="M540.12 610.131L536.211 614.038H539.676C541.542 614.038 543.586 613.594 544.208 612.972C545.363 611.818 545.718 605.957 544.652 606.135C544.208 606.224 542.164 608 540.12 610.131Z" fill="#ACDBDB"/>
<path d="M60.51 610.042C54.9124 612.883 41.4961 625.493 41.4961 627.98C41.4961 628.957 43.1842 631.887 45.2278 634.462C48.2487 638.281 49.1372 638.902 49.848 637.837C51.625 635.439 56.2452 630.289 57.2225 629.756C57.7556 629.401 58.9995 630.466 60.0657 632.242C62.1981 635.883 66.7295 638.902 70.1058 638.902C73.4821 638.902 78.5465 634.196 79.8793 629.845C80.8566 626.381 80.8566 626.115 78.5465 624.339C76.9472 623.096 75.881 621.053 75.2591 618.034C73.3044 608.887 68.2399 606.135 60.51 610.042Z" fill="#ACDBDB"/>
<path d="M330.173 619.456C331.239 621.143 332.839 623.807 333.638 625.406L335.149 628.425L332.039 631C329.907 632.687 329.374 633.575 330.44 633.575C331.239 633.575 332.661 635.174 333.727 637.305C336.037 642.012 342.523 649.56 347.854 653.556C350.253 655.421 351.231 656.664 350.342 656.664C347.943 656.664 342.968 654.355 339.414 651.513C336.037 648.849 331.328 646.896 328.396 646.896C327.063 646.896 326.797 647.606 326.975 651.957C327.152 656.753 326.975 657.108 325.02 657.374C321.91 657.818 318.712 656.841 318.712 655.332C318.712 653.556 315.78 652.934 308.938 653.289L303.163 653.556L303.518 663.324C303.874 675.401 302.363 680.196 297.921 681.351C294.189 682.327 293.922 684.725 297.299 686.679C302.896 689.787 299.698 697.779 291.257 701.775L286.281 704.173L285.837 711.277C285.571 715.184 285.037 718.914 284.593 719.535C283.26 721.755 283.971 728.415 286.104 734.01C289.569 742.801 289.658 743.6 288.147 745.909C286.281 748.751 286.37 750.083 288.503 753.724C289.48 755.322 290.546 758.697 290.813 761.094C291.168 763.492 291.79 766.156 292.234 767.044C293.212 768.998 298.809 771.75 311.337 776.546L321.288 780.364L317.734 787.291C311.959 798.835 307.961 812.954 310.537 812.954C310.893 812.954 314.98 812.155 319.6 811.178C329.729 809.047 334.083 808.958 335.593 810.734C336.215 811.445 338.081 812.066 339.769 812.066C341.546 812.066 345.367 813.398 349.009 815.263C352.386 817.039 356.029 818.46 357.184 818.46C359.138 818.371 360.915 818.105 379.574 814.02C394.856 810.823 395.3 810.734 399.565 812.954C401.609 814.02 403.474 814.642 403.741 814.375C404.008 814.197 403.297 811.267 402.231 808.07C399.743 800.611 400.098 799.723 408.628 792.53C412.182 789.511 415.647 786.491 416.358 785.781C417.424 784.804 416.091 783.028 406.94 773.526C395.567 761.982 390.68 754.878 390.68 750.172C390.68 748.04 391.391 746.797 393.968 744.666C398.321 741.114 419.201 730.724 424.71 729.392C427.553 728.682 430.307 727.083 433.15 724.597C437.237 720.867 437.326 720.69 437.237 715.628C437.06 709.234 432.262 689.165 429.685 683.926C428.619 681.883 426.575 678.864 425.243 677.266C422.133 673.802 422.133 672.826 424.532 668.03C428.086 661.104 426.487 648.76 421.244 641.834C419.29 639.259 418.579 638.992 415.203 639.081C411.915 639.259 410.671 638.815 407.473 636.151C400.809 630.734 400.276 630.556 394.234 633.043C387.748 635.707 379.218 640.768 377.175 643.255C375.398 645.386 373.887 645.475 369.267 644.232C363.314 642.544 362.781 639.703 367.668 636.861C372.022 634.463 369.8 632.954 361.271 632.51C355.584 632.332 353.896 631.888 353.274 630.645C352.741 629.757 351.32 629.135 349.809 629.135C346.61 629.135 346.522 628.603 349.187 625.761L351.142 623.63L349.098 622.031C347.321 620.61 342.79 619.367 331.239 617.058L328.219 616.526L330.173 619.456Z" fill="#ACDBDB"/>
<path d="M486.646 620.787C477.761 622.652 468.787 626.204 462.479 630.289C459.103 632.509 452.617 635.439 446.575 637.481C440.977 639.435 434.58 641.922 432.27 643.076C427.472 645.385 427.206 646.184 429.072 655.064C430.049 659.859 429.96 660.481 427.739 665.987C426.406 669.184 425.34 672.38 425.34 673.18C425.34 673.979 426.761 676.199 428.45 678.152C433.247 683.836 438.045 699.998 439.2 714.383C439.822 722.376 440.711 725.04 442.488 725.04C443.11 725.04 445.065 726.46 446.664 728.148C448.707 730.279 451.373 731.789 454.66 732.765C463.19 735.163 467.277 738.715 462.479 739.425C460.524 739.692 460.702 739.958 464.167 743.599C468.699 748.128 471.186 748.217 470.92 743.777C470.831 741.024 471.009 740.935 473.141 741.468C481.582 743.51 500.507 754.61 506.193 760.827C509.303 764.112 509.925 764.467 511.524 763.402C514.545 761.537 516.322 762.159 520.854 766.776C523.253 769.174 525.74 771.216 526.273 771.216C526.895 771.216 529.65 769.973 532.493 768.463C537.469 765.888 538.179 765.711 545.82 766.066C553.462 766.421 554.528 766.687 563.502 771.039C568.744 773.614 573.364 775.479 573.808 775.124C574.252 774.857 573.808 773.081 572.831 771.216C571.853 769.263 571.054 767.131 571.054 766.332C571.054 763.846 575.941 757.718 586.069 747.684C591.489 742.356 595.932 737.294 595.932 736.495C595.932 735.607 594.777 732.321 593.266 729.124C589.623 720.955 588.735 717.225 588.024 706.569L587.313 697.422L583.582 693.604C579.228 689.164 579.317 688.631 585.27 682.859C590.601 677.797 591.845 675.044 591.134 669.45C590.423 663.589 586.069 646.362 583.493 639.613C581.627 634.64 581.538 634.551 577.451 633.841C571.765 632.864 524.052 632.953 516.678 633.929C511.791 634.551 509.925 634.462 506.638 633.219C502.462 631.621 499.085 628.157 499.085 625.582C499.085 623.54 496.42 620.52 494.199 619.988C493.221 619.721 489.845 620.076 486.646 620.787Z" fill="#ACDBDB"/>
<path d="M31.2811 628.248C30.9257 628.781 30.8368 630.645 31.0145 632.51C31.2811 636.151 31.6365 636.062 23.9065 634.819C20.5302 634.286 19.9971 634.464 19.6417 635.974C19.1975 637.75 19.1086 637.75 17.0651 635.707C15.91 634.553 14.3107 633.576 13.5111 633.576C11.201 633.576 7.20274 635.974 5.60344 638.371C3.29334 641.923 3.73759 643.344 7.11389 643.344C10.2236 643.344 12.1783 644.676 12.1783 646.718C12.1783 647.34 10.2236 650.004 7.73584 652.579C5.33689 655.155 3.29334 657.641 3.29334 658.085C3.29334 659.861 7.38044 661.282 15.0215 662.081C19.3752 662.525 23.3734 663.058 23.8177 663.324C25.1504 664.212 23.5511 666.432 19.6417 669.185C15.7323 671.849 13.8665 675.579 15.4658 677.177C15.9989 677.71 18.309 678.598 20.7079 679.22L25.0616 680.374L19.2863 682.239C11.4675 684.903 9.51284 686.324 9.51284 689.61C9.51284 693.339 8.18009 695.648 3.91529 699.555L0.183594 702.93L4.18184 702.308C10.4902 701.331 10.8456 701.42 10.8456 703.196C10.8456 704.084 11.7341 705.15 12.8891 705.594C14.2219 706.127 14.8438 707.103 14.8438 708.613C14.8438 710.3 15.2881 710.833 16.8874 710.833C19.5529 710.833 29.1487 706.215 31.1922 703.818C32.3473 702.574 33.9466 701.953 36.1678 701.953C38.6556 701.953 40.3438 701.154 43.9866 697.957C46.9187 695.559 49.9396 693.783 51.9831 693.428C53.7601 693.162 56.1591 692.096 57.2253 691.119C59.0911 689.343 59.18 689.343 61.9343 690.942C64.6887 692.629 64.7775 692.629 66.0214 690.853C67.5319 688.81 70.4639 679.131 71.2636 673.536C71.9744 668.386 70.3751 655.865 68.1538 649.116C67.1765 646.186 64.8664 641.923 63.0005 639.614C61.2235 637.394 59.18 634.819 58.6469 633.931C57.5807 632.333 57.2253 632.599 53.227 636.95L48.8734 641.746L44.5197 636.862C37.7671 629.313 32.7027 625.939 31.2811 628.248Z" fill="#ACDBDB"/>
<path d="M279.975 661.015C276.065 661.992 275.177 662.702 273.755 666.076C271.889 670.428 272.245 672.381 275.088 674.957C278.109 677.621 280.508 682.15 280.508 685.08C280.508 688.188 275.621 692.184 271.623 692.184C266.558 692.184 265.048 689.875 264.603 681.35C264.248 672.559 262.649 672.293 259.717 680.64C258.651 683.837 255.807 690.142 253.586 694.582C251.276 699.111 249.41 703.018 249.41 703.195C249.41 703.462 252.431 704.083 256.074 704.705C259.717 705.238 262.738 706.037 262.738 706.304C262.649 706.57 259.983 708.08 256.696 709.589L250.743 712.342L256.518 711.987C261.227 711.632 262.826 711.898 265.403 713.496C272.067 717.404 279.441 720.601 280.774 720.068C281.574 719.801 282.64 718.203 283.173 716.516C284.062 713.94 283.973 712.52 282.818 708.968C282.018 706.57 281.574 704.172 281.84 703.728C282.107 703.284 283.795 702.485 285.661 701.863C290.281 700.354 294.191 697.601 296.412 694.404C298.9 690.763 298.811 689.964 295.612 687.566C292.147 685.08 292.236 683.393 296.145 679.663C304.408 671.76 303.52 663.768 294.191 661.192C290.37 660.127 284.15 660.038 279.975 661.015Z" fill="#ACDBDB"/>
<path d="M753.634 691.296C751.679 692.628 750.08 692.984 747.77 692.717C745.371 692.362 743.949 692.628 742.35 693.872C739.684 696.003 737.996 696.447 727.689 697.424C714.895 698.756 712.052 701.153 710.897 711.454C709.831 720.423 707.965 721.933 704.5 716.516C702.456 713.408 702.278 713.319 698.458 713.941C695.526 714.385 693.127 714.029 689.129 712.697C684.153 710.921 683.62 710.921 681.043 712.253C678.822 713.408 677.667 713.497 674.646 712.697C672.691 712.165 666.916 711.365 661.852 710.921C654.921 710.3 652.256 709.678 650.479 708.257C646.214 704.883 639.728 703.551 625.69 703.107C610.674 702.574 603.566 703.551 599.657 706.748C598.324 707.902 596.103 709.323 594.592 710.033C592.282 711.099 591.927 711.898 591.66 715.095C591.394 718.114 592.104 720.423 594.681 725.574C597.613 731.435 597.88 732.678 597.347 736.585C596.547 742.357 596.014 743.689 594.415 743.689C592.549 743.689 580.643 755.411 576.733 761.005L573.535 765.712L575.312 771.928C576.289 775.391 576.822 778.41 576.556 778.677C576.289 778.943 574.779 779.21 573.179 779.21C569.448 779.21 567.404 782.051 566.782 788.001C565.805 798.213 573.801 802.653 595.481 803.985C603.833 804.518 605.698 804.873 608.097 806.649L610.941 808.78L616.982 807.271C624.624 805.406 632.887 801.588 636.885 798.035C641.327 794.128 644.259 793.24 652.345 793.24C660.963 793.151 668.871 795.105 677.4 799.19C685.752 803.364 687.44 805.495 687.44 812.244C687.44 816.417 687.707 817.572 689.04 817.927C692.416 818.993 693.127 819.969 694.104 824.676C694.637 827.606 696.059 830.714 697.48 832.49C699.257 834.533 699.879 836.22 699.702 838.085C699.524 840.216 699.879 841.104 701.568 841.903C703.611 842.969 703.611 842.969 701.834 843.946C700.857 844.479 698.458 845.1 696.503 845.455C693.482 845.899 692.771 845.722 691.972 844.123C690.55 841.548 689.129 841.815 686.463 845.189C682.287 850.517 673.224 866.679 673.224 868.899C673.224 870.32 677.223 869.965 682.287 867.922C693.038 863.748 710.541 849.363 710.541 844.834C710.541 841.459 714.184 839.062 722.181 837.374C730.888 835.598 734.442 836.22 738.174 840.127L740.217 842.347L737.641 844.479L734.975 846.521L737.196 847.409C738.44 847.853 743.594 848.741 748.747 849.363C753.811 849.895 759.32 850.961 760.919 851.583C766.695 853.98 763.674 858.332 752.923 863.127C749.724 864.636 746.97 865.969 746.97 866.235C746.97 866.501 749.813 868.366 753.189 870.497C760.564 875.026 762.252 877.601 761.541 883.64C761.186 886.57 761.452 888.524 762.252 889.59C763.318 891.099 763.674 891.099 767.317 889.767C769.449 889.057 772.47 887.636 773.98 886.748C775.491 885.771 779.311 884.173 782.51 883.196C787.041 881.686 788.729 880.71 789.973 878.578L791.573 875.914L798.769 876.536C805.433 877.069 806.233 876.891 808.543 875.115C811.208 872.984 811.742 870.053 809.52 869.165C808.721 868.899 805.078 869.521 801.435 870.497C793.083 872.806 791.306 872.185 784.376 864.903C781.799 862.15 779.134 860.108 778.512 860.374C776.29 861.173 776.468 857.355 778.867 853.536C781.355 849.807 788.285 843.147 789.884 843.147C790.329 843.147 794.682 841.548 799.569 839.595C804.456 837.641 810.498 835.51 812.985 834.977C815.562 834.444 818.494 833.29 819.649 832.402C820.804 831.514 824.98 829.738 828.978 828.406C838.308 825.386 841.151 823.877 841.151 822.189C841.151 819.969 847.281 812.155 851.191 809.313C854.301 807.093 855.545 806.738 860.698 806.738C867.717 806.738 868.339 806.294 869.761 799.279C870.649 795.016 870.649 793.773 869.227 789.866C867.184 784.182 867.806 780.719 871.804 774.681C873.492 772.194 874.914 769.619 874.914 768.997C874.914 765.268 853.323 755.677 842.128 754.434C837.33 753.901 837.241 753.812 833.154 748.129C828.09 741.025 826.668 740.67 819.205 744.666C815.207 746.886 813.252 747.419 812.363 746.797C806.944 742.801 806.055 742.446 801.257 742.357C796.637 742.357 796.193 742.179 794.327 739.249C792.816 737.118 792.372 735.519 792.728 733.743C793.172 731.879 792.639 730.102 791.039 727.35C787.841 721.844 784.731 719.535 781.266 720.246C779.756 720.512 777.357 720.334 776.024 719.802C771.848 718.203 769.449 709.678 772.114 705.505C774.602 701.508 766.073 691.385 758.965 690.053C757.099 689.698 755.5 690.053 753.634 691.296Z" fill="#ACDBDB"/>
<path d="M259.181 715.005C258.47 715.272 254.916 716.604 251.273 718.113C246.209 720.156 243.988 720.6 241.5 720.156C239.723 719.801 236.435 719.445 234.125 719.445C230.66 719.268 229.505 719.712 227.195 721.932C224.974 724.063 224.529 725.129 224.707 727.704L224.974 730.812L229.594 730.545C233.592 730.279 234.214 730.457 234.747 732.055C235.813 735.518 239.9 739.337 244.61 741.468C249.674 743.688 251.184 745.642 251.184 749.815C251.184 754.255 252.339 753.989 259.981 748.306L262.735 746.263V748.306C262.824 753.456 270.021 763.047 274.108 763.313C278.906 763.668 279.616 762.603 278.994 756.476C278.461 751.236 280.327 746.885 282.637 747.773C284.148 748.306 285.836 745.642 285.836 742.622C285.836 739.159 282.548 734.808 279.616 734.186C276.507 733.654 275.174 731.7 275.174 727.97C275.174 724.418 273.042 721.754 268.155 719.357C265.845 718.113 263.446 716.515 262.824 715.804C261.58 714.295 261.313 714.295 259.181 715.005Z" fill="#ACDBDB"/>
<path d="M214.933 727.083C213.334 727.615 210.757 729.125 209.336 730.457C207.292 732.411 206.759 733.565 206.759 736.762C206.759 741.557 203.472 748.572 199.562 752.302C197.874 753.812 194.32 756.209 191.655 757.541C184.014 761.271 180.993 763.846 180.993 766.688C180.993 770.418 179.482 771.217 172.552 771.217C163.756 771.217 157.625 769.441 154.871 766.155C152.65 763.58 147.674 760.738 146.785 761.626C146.519 761.893 146.874 763.402 147.585 765.09C148.651 767.754 152.561 785.691 152.561 788.178C152.561 788.622 149.54 788.977 145.897 788.977C142.254 788.977 137.456 789.421 135.235 790.043L131.237 791.108L126.972 786.935C122.263 782.317 120.752 781.873 118.354 784.537C116.488 786.579 112.578 787.823 105.381 788.533C102.627 788.799 99.6062 789.599 98.7177 790.22C97.0295 791.464 97.2961 791.908 102.361 795.548C103.693 796.525 104.049 797.68 103.871 800.788C103.782 803.008 103.604 805.317 103.516 805.938C103.338 806.649 104.493 807.181 106.625 807.359C108.402 807.537 112.223 808.691 115.066 809.934C122.796 813.397 126.883 814.818 131.237 815.44C134.88 816.061 135.235 816.328 135.235 818.548C135.324 820.146 136.568 822.189 139.144 824.853C141.721 827.517 142.876 829.293 142.432 830.27C141.099 833.733 148.296 843.146 154.604 846.076C160.735 849.007 160.735 848.829 159.224 867.211C157.625 886.215 155.226 900.689 152.116 910.369C149.806 917.295 149.895 918.183 153.005 918.805C154.071 918.982 154.782 919.781 154.782 920.936C154.782 926.353 161.09 928.395 180.993 929.283C198.496 930.171 204.271 931.503 209.069 935.766C211.824 938.075 212.979 938.519 216.888 938.519C219.376 938.519 222.752 937.986 224.352 937.364C226.839 936.299 227.461 935.411 228.972 930.171C231.104 923.067 234.214 919.781 243.01 915.697C250.029 912.411 251.273 912.589 270.02 918.449L283.97 922.801L287.346 921.291C289.212 920.403 293.033 917.65 295.876 915.164C298.719 912.677 302.539 909.836 304.316 908.948C307.337 907.349 310.714 903.176 310.714 900.956C310.714 900.423 309.47 899.979 307.959 899.979C302.006 899.979 296.498 893.319 296.498 886.037C296.498 883.551 295.965 880.886 295.165 879.91C293.033 877.157 293.654 875.292 297.386 872.894C299.341 871.651 300.94 870.319 300.94 869.875C300.94 869.431 299.874 866.856 298.63 864.103C297.12 860.817 296.498 858.242 296.853 856.821C297.12 855.667 297.653 853.713 297.919 852.559C298.275 851.049 297.742 849.717 295.698 847.497L293.033 844.478L286.813 847.852L280.594 851.138L282.371 848.03C283.348 846.343 284.148 844.034 284.059 842.968C283.792 839.505 283.97 839.061 286.369 837.995C287.613 837.374 289.212 835.42 290.012 833.644C290.722 831.779 292.944 828.494 294.898 826.362C296.853 824.142 298.63 821.212 298.897 819.969C299.163 818.37 300.052 817.394 301.384 817.038C304.228 816.328 305.738 813.575 308.581 804.429C309.825 800.077 311.958 794.305 313.113 791.641C316.578 783.915 317.022 782.051 315.512 780.541C314.712 779.831 313.557 779.209 312.757 779.209C312.046 779.209 306.982 777.255 301.473 774.946C292.233 770.862 285.303 768.375 276.329 765.978C274.374 765.445 270.287 763.225 267.355 761.093C260.869 756.298 257.226 754.345 254.738 754.345C251.717 754.345 249.407 752.657 249.407 750.526C249.407 746.352 248.341 744.576 246.12 744.576C241.233 744.576 234.303 739.248 234.303 735.43C234.303 733.121 232.17 732.144 229.061 733.032C225.24 734.098 223.907 733.476 222.752 729.924C221.419 725.839 220.087 725.395 214.933 727.083Z" fill="#ACDBDB"/>
<path d="M432.439 729.923C420.711 732.321 402.496 740.313 396.277 745.73C390.324 750.969 392.989 756.653 409.338 773.081C425.153 789.065 428.174 790.22 435.015 782.76C437.237 780.274 439.813 778.32 440.613 778.32C441.501 778.32 445.677 779.297 449.942 780.54C454.207 781.784 461.137 783.027 465.313 783.382C471.888 783.826 473.132 783.648 474.465 782.316C475.353 781.428 476.775 780.984 477.841 781.251C482.372 782.405 491.169 777.166 492.324 772.548C492.679 771.127 494.634 769.351 498.01 767.398C503.785 764.023 504.585 762.247 501.564 759.05C498.099 755.409 479.618 745.464 476.242 745.464C475.531 745.464 473.754 746.44 472.243 747.684C470.822 748.927 469.223 749.904 468.778 749.904C467.179 749.904 459.094 741.112 459.094 739.425C459.094 737.383 454.118 734.985 447.987 734.097C444.345 733.564 443.456 733.12 443.278 731.522C443.012 730.012 440.524 728.414 438.658 728.68C438.392 728.769 435.637 729.302 432.439 729.923Z" fill="#ACDBDB"/>
<path d="M281.392 752.48C279.26 756.476 281.659 765.001 284.857 765.001C288.944 765.001 289.744 757.719 286.19 753.546C283.525 750.349 282.725 750.171 281.392 752.48Z" fill="#ACDBDB"/>
<path d="M511.693 766.332C508.85 768.729 506.54 769.173 506.007 767.486C505.74 766.864 504.763 766.687 503.43 767.042C499.254 768.196 495.7 771.127 493.745 775.123C491.524 779.741 486.549 783.293 480.151 784.714C475.531 785.69 473.488 787.555 472.777 791.196C471.799 796.702 477.308 805.049 484.238 808.424C487.615 810.022 488.592 810.111 494.19 809.312C501.742 808.157 502.63 807.713 504.407 804.428C505.651 802.296 506.629 801.763 510.36 801.319C512.759 800.964 515.78 800.076 517.024 799.277C518.446 798.389 520.845 797.856 523.421 798.034C527.419 798.123 527.864 797.945 531.062 794.215L534.439 790.308H543.324C551.32 790.308 552.475 790.486 554.341 792.262C555.585 793.416 556.918 794.304 557.362 794.304C559.228 794.304 563.048 789.154 566.069 782.494L569.268 775.567L562.782 772.548C550.165 766.776 539.148 766.42 531.151 771.749C529.196 772.992 526.353 774.146 524.843 774.146C522.355 774.324 521.911 773.969 520.845 770.772C519.69 767.486 516.757 764.112 515.069 764.112C514.625 764.112 513.115 765.088 511.693 766.332Z" fill="#ACDBDB"/>
<path d="M439.102 782.05C438.125 782.583 435.548 784.626 433.327 786.579C429.062 790.22 429.595 790.131 420.444 788.444C418.222 788.089 416.712 788.799 410.937 793.15C407.116 795.992 403.829 799.189 403.473 800.255C403.207 801.32 403.651 805.05 404.539 808.424C406.494 816.061 405.783 817.66 401.074 815.706C396.188 813.575 391.301 813.575 384.282 815.529C378.684 817.127 371.665 818.459 357.271 820.679C355.583 820.945 353.273 820.501 351.585 819.613C347.498 817.482 346.254 818.37 346.254 823.165C346.254 829.914 351.407 833.555 356.383 830.27C358.249 829.026 358.693 829.115 361.714 831.158C365.712 833.822 366.601 833.91 370.599 831.513C373.175 830.003 386.947 826.274 389.968 826.274C390.323 826.274 391.656 827.872 392.9 829.826C394.144 831.779 396.099 833.999 397.343 834.798C400.719 837.019 411.647 839.594 420.444 840.127C434.571 841.103 456.783 834.887 461.137 828.849C462.292 827.339 463.003 824.409 463.269 820.413C463.802 813.397 464.424 812.42 469.045 810.556C470.91 809.845 472.421 808.602 472.51 807.714C472.865 802.652 470.555 791.73 468.423 788.444C467.534 787.023 465.935 786.402 462.292 785.958C459.538 785.691 454.207 784.448 450.475 783.205C442.656 780.718 441.59 780.629 439.102 782.05Z" fill="#ACDBDB"/>
<path d="M535.06 793.595C534.083 794.127 532.039 795.903 530.529 797.502C528.041 800.166 527.153 800.521 523.243 800.521C520.489 800.521 518.623 800.965 518.445 801.587C518.179 802.208 515.691 803.096 512.759 803.629C508.583 804.34 507.339 804.961 506.451 806.648C505.118 809.401 502.452 810.822 497.121 811.533C491.257 812.421 485.393 811.355 481.662 808.868C477.752 806.204 477.219 806.204 475.798 809.135C474.642 811.444 473.487 812.332 470.467 813.309C469.489 813.575 468.867 814.641 468.867 816.061C468.867 817.305 468.512 818.281 468.068 818.281C466.557 818.281 463.98 826.629 463.98 831.602C463.98 841.015 470.111 847.675 485.127 854.69C493.567 858.686 497.121 859.041 500.675 856.466C503.874 854.157 509.205 852.736 527.864 849.451C544.567 846.52 547.144 845.366 548.032 840.393C548.921 835.686 550.254 832.845 555.585 824.675C561.36 815.795 568.468 807.98 571.578 807.27C574.51 806.471 574.243 804.695 570.867 802.12C566.513 798.834 562.782 797.058 558.517 796.436C556.384 796.081 553.63 795.104 552.475 794.127C550.876 792.884 548.832 792.529 543.59 792.529C539.858 792.529 536.038 793.062 535.06 793.595Z" fill="#ACDBDB"/>
<path d="M649.768 795.281C647.813 795.725 646.125 796.258 645.947 796.436C645.414 796.88 660.43 821.655 663.629 825.651C667.271 830.269 667.893 832.844 668.515 847.408C668.871 855.045 669.493 860.639 670.115 861.527C671.092 862.859 671.447 862.77 673.402 860.728C674.557 859.396 677.223 854.956 679.177 850.871C684.064 841.014 684.597 840.481 691.083 840.481C695.792 840.481 696.503 840.215 697.125 838.439C697.747 836.929 697.48 836.041 695.792 834.532C694.726 833.377 693.038 830.802 692.061 828.759C691.172 826.628 688.773 822.987 686.73 820.679C682.554 815.883 682.287 814.64 684.775 811.443C687.707 807.714 686.73 805.849 681.932 805.849C680.954 805.849 679.977 805.138 679.71 804.073C679.177 802.208 678.733 802.03 674.913 802.297C673.491 802.386 672.336 801.853 672.069 801.054C671.27 799.1 665.406 796.347 659.453 795.281C656.609 794.749 654.033 794.305 653.766 794.393C653.5 794.482 651.634 794.837 649.768 795.281Z" fill="#ACDBDB"/>
<path d="M635.193 802.208C631.017 805.05 618.312 809.934 612.803 810.822C609.871 811.266 608.894 811 606.584 809.046C604.096 807.004 603.03 806.737 597.343 806.737C593.789 806.737 588.636 806.293 585.881 805.76C579.662 804.517 577.53 805.05 572.821 808.957C570.777 810.644 568.378 812.065 567.578 812.065C565.535 812.065 557.805 823.965 552.385 835.509C547.765 845.277 546.699 846.431 538.436 850.605C535.859 851.848 533.727 853.18 533.727 853.535C533.727 853.891 535.059 855.4 536.747 856.91C538.613 858.597 540.213 861.172 540.835 863.392C541.545 866.323 542.612 867.655 545.544 869.431C550.341 872.45 551.497 873.96 551.497 877.334C551.497 882.218 557.538 885.682 566.246 885.77C568.822 885.77 571.399 886.303 572.465 887.102C574.153 888.434 574.153 888.434 572.376 889.766C570.777 891.098 570.777 891.187 574.42 894.917C576.908 897.403 578.152 899.535 578.152 901.044C578.152 903.619 579.573 904.419 583.838 904.419C585.348 904.419 588.902 905.218 591.746 906.195C602.141 909.836 618.489 908.148 631.817 902.021C639.103 898.647 641.502 897.936 645.677 897.936C652.874 898.025 661.315 900.6 664.158 903.619C666.735 906.372 671.355 907.172 673.043 905.04C673.488 904.507 674.376 901.133 674.909 897.759C676.153 890.388 678.996 881.419 680.773 879.021C682.106 877.334 682.195 877.423 683.794 879.288C686.015 881.952 686.726 881.863 690.458 878.311C692.501 876.446 693.656 874.493 693.656 873.072C693.656 868.721 687.526 867.477 682.906 870.852C678.996 873.782 672.777 873.516 670.111 870.408C667.89 867.921 667.446 865.435 666.113 849.806C665.58 843.945 664.78 837.551 664.247 835.598C663.003 830.98 654.918 815.617 649.32 807.27C643.456 798.567 641.59 797.946 635.193 802.208Z" fill="#ACDBDB"/>
<path d="M325.73 815.175C313.913 816.595 306.983 818.549 302.274 821.835C298.275 824.588 294.455 829.117 292.856 833.113C292.234 834.445 290.368 836.931 288.591 838.529C285.925 840.927 285.57 841.549 286.725 842.259C287.436 842.792 289.39 843.058 290.99 842.792C295.255 842.17 296.321 842.881 298.72 847.587C301.652 853.359 303.162 854.691 306.805 854.691C311.781 854.691 315.779 852.56 317.289 849.008C318.622 845.811 323.331 842.614 325.019 843.68C325.552 843.946 326.53 845.634 327.241 847.321C327.951 848.919 329.106 850.518 329.817 850.873C331.95 851.672 335.237 848.83 337.903 844.035C339.235 841.638 340.568 839.595 340.923 839.595C341.279 839.595 342.612 840.394 343.856 841.371C345.099 842.348 346.788 843.147 347.587 843.147C349.098 843.147 357.805 835.421 357.805 834.089C357.805 833.557 356.561 833.379 354.962 833.734C349.009 834.8 343.944 829.472 342.967 820.858C342.079 813.31 341.812 813.221 325.73 815.175Z" fill="#ACDBDB"/>
<path d="M375.228 831.601C373.806 832.045 371.763 833.288 370.696 834.265C369.097 835.774 367.764 836.13 364.832 835.863C361.278 835.597 360.923 835.774 360.656 837.817C360.479 839.06 359.146 841.103 357.724 842.435C356.303 843.767 355.148 845.454 355.148 846.164C355.148 849.183 347.773 848.917 344.841 845.72C344.041 844.832 342.798 844.033 342.176 844.033C340.665 844.033 337.644 848.384 337.022 851.403C336.756 852.736 336.312 854.778 336.045 856.021C335.778 857.264 335.068 858.241 334.535 858.241C333.913 858.241 331.069 855.666 328.048 852.469C321.918 845.898 319.608 845.099 319.608 849.627C319.608 853.801 317.475 855.4 309.745 856.998C298.639 859.218 298.906 858.863 302.193 866.5L303.704 869.874L299.883 873.426L296.062 876.889L298.55 881.241C301.305 886.214 301.482 887.546 299.616 887.546C297.839 887.546 297.928 889.233 299.972 892.341C302.015 895.36 306.103 898.202 308.501 898.202C310.812 898.202 312.5 899.8 312.5 901.931C312.5 904.773 314.721 903.707 324.139 896.515L333.291 889.41L342.886 894.383C354.615 900.333 356.303 902.375 358.791 912.943C359.857 917.294 361.101 921.734 361.545 922.8C363.055 925.908 381.714 945.977 389.266 952.637C397.351 959.652 400.905 961.606 407.747 962.938C415.121 964.27 418.142 965.868 423.207 970.841C425.695 973.328 428.893 975.637 430.315 975.903C431.736 976.258 433.425 976.613 433.958 976.88C434.58 977.057 436.179 979.455 437.512 982.208C439.466 986.382 440.533 987.536 443.731 988.957C448.796 991.177 451.461 994.995 454.749 1004.23C458.214 1014.18 458.925 1020.21 457.059 1022.35C454.926 1024.65 451.994 1031.49 451.994 1034.25C451.994 1037.71 455.015 1039.22 457.503 1037C459.991 1034.78 463.545 1028.47 464.877 1024.03C465.766 1021.1 466.743 1019.86 469.764 1018.08C476.339 1014.27 476.073 1009.91 468.787 1003.79C465.855 1001.39 464.433 999.435 464.433 998.103C464.433 995.35 473.94 982.652 476.428 982.03C480.249 981.053 491.266 987.714 492.865 991.887C493.754 994.285 495.442 994.729 497.13 993.042C498.818 991.354 498.374 990.022 495.353 986.47C491.444 982.03 485.579 977.857 471.985 969.687C454.482 959.297 452.794 957.699 455.992 955.035C456.703 954.413 457.325 953.17 457.325 952.282C457.325 950.772 456.526 950.595 449.151 950.595C442.31 950.595 440.088 950.239 436.445 948.463C428.182 944.556 422.407 937.452 418.054 925.464C416.632 921.557 414.944 917.383 414.233 916.051C412.545 912.676 406.503 907.437 401.705 905.039C397.885 903.263 397.618 903.175 396.818 904.684C396.285 905.484 395.397 906.194 394.686 906.194C393.264 906.194 392.82 904.773 392.02 896.87C391.754 893.939 391.221 889.677 390.954 887.279C390.599 883.994 390.777 882.662 392.02 881.241C393.62 879.642 393.62 879.287 392.198 874.758C391.399 872.183 390.688 869.43 390.688 868.631C390.688 866.5 394.508 864.013 401.883 861.26C410.324 858.241 411.567 856.554 410.768 849.539C409.968 842.612 408.724 841.103 402.505 839.415C399.662 838.616 395.93 836.929 394.242 835.686C387.667 830.89 381.892 829.647 375.228 831.601Z" fill="#ACDBDB"/>
<path d="M452.874 837.019C447.009 839.062 433.415 841.903 424.975 842.791C418.4 843.413 414.668 845.722 414.668 849.096C414.668 851.583 419.022 860.196 421.598 862.86C424.175 865.613 428.617 866.235 429.417 864.015C430.128 862.328 433.948 862.328 436.88 864.015C438.124 864.725 439.99 865.258 440.968 865.347C442.567 865.347 442.922 864.903 442.745 862.505C442.656 860.108 443.1 859.486 446.21 857.887C449.497 856.111 449.764 855.756 449.764 852.115C449.764 848.386 450.03 848.031 455.095 844.035C459.004 841.015 460.426 839.328 460.426 837.73C460.426 834.977 458.915 834.888 452.874 837.019Z" fill="#ACDBDB"/>
<path d="M454.028 848.119C452.162 850.073 451.895 850.872 452.34 853.802C452.784 856.91 452.606 857.443 450.563 858.775C449.319 859.574 447.542 861.794 446.653 863.57C445.676 865.435 444.343 867.123 443.543 867.478C440.611 868.543 436.88 868.011 435.192 866.146C432.881 863.659 430.66 864.547 430.66 867.744C430.66 869.343 431.904 871.829 434.214 874.582C436.435 877.246 437.946 880.176 438.301 882.308C438.657 884.172 440.078 887.192 441.678 889.057C447.009 895.45 446.92 895.45 445.853 896.782C443.632 899.446 448.519 905.307 456.96 910.28C459.714 911.878 462.735 912.766 466.733 913.122L472.597 913.566L464.956 902.91C452.34 885.327 448.963 877.335 452.606 873.694C454.028 872.362 455.627 872.273 467.977 872.806C485.392 873.516 497.564 874.848 502.184 876.536C504.139 877.335 506.36 878.134 507.071 878.312C507.96 878.578 508.937 877.512 510.181 874.937C511.425 872.362 512.58 871.03 514.001 870.852C515.512 870.586 515.956 871.03 515.956 872.451C515.956 873.605 515.245 874.582 514.179 874.848C511.869 875.47 511.958 876.447 514.357 879.732C515.956 882.13 516.134 882.84 515.245 884.972C511.691 893.585 511.691 892.52 515.778 896.693C517.822 898.736 519.51 900.867 519.51 901.4C519.51 901.933 518.533 902.91 517.289 903.531C514.535 904.952 514.535 905.929 516.933 908.504C519.332 911.079 518.622 912.944 515.068 913.743C513.557 914.099 511.691 915.342 510.803 916.674C508.848 919.782 508.137 920.315 506.094 919.782C504.85 919.427 504.406 919.782 504.406 921.203C504.406 922.268 503.339 924.133 502.007 925.376C499.785 927.419 499.697 927.685 500.852 931.237C502.096 935.677 506.36 942.16 508.493 942.959C509.559 943.403 511.158 942.249 514.09 939.141C516.312 936.654 519.244 934.434 520.576 934.168C525.374 932.924 535.503 939.94 535.503 944.469C535.503 947.31 537.635 947.31 543.144 944.38C547.142 942.337 550.341 941.449 556.827 940.739C567.933 939.496 568.378 939.229 568.378 933.546C568.378 929.284 568.733 928.573 572.02 925.199L575.752 921.38L572.554 917.739C569.444 914.099 566.601 907.616 566.601 904.153C566.601 903.176 567.223 900.601 568.111 898.292C569.71 893.674 569.177 887.547 567.045 887.547C566.423 887.547 565.09 888.612 564.202 889.856L562.425 892.165L557.005 888.08C551.052 883.551 548.831 880.887 548.831 878.4C548.831 876.003 546.432 872.895 542.611 870.319C539.946 868.632 538.879 867.123 538.08 864.281C536.747 859.308 529.728 852.026 526.263 852.026C522.798 852.026 511.247 854.69 509.825 855.845C509.026 856.555 508.848 857.887 509.292 860.462C509.648 862.416 510.092 865.258 510.359 866.767C510.892 869.964 509.47 871.385 507.515 869.787C506.627 869.076 506.183 867.034 506.183 864.103C506.183 859.486 505.116 857.354 502.895 857.354C502.273 857.354 501.74 857.976 501.74 858.686C501.74 863.126 489.745 859.93 475.085 851.582C466.467 846.698 464.245 845.81 460.603 845.81C457.226 845.81 455.894 846.254 454.028 848.119Z" fill="#ACDBDB"/>
<path d="M453.143 874.67C452.877 875.47 452.877 877.334 453.232 878.933C454.387 884.794 468.781 906.372 475.178 911.789C477.221 913.654 479.087 916.141 479.62 917.917C480.065 919.604 481.842 922.446 483.53 924.222C486.728 927.507 496.591 934.611 497.924 934.611C498.279 934.611 498.634 932.48 498.634 929.816C498.634 925.731 499.079 924.488 501.389 921.558C502.988 919.604 505.032 918.094 506.364 917.917C508.319 917.65 508.674 917.206 508.497 914.809C508.408 912.145 508.586 911.967 511.784 911.701C515.427 911.345 515.782 910.724 513.65 907.527C512.85 906.284 512.228 903.708 512.228 901.666C512.317 899.268 511.695 897.492 510.54 896.338C508.052 893.851 508.408 890.655 511.518 887.547C514.361 884.616 514.539 884.172 513.383 882.307C512.85 881.508 511.784 881.33 509.918 881.774C508.052 882.13 506.009 881.774 503.166 880.531C498.012 878.134 493.57 877.246 477.932 875.558C464.427 874.049 462.65 874.315 462.65 877.867C462.65 880.354 461.317 879.91 458.741 876.446C456.164 873.161 454.032 872.45 453.143 874.67Z" fill="#ACDBDB"/>
<path d="M571.133 900.423C569.623 901.755 568.379 903.62 568.379 904.685C568.379 907.527 573.266 915.608 576.375 917.917C578.241 919.249 579.041 920.581 579.041 922.268C579.041 924.399 578.508 924.932 575.576 925.731C571.666 926.797 571.044 928.307 571.044 937.72C571.044 942.87 571.311 943.669 574.243 947.133C578.152 951.75 579.041 953.881 578.419 957.078C578.064 958.943 578.419 959.654 580.285 960.453C582.151 961.341 583.75 961.252 588.548 959.92C598.232 957.345 603.119 957.256 608.095 959.476C610.938 960.808 614.759 961.607 619.556 961.874C628.353 962.406 633.15 960.542 635.816 955.213C638.215 950.507 641.058 948.198 645.856 946.955C649.499 945.978 650.476 945.978 653.231 947.31C657.673 949.441 659.805 949.264 660.783 946.6C662.027 943.314 660.25 939.052 657.584 939.052C654.652 939.052 654.83 936.565 658.117 932.391C659.539 930.615 661.582 926.886 662.56 924.133C664.781 918.272 667.18 915.43 671.267 913.654C674.821 912.234 674.91 909.481 671.445 909.037C670.201 908.859 665.225 906.906 660.339 904.597C652.431 900.867 650.743 900.423 645.234 900.423C639.459 900.423 638.481 900.689 631.018 904.863L623.022 909.303L608.361 909.214C593.612 909.214 582.417 907.971 578.241 905.929C576.464 905.041 575.931 904.153 575.931 901.844C575.931 897.937 574.598 897.581 571.133 900.423Z" fill="#ACDBDB"/>
<path d="M37.9401 910.902C36.6962 911.523 35.0969 913.388 34.2972 914.987C32.5202 918.716 28.9662 920.759 25.4122 919.96C23.2798 919.516 22.2136 919.782 20.5255 921.38C17.9488 923.778 17.7711 926.886 20.1701 930.172C22.569 933.546 23.8129 937.009 24.5237 942.16L25.0568 946.6L30.5655 946.334C34.5638 946.067 36.1631 946.334 36.785 947.31C38.7397 950.596 46.9139 951.75 50.7345 949.264C53.4 947.488 60.0637 946.689 62.9957 947.843C64.7727 948.465 65.4835 949.53 65.9278 952.283C66.2832 954.237 67.0828 956.279 67.7936 956.901C69.6595 958.411 69.3929 959.21 65.3947 965.426C62.1961 970.31 61.5741 971.997 61.041 977.68C60.6856 981.41 59.7083 985.317 58.9086 986.561C58.0201 987.893 57.3982 989.935 57.487 991.267C57.8424 996.062 57.3982 997.483 54.8215 1000.77C51.6229 1004.76 51.5341 1006.1 54.1996 1010.09C57.487 1014.98 57.487 1015.78 54.6439 1021.19L51.9784 1026.34L53.8442 1030.25C54.8215 1032.38 55.71 1034.51 55.71 1035.05C55.71 1035.58 54.2884 1037.62 52.6003 1039.66C50.0237 1042.59 49.4906 1044.02 49.6683 1046.5C49.9348 1049.34 50.4679 1049.88 56.4209 1053.16C63.1734 1056.89 63.9731 1057.78 72.5027 1071.63C77.5671 1079.89 80.8546 1080.42 84.764 1073.59C85.8302 1071.63 88.0514 1069.41 89.6507 1068.61C94.3598 1066.22 104.844 1064.35 119.682 1063.28C140.384 1061.86 138.518 1062.49 146.87 1054.05C151.313 1049.52 155.222 1046.32 156.732 1045.97C158.065 1045.7 159.931 1045.26 160.731 1044.99C161.619 1044.81 162.685 1043.13 163.307 1040.91C164.374 1036.82 166.239 1033.89 171.482 1027.85C177.079 1021.46 177.168 1021.1 173.525 1012.85C171.748 1008.85 170.326 1005.21 170.326 1004.76C170.326 1004.23 174.147 998.371 178.767 991.711C183.476 985.051 188.274 977.68 189.518 975.372C192.095 970.843 196.36 968.001 204.978 965.248C213.063 962.673 223.281 956.901 227.102 952.816C231.011 948.642 232.255 944.38 230.833 940.561C229.767 937.72 228.168 937.542 226.035 939.94C224.17 942.16 218.394 942.337 212.53 940.295C210.22 939.585 207.555 939.052 206.488 939.052C202.934 939.407 202.312 939.052 202.312 936.832C202.312 933.635 199.914 932.836 190.584 932.836C172.459 932.836 158.598 929.728 152.645 924.4C148.114 920.315 144.738 919.604 125.013 918.628C98.6246 917.295 86.6298 916.141 82.4539 914.631C79.6995 913.655 74.9905 913.299 66.4609 913.299C56.332 913.299 53.7554 912.944 50.4679 911.523C46.1143 909.481 41.1387 909.303 37.9401 910.902Z" fill="#ACDBDB"/>
<path d="M333.906 935.233C329.375 937.453 329.019 939.317 330.707 949.352C331.507 954.147 332.484 958.498 332.929 958.942C334.35 960.363 338.082 956.989 340.57 951.838C343.946 945.001 344.124 937.897 341.014 935.41C338.526 933.368 337.815 933.368 333.906 935.233Z" fill="#ACDBDB"/>
<path d="M517.384 938.252C514.63 940.383 514.63 940.738 516.851 952.371C518.006 958.587 517.473 969.776 515.873 974.483C515.074 976.703 515.163 978.035 516.318 980.876C517.117 982.919 517.562 985.227 517.295 986.027C516.94 987.092 518.006 988.424 520.849 990.378C523.603 992.332 525.025 994.019 525.469 995.884C525.736 997.393 526.269 998.814 526.624 998.992C527.69 999.613 532.311 993.752 535.509 987.803C537.02 984.961 539.063 982.031 540.129 981.32C541.995 979.988 541.995 979.988 537.819 971.73C533.821 963.649 533.732 963.294 533.91 955.923C534.176 946.954 532.488 942.692 527.602 939.495C522.715 936.298 520.316 935.943 517.384 938.252Z" fill="#ACDBDB"/>
<path d="M549.989 943.491C548.834 943.935 547.945 944.734 547.945 945.267C547.945 945.711 546.968 946.155 545.724 946.155C542.881 946.155 539.504 949.44 537.283 954.413C535.062 959.208 535.062 961.606 537.283 966.224C540.748 973.328 549.633 975.015 557.186 969.953C559.673 968.355 563.316 966.845 565.982 966.49C572.201 965.513 575.044 962.583 574.955 957.255C574.867 952.282 571.224 946.51 567.048 944.734C563.227 943.136 552.565 942.336 549.989 943.491Z" fill="#ACDBDB"/>
<path d="M645.33 948.82C640.71 950.241 638.578 953.082 638.578 957.789C638.578 960.097 638.222 962.229 637.778 962.495C635.024 964.271 636.356 973.329 639.91 976.881C643.109 979.989 645.597 979.545 651.727 974.661C657.591 969.954 662.389 968.356 670.83 968.356C673.407 968.356 676.872 968.09 678.649 967.823L681.847 967.29L675.628 964.005C670.741 961.518 668.431 959.653 665.41 955.657C662.034 951.217 661.145 950.507 659.368 950.951C658.036 951.306 655.903 950.862 653.682 949.708C649.862 947.754 649.151 947.665 645.33 948.82Z" fill="#ACDBDB"/>
<path d="M780.737 948.82C779.493 949.175 774.873 949.53 770.43 949.619C760.213 949.708 748.129 952.727 737.467 957.7C728.138 962.051 723.251 965.248 722.54 967.557C721.474 970.754 719.164 971.109 710.368 969.688C701.572 968.267 683.891 967.823 683.891 969.067C683.891 970.754 689.31 974.75 692.864 975.816L696.685 976.97L691.443 978.924C684.957 981.232 683.357 982.12 683.624 983.364C683.979 984.696 681.58 985.051 667.453 985.673C642.842 986.649 633.246 990.823 633.246 1000.32C633.246 1003.79 634.49 1004.23 641.243 1002.99C644.263 1002.46 646.929 1002.19 647.196 1002.46C647.462 1002.72 646.84 1003.97 645.774 1005.3C643.286 1008.41 643.375 1009.47 646.574 1013.02C649.683 1016.66 649.861 1017.55 647.462 1020.48C646.485 1021.73 645.685 1023.32 645.685 1023.95C645.685 1024.57 646.485 1025.54 647.462 1026.08C648.439 1026.61 649.239 1027.41 649.239 1027.76C649.239 1028.21 648.439 1028.74 647.462 1029.01C646.129 1029.36 645.685 1030.25 645.685 1032.2C645.685 1034.6 646.04 1035.05 648.351 1035.58C651.727 1036.2 653.237 1038.69 651.905 1041.17C651.371 1042.15 650.572 1042.95 650.128 1042.95C648.439 1042.95 649.328 1044.55 653.237 1048.81C655.459 1051.21 657.502 1054.05 657.769 1055.2C658.302 1057.07 658.657 1057.16 662.478 1056.62C664.699 1056.36 666.743 1056.09 667.009 1056.09C669.675 1056.09 671.007 1056.8 673.762 1059.82C675.716 1061.86 677.849 1063.37 679.004 1063.37C681.047 1063.37 683.891 1065.86 683.891 1067.64C683.891 1068.17 685.223 1070.03 686.911 1071.72C689.399 1074.39 690.465 1074.92 693.575 1074.92C700.594 1074.92 706.992 1070.3 708.324 1064.35C709.302 1059.91 710.723 1059.38 717.032 1061.06C724.762 1063.2 736.045 1068.79 741.288 1073.14C746.796 1077.76 748.662 1078.11 755.148 1076.34C762.256 1074.39 768.12 1071.28 773.185 1066.93C775.406 1064.97 778.249 1063.11 779.493 1062.84C782.692 1062.04 788.645 1063.02 790.422 1064.62C792.554 1066.57 793.887 1066.39 797.263 1063.82C801.261 1060.8 804.016 1059.82 805.882 1060.8C808.103 1062.04 807.659 1065.06 804.726 1069.5C801.794 1073.85 801.439 1076.34 803.305 1079C804.549 1080.69 804.638 1080.6 806.948 1078.47C810.324 1075.36 811.834 1072.08 811.834 1067.99C811.834 1065.86 812.545 1063.64 813.523 1062.4L815.211 1060.27L819.742 1061.95C824.718 1063.73 827.65 1063.55 836.712 1061.15C842.399 1059.73 842.754 1059.73 850.395 1061.51C860.702 1064 861.857 1063.91 872.608 1060.27C882.026 1057.16 887.623 1056 900.507 1054.58C905.305 1054.05 908.503 1053.25 909.569 1052.27C911.169 1050.85 911.346 1050.85 913.834 1052.36C916.233 1053.69 916.855 1053.78 919.521 1052.63C921.742 1051.74 926.184 1051.47 937.379 1051.65C950.085 1051.83 952.306 1051.65 952.75 1050.5C953.55 1048.37 951.418 1044.01 948.397 1041.62C945.82 1039.66 945.731 1039.4 946.798 1037.27C948.575 1034.07 947.597 1021.9 944.932 1013.64C942.533 1006.19 942.622 1004.76 945.376 1004.76C948.397 1004.76 949.552 1003.52 950.174 1000.06C950.796 995.885 949.374 994.109 945.198 994.109C940.311 994.109 938.001 992.421 935.869 987.182C934.181 983.186 934.003 981.854 934.714 979.012C935.602 975.816 935.514 975.372 931.96 970.665C929.916 968.001 926.806 964.715 924.94 963.295C922.008 960.986 921.12 960.808 914.812 960.986C906.548 961.163 899.618 963.028 893.843 966.58C888.068 970.132 875.806 973.24 871.009 972.264C867.366 971.642 865.233 971.642 845.153 972.086C834.758 972.352 834.225 972.264 824.984 968.978C819.831 967.202 814.678 965.692 813.611 965.692C810.502 965.692 806.948 963.295 804.46 959.565C801.972 955.924 800.817 955.214 799.84 956.812C798.951 958.144 793.798 957.878 791.577 956.279C790.422 955.48 788.556 953.349 787.312 951.395C785.091 947.843 784.558 947.577 780.737 948.82Z" fill="#ACDBDB"/>
<path d="M27.1092 949.44C24.7991 950.062 24.5325 952.193 26.043 957.965C29.1527 969.687 25.5099 993.308 18.313 1007.96C13.8705 1017.11 13.8705 1020.04 18.4019 1020.75C21.9559 1021.37 26.043 1023.86 27.2869 1026.08C27.82 1027.05 27.82 1029.54 27.3757 1032.47C26.9315 1035.04 26.3095 1040.2 26.043 1043.84C25.3322 1052.98 26.2207 1054.58 33.0621 1056C40.7921 1057.6 41.3252 1057.51 44.7015 1054.14C47.1893 1051.65 47.6335 1050.58 47.1893 1048.72C46.745 1047.12 47.5447 1044.64 49.8548 1039.84L53.1422 1033.18L51.2764 1029.63L49.4105 1025.99L52.1649 1021.28C55.2746 1015.77 55.1858 1015.06 49.7659 1006.27C46.4785 1000.94 46.6562 999.524 50.3879 999.435C51.1875 999.435 52.698 998.814 53.853 998.015C55.5412 996.771 55.8077 995.972 55.4523 993.13C55.1858 990.822 55.5412 988.779 56.6962 986.559C57.7624 984.517 58.3844 981.675 58.3844 978.389C58.3844 974.926 59.0063 972.173 60.1614 970.131C65.2258 960.896 65.7589 959.386 64.6927 955.834C64.1596 953.969 62.8269 951.838 61.6718 951.039C58.8286 949.085 53.6753 949.351 51.6318 951.571C50.1213 953.259 49.144 953.347 42.9245 953.081C36.8827 952.815 35.7276 952.548 34.5726 950.772C33.3287 948.907 30.8409 948.463 27.1092 949.44Z" fill="#ACDBDB"/>
<path d="M591.925 961.784C589.97 962.494 585.794 963.382 582.685 963.648C578.598 964.004 576.465 964.714 574.955 966.135C573.533 967.467 571.045 968.355 567.669 968.799C562.071 969.509 558.962 970.841 556.474 973.594C555.23 974.926 553.72 975.459 550.876 975.459C546.167 975.459 543.413 976.791 544.035 978.567C544.39 979.277 543.235 981.498 541.369 983.629C539.592 985.671 538.171 988.246 538.171 989.401C538.171 990.733 537.282 991.887 535.505 992.775C533.195 994.019 532.84 994.64 532.84 997.926C532.929 1005.47 539.237 1014.44 544.657 1014.62L547.5 1014.71L543.946 1015.77C539.77 1017.11 539.059 1018.97 541.281 1023.15C543.324 1026.96 546.345 1027.76 557.718 1027.67C565.27 1027.59 568.202 1027.94 572.822 1029.54C580.286 1032.11 589.437 1037.26 592.636 1040.55C595.568 1043.66 596.368 1043.21 595.568 1038.95C594.679 1034.16 588.815 1028.47 579.131 1022.7C570.779 1017.82 570.69 1017.73 573.267 1016.93C576.732 1015.77 576.643 1016.04 574.866 1012.93C573.533 1010.62 573.533 1010.09 574.599 1008.76C575.488 1007.69 576.554 1007.43 578.864 1007.87C581.441 1008.32 581.796 1008.23 581.53 1006.89C581.352 1006.01 580.019 1005.03 578.42 1004.59C575.666 1003.88 575.399 1003.43 574.155 998.192C573.889 996.771 572.822 994.551 571.845 993.397C569.624 990.555 569.713 989.312 572.378 983.629C574.422 979.189 576.376 978.123 576.376 981.498C576.376 984.517 578.953 987.003 582.152 987.003C587.749 987.003 589.437 985.849 589.882 981.231C590.237 978.656 591.037 976.702 592.014 975.903C593.613 974.749 611.117 971.019 615.026 971.019C616.003 971.019 620.268 971.907 624.533 972.973C630.93 974.571 632.441 974.749 633.596 973.772C635.462 972.173 635.373 969.865 633.418 967.467C631.996 965.691 630.575 965.336 622.489 964.714C617.158 964.359 611.028 963.293 608.007 962.228C601.965 960.096 596.901 959.919 591.925 961.784Z" fill="#ACDBDB"/>
<path d="M330.711 972.618C322.714 976.437 322.536 976.881 324.847 985.139C327.068 993.486 327.157 997.305 325.202 1003.52C323.425 1009.29 324.225 1011.6 328.934 1014.09L332.221 1015.86L334.265 1013.29C335.331 1011.87 337.197 1010.71 338.352 1010.62C340.129 1010.54 340.839 1009.56 342.616 1004.32C345.726 995.174 345.726 984.695 342.616 978.124C340.484 973.417 337.996 970.132 336.664 970.132C336.308 970.132 333.643 971.286 330.711 972.618Z" fill="#ACDBDB"/>
<path d="M552.832 1033.89C550.877 1035.31 548.567 1037.27 547.59 1038.33C545.991 1040.2 546.079 1040.28 551.055 1045.17C555.231 1049.16 556.031 1050.41 555.497 1052.09C554.076 1056.62 554.076 1058.58 555.409 1059.73C556.386 1060.62 557.186 1060.62 558.696 1059.73C560.473 1058.84 560.917 1059.02 562.517 1060.89C563.583 1062.13 565.093 1064.53 566.071 1066.13C567.581 1068.88 567.759 1068.97 568.736 1067.55C571.579 1062.84 571.668 1062.84 573.445 1064.53C576.288 1067.01 577.266 1066.39 577.266 1062.04C577.266 1059.47 576.466 1056.36 575.044 1053.6C573.801 1051.21 572.823 1048.54 572.823 1047.74C572.823 1046.15 573.179 1046.23 580.02 1048.81C584.285 1050.5 587.039 1050.05 587.039 1047.83C587.039 1046.94 586.151 1046.5 584.551 1046.5C582.863 1046.5 581.086 1045.52 578.954 1043.3C574.689 1038.86 563.672 1032.2 559.762 1031.67C557.008 1031.32 555.675 1031.76 552.832 1033.89Z" fill="#ACDBDB"/>
<path d="M404.9 1036.29C404.1 1037.26 402.857 1037.62 401.257 1037.26C399.925 1037 398.148 1037.35 397.259 1038.06C395.66 1039.22 395.749 1039.48 398.681 1042.42C403.212 1046.94 415.029 1053.43 421.071 1054.58C425.424 1055.47 426.935 1056.27 430.578 1059.91C435.376 1064.7 437.686 1065.24 440.529 1062.4C441.951 1060.97 442.306 1059.82 441.862 1057.33C440.173 1046.59 440.173 1047.03 443.017 1041.26C445.238 1036.91 445.593 1035.67 444.527 1035.31C443.816 1035.04 437.952 1035.49 431.377 1036.29C421.959 1037.44 418.672 1037.53 415.562 1036.73C408.099 1034.78 406.233 1034.69 404.9 1036.29Z" fill="#ACDBDB"/>
<path d="M590.59 1092.23C590.59 1093.21 594.677 1094.63 599.653 1095.43C602.673 1095.96 606.05 1097.03 607.205 1098.01C609.87 1100.14 615.912 1101.03 619.91 1100.05C623.997 1098.98 624.264 1097.39 620.621 1095.88C615.557 1093.74 590.59 1090.72 590.59 1092.23Z" fill="#ACDBDB"/>
<path d="M326.05 479.512L339.358 471.919L331.763 458.613L329.642 459.826L336.028 471.01L324.841 477.389L326.05 479.512Z" fill="#222222"/>
<path d="M263.822 462.519L265.942 461.305L259.555 450.126L270.743 443.742L269.534 441.62L256.225 449.216L263.822 462.519Z" fill="#222222"/>
<path d="M314.507 433.591L308.121 422.407L296.936 428.792L295.726 426.673L309.03 419.079L316.627 432.381L314.507 433.591Z" fill="#222222"/>
<path d="M286.317 502.173L278.725 488.872L280.845 487.663L287.227 498.845L298.416 492.461L299.625 494.58L286.317 502.173Z" fill="#222222"/>
<path d="M330.809 879.438L346.132 879.523L346.221 864.204L343.777 864.193L343.705 877.07L330.826 876.995L330.809 879.438Z" fill="#222222"/>
<path d="M285.449 833.59L287.892 833.601L287.961 820.727L300.844 820.799L300.861 818.356L285.534 818.273L285.449 833.59Z" fill="#222222"/>
<path d="M343.812 833.911L343.884 821.034L331.004 820.965L331.018 818.525L346.339 818.608L346.253 833.925L343.812 833.911Z" fill="#222222"/>
<path d="M285.059 879.177L285.148 863.863L287.589 863.877L287.514 876.751L300.396 876.823L300.383 879.263L285.059 879.177Z" fill="#222222"/>
<path d="M625.952 753.709L624.309 738.48L609.071 740.12L609.336 742.548L622.144 741.167L623.522 753.968L625.952 753.709Z" fill="#222222"/>
<path d="M585.49 803.926L585.225 801.498L572.42 802.881L571.039 790.078L568.609 790.337L570.255 805.568L585.49 803.926Z" fill="#222222"/>
<path d="M579.224 745.926L566.416 747.306L567.799 760.106L565.373 760.367L563.727 745.142L578.963 743.5L579.224 745.926Z" fill="#222222"/>
<path d="M630.846 799.172L615.614 800.811L615.352 798.385L628.158 797.008L626.777 784.205L629.204 783.943L630.846 799.172Z" fill="#222222"/>
</svg>
