<svg width="933" height="1053" viewBox="300 0 73 1053" fill="none" xmlns="http://www.w3.org/2000/svg">
    <g clip-path="url(#clip0_1779_10271)">
        <path d="M914.565 0.97733C910.352 1.23035 906.101 1.49917 901.812 1.78382C897.524 2.06847 893.197 2.38475 888.832 2.73265C884.468 3.07424 880.071 3.44109 875.643 3.83328C871.216 4.22547 866.756 4.63979 862.265 5.07625C857.774 5.51272 853.251 5.97133 848.696 6.45208C844.142 6.93282 839.556 7.44207 834.938 7.97975C830.321 8.5111 825.668 9.07404 820.981 9.66865C816.294 10.2633 811.581 10.8958 806.843 11.5663C802.099 12.1989 797.33 12.8694 792.535 13.5779C787.74 14.2863 782.929 14.9916 778.103 15.6937C773.277 16.4149 768.441 17.1518 763.595 17.9045C758.756 18.6541 753.898 19.4132 749.069 20.2576C744.239 21.1021 739.447 22.0699 734.703 23.1801C729.959 24.2902 725.338 25.6376 720.774 27.1652C716.21 28.6928 711.656 30.4102 707.149 32.2889C702.642 34.1676 698.078 36.1602 693.457 38.2571C688.836 40.354 684.092 42.5079 679.225 44.6997C674.357 46.8915 669.319 49.1023 664.043 51.2941C658.768 53.4859 653.236 55.6493 647.448 57.7462C641.66 59.8431 635.654 61.8642 629.42 63.8093C623.186 65.7544 616.734 67.6615 610.064 69.5023C606.734 70.4511 603.346 71.343 599.93 72.2254C596.515 73.1079 593.032 73.9713 589.493 74.8063C585.954 75.6413 582.491 76.4478 578.98 77.2068C575.469 77.9659 571.959 78.6965 568.448 79.3797C564.937 80.0629 561.446 80.7081 557.963 81.3248C554.481 81.9416 551.037 82.5203 547.593 83.0611C544.148 83.602 540.818 84.0954 537.459 84.5508C534.1 85.0063 530.817 85.4333 527.477 85.8128C520.892 86.5655 514.383 87.1001 507.95 87.4163C501.517 87.7294 495.15 87.8433 488.822 87.8053C482.493 87.7674 476.24 87.644 470.073 87.5207C463.905 87.3973 457.738 87.3025 451.646 87.2645C445.555 87.2266 439.568 87.2645 433.742 87.4828C427.916 87.701 422.242 88.0616 416.796 88.6878C411.524 89.2777 406.286 90.1359 401.102 91.2591C396.223 92.308 391.421 93.6838 386.727 95.3771C384.45 96.2121 382.252 97.1419 380.132 98.1667C378.036 99.1781 375.996 100.303 374.022 101.535C372.058 102.75 370.17 104.059 368.329 105.444C366.488 106.83 364.752 108.291 363.063 109.828C361.374 111.365 359.732 112.978 358.157 114.657C356.582 116.337 355.045 118.073 353.556 119.895C350.549 123.598 347.743 127.459 345.149 131.461C342.502 135.503 339.959 139.65 337.473 143.853C334.987 148.056 332.463 152.298 329.958 156.539C327.311 160.695 324.682 164.822 321.997 168.874C319.312 172.925 316.608 176.882 313.894 180.744C311.18 184.606 308.476 188.335 305.782 192.054C303.087 195.773 300.459 199.36 297.849 202.994C295.24 206.628 292.697 210.234 290.259 213.896C287.82 217.559 285.6 221.297 283.446 225.111C281.292 228.926 279.243 232.816 277.335 236.725C275.428 240.634 273.607 244.61 271.851 248.605C270.096 252.599 268.397 256.632 266.699 260.702C265.001 264.773 263.283 268.9 261.537 273.037L256.186 285.761C254.377 290.069 252.511 294.462 250.588 298.941C248.665 303.419 246.691 307.986 244.667 312.642C242.655 317.297 240.593 322.042 238.481 326.874C236.368 331.707 234.23 336.59 232.066 341.524C229.884 346.477 227.702 351.487 225.557 356.544C223.413 361.602 221.316 366.744 219.238 371.906C217.16 377.068 215.111 382.248 213.147 387.42C211.183 392.591 209.294 397.714 207.454 402.8C205.613 407.886 203.877 412.886 202.159 417.792C200.442 422.697 198.753 427.489 197.054 432.148C195.356 436.806 193.677 441.332 192.016 445.773C190.356 450.214 188.61 454.407 186.911 458.563C185.213 462.719 183.401 466.619 181.655 470.452C179.909 474.285 178.192 478.043 176.531 481.601C174.871 485.159 173.258 488.698 171.692 492.114C170.126 495.53 168.618 498.841 167.138 502.039C165.657 505.237 164.291 508.32 162.877 511.338C161.464 514.355 160.183 517.268 158.93 520.095C157.678 522.923 156.463 525.674 155.315 528.331C154.167 530.988 153.085 533.569 152.07 536.074C151.055 538.579 150.172 540.998 149.29 543.351C148.408 545.704 147.677 547.991 146.994 550.202C145.696 554.335 144.694 558.556 143.995 562.831C143.385 566.571 143.068 570.352 143.047 574.141C143.035 577.5 143.302 580.855 143.844 584.17C144.345 587.174 145.172 590.113 146.311 592.938C147.41 595.627 148.827 598.176 150.533 600.528C152.251 602.889 154.217 605.058 156.397 606.999C158.722 609.066 161.242 610.903 163.921 612.484C166.917 614.246 170.045 615.775 173.277 617.057C177.015 618.55 180.839 619.817 184.729 620.852C189.286 622.076 193.904 623.065 198.563 623.813C203.573 624.638 209 625.255 214.893 625.653C220.785 626.052 227.133 626.242 234.012 626.213C237.446 626.213 241.014 626.118 244.733 625.976C248.453 625.834 252.324 625.634 256.319 625.388C260.313 625.141 264.498 624.856 268.805 624.553C273.113 624.249 277.544 623.955 282.089 623.67C286.634 623.386 291.369 623.101 296.17 622.854C300.971 622.608 305.867 622.399 310.848 622.257C318.306 622.038 325.868 621.943 333.421 621.953C340.974 621.962 348.603 622.361 356.193 622.759C361.178 623.088 366.124 623.471 371.033 623.908C375.863 624.401 380.588 624.98 385.161 625.71C389.735 626.441 394.118 627.323 398.274 628.405C402.261 629.429 406.176 630.716 409.992 632.257C413.509 633.672 416.899 635.383 420.126 637.372C423.089 639.211 425.869 641.331 428.428 643.7C430.824 645.912 432.997 648.353 434.918 650.987C436.754 653.517 438.376 656.196 439.767 658.996C441.133 661.741 442.352 664.556 443.42 667.431C444.502 670.277 445.498 673.19 446.456 676.112C447.414 679.035 448.354 682.005 449.388 684.994C450.422 687.983 451.513 691.028 452.766 694.103C454.018 697.177 455.432 700.308 457.007 703.496C458.582 706.684 460.366 709.901 462.292 713.117C464.218 716.334 466.249 719.522 468.498 722.691C470.746 725.86 473.09 728.963 475.481 732.028C477.872 735.092 480.358 738.11 482.92 741.079C485.482 744.049 488.243 746.772 490.995 749.552C493.746 752.333 496.545 754.923 499.468 757.409C505.255 762.346 511.377 766.877 517.79 770.968C524.161 775.032 530.785 778.686 537.62 781.908C544.3 785.058 551.145 787.845 558.125 790.258C564.909 792.592 571.608 794.575 578.202 796.273C584.797 797.972 591.211 799.395 597.397 800.628C603.242 801.72 608.878 802.659 614.267 803.38C619.657 804.101 624.771 804.604 629.582 804.917C634.392 805.23 638.899 805.411 643.159 805.486C647.42 805.562 651.405 805.581 655.153 805.543C658.901 805.505 662.449 805.411 665.846 805.325L675.591 805.078C681.777 804.927 687.508 804.851 692.803 804.946C697.738 805.005 702.666 805.366 707.557 806.027C711.886 806.864 716.114 808.162 720.167 809.898C724.01 811.604 727.64 813.754 730.984 816.303C734.28 818.813 737.408 821.535 740.349 824.454C742.941 827.41 745.367 830.508 747.617 833.733C749.82 836.906 751.805 840.225 753.557 843.668C755.262 847.035 756.718 850.524 757.912 854.105C759.072 857.568 760.022 861.098 760.758 864.675C761.095 868.073 761.178 871.492 761.005 874.903C760.847 878.208 760.342 881.487 759.496 884.686C758.669 887.817 757.367 890.802 755.635 893.538C753.815 896.36 751.523 898.848 748.86 900.892C745.753 903.247 742.29 905.091 738.603 906.357C733.933 907.958 729.093 909.012 724.181 909.498C717.697 910.156 711.166 910.21 704.673 909.659C700.928 909.375 696.921 908.935 692.651 908.34C688.391 907.742 683.865 907.002 679.111 906.13C674.196 905.124 669.025 903.982 663.597 902.704C658.161 901.423 652.468 900.019 646.461 898.444C640.455 896.869 634.127 895.114 627.409 893.216C620.691 891.318 613.717 889.288 606.345 887.029C598.972 884.771 591.163 882.285 583.098 879.685L570.763 875.7L558.172 871.677C553.934 870.336 549.683 869.021 545.42 867.73C541.156 866.44 536.883 865.175 532.601 863.935C528.325 862.701 524.027 861.487 519.706 860.291C515.389 859.096 511.053 857.91 506.707 856.762C502.362 855.613 498.101 854.598 493.803 853.564C489.505 852.53 485.197 851.524 480.908 850.585C476.62 849.645 472.369 848.782 468.232 848.032C464.095 847.283 459.949 846.619 455.897 846.049C448.296 844.957 440.632 844.361 432.954 844.265C426.262 844.183 419.576 844.717 412.981 845.859C407.218 846.869 401.579 848.488 396.158 850.689C391.287 852.679 386.627 855.152 382.248 858.071C378.168 860.801 374.33 863.878 370.777 867.265C367.367 870.541 364.211 874.071 361.336 877.826C358.543 881.493 355.961 885.317 353.603 889.278C351.278 893.178 349.153 897.125 347.189 901.072C345.225 905.019 343.393 908.948 341.714 912.8C340.035 916.652 338.393 920.391 336.847 924.186C335.3 927.981 333.877 931.416 332.453 934.879C331.03 938.343 329.607 941.692 328.279 944.956C326.95 948.22 325.565 951.342 324.255 954.368C322.946 957.395 321.665 960.337 320.403 963.155C319.141 965.973 317.87 968.677 316.56 971.229C315.251 973.782 313.904 976.182 312.509 978.45C311.163 980.642 309.696 982.758 308.116 984.788C306.616 986.71 305.003 988.542 303.286 990.272C301.65 991.947 299.907 993.512 298.068 994.96C296.239 996.384 294.308 997.672 292.289 998.812C288.274 1001.07 284.071 1002.97 279.727 1004.5C275.372 1006.03 270.909 1007.24 266.376 1008.11C261.7 1008.99 256.976 1009.59 252.229 1009.9C247.409 1010.24 242.576 1010.39 237.731 1010.35C232.901 1010.35 228.072 1010.1 223.214 1009.73C218.356 1009.36 213.498 1008.78 208.668 1008.2C203.839 1007.61 199.094 1006.87 194.436 1006.15C189.777 1005.43 185.27 1004.7 180.848 1003.95C176.427 1003.21 172.119 1002.46 167.887 1001.72C163.655 1000.98 159.509 1000.24 155.467 999.571C151.425 998.907 147.459 998.281 143.644 997.74C139.83 997.199 136.13 996.791 132.524 996.383C128.918 995.975 125.408 995.766 121.992 995.624C118.576 995.482 115.246 995.453 112.02 995.557C108.794 995.662 105.653 995.871 102.598 996.184C99.5425 996.497 96.5726 996.924 93.6786 997.474C90.7847 998.024 87.9856 998.698 85.1866 999.495C82.3875 1000.29 79.7213 1001.2 77.074 1002.19C74.4268 1003.18 71.8364 1004.24 69.2651 1005.36C66.6937 1006.48 64.1603 1007.67 61.6744 1008.94C59.1884 1010.2 56.7215 1011.5 54.2735 1012.85C51.8255 1014.21 49.4154 1015.61 47.0054 1017.05C44.5953 1018.49 42.2612 1019.97 39.8796 1021.48C37.498 1022.99 35.2019 1024.55 32.8962 1026.14C30.5905 1027.72 28.3323 1029.34 26.1025 1030.99C21.643 1034.29 17.389 1037.66 13.3406 1041.1C9.2986 1044.54 5.42734 1047.97 1.74586 1051.37L0 1053H12.8662C14.7639 1051.28 16.6616 1049.57 18.6731 1047.86C22.6645 1044.4 26.8647 1041.01 31.2736 1037.69C33.4749 1036.03 35.7269 1034.42 38.0294 1032.86C40.3319 1031.29 42.6565 1029.76 45.0033 1028.26C47.3564 1026.76 49.7285 1025.3 52.1196 1023.86C54.5107 1022.43 56.9176 1021.03 59.3403 1019.67C61.7693 1018.31 64.2268 1017 66.7127 1015.75C69.1987 1014.5 71.7226 1013.3 74.3034 1012.19C76.8842 1011.08 79.4651 1010.03 82.1123 1009.04C84.7596 1008.05 87.4733 1007.14 90.2533 1006.42C93.0334 1005.7 95.861 1005.02 98.7929 1004.52C101.725 1004.03 104.714 1003.58 107.788 1003.3C110.862 1003.02 114.031 1002.8 117.276 1002.71C120.521 1002.63 123.918 1002.71 127.362 1002.85C130.807 1003 134.374 1003.31 138.046 1003.69C141.718 1004.07 145.485 1004.53 149.366 1005.08C153.247 1005.63 157.279 1006.22 161.407 1006.89C165.534 1007.55 169.756 1008.24 174.083 1008.96C178.41 1009.69 182.85 1010.42 187.433 1011.16C192.016 1011.9 196.694 1012.62 201.514 1013.34C206.334 1014.06 211.249 1014.75 216.249 1015.36C221.25 1015.97 226.25 1016.44 231.269 1016.76C236.289 1017.09 241.308 1017.26 246.318 1017.24C251.328 1017.22 256.471 1017.03 261.499 1016.6C266.423 1016.19 271.316 1015.46 276.149 1014.44C280.887 1013.43 285.543 1012.06 290.078 1010.36C292.336 1009.5 294.53 1008.49 296.644 1007.32C298.757 1006.16 300.789 1004.86 302.726 1003.42C304.684 1001.97 306.539 1000.39 308.277 998.679C310.079 996.894 311.762 994.992 313.315 992.986C314.96 990.864 316.478 988.646 317.86 986.344C319.303 983.991 320.694 981.483 322.035 978.82C323.373 976.154 324.673 973.336 325.973 970.394C327.273 967.453 328.592 964.407 329.911 961.219C331.229 958.031 332.558 954.71 333.877 951.237C335.196 947.765 336.524 944.14 337.871 940.373C339.219 936.606 340.623 932.725 342.084 928.74C343.545 924.755 345.111 920.685 346.828 916.557C348.546 912.43 350.32 908.255 352.303 904.08C354.286 899.905 356.459 895.778 358.86 891.688C361.29 887.563 363.987 883.601 366.934 879.828C369.964 875.977 373.285 872.363 376.868 869.021C380.673 865.586 384.775 862.496 389.127 859.788C393.852 856.885 398.887 854.52 404.138 852.738C410.066 850.752 416.194 849.425 422.413 848.782C429.629 848.042 436.897 847.937 444.132 848.469C448.041 848.725 452.064 849.123 456.172 849.645C460.281 850.167 464.503 850.812 468.792 851.543C473.08 852.274 477.417 853.166 481.81 854.105C486.203 855.044 490.615 856.002 495.093 857.103C499.572 858.204 503.994 859.285 508.463 860.462C512.932 861.639 517.41 862.844 521.889 864.106C526.367 865.367 530.846 866.648 535.315 867.967C539.784 869.286 544.281 870.653 548.779 872.076C553.276 873.499 557.764 874.922 562.214 876.403C566.664 877.883 571.095 879.344 575.498 880.805C579.901 882.266 584.18 883.727 588.412 885.132C592.643 886.536 596.78 887.921 600.822 889.231C608.888 891.843 616.592 894.279 623.936 896.537C631.28 898.805 638.311 900.949 644.943 902.903C651.576 904.858 657.904 906.699 663.92 908.312C669.936 909.925 675.742 911.5 681.217 912.866C686.692 914.233 691.711 915.276 696.522 916.216C701.333 917.155 705.849 917.914 710.052 918.455C717.404 919.461 724.817 919.949 732.236 919.916C737.908 919.909 743.563 919.324 749.116 918.17C753.441 917.279 757.615 915.767 761.508 913.682C764.724 911.904 767.633 909.62 770.123 906.917C772.366 904.329 774.223 901.431 775.636 898.311C777.031 895.168 778.053 891.872 778.682 888.491C779.313 884.993 779.631 881.446 779.631 877.892C779.643 874.165 779.418 870.442 778.957 866.743C778.103 862.809 777.052 858.92 775.807 855.092C774.515 851.137 772.991 847.262 771.243 843.487C769.447 839.601 767.399 835.835 765.113 832.215C762.792 828.535 760.224 825.017 757.428 821.683C754.576 818.303 751.522 815.099 748.281 812.09C745.001 809.047 741.548 806.196 737.939 803.551C733.984 801.154 729.789 799.176 725.424 797.649C720.91 796.142 716.256 795.096 711.533 794.527C708.971 794.357 706.371 794.262 703.714 794.3C701.057 794.338 698.363 794.47 695.583 794.689C692.803 794.907 689.947 795.211 687.043 795.571C684.14 795.932 680.98 796.254 677.783 796.643C674.405 797.099 670.866 797.592 667.118 798.038C663.37 798.484 659.404 798.987 655.2 799.329C650.997 799.67 646.509 799.983 641.727 800.135C636.945 800.287 631.859 800.287 626.545 800.135C620.767 799.86 614.666 799.385 608.204 798.588C601.743 797.791 594.921 796.691 587.833 795.211C580.745 793.73 573.477 791.937 566.104 789.736C558.569 787.494 551.179 784.788 543.978 781.633C536.533 778.365 529.31 774.615 522.354 770.408C518.843 768.283 515.427 766.018 512.106 763.614C508.785 761.211 505.543 758.68 502.381 756.024C499.218 753.348 496.159 750.536 493.205 747.588C490.251 744.641 487.405 741.608 484.666 738.489C481.943 735.377 479.371 732.198 476.914 729.001C474.456 725.803 472.122 722.482 469.873 719.152C467.625 715.821 465.594 712.51 463.744 709.123C461.894 705.735 460.243 702.481 458.791 699.236C457.339 695.991 456.068 692.793 454.929 689.633C453.791 686.474 452.775 683.343 451.798 680.24C450.821 677.137 449.853 674.073 448.828 671.036C447.803 668 446.703 665.002 445.46 662.032C444.212 659.034 442.75 656.129 441.086 653.34C439.371 650.461 437.378 647.757 435.136 645.266C432.788 642.654 430.189 640.28 427.375 638.178C424.376 635.937 421.167 633.992 417.792 632.371C414.141 630.614 410.363 629.133 406.491 627.94C402.293 626.639 398.023 625.587 393.701 624.79C389.203 623.936 384.526 623.262 379.724 622.722C374.923 622.181 369.999 621.773 364.989 621.403C359.979 621.033 354.874 620.786 349.751 620.596C344.627 620.406 339.465 620.292 334.285 620.255C329.104 620.217 324.018 620.311 318.97 620.416C313.923 620.52 308.951 620.672 304.064 620.881C299.178 621.089 294.367 621.327 289.68 621.602C284.993 621.877 280.429 622.152 275.998 622.446L263.15 623.272C259.013 623.525 255.031 623.737 251.205 623.908C247.409 624.059 243.69 624.173 240.151 624.221C236.611 624.268 233.205 624.221 229.941 624.221C223.4 624.075 217.356 623.715 211.809 623.139C206.633 622.616 201.487 621.831 196.39 620.786C192.008 619.884 187.678 618.744 183.42 617.37C179.78 616.211 176.223 614.806 172.774 613.167C169.784 611.736 166.926 610.044 164.234 608.109C161.751 606.362 159.458 604.358 157.393 602.132C155.414 600.008 153.688 597.661 152.25 595.139C150.796 592.572 149.658 589.839 148.863 586.998C148.016 583.941 147.476 580.807 147.25 577.642C146.984 574.105 146.984 570.553 147.25 567.015C147.559 562.995 148.194 559.006 149.148 555.088C150.225 550.554 151.568 546.086 153.171 541.71C154.012 539.357 154.936 536.924 155.941 534.413C156.947 531.902 158.016 529.309 159.148 526.633C160.274 523.957 161.46 521.196 162.706 518.35C163.953 515.503 165.262 512.562 166.635 509.525C168.001 506.508 169.418 503.389 170.885 500.17L175.411 490.16C176.968 486.725 178.574 483.192 180.232 479.561C181.892 475.927 183.6 472.17 185.327 468.279C187.054 464.389 188.781 460.376 190.479 456.21C192.177 452.045 193.847 447.728 195.508 443.278C197.168 438.828 198.848 434.245 200.537 429.519C202.226 424.794 203.905 419.946 205.641 414.993C207.378 410.04 209.152 405.02 211.002 399.925C212.853 394.83 214.798 389.706 216.762 384.573C218.726 379.44 220.804 374.297 222.882 369.202C224.96 364.107 227.057 359.068 229.201 354.096C231.345 349.125 233.67 343.972 235.89 339.019C238.111 334.066 240.264 329.199 242.418 324.398C244.572 319.597 246.555 314.909 248.586 310.355C250.616 305.801 252.495 301.322 254.412 296.92C256.328 292.517 258.292 288.048 260.181 283.731C262.069 279.413 263.9 275.191 265.684 270.997C267.468 266.803 269.204 262.714 270.95 258.662C272.696 254.611 274.442 250.588 276.235 246.612C278.028 242.637 279.916 238.708 281.928 234.809C283.939 230.909 286.027 227.085 288.228 223.347C290.429 219.608 292.735 215.936 295.183 212.331C297.631 208.725 300.164 205.129 302.774 201.561C305.383 197.994 307.954 194.265 310.592 190.564C313.23 186.864 315.877 183.078 318.543 179.178C321.21 175.279 323.876 171.294 326.485 167.242C329.095 163.19 331.666 159.053 334.237 154.907C336.666 150.663 339.133 146.478 341.638 142.354C344.143 138.217 346.724 134.175 349.457 130.266C352.126 126.42 355.032 122.744 358.157 119.259C361.239 115.804 364.603 112.611 368.215 109.714C371.779 106.845 375.615 104.332 379.668 102.209C383.898 100.023 388.315 98.2197 392.866 96.8193C397.675 95.3334 402.57 94.1451 407.525 93.2611C412.81 92.3042 418.14 91.617 423.494 91.2022C429.045 90.7657 434.747 90.519 440.573 90.4146C446.399 90.3103 452.434 90.3387 458.506 90.4146C464.579 90.4905 470.661 90.6424 476.781 90.7657C482.901 90.8891 489.116 90.965 495.359 90.9175C501.603 90.8701 507.988 90.6234 514.383 90.149C520.779 89.6746 527.269 88.9819 533.891 88.0805C537.193 87.6314 540.54 87.1412 543.93 86.6098C547.321 86.0785 550.746 85.506 554.206 84.8924C557.66 84.2599 561.139 83.6273 564.643 82.9948C568.148 82.3622 571.655 81.6506 575.166 80.8599C578.695 80.1071 582.216 79.3196 585.726 78.4972C589.237 77.6749 592.716 76.8241 596.164 75.9449C599.643 75.053 603.084 74.1452 606.487 73.2217C609.89 72.2982 613.233 71.3493 616.516 70.3752C623.088 68.4775 629.446 66.5324 635.588 64.5399C641.73 62.5473 647.647 60.4947 653.34 58.382C659.034 56.2755 664.47 54.1121 669.651 51.9298C674.832 49.7475 679.823 47.5557 684.681 45.3829C689.539 43.21 694.169 41.1321 698.818 39.1111C703.468 37.0901 708.003 35.1639 712.538 33.3421C717.074 31.5204 721.685 30.0022 726.306 28.598C730.927 27.1937 735.652 25.9696 740.444 24.9449C745.235 23.9202 750.084 23.0472 754.961 22.2312C759.838 21.4152 764.705 20.6847 769.573 19.9446C774.44 19.2045 779.28 18.4739 784.119 17.7623C788.958 17.0506 793.778 16.358 798.579 15.6843C803.38 15.0106 808.162 14.3559 812.916 13.7202C817.67 13.0845 822.404 12.4867 827.072 11.9174C831.741 11.3481 836.418 10.7978 841.039 10.2759C845.66 9.75406 850.243 9.2796 854.797 8.81467C859.352 8.34974 863.878 7.91332 868.375 7.49583C872.873 7.07834 877.323 6.68933 881.754 6.31928C886.185 5.94924 890.588 5.61713 894.943 5.29453C899.298 4.97192 903.625 4.68729 907.913 4.42161C912.202 4.15594 916.453 3.91871 920.675 3.69099C924.471 3.48224 928.244 3.28933 931.995 3.11221V0L927.051 0.246707L914.565 0.97733Z" fill="#ACDBDB"/>
        <path d="M906.253 125.986C900.123 126.575 893.918 127.308 887.637 128.188C881.355 129.061 875.036 130.085 868.66 131.176C862.284 132.268 855.822 133.53 849.266 134.839C845.973 135.494 842.624 136.167 839.246 136.832C835.868 137.496 832.395 138.15 828.866 138.786C825.336 139.422 821.74 140.029 818.077 140.617L806.929 142.363C803.133 142.942 799.338 143.54 795.391 144.185C791.444 144.83 787.515 145.513 783.492 146.244C779.469 146.975 775.437 147.724 771.3 148.55C767.163 149.375 762.94 150.248 758.661 151.168C754.382 152.089 749.979 153.066 745.548 154.015C741.117 154.964 736.62 156.045 732.084 157.118C727.549 158.19 722.852 159.29 718.155 160.467C713.459 161.644 708.667 162.877 703.923 164.205C699.179 165.534 694.548 166.881 689.871 168.342C685.193 169.804 680.525 171.379 675.894 173.087C671.264 174.794 666.719 176.711 662.278 178.78C657.859 180.838 653.554 183.134 649.384 185.659C645.308 188.114 641.425 190.877 637.77 193.923C630.596 199.916 624.681 207.272 620.368 215.566C618.201 219.72 616.355 224.034 614.846 228.47C613.311 232.983 612.022 237.576 610.984 242.228C609.922 246.972 609.02 251.717 608.242 256.461C607.464 261.205 606.762 265.949 606.088 270.456C605.415 274.963 604.722 279.176 603.963 283.028C603.306 286.528 602.464 289.989 601.439 293.399C600.636 296.11 599.581 298.741 598.289 301.255C597.275 303.236 596.015 305.082 594.541 306.749C593.321 308.119 591.873 309.268 590.262 310.146C588.797 310.942 587.18 311.417 585.518 311.541C583.764 311.663 582.002 311.484 580.308 311.01C578.379 310.478 576.516 309.727 574.758 308.77C572.734 307.693 570.785 306.482 568.922 305.146C566.93 303.732 564.918 302.185 562.888 300.553C560.857 298.921 558.817 297.194 556.749 295.363C552.602 291.701 548.456 287.943 544.224 283.977C539.992 280.011 535.685 275.988 531.491 272.069C527.297 268.151 523.065 264.479 518.985 261.072C515.169 257.858 511.191 254.84 507.068 252.03C503.514 249.618 499.795 247.458 495.938 245.568C492.654 243.956 489.23 242.644 485.709 241.65C482.648 240.786 479.501 240.264 476.325 240.093C473.462 239.945 470.592 240.169 467.786 240.758C465.072 241.358 462.449 242.315 459.986 243.604C457.45 244.964 455.042 246.552 452.794 248.348C450.439 250.217 448.193 252.219 446.067 254.345C443.885 256.527 441.75 258.852 439.634 261.319C437.518 263.786 435.421 266.357 433.296 269.014L426.806 277.098C424.557 279.793 422.308 282.525 420.031 285.277C417.754 288.029 415.429 290.79 413.104 293.57C410.78 296.35 408.474 299.14 406.206 301.967C403.939 304.795 401.718 307.66 399.564 310.507C397.411 313.353 395.333 316.295 393.321 319.226C391.31 322.158 389.374 325.138 387.562 328.126C385.749 331.115 384.023 334.123 382.419 337.14C379.202 343.175 376.346 349.191 373.879 355.073C371.607 360.666 369.668 366.388 368.073 372.209C366.599 377.694 365.438 382.934 364.59 387.932C363.771 392.664 363.21 397.437 362.911 402.231C362.641 406.562 362.622 410.906 362.854 415.239C363.062 419.162 363.547 423.065 364.306 426.919C365.524 433.606 368 440 371.602 445.763C374.928 450.962 379.409 455.323 384.696 458.506C390.499 461.858 396.814 464.23 403.388 465.528C406.924 466.287 410.666 466.954 414.613 467.53C418.56 468.105 422.672 468.621 426.948 469.076C431.483 469.465 436.18 469.873 441.01 470.471C446.018 471.085 450.979 472.036 455.859 473.317C461.164 475.206 466.286 477.572 471.164 480.386C476.684 484.25 481.841 488.607 486.573 493.404C489.201 496.46 491.829 499.8 494.429 503.5C497.029 507.2 499.591 511.252 502.124 515.674C504.658 520.095 507.163 524.858 509.649 529.906C512.134 534.954 514.564 540.343 516.955 546.036C519.346 551.729 521.699 557.669 523.985 563.799C526.272 569.928 528.549 576.342 530.779 582.908C531.899 586.191 533.012 589.49 534.119 592.805C535.229 596.106 536.339 599.446 537.459 602.739C538.579 606.031 539.698 609.324 540.827 612.559C541.956 615.795 543.086 618.992 544.205 622.209C545.325 625.426 546.473 628.652 547.621 631.802C548.769 634.952 549.927 638.036 551.103 641.053C553.466 647.097 555.914 652.79 558.523 658.037C560.91 662.937 563.673 667.645 566.787 672.118C569.485 675.987 572.614 679.536 576.115 682.697C579.242 685.515 582.797 687.818 586.647 689.519C590.321 691.129 594.255 692.064 598.26 692.281C602.427 692.485 606.597 691.982 610.595 690.791C615.104 689.432 619.443 687.563 623.528 685.221C628.287 682.523 632.836 679.469 637.134 676.084C641.784 672.469 646.537 668.313 651.367 663.692C656.196 659.071 661.13 654.042 666.093 648.701C668.579 646.025 671.065 643.311 673.551 640.559C676.037 637.808 678.523 635.021 681.008 632.2C683.485 629.354 685.961 626.593 688.438 623.765C690.914 620.938 693.391 618.072 695.867 615.226L703.306 606.572C705.786 603.688 708.259 600.825 710.726 597.985C713.193 595.145 715.65 592.368 718.098 589.654C720.546 586.934 722.982 584.281 725.404 581.694C727.827 579.107 730.244 576.576 732.654 574.103C735.064 571.623 737.461 569.216 739.846 566.882C744.59 562.214 749.334 557.897 754.078 553.997C758.517 550.265 763.157 546.781 767.979 543.56C772.343 540.651 776.909 538.058 781.642 535.798C785.911 533.855 790.36 532.336 794.926 531.263C799.235 530.279 803.647 529.817 808.067 529.887C812.353 529.954 816.62 530.463 820.801 531.405C824.988 532.378 829.108 533.621 833.135 535.125C837.196 536.712 841.235 538.48 845.252 540.429C849.275 542.326 853.27 544.423 857.274 546.511C861.278 548.598 865.263 550.724 869.277 552.896C877.291 557.229 885.334 561.721 893.406 566.37C901.477 571.019 909.479 575.833 917.411 580.811C922.279 583.848 927.137 586.969 932.004 590.129V583.487C926.786 580.122 921.558 576.813 916.32 573.562C908.097 568.502 899.845 563.612 891.565 558.893C883.285 554.174 875.03 549.623 866.8 545.239C862.682 543.057 858.571 540.906 854.465 538.787C850.366 536.681 846.258 534.612 842.13 532.705C838.003 530.798 833.857 529.128 829.672 527.638C825.47 526.32 821.176 525.314 816.825 524.631C812.48 524.007 808.087 523.791 803.703 523.985C799.105 524.489 794.573 525.475 790.182 526.927C785.386 528.546 780.754 530.614 776.348 533.104C771.436 535.882 766.733 539.015 762.276 542.478C757.551 546.115 752.775 550.167 747.949 554.633C745.539 556.853 743.113 559.175 740.671 561.597C738.23 564.02 735.775 566.515 733.308 569.084C730.854 571.658 728.384 574.29 725.898 576.978C723.421 579.673 720.935 582.405 718.431 585.204C715.926 588.003 713.43 590.897 710.916 593.744C708.401 596.59 705.878 599.617 703.325 602.596L695.734 611.525C693.204 614.485 690.674 617.43 688.144 620.359C685.614 623.288 683.083 626.166 680.553 628.993C678.023 631.84 675.493 634.664 672.962 637.466C670.448 640.313 667.924 643.026 665.372 645.702C662.819 648.378 660.371 650.997 657.885 653.53C652.923 658.587 648.036 663.237 643.245 667.364C638.818 671.239 634.136 674.811 629.23 678.057C625.043 680.844 620.594 683.214 615.947 685.136C611.955 686.808 607.737 687.879 603.432 688.314C599.459 688.681 595.452 688.301 591.618 687.195C587.722 686.056 584.05 684.255 580.764 681.872C577.143 679.241 573.886 676.143 571.076 672.659C567.824 668.624 564.947 664.302 562.48 659.745C559.632 654.512 557.073 649.127 554.813 643.615C552.394 637.808 550.069 631.669 547.792 625.293C546.666 622.13 545.53 618.92 544.385 615.662C543.241 612.404 542.197 609.144 541.254 605.88C540.135 602.559 539.021 599.222 537.914 595.869C536.807 592.517 535.7 589.161 534.593 585.802C533.493 582.456 532.386 579.141 531.273 575.858C530.159 572.575 529.036 569.346 527.904 566.171C525.636 559.823 523.35 553.646 521.016 547.687C518.681 541.729 516.271 536.007 513.899 530.608C511.527 525.209 509.051 520.114 506.593 515.341C504.136 510.569 501.65 506.138 499.145 502.058C496.64 497.978 494.116 494.344 491.554 491.032C489.185 487.917 486.651 484.93 483.964 482.085C479.273 477.628 474.193 473.601 468.782 470.054C464.04 467.556 459.091 465.473 453.99 463.829C449.443 462.448 444.821 461.327 440.146 460.47C435.718 459.705 431.483 458.952 427.441 458.212C423.39 457.462 419.528 456.675 415.894 455.811C412.422 455.004 408.995 454.013 405.628 452.842C402.548 451.77 399.559 450.453 396.69 448.904C391.305 445.998 386.66 441.895 383.112 436.911C379.358 431.477 376.729 425.347 375.379 418.883C374.555 415.197 374.016 411.454 373.766 407.686C373.499 403.532 373.499 399.364 373.766 395.209C374.006 390.604 374.488 386.015 375.208 381.461C376.081 376.346 377.211 371.279 378.595 366.279C380.157 360.689 382.104 355.214 384.421 349.893C386.945 344.078 389.776 338.403 392.904 332.89C396.168 327.197 399.773 321.608 403.711 316.076C405.675 313.306 407.715 310.582 409.821 307.878C411.928 305.174 414.101 302.498 416.311 299.813C418.522 297.128 420.752 294.481 422.953 291.843C425.155 289.205 427.356 286.586 429.548 283.996L435.943 276.216C438.04 273.654 440.127 271.139 442.215 268.739C444.302 266.338 446.409 264.071 448.543 261.936C450.623 259.862 452.819 257.907 455.119 256.081C457.274 254.351 459.59 252.833 462.036 251.546C464.418 250.284 466.949 249.328 469.57 248.699C472.256 248.078 475.012 247.814 477.768 247.912C480.797 248.022 483.802 248.483 486.725 249.288C490.082 250.209 493.344 251.445 496.469 252.979C500.159 254.771 503.708 256.839 507.087 259.165C511.033 261.886 514.834 264.812 518.473 267.932C522.391 271.234 526.405 274.859 530.513 278.759C534.622 282.658 538.759 286.729 542.934 290.837C547.109 294.946 551.16 298.874 555.269 302.764C559.377 306.654 563.4 310.355 567.461 313.903C569.485 315.656 571.468 317.237 573.41 318.648C575.246 319.987 577.17 321.202 579.17 322.282C580.915 323.24 582.769 323.985 584.692 324.502C586.383 324.955 588.136 325.124 589.882 325.005C591.555 324.867 593.186 324.406 594.683 323.648C596.345 322.815 597.851 321.701 599.133 320.356C600.673 318.733 601.981 316.907 603.024 314.928C604.349 312.387 605.426 309.725 606.24 306.977C607.281 303.501 608.124 299.969 608.764 296.397C609.495 292.45 610.149 288.105 610.747 283.446C611.345 278.787 611.924 273.891 612.55 268.9C613.176 263.909 613.888 258.871 614.761 253.908C615.634 248.946 616.658 244.088 617.939 239.249C619.199 234.447 620.784 229.736 622.683 225.149C624.54 220.646 626.825 216.331 629.506 212.264C632.159 208.233 635.235 204.495 638.681 201.115C642.154 197.712 645.933 194.638 649.972 191.931C654.078 189.164 658.356 186.664 662.781 184.444C667.241 182.186 671.824 180.146 676.492 178.286C681.16 176.427 685.895 174.709 690.725 173.106C695.554 171.502 700.298 170.145 705.118 168.779C709.938 167.413 714.759 166.113 719.56 164.898C724.361 163.684 729.105 162.536 733.792 161.444C738.48 160.353 743.091 159.3 747.645 158.285C752.2 157.269 756.669 156.283 761.062 155.353C765.455 154.423 769.782 153.55 774.023 152.725C778.264 151.899 782.43 151.131 786.519 150.419C790.609 149.707 794.651 149.053 798.626 148.417C802.602 147.781 806.502 147.202 810.344 146.633C814.187 146.064 817.935 145.485 821.674 144.897C825.412 144.308 829.036 143.711 832.614 143.075C836.191 142.439 839.692 141.775 843.117 141.101L853.232 139.099C856.54 138.435 859.823 137.802 863.081 137.202C869.571 135.978 876.013 134.867 882.371 133.89C888.728 132.913 895.047 132.068 901.29 131.366C907.534 130.664 913.692 130.123 919.745 129.744C923.93 129.488 928.048 129.317 932.146 129.193V124.383C929.585 124.459 927.023 124.554 924.432 124.677C918.436 124.968 912.376 125.404 906.253 125.986Z" fill="#ACDBDB"/>
        <path d="M699.027 1042.02C693.259 1038.81 687.483 1035.65 681.702 1032.53C675.933 1029.44 670.116 1026.38 664.205 1023.27C658.294 1020.17 652.345 1017.08 646.405 1014.04C640.465 1011 634.564 1008.09 628.785 1005.35C623.007 1002.61 617.399 1000.07 611.934 997.759C606.468 995.443 601.221 993.365 596.174 991.534C591.126 989.703 586.287 988.128 581.675 986.79C577.064 985.452 572.652 984.38 568.496 983.583C561.102 982.083 553.572 981.358 546.028 981.42C540.044 981.434 534.1 982.395 528.417 984.266C523.71 985.854 519.389 988.411 515.731 991.771C512.296 995.023 509.494 998.884 507.467 1003.16C505.32 1007.68 503.727 1012.44 502.723 1017.34C501.606 1022.66 500.908 1028.05 500.635 1033.47C500.313 1039.17 500.294 1045.01 500.512 1051.03C500.512 1051.63 500.578 1052.25 500.607 1052.85H504.734C504.62 1048.47 504.573 1044.16 504.734 1039.97C504.896 1034.45 505.454 1028.95 506.404 1023.51C507.27 1018.53 508.706 1013.67 510.683 1009.02C512.507 1004.68 515.076 1000.69 518.274 997.227C521.617 993.719 525.661 990.955 530.144 989.115C535.449 986.982 541.075 985.759 546.787 985.5C554.02 985.148 561.27 985.635 568.392 986.951C572.415 987.647 576.675 988.596 581.172 989.798C585.67 991 590.379 992.47 595.301 994.21C600.247 995.937 605.387 997.91 610.719 1000.13C616.052 1002.35 621.574 1004.79 627.286 1007.46C632.979 1010.13 638.786 1012.97 644.65 1015.92C650.513 1018.87 656.377 1021.89 662.213 1024.92C668.048 1027.96 673.807 1030.98 679.529 1034.02C685.25 1037.07 690.972 1040.18 696.693 1043.37C702.415 1046.56 707.871 1049.64 713.412 1052.86H718.156L716.163 1051.71C710.508 1048.48 704.796 1045.25 699.027 1042.02Z" fill="#ACDBDB"/>
        <path d="M913.397 31.6145C908.836 31.8422 904.231 32.1079 899.582 32.4116C894.933 32.7152 890.242 33.0315 885.511 33.3604C880.779 33.721 876.007 34.1258 871.193 34.5749C866.379 35.024 861.54 35.5111 856.676 36.0361C851.805 36.5611 846.915 37.1146 842.007 37.6965C837.098 38.2785 832.151 38.9111 827.167 39.5942C822.195 40.2268 817.185 40.9226 812.137 41.6817C807.089 42.4407 802.029 43.1935 796.956 43.9399C791.895 44.718 786.835 45.5023 781.774 46.293L766.498 48.6841C761.431 49.5665 756.431 50.5818 751.516 51.7299C746.601 52.878 741.658 54.2063 736.714 55.6296C731.771 57.0528 726.875 58.7133 721.893 60.4402C716.912 62.1671 711.845 63.9888 706.712 65.8865C701.579 67.7842 696.341 69.7388 690.99 71.6839C685.638 73.629 680.088 75.5741 674.328 77.5477C668.569 79.5213 662.582 81.5043 656.414 83.4779C650.247 85.4515 643.89 87.3872 637.371 89.3228C634.107 90.2969 630.783 91.2805 627.399 92.2736L617.161 95.272L606.553 98.3272L595.84 101.458L585.138 104.58L574.568 107.664L564.349 110.662L554.538 113.509C551.375 114.432 548.282 115.302 545.258 116.118C542.234 116.934 539.318 117.693 536.51 118.395C533.663 119.069 530.817 119.657 527.97 120.15C525.124 120.644 522.391 121.033 519.649 121.318C516.907 121.602 514.146 121.801 511.394 121.896C508.642 121.991 505.9 122.02 503.168 121.991C500.435 121.963 497.731 121.877 495.017 121.764C492.303 121.65 489.59 121.479 486.857 121.299C481.525 120.948 476.192 120.587 470.841 120.245C465.489 119.904 460.157 119.61 454.881 119.439C449.606 119.268 444.387 119.278 439.311 119.439C434.235 119.6 429.282 120.056 424.5 120.682C419.868 121.281 415.281 122.187 410.77 123.395C406.496 124.552 402.308 126.004 398.236 127.741C394.311 129.392 390.544 131.396 386.983 133.728C383.494 136.05 380.242 138.71 377.276 141.67C374.243 144.685 371.434 147.917 368.869 151.339C366.269 154.786 363.821 158.392 361.525 162.155C359.22 165.951 356.999 169.746 354.826 173.646C352.654 177.546 350.5 181.322 348.327 185.032C346.154 188.742 343.943 192.471 341.685 196.114C339.427 199.758 337.159 203.335 334.882 206.855C332.605 210.375 330.327 213.848 328.041 217.292C325.754 220.737 323.429 224.162 321.143 227.644C318.856 231.126 316.626 234.656 314.435 238.262C312.243 241.867 310.07 245.558 307.897 249.344C305.724 253.13 303.57 257.03 301.454 261.015C299.339 265 297.27 269.08 295.192 273.236C293.114 277.392 291.036 281.623 288.911 285.912C286.785 290.201 284.603 294.537 282.373 298.94C280.144 303.342 277.895 307.783 275.637 312.28C273.378 316.778 271.092 321.342 268.786 325.963C266.48 330.583 264.175 335.261 261.878 339.967C259.582 344.674 257.229 349.456 254.923 354.2C252.618 358.944 250.312 363.783 248.101 368.632C245.891 373.48 243.746 378.386 241.659 383.339C239.571 388.292 237.626 393.235 235.728 398.16C233.831 403.084 232.057 407.98 230.358 412.8C228.66 417.62 227.037 422.365 225.481 427.033C223.925 431.701 222.407 436.236 220.936 440.668C219.465 445.099 217.995 449.359 216.571 453.524C215.148 457.69 213.668 461.57 212.226 465.385C210.784 469.199 209.379 472.862 207.975 476.401C206.571 479.94 205.261 483.356 203.99 486.667C202.718 489.979 201.513 493.205 200.346 496.317L196.987 505.264C195.925 508.142 194.913 510.916 193.951 513.586C193.002 516.271 192.129 518.871 191.323 521.366C189.719 526.376 188.476 531.092 187.528 535.513C186.643 539.602 186.028 543.745 185.687 547.914C185.406 551.549 185.406 555.201 185.687 558.836C185.927 562.076 186.451 565.289 187.252 568.438C187.996 571.343 189.082 574.149 190.488 576.797C191.892 579.419 193.623 581.852 195.64 584.037C197.824 586.379 200.265 588.467 202.918 590.261C205.922 592.298 209.097 594.073 212.406 595.565C216.157 597.282 220.029 598.718 223.991 599.863C228.521 601.175 233.129 602.202 237.787 602.938C242.785 603.753 248.24 604.351 254.155 604.731C260.069 605.11 266.512 605.278 273.483 605.234C280.447 605.234 287.905 605.054 295.875 604.826C299.86 604.712 303.994 604.604 308.277 604.503L321.56 604.2C328.392 604.057 335.48 603.896 342.776 603.754C350.073 603.611 357.521 603.526 365.026 603.459C370.036 603.421 375.018 603.403 379.971 603.403C384.933 603.403 389.829 603.459 394.697 603.583C399.564 603.706 404.185 604.038 408.796 604.475C413.408 604.911 417.829 605.499 422.08 606.306C426.244 607.069 430.337 608.173 434.32 609.608C438.146 610.995 441.814 612.786 445.26 614.95C448.738 617.153 451.961 619.734 454.872 622.645C457.927 625.697 460.72 629.001 463.222 632.522C465.861 636.193 468.239 640.046 470.338 644.051C472.412 648.045 474.234 652.164 475.794 656.386C477.331 660.57 478.64 664.754 479.912 668.901C481.183 673.047 482.35 677.165 483.555 681.236C484.76 685.306 486.06 689.424 487.531 693.504C489.037 697.675 490.789 701.752 492.778 705.716C494.883 709.917 497.26 713.978 499.894 717.87C505.575 726.254 512.235 733.931 519.734 740.737C523.675 744.309 527.836 747.63 532.193 750.681C536.615 753.799 541.246 756.607 546.055 759.088C550.842 761.549 555.772 763.723 560.819 765.597C565.771 767.431 570.813 769.015 575.924 770.341C581.19 771.432 586.437 772.324 591.647 772.922C596.744 773.501 601.869 773.818 606.999 773.87C611.822 773.692 616.63 773.211 621.393 772.428C625.759 771.697 630.056 770.602 634.24 769.155C638.301 767.722 642.125 766.09 645.816 764.411C649.507 762.731 653.084 760.862 656.538 758.974C659.991 757.086 663.322 755.178 666.529 753.186C669.736 751.193 672.81 749.248 675.789 747.294C678.769 745.339 681.682 743.413 684.547 741.553C687.413 739.693 690.24 737.872 692.944 736.126C698.429 732.643 703.676 729.484 708.686 726.694C713.695 723.905 718.525 721.466 723.184 719.341C727.565 717.326 732.057 715.562 736.638 714.056C740.704 712.723 744.866 711.701 749.087 711.001C752.903 710.361 756.766 710.044 760.634 710.052C764.25 710.067 767.856 710.426 771.404 711.124C774.841 711.811 778.213 712.795 781.48 714.065C784.719 715.331 787.887 716.773 790.969 718.383C794.06 720.001 797.065 721.777 799.973 723.705C802.896 725.603 805.742 727.747 808.513 729.968C811.283 732.188 813.997 734.494 816.635 736.847C819.273 739.2 821.863 741.591 824.396 744.001C826.93 746.411 829.397 748.831 831.816 751.26C836.624 756.118 841.244 761.017 845.679 765.957C850.129 770.91 854.408 775.901 858.583 780.93C866.496 791.196 874.02 801.681 880.871 812.441C887.65 823.045 893.788 834.046 899.25 845.384C904.491 856.216 908.931 867.417 912.534 878.897C915.885 889.472 918.149 900.361 919.289 911.395C920.347 921.288 919.906 931.284 917.98 941.046C916.138 950.101 912.509 958.697 907.306 966.333C901.768 974.267 894.786 981.087 886.725 986.438C882.245 989.461 877.548 992.151 872.673 994.484C867.188 997.086 861.47 999.164 855.594 1000.69C848.601 1002.35 841.458 1003.31 834.274 1003.54C830.063 1003.69 825.846 1003.61 821.645 1003.29C816.806 1002.92 811.992 1002.29 807.222 1001.39C802.089 1000.44 796.595 999.181 790.798 997.597C785.001 996.012 778.928 994.219 772.542 992.122C766.157 990.025 759.391 987.615 752.247 984.882C745.102 982.15 737.587 979.123 729.769 975.878C725.847 974.252 721.874 972.592 717.851 970.896C713.828 969.201 709.745 967.477 705.602 965.725C701.459 963.948 697.221 962.101 692.888 960.184C688.555 958.267 684.142 956.287 679.651 954.244L665.988 948.02L651.964 941.596C647.233 939.446 642.454 937.292 637.627 935.135C632.801 932.978 627.949 930.849 623.072 928.749C618.195 926.63 613.277 924.558 608.318 922.534C603.355 920.494 598.345 918.473 593.25 916.414C588.155 914.355 582.993 912.296 577.813 910.256C572.632 908.216 567.375 906.195 562.176 904.222C556.976 902.248 551.739 900.369 546.529 898.529C541.32 896.688 536.197 895.046 531.12 893.49C526.044 891.934 521.053 890.52 516.176 889.258C511.299 887.997 506.488 886.848 501.744 885.805C497 884.761 492.588 884.078 488.176 883.423C483.764 882.768 479.475 882.266 475.291 881.905C471.106 881.544 467.036 881.345 463.098 881.298C459.161 881.25 455.337 881.364 451.627 881.582C444.961 882.283 438.388 883.683 432.014 885.757C426.42 887.669 421.107 890.321 416.216 893.642C411.95 897.055 408.091 900.949 404.716 905.246C401.437 909.554 398.607 914.187 396.272 919.071C393.904 923.961 391.86 929 390.152 934.157C388.425 939.31 386.954 944.481 385.673 949.68C384.392 954.88 383.273 960.051 382.267 965.165C381.261 970.28 380.369 975.327 379.506 980.347C378.642 985.366 377.883 990.272 377.143 995.092C376.403 999.912 375.691 1004.58 374.98 1009.21C374.268 1013.84 373.509 1018.21 372.703 1022.49C371.896 1026.78 370.976 1030.75 369.951 1034.55C368.916 1038.06 367.606 1041.49 366.032 1044.79C364.64 1047.66 362.972 1050.38 361.051 1052.92H378.585C378.898 1052.05 379.212 1051.16 379.534 1050.25C380.644 1046.57 381.66 1042.66 382.542 1038.59C383.424 1034.52 384.174 1030.13 384.876 1025.62C385.578 1021.1 386.242 1016.43 386.869 1011.6C387.495 1006.77 388.102 1001.8 388.7 996.695C389.298 991.591 389.952 986.419 390.674 981.182C391.395 975.944 392.239 970.678 393.235 965.441C394.232 960.203 395.38 954.918 396.737 949.642C398.086 944.363 399.724 939.162 401.642 934.063C403.53 929.028 405.877 924.178 408.654 919.574C411.407 914.995 414.722 910.777 418.522 907.021C422.501 903.143 427.04 899.884 431.986 897.352C437.49 894.565 443.352 892.55 449.407 891.365C456.394 889.993 463.502 889.329 470.622 889.382C474.418 889.382 478.381 889.556 482.511 889.904C486.62 890.255 490.871 890.767 495.207 891.403C499.685 892.181 504.252 893.085 508.908 894.117C513.564 895.148 518.346 896.346 523.254 897.713C528.15 899.079 533.145 900.597 538.237 902.267C543.329 903.937 548.497 905.737 553.741 907.666C558.984 909.564 564.238 911.559 569.501 913.653C574.764 915.747 580.011 917.853 585.242 919.972C590.467 922.117 595.635 924.255 600.746 926.386C605.857 928.518 610.917 930.682 615.927 932.877C620.988 935.084 626.048 937.346 631.109 939.661C636.169 941.976 641.23 944.316 646.29 946.682C651.351 949.042 656.376 951.407 661.367 953.779L676.197 960.81C681.093 963.135 685.913 965.412 690.639 967.604C695.364 969.796 699.975 971.921 704.501 973.952L717.87 979.967L730.888 985.784C739.428 989.579 747.664 993.156 755.463 996.401C763.263 999.646 770.645 1002.54 777.723 1005.14C784.801 1007.74 791.529 1010.07 797.943 1012.09C804.357 1014.1 810.401 1015.76 816.037 1017.04C821.673 1018.32 826.93 1019.21 831.873 1019.83C836.526 1020.43 841.207 1020.79 845.897 1020.91C853.897 1021.16 861.902 1020.63 869.798 1019.33C876.37 1018.18 882.812 1016.38 889.031 1013.96C894.558 1011.85 899.929 1009.35 905.104 1006.49C909.852 1003.87 914.383 1000.88 918.654 997.54C923.666 993.629 928.178 989.116 932.089 984.104V860.167C929.527 853.829 926.785 847.5 923.815 841.19C912.125 816.573 897.718 793.34 880.862 771.925C872.106 760.972 862.648 750.598 852.548 740.87C849.967 738.384 847.333 735.914 844.644 733.46C841.956 731.005 839.208 728.573 836.399 726.163C833.591 723.74 830.744 721.343 827.86 718.971C824.975 716.599 822.002 714.258 818.94 711.949C815.904 709.682 812.792 707.509 809.604 705.488C806.416 703.467 803.161 701.617 799.831 699.947C796.513 698.271 793.09 696.813 789.583 695.582C786.068 694.344 782.452 693.411 778.776 692.792C770.884 691.499 762.823 691.637 754.979 693.2C750.454 694.12 746.011 695.408 741.696 697.053C736.8 698.919 732.022 701.08 727.387 703.524C722.444 706.095 717.292 709.103 711.94 712.471C706.589 715.84 701.028 719.55 695.269 723.535C692.366 725.591 689.402 727.706 686.378 729.882C683.355 732.058 680.271 734.291 677.127 736.581C673.977 738.868 670.77 741.183 667.478 743.479C664.185 745.775 660.779 748.015 657.23 750.197C653.682 752.379 650 754.486 646.186 756.469C642.371 758.452 638.453 760.321 634.373 762.01C630.169 763.753 625.819 765.119 621.374 766.09C616.621 767.122 611.79 767.757 606.932 767.988C601.802 768.219 596.661 768.073 591.552 767.551C586.285 767.023 581.056 766.167 575.896 764.989C570.69 763.79 565.58 762.205 560.61 760.245C555.603 758.275 550.742 755.951 546.065 753.29C541.418 750.64 536.949 747.689 532.686 744.457C528.52 741.292 524.571 737.853 520.863 734.162C517.253 730.565 513.875 726.743 510.749 722.719C507.763 718.878 505.037 714.843 502.589 710.64C500.277 706.658 498.211 702.539 496.402 698.305C494.647 694.187 493.138 690.031 491.801 685.828C490.463 681.625 489.22 677.383 488.005 673.104C486.791 668.825 485.453 664.403 484.039 659.944C482.611 655.433 480.951 651 479.067 646.66C477.164 642.288 474.973 638.047 472.511 633.965C470.167 630.079 467.571 626.352 464.74 622.806C462.069 619.46 459.092 616.369 455.849 613.574C452.754 610.914 449.375 608.604 445.772 606.685C442.189 604.805 438.426 603.292 434.538 602.169C430.497 601.015 426.373 600.171 422.203 599.645C417.905 599.085 413.484 598.696 408.92 598.478C404.356 598.26 399.744 598.165 395.095 598.127C390.446 598.089 385.683 598.184 380.976 598.269C376.27 598.355 371.545 598.44 366.81 598.535L352.692 598.839L338.933 599.133L325.764 599.389C317.199 599.541 309.089 599.658 301.435 599.74C293.845 599.825 286.681 599.863 280.039 599.816C273.397 599.768 267.23 599.55 261.527 599.133C255.825 598.715 250.559 598.08 245.701 597.235C241.169 596.472 236.691 595.42 232.294 594.085C228.434 592.923 224.672 591.46 221.041 589.711C217.847 588.189 214.806 586.366 211.96 584.264C209.431 582.404 207.135 580.248 205.119 577.841C203.228 575.548 201.634 573.027 200.375 570.336C199.077 567.559 198.082 564.652 197.405 561.663C196.663 558.389 196.187 555.06 195.982 551.71C195.742 547.954 195.802 544.184 196.162 540.438C196.582 536.13 197.314 531.858 198.354 527.657C198.895 525.389 199.521 523.045 200.251 520.626C200.982 518.206 201.703 515.702 202.529 513.102C203.354 510.502 204.256 507.807 205.204 505.008C206.153 502.209 207.102 499.315 208.203 496.279C209.303 493.243 210.338 490.102 211.495 486.866C212.653 483.631 213.867 480.281 215.139 476.818C216.41 473.355 217.72 469.749 219.057 466.011C220.395 462.273 221.733 458.42 223.109 454.359C224.485 450.298 225.823 446.085 227.227 441.749C228.631 437.413 230.073 432.953 231.582 428.399C233.091 423.845 234.656 419.186 236.326 414.47C237.996 409.754 239.733 404.982 241.573 400.114C243.414 395.247 245.369 390.436 247.456 385.578C249.544 380.72 251.641 375.966 253.842 371.213C256.043 366.459 258.339 361.724 260.635 356.98C262.932 352.236 265.256 347.558 267.581 342.871C269.906 338.184 272.23 333.544 274.545 328.952C276.861 324.359 279.185 319.824 281.472 315.345C283.759 310.867 286.055 306.445 288.304 302.061C290.552 297.678 292.735 293.361 294.945 289.091C297.156 284.821 299.414 280.494 301.587 276.3C303.76 272.107 306.009 268.036 308.229 264.07C310.449 260.104 312.708 256.233 314.947 252.475C317.186 248.718 319.416 245.055 321.646 241.469C323.875 237.882 326.143 234.381 328.458 230.956C330.773 227.53 333.079 224.124 335.347 220.699C337.615 217.273 339.863 213.82 342.093 210.318C344.323 206.817 346.515 203.269 348.659 199.663C350.803 196.057 352.9 192.385 354.969 188.675C357.037 184.965 359.115 181.208 361.212 177.394C363.309 173.579 365.482 169.803 367.75 166.207C369.985 162.596 372.417 159.112 375.037 155.77C377.593 152.516 380.401 149.467 383.434 146.651C386.431 143.886 389.706 141.438 393.207 139.345C396.78 137.224 400.522 135.399 404.394 133.89C408.41 132.314 412.532 131.02 416.729 130.018C421.183 129.009 425.695 128.277 430.24 127.827C434.94 127.302 439.798 127.004 444.814 126.935C449.814 126.868 454.938 127.011 460.09 127.267C465.243 127.523 470.528 128.064 475.803 128.595C481.079 129.126 486.326 129.658 491.525 130.085C496.725 130.512 501.896 130.796 507.067 130.863C512.246 130.947 517.424 130.662 522.562 130.009C527.907 129.279 533.2 128.205 538.407 126.792C541.254 125.995 544.1 125.141 546.947 124.202C549.793 123.263 552.868 122.304 555.98 121.204L565.554 117.978C568.83 116.883 572.18 115.786 575.602 114.685C579.018 113.585 582.5 112.484 586.039 111.374C589.578 110.264 593.117 109.172 596.694 108.072L607.464 104.789C611.06 103.707 614.618 102.635 618.157 101.601L628.594 98.5265L638.69 95.5566C645.332 93.5926 651.727 91.6759 657.999 89.7308C664.271 87.7857 670.334 85.8216 676.264 83.867C682.194 81.9124 687.84 79.9768 693.343 78.0696C698.846 76.1624 704.179 74.2742 709.473 72.4429C714.768 70.6117 719.977 68.8089 725.101 67.101C730.224 65.3931 735.291 63.8086 740.358 62.3569C745.425 60.9051 750.453 59.6242 755.539 58.4382C760.625 57.2521 765.625 56.2653 770.778 55.3924C775.93 54.5194 781.11 53.7129 786.272 52.8969L801.748 50.4489C806.903 49.6392 812.046 48.8581 817.176 48.1053C822.306 47.3526 827.401 46.6314 832.461 45.9419C837.522 45.2588 842.551 44.6262 847.548 44.0443C852.545 43.4623 857.517 42.9057 862.464 42.3744C867.417 41.8557 872.341 41.3749 877.237 40.9321C882.133 40.4893 886.975 40.094 891.764 39.7461C896.565 39.4045 901.309 39.0882 905.996 38.7972C910.683 38.5063 915.342 38.269 919.973 38.0856C924.053 37.9053 928.085 37.763 932.099 37.6396V30.8555C930.391 30.9124 928.702 30.9503 926.994 31.0168C922.49 31.1812 917.958 31.3805 913.397 31.6145Z" fill="#ACDBDB"/>
        <path d="M793.465 1043.37C789.094 1041.34 784.609 1039.22 780.01 1036.98C775.412 1034.75 770.743 1032.45 766.006 1030.09C761.255 1027.73 756.432 1025.31 751.536 1022.84C746.64 1020.35 741.592 1017.77 736.44 1015.11C731.288 1012.46 726.003 1009.74 720.689 1006.97C715.376 1004.2 709.929 1001.44 704.492 998.669C699.056 995.899 693.562 993.147 687.945 990.291C682.328 987.435 676.606 984.532 670.866 981.59C665.125 978.649 659.28 975.717 653.445 972.804C647.61 969.891 641.784 967.016 635.986 964.265C630.189 961.513 624.43 958.752 618.718 956.133C613.006 953.514 607.379 951.019 601.857 948.656C596.335 946.294 590.86 944.035 585.375 941.825C579.891 939.614 574.416 937.412 568.97 935.287C563.524 933.162 558.172 931.141 552.935 929.29C547.697 927.44 542.602 925.751 537.668 924.252C532.734 922.753 527.952 921.406 523.36 920.343C518.767 919.28 514.355 918.341 510.133 917.648C505.91 916.956 501.868 916.453 497.95 916.092C491.066 915.815 484.171 916.091 477.331 916.918C471.718 917.991 466.264 919.77 461.097 922.212C456.47 924.457 452.227 927.419 448.525 930.989C444.969 934.448 441.878 938.355 439.331 942.612C436.739 946.944 434.581 951.52 432.888 956.275C431.125 961.192 429.698 966.223 428.618 971.333C427.499 976.523 426.626 981.771 425.933 987.16C425.24 992.549 424.718 997.834 424.32 1003.17C423.921 1008.5 423.599 1013.8 423.371 1019.05C423.143 1024.3 422.859 1029.49 422.622 1034.52C422.384 1039.55 422.138 1044.47 421.891 1049.3C421.834 1050.53 421.768 1051.75 421.701 1052.97H439.729V1052.38C439.729 1047.32 439.729 1042.16 439.729 1036.91C439.729 1031.68 439.805 1026.35 439.909 1020.98C440.014 1015.61 440.213 1010.2 440.545 1004.85C440.877 999.495 441.371 994.124 442.101 988.887C442.793 983.722 443.788 978.602 445.081 973.554C446.309 968.696 447.97 963.958 450.043 959.397C452.045 955.001 454.596 950.875 457.634 947.119C460.696 943.335 464.341 940.061 468.431 937.422C472.98 934.526 477.979 932.406 483.224 931.15C489.613 929.647 496.171 928.98 502.732 929.167C506.636 929.245 510.532 929.543 514.403 930.059C518.52 930.59 522.85 931.353 527.392 932.346C531.934 933.339 536.678 934.553 541.625 935.989C546.559 937.422 551.673 939.063 556.939 940.876C562.205 942.688 567.547 944.605 572.955 946.569C578.364 948.533 583.781 950.63 589.275 952.793C594.769 954.957 600.367 957.281 606.089 959.767C611.81 962.253 617.636 964.9 623.557 967.68C629.477 970.46 635.455 973.373 641.48 976.343C647.505 979.313 653.568 982.397 659.641 985.509C665.714 988.621 671.748 991.762 677.669 994.874L695.26 1004.05C701.02 1007.05 706.76 1010.09 712.453 1013.14C718.146 1016.18 723.782 1019.23 729.323 1022.23C734.865 1025.23 740.273 1028.15 745.549 1030.97C750.824 1033.79 755.986 1036.53 761.138 1039.24C766.29 1041.96 771.328 1044.62 776.319 1047.22C780.115 1049.19 783.841 1051.11 787.497 1052.97H815.516C812.489 1051.76 809.396 1050.49 806.208 1049.18C802.109 1047.29 797.839 1045.37 793.465 1043.37Z" fill="#ACDBDB"/>
        <path d="M911.063 61.418C906.002 61.6837 900.904 62.0189 895.767 62.4238C890.631 62.8286 885.428 63.284 880.159 63.7901C874.915 64.3025 869.63 64.8749 864.304 65.5075C858.978 66.14 853.601 66.8485 848.174 67.6329C842.772 68.4046 837.344 69.2269 831.892 70.0999C826.439 70.9728 820.964 71.8742 815.467 72.804L798.986 75.6505C793.473 76.5994 787.932 77.5482 782.4 78.592C776.869 79.6357 771.318 80.7078 765.786 81.9318C760.255 83.1558 754.656 84.5506 749.001 86.0498C743.346 87.549 737.615 89.1525 731.827 90.8604C726.039 92.5683 720.062 94.3426 714.027 96.1644C707.993 97.9861 701.759 99.8744 695.459 101.734C692.296 102.664 689.092 103.613 685.847 104.581L675.988 107.55L665.798 110.577L655.361 113.642L644.772 116.754C641.217 117.798 637.646 118.854 634.059 119.923C630.473 120.992 626.867 122.128 623.243 123.33C619.618 124.519 615.997 125.784 612.378 127.125C608.763 128.434 605.186 129.81 601.685 131.233C598.184 132.657 594.768 134.08 591.447 135.608C588.126 137.135 584.929 138.615 581.854 140.162C578.78 141.709 575.791 143.265 572.935 144.849C570.079 146.434 567.347 148.028 564.737 149.593C562.128 151.159 559.623 152.734 557.241 154.224C554.86 155.713 552.554 157.127 550.315 158.418C548.076 159.708 545.884 160.856 543.673 161.852C541.568 162.824 539.396 163.642 537.174 164.3C535.034 164.947 532.844 165.413 530.627 165.695C528.395 165.972 526.148 166.102 523.899 166.084C521.632 166.084 519.354 165.932 517.039 165.695C514.724 165.458 512.39 165.116 510.008 164.68C507.627 164.243 505.207 163.731 502.74 163.181C500.273 162.63 497.797 161.995 495.301 161.359L487.815 159.461C482.834 158.218 477.947 157.137 473.108 156.207C468.269 155.277 463.544 154.755 458.876 154.413C454.373 154.076 449.853 154.032 445.345 154.281C441.131 154.519 436.937 155.039 432.792 155.837C428.908 156.578 425.084 157.602 421.349 158.902C417.82 160.143 414.399 161.673 411.121 163.475C404.688 166.973 398.949 171.616 394.184 177.176C391.747 180.04 389.5 183.061 387.457 186.219C385.398 189.492 383.443 192.86 381.564 196.4C379.686 199.939 377.769 203.459 375.938 207.007C374.107 210.556 372.057 214.01 370.074 217.445C368.091 220.879 366.022 224.4 363.859 227.834C361.696 231.269 359.409 234.657 357.046 238.025C354.684 241.393 352.302 244.781 349.807 248.178C347.311 251.574 344.892 255.028 342.425 258.615C339.958 262.201 337.462 265.807 334.948 269.536C332.434 273.265 329.872 277.127 327.31 281.026C324.748 284.926 322.442 288.959 320.051 293.057C317.66 297.156 315.307 301.341 312.954 305.611C310.601 309.88 308.21 314.207 305.885 318.581C303.561 322.955 301.141 327.367 298.807 331.865C296.473 336.362 294.148 340.803 291.861 345.301C289.575 349.798 287.335 354.286 285.106 358.774C282.876 363.262 280.675 367.75 278.521 372.247C276.367 376.745 274.26 381.233 272.249 385.721C270.237 390.209 268.397 394.687 266.641 399.128C264.886 403.569 263.235 407.952 261.688 412.288C260.142 416.625 258.7 420.885 257.362 425.079C256.024 429.272 254.762 433.39 253.566 437.414C252.371 441.437 251.299 445.346 250.255 449.141C249.211 452.936 248.243 456.599 247.314 460.138C246.384 463.677 245.492 467.103 244.647 470.395C243.803 473.688 242.987 476.857 242.237 479.883C241.488 482.91 240.804 485.89 240.178 488.736C239.552 491.583 239.002 494.334 238.489 496.963C237.474 502.21 236.649 507.049 236.051 511.508C235.477 515.629 235.138 519.779 235.036 523.938C234.914 527.55 235.073 531.167 235.51 534.755C235.905 538.019 236.623 541.235 237.654 544.357C238.637 547.3 239.948 550.123 241.564 552.773C244.911 558.144 249.434 562.686 254.79 566.057C257.793 567.979 260.97 569.615 264.279 570.943C268.033 572.436 271.892 573.648 275.826 574.568C280.356 575.618 284.939 576.425 289.556 576.987C294.502 577.62 299.822 578.094 305.515 578.411C311.208 578.727 317.198 578.958 323.486 579.103C329.748 579.217 336.267 579.217 343.004 579.103C349.74 578.989 356.676 578.771 363.764 578.43C370.852 578.088 377.997 577.595 385.369 576.987C392.742 576.38 400.067 575.65 407.363 575.09C411.016 574.805 414.622 574.634 418.227 574.558C421.833 574.482 425.41 574.558 428.997 574.72C432.539 574.987 436.062 575.465 439.548 576.152C443.036 576.865 446.458 577.871 449.776 579.16C453.194 580.489 456.484 582.125 459.606 584.047C462.925 586.079 466.056 588.403 468.962 590.992C472.112 593.8 475.022 596.866 477.663 600.158C480.527 603.748 483.16 607.516 485.547 611.44C488.043 615.51 490.415 619.827 492.673 624.344C494.931 628.86 497.085 633.557 499.125 638.453C501.165 643.349 503.063 648.349 504.818 653.34C506.574 658.331 508.13 663.104 509.638 667.782C511.147 672.459 512.646 676.976 514.174 681.369C515.701 685.762 517.324 690.032 519.127 694.169C520.921 698.3 522.984 702.31 525.304 706.172C527.637 710.067 530.26 713.781 533.151 717.282C539.141 724.541 546.275 730.775 554.272 735.737C558.325 738.257 562.588 740.422 567.015 742.208C571.436 744.01 576.021 745.38 580.706 746.298C585.364 747.217 590.089 747.753 594.834 747.901C599.494 748.037 604.156 747.818 608.782 747.247C613.305 746.339 617.747 745.07 622.066 743.451C626.33 741.803 630.471 739.853 634.458 737.616C638.485 735.379 642.393 732.934 646.166 730.291C649.962 727.644 653.605 724.797 657.192 721.837C660.779 718.876 664.318 715.878 667.809 712.832C671.301 709.787 674.755 706.75 678.161 703.695C681.568 700.64 684.926 697.613 688.247 694.615C691.568 691.616 694.889 688.637 698.096 685.724C701.303 682.811 704.539 679.936 707.689 677.185C710.839 674.433 713.942 671.757 716.997 669.214C720.052 666.672 723.041 664.261 725.983 661.994C728.924 659.726 731.818 657.61 734.664 655.58C740.357 651.784 745.861 648.283 751.279 645.228C756.324 642.53 761.567 640.221 766.963 638.32C771.773 636.655 776.753 635.531 781.812 634.971C786.501 634.462 791.234 634.51 795.912 635.113C800.492 635.739 804.998 636.817 809.366 638.33C813.799 639.849 818.14 641.627 822.365 643.653C826.645 645.693 830.848 647.97 834.985 650.408C839.122 652.847 843.23 655.361 847.32 657.914C855.442 663.037 863.39 668.338 871.164 673.816C878.938 679.294 886.472 684.987 893.765 690.895C901.065 696.81 908.077 702.917 914.801 709.217C920.798 714.834 926.522 720.591 931.975 726.486V689.007C924.631 682.587 916.974 676.337 909.004 670.258C900.148 663.515 891.058 657.022 881.734 650.778C872.398 644.545 862.852 638.548 853.184 632.807C848.345 629.942 843.471 627.137 838.562 624.391C833.638 621.735 828.647 619.306 823.58 617.152C818.587 614.971 813.42 613.213 808.133 611.895C802.854 610.628 797.427 610.088 792.003 610.292C786.251 610.551 780.556 611.545 775.056 613.252C768.962 615.172 763.042 617.606 757.361 620.529C754.324 622.269 751.253 624.167 748.147 626.223C745.045 628.272 741.904 630.483 738.725 632.864C735.547 635.246 732.34 637.808 729.104 640.455C725.869 643.102 722.605 645.901 719.312 648.776C716.02 651.651 712.671 654.839 709.245 658.047C705.82 661.254 702.414 664.575 698.931 667.971C695.449 671.368 691.929 674.85 688.371 678.409C684.813 681.967 681.216 685.449 677.592 688.979C673.967 692.508 670.305 695.981 666.623 699.416C662.942 702.851 659.203 706.228 655.446 709.53C651.689 712.832 647.855 716.002 644.06 719.019C640.274 721.946 636.313 724.639 632.2 727.084C628.225 729.444 624.087 731.517 619.817 733.289C615.583 734.923 611.197 736.131 606.723 736.895C602.241 737.66 597.685 737.912 593.145 737.644C588.613 737.376 584.118 736.654 579.729 735.491C575.393 734.36 571.176 732.812 567.138 730.87C563.132 728.933 559.32 726.62 555.752 723.962C552.206 721.331 548.907 718.384 545.893 715.157C542.884 711.945 540.145 708.488 537.705 704.824C535.243 701.114 533.042 697.237 531.12 693.22C529.156 689.159 527.325 684.918 525.674 680.515C524.023 676.112 522.334 671.529 520.664 666.747C518.994 661.965 517.267 656.965 515.455 651.86C513.642 646.755 511.754 641.603 509.809 636.555C507.864 631.508 505.834 626.593 503.718 621.829C501.602 617.066 499.4 612.455 497.076 608.043C494.751 603.631 492.332 599.456 489.855 595.585C487.448 591.884 484.841 588.318 482.046 584.901C478.216 580.411 473.982 576.282 469.398 572.566C465.287 569.288 460.76 566.57 455.934 564.482C449.838 562.058 443.436 560.487 436.91 559.813C430.364 559.198 423.779 559.128 417.222 559.605C410.656 560.041 404.099 560.762 397.657 561.588C391.214 562.413 384.771 563.21 378.519 563.855C372.266 564.501 366.041 564.928 359.997 565.222C353.953 565.516 348.042 565.649 342.33 565.658C336.618 565.668 331.162 565.507 325.953 565.184C320.744 564.861 315.8 564.387 311.132 563.751C306.464 563.115 302.08 562.328 297.972 561.36C294.067 560.455 290.228 559.285 286.481 557.859C280.047 555.494 274.174 551.821 269.232 547.071C264.811 542.686 261.503 537.309 259.582 531.386C258.544 528.214 257.803 524.952 257.371 521.642C256.878 517.92 256.615 514.171 256.584 510.417C256.536 506.404 256.66 502.067 257.02 497.399C257.381 492.731 257.846 487.541 258.643 482.028C259.44 476.515 260.445 470.575 261.698 464.237C262.33 461.074 263.02 457.779 263.766 454.35C264.525 450.953 265.351 447.443 266.252 443.847C267.154 440.251 268.15 436.55 269.184 432.755C270.218 428.959 271.376 425.098 272.6 421.16C273.824 417.222 275.152 413.218 276.585 409.148C278.018 405.077 279.545 400.931 281.196 396.737C282.847 392.543 284.631 388.311 286.548 384.041C288.465 379.772 290.476 375.502 292.554 371.175C294.632 366.849 296.738 362.55 298.864 358.224C300.989 353.897 303.162 349.561 305.382 345.234C307.603 340.907 309.842 336.619 312.138 332.339C314.434 328.06 316.759 323.8 319.112 319.578C321.465 315.355 323.856 311.152 326.276 307.015C328.695 302.878 331.219 298.845 333.781 294.851C336.343 290.856 338.867 287.08 341.372 283.332C343.877 279.584 346.486 275.941 349.038 272.363C351.591 268.786 354.143 265.304 356.714 261.926C359.286 258.548 361.848 255.152 364.4 251.831C366.952 248.51 369.334 245.122 371.64 241.754C373.945 238.386 376.147 234.998 378.281 231.592C380.416 228.186 382.409 224.76 384.373 221.316C386.337 217.872 388.225 214.427 390.066 210.974C391.907 207.52 393.766 204.152 395.712 200.944C397.602 197.815 399.687 194.808 401.955 191.94C404.142 189.189 406.561 186.63 409.185 184.292C411.781 181.987 414.565 179.902 417.506 178.059C420.489 176.198 423.633 174.611 426.9 173.314C430.331 171.953 433.861 170.859 437.46 170.041C441.328 169.151 445.258 168.56 449.216 168.276C453.465 167.998 457.729 168.055 461.969 168.447C466.537 168.882 471.073 169.614 475.547 170.639C480.224 171.701 485.035 173.068 489.884 174.624C494.732 176.18 499.676 177.84 504.591 179.558C507.048 180.412 509.458 181.218 511.84 181.968C514.221 182.717 516.584 183.4 518.871 183.998C521.157 184.596 523.396 185.061 525.579 185.421C527.711 185.779 529.862 186.011 532.021 186.114C534.083 186.212 536.148 186.142 538.198 185.905C540.205 185.662 542.18 185.207 544.091 184.549C546.074 183.857 547.982 182.963 549.784 181.882C551.765 180.695 553.667 179.38 555.477 177.945C557.374 176.445 559.272 174.794 561.331 173.03C563.39 171.265 565.468 169.396 567.698 167.488C569.927 165.581 572.281 163.636 574.776 161.701C577.271 159.765 579.909 157.82 582.708 155.903C585.507 153.987 588.458 152.108 591.551 150.277C594.645 148.445 597.899 146.68 601.277 144.982C604.655 143.284 608.118 141.661 611.714 140.133C615.31 138.606 618.878 137.145 622.531 135.778C626.184 134.412 629.846 133.122 633.528 131.907C637.209 130.693 640.891 129.525 644.61 128.377C648.33 127.229 652.059 126.119 655.778 125.019C659.498 123.918 663.208 122.827 666.908 121.764L677.858 118.614L688.532 115.53L698.817 112.684L708.875 109.837L728.393 104.362C734.778 102.569 740.993 100.861 747.094 99.2576C753.195 97.6541 759.192 96.1644 765.122 94.8076C771.052 93.4507 776.888 92.2268 782.695 91.1071C788.501 89.9875 794.299 88.9533 800.039 87.919L817.175 84.7878C822.868 83.7631 828.542 82.7763 834.197 81.8275C839.852 80.8786 845.479 79.9773 851.077 79.1233C856.675 78.2757 862.242 77.4976 867.777 76.7892C873.312 76.0807 878.786 75.4481 884.201 74.8915C889.616 74.3601 894.992 73.8921 900.331 73.4872C905.645 73.0887 910.911 72.7566 916.092 72.5384C921.272 72.3202 926.405 72.1019 931.472 71.969H932.136V60.583C930.115 60.6399 928.132 60.6684 926.092 60.7349C921.114 60.9246 916.104 61.1523 911.063 61.418Z" fill="#ACDBDB"/>
        <path d="M909.753 95.1397C904.136 95.5098 898.443 95.9747 892.674 96.5725C886.905 97.1702 881.089 97.8629 875.216 98.6694C869.342 99.4759 863.441 100.368 857.501 101.336C851.561 102.303 845.555 103.357 839.473 104.486C833.391 105.615 827.356 106.791 821.236 107.996C815.116 109.201 808.845 110.388 802.469 111.536C796.092 112.684 789.507 113.879 782.894 115.151C779.573 115.783 776.233 116.46 772.874 117.181C769.515 117.902 766.115 118.642 762.674 119.401C759.227 120.18 755.748 120.992 752.237 121.84C748.726 122.688 745.181 123.554 741.601 124.44L730.604 127.163C726.875 128.112 723.07 129.061 719.218 130.009L707.661 132.922L695.753 135.949C691.777 137.012 687.764 138.103 683.684 139.232C679.604 140.361 675.476 141.528 671.349 142.752C667.221 143.976 663.027 145.267 658.9 146.624C654.773 147.98 650.683 149.404 646.66 150.893C642.637 152.383 638.68 153.949 634.837 155.638C630.995 157.326 627.247 159.063 623.66 160.942C620.092 162.802 616.624 164.848 613.27 167.071C609.96 169.257 606.791 171.649 603.782 174.235C600.863 176.757 598.121 179.477 595.575 182.376C593.11 185.179 590.825 188.136 588.734 191.228C586.684 194.255 584.834 197.301 583.145 200.29C581.456 203.279 579.9 206.182 578.401 208.943C576.902 211.704 575.507 214.323 574.14 216.752C572.774 219.181 571.408 221.392 570.051 223.394C568.837 225.165 567.455 226.814 565.923 228.318C564.583 229.63 563.047 230.725 561.369 231.563C559.828 232.355 558.156 232.863 556.435 233.063C554.619 233.23 552.787 233.134 550.998 232.778C549.01 232.395 547.056 231.856 545.153 231.165C543.161 230.453 541.111 229.599 539.014 228.622C536.918 227.645 534.783 226.563 532.591 225.377C530.399 224.191 528.16 222.92 525.864 221.582C521.259 218.887 516.638 216.218 512.001 213.574C507.342 210.926 502.702 208.412 498.072 206.097C493.693 204.017 489.209 202.167 484.637 200.555C480.578 199.133 476.412 198.038 472.178 197.282C468.421 196.62 464.606 196.344 460.792 196.456C457.317 196.575 453.865 197.071 450.497 197.937C447.327 198.753 444.242 199.871 441.284 201.277C438.408 202.648 435.653 204.261 433.048 206.097C430.422 207.96 427.953 210.035 425.666 212.302C423.285 214.65 421.066 217.158 419.025 219.807C416.937 222.512 414.926 225.424 412.961 228.499C410.997 231.573 408.986 234.79 406.946 237.987C404.906 241.185 402.724 244.449 400.532 247.703C398.34 250.958 396.015 254.241 393.615 257.514C391.214 260.788 388.747 264.042 386.195 267.316C383.642 270.589 380.986 273.872 378.301 277.155C375.615 280.438 372.93 283.797 370.283 287.213C367.636 290.628 365.026 294.13 362.455 297.707C359.884 301.284 357.369 304.918 354.864 308.618C352.359 312.319 349.968 316.086 347.606 319.881C345.243 323.677 342.985 327.567 340.831 331.466C338.677 335.366 336.59 339.285 334.578 343.185C332.567 347.084 330.64 350.975 328.79 354.846C326.94 358.717 325.166 362.56 323.448 366.365C321.731 370.17 320.089 373.955 318.505 377.627C316.92 381.299 315.402 384.99 313.988 388.605C312.575 392.221 311.284 395.76 310.136 399.251C308.988 402.743 307.935 406.149 306.986 409.499C306.037 412.848 305.183 416.141 304.415 419.3C302.887 425.677 301.672 431.796 300.733 437.603C299.794 443.41 299.139 448.885 298.75 454.056C298.361 459.227 298.228 464.123 298.342 468.773C298.438 473.164 298.793 477.546 299.405 481.895C299.938 485.743 300.747 489.548 301.824 493.281C303.874 500.265 306.872 506.147 311.123 510.74C315.494 515.422 320.717 519.228 326.513 521.955C333.166 525.044 340.228 527.163 347.482 528.246C351.656 528.903 355.862 529.331 360.083 529.527C364.514 529.754 369.173 529.773 374.031 529.622C378.889 529.47 383.927 529.138 389.155 528.673C394.383 528.208 399.782 527.553 405.342 526.832C410.903 526.111 416.577 525.598 422.421 525.152C428.291 524.715 434.182 524.649 440.06 524.953C446.069 525.289 452.028 526.243 457.842 527.8C463.985 530.222 469.755 533.503 474.977 537.544C477.931 539.863 480.707 542.4 483.28 545.135C486.141 548.142 488.827 551.31 491.326 554.623C494.098 558.338 496.673 562.195 499.04 566.18C501.57 570.374 504.025 574.853 506.403 579.616C508.804 584.36 511.147 589.493 513.424 594.797C515.702 600.101 517.922 605.642 520.066 611.269C522.211 616.896 524.355 622.57 526.414 628.348C528.473 634.126 530.484 639.971 532.515 645.75C534.545 651.528 536.585 657.136 538.654 662.506C540.722 667.877 542.857 672.877 545.087 677.564C547.204 682.059 549.59 686.422 552.232 690.63C554.687 694.527 557.505 698.184 560.648 701.551C563.639 704.745 566.996 707.576 570.649 709.986C574.207 712.326 578.053 714.195 582.092 715.546C590.255 718.298 599.016 718.764 607.426 716.893C611.889 715.887 616.215 714.348 620.311 712.311C624.76 710.094 629.019 707.514 633.044 704.596C637.238 701.551 641.46 698.163 645.702 694.501C649.943 690.838 654.241 686.91 658.483 682.811C662.724 678.712 667.022 674.338 671.358 669.85C675.694 665.362 679.898 660.779 684.196 656.158C688.494 651.538 692.736 646.945 696.882 642.438C701.028 637.931 705.194 633.567 709.312 629.268C713.43 624.97 717.5 620.786 721.561 616.744C725.622 612.702 729.636 608.868 733.621 605.272C737.606 601.676 741.553 598.355 745.462 595.3C749.372 592.245 753.252 589.427 757.095 586.865C760.783 584.403 764.607 582.151 768.548 580.119C772.178 578.248 775.935 576.634 779.791 575.289C783.377 574.022 787.066 573.069 790.817 572.443C794.371 571.868 797.968 571.605 801.567 571.655C805.065 571.704 808.555 572.021 812.004 572.604C815.428 573.191 818.808 574.012 822.119 575.061C825.466 576.137 828.748 577.404 831.949 578.857C835.194 580.289 838.41 581.864 841.608 583.487C844.806 585.109 848.089 586.846 851.315 588.592C860.993 593.798 870.601 599.228 880.14 604.883C892.845 612.474 905.417 620.397 917.733 628.756C922.534 632.011 927.222 635.398 931.966 638.728V605.007C925.998 601.04 920.01 597.141 913.995 593.364C906.543 588.677 899.066 584.135 891.564 579.739C880.305 573.135 869.017 566.848 857.7 560.876C853.905 558.884 850.144 556.932 846.419 555.022C842.623 553.124 838.828 551.321 835.033 549.708C831.284 548.107 827.44 546.738 823.523 545.609C819.647 544.516 815.691 543.726 811.691 543.247C807.618 542.849 803.515 542.849 799.442 543.247C795.178 543.701 790.969 544.578 786.879 545.866C782.447 547.383 778.144 549.255 774.013 551.464C769.493 553.887 765.12 556.577 760.919 559.519C756.523 562.594 752.079 566.054 747.588 569.9C743.1 573.752 738.564 577.936 734 582.386C729.437 586.836 724.835 591.543 720.176 596.524C717.848 599.023 715.514 601.553 713.173 604.115C710.833 606.677 708.483 609.305 706.124 612L699.064 619.989L691.986 627.997L684.889 635.958L677.744 643.975C673 649.336 668.18 654.555 663.426 659.536C658.672 664.518 653.938 669.224 649.298 673.532C644.658 677.839 640.056 681.711 635.549 685.117C631.332 688.35 626.893 691.282 622.265 693.894C618.21 696.198 613.889 698.002 609.399 699.264C605.326 700.399 601.098 700.876 596.875 700.678C592.814 700.466 588.816 699.584 585.043 698.068C581.175 696.495 577.564 694.352 574.33 691.711C570.811 688.805 567.649 685.493 564.908 681.843C561.803 677.723 559.039 673.357 556.644 668.787C554.053 663.92 551.587 658.559 549.233 652.809C546.88 647.059 544.613 640.996 542.392 634.781C540.172 628.566 537.971 622.171 535.75 615.804C534.621 612.626 533.502 609.419 532.382 606.212L528.995 596.552C526.746 590.119 524.469 583.819 522.154 577.737C519.838 571.655 517.485 565.858 515.085 560.297C512.684 554.737 510.236 549.462 507.741 544.528C505.245 539.594 502.702 535.039 500.15 530.817C497.598 526.595 494.95 522.704 492.313 519.222C489.816 515.909 487.133 512.741 484.276 509.734C481.724 507.07 479.018 504.558 476.173 502.21C466.584 495.366 455.37 491.153 443.647 489.989C438.305 489.533 433.096 489.362 428.048 489.353C423 489.343 418.104 489.353 413.407 489.457C408.711 489.562 404.213 489.552 399.915 489.457C395.825 489.393 391.743 489.104 387.685 488.594C382.282 487.94 376.97 486.683 371.848 484.846C367.297 483.205 363.02 480.886 359.163 477.967C354.204 474.122 350.144 469.242 347.264 463.668C344.058 457.352 341.867 450.57 340.774 443.572C340.085 439.469 339.701 435.32 339.626 431.161C339.527 426.456 339.675 421.75 340.072 417.061C340.48 412.118 341.135 406.927 342.121 401.491C343.225 395.666 344.651 389.907 346.391 384.241C348.232 378.174 350.395 371.906 352.881 365.435C354.146 362.209 355.5 358.939 356.942 355.624C358.403 352.312 359.95 348.982 361.61 345.614C363.271 342.245 365.045 338.896 366.895 335.556C368.746 332.216 370.691 328.914 372.74 325.593C374.79 322.272 376.896 319.018 379.107 315.773C381.318 312.528 383.623 309.321 385.986 306.161C388.349 303.001 390.73 299.908 393.226 296.872C395.721 293.836 398.179 290.828 400.665 287.839C403.151 284.85 405.618 281.871 408.056 278.891C410.495 275.912 412.857 272.942 415.163 269.982C417.468 267.021 419.727 264.09 421.919 261.177C424.11 258.264 426.264 255.389 428.38 252.637C430.496 249.885 432.612 247.2 434.737 244.676C436.807 242.221 438.998 239.871 441.303 237.636C443.492 235.514 445.832 233.554 448.306 231.772C450.684 230.052 453.227 228.571 455.896 227.351C458.596 226.141 461.436 225.274 464.351 224.77C467.444 224.251 470.591 224.129 473.716 224.409C477.225 224.73 480.691 225.417 484.058 226.459C487.978 227.674 491.788 229.223 495.444 231.089C499.695 233.25 503.814 235.661 507.779 238.31C512.02 241.156 516.318 244.316 520.844 247.864C525.37 251.413 529.773 255.104 534.232 258.861C538.692 262.619 543.094 266.272 547.421 269.745C549.585 271.481 551.681 273.066 553.759 274.546C555.837 276.026 557.877 277.392 559.889 278.626C561.785 279.79 563.753 280.833 565.781 281.747C567.55 282.557 569.406 283.162 571.313 283.55C572.998 283.893 574.731 283.926 576.427 283.645C578.074 283.342 579.639 282.695 581.02 281.747C582.572 280.656 583.94 279.324 585.071 277.8C586.459 275.936 587.654 273.937 588.639 271.832C589.854 269.253 590.9 266.596 591.77 263.881C592.719 260.892 593.667 257.562 594.616 253.947C595.565 250.331 596.438 246.441 597.406 242.333C598.374 238.224 599.446 233.973 600.67 229.675C601.875 225.387 603.307 221.165 604.959 217.027C606.568 212.991 608.493 209.089 610.718 205.357C612.9 201.714 615.409 198.277 618.214 195.09C621.066 191.869 624.155 188.865 627.456 186.105C630.995 183.378 634.678 180.844 638.49 178.514C642.444 176.112 646.52 173.918 650.702 171.939C654.953 169.918 659.308 168.058 663.72 166.34C668.132 164.623 672.582 163.048 677.061 161.596C681.539 160.145 686.027 158.75 690.506 157.516C694.984 156.283 699.434 155.03 703.856 153.892C708.277 152.753 712.87 151.605 717.291 150.533L730.385 147.364L743.014 144.517C747.17 143.568 751.26 142.619 755.349 141.728C759.439 140.836 763.376 139.972 767.295 139.156C771.214 138.34 775.076 137.581 778.871 136.851C782.666 136.12 786.462 135.427 790.124 134.773C793.787 134.118 797.506 133.492 801.14 132.875C804.774 132.258 808.313 131.679 811.815 131.063C815.316 130.446 818.788 129.858 822.195 129.222C829.007 127.95 835.592 126.632 842.044 125.351C848.497 124.07 854.787 122.836 861.069 121.726C867.35 120.616 873.536 119.601 879.704 118.699C885.871 117.798 891.982 117.01 898.026 116.356C904.07 115.701 910.048 115.189 915.93 114.809C921.351 114.486 926.709 114.249 932.004 114.097V94.1055C930.106 94.1529 928.208 94.2003 926.311 94.2668C920.896 94.4439 915.377 94.7349 909.753 95.1397Z" fill="#ACDBDB"/>
        <path d="M733.157 1041.93C727.508 1038.76 721.764 1035.54 715.926 1032.26C710.087 1028.98 704.179 1025.7 698.201 1022.44C692.224 1019.15 686.227 1015.91 680.174 1012.65C674.12 1009.38 667.905 1006.07 661.681 1002.78C655.456 999.485 649.232 996.259 643.055 993.128C636.878 989.997 630.72 987.008 624.771 984.171C618.822 981.334 612.91 978.677 607.198 976.21C601.486 973.743 595.907 971.466 590.508 969.436C585.11 967.405 579.891 965.545 574.834 963.913C569.776 962.281 564.909 960.877 560.07 959.539C555.231 958.202 550.581 957.025 546.046 956.048C541.51 955.07 537.212 954.292 533.123 953.761C525.874 952.696 518.523 952.527 511.233 953.258C505.503 953.844 499.93 955.478 494.79 958.078C490.389 960.365 486.484 963.499 483.299 967.301C480.172 971.058 477.637 975.273 475.785 979.797C473.858 984.528 472.406 989.439 471.448 994.456C470.429 999.736 469.725 1005.07 469.342 1010.43C468.934 1015.9 468.744 1021.43 468.697 1026.99C468.649 1032.55 468.754 1038.12 468.981 1043.74C469.095 1046.8 469.257 1049.86 469.427 1052.92H491.099C490.748 1047.43 490.52 1042 490.501 1036.69C490.467 1031.02 490.746 1025.35 491.336 1019.71C491.871 1014.43 492.848 1009.2 494.258 1004.08C495.55 999.325 497.502 994.777 500.056 990.566C502.546 986.496 505.827 982.966 509.705 980.186C514.036 977.174 518.927 975.064 524.09 973.981C530.52 972.647 537.105 972.213 543.655 972.69C551.827 973.236 559.941 974.444 567.917 976.305C572.31 977.254 576.95 978.573 581.798 980.101C586.647 981.628 591.694 983.365 596.979 985.357C602.264 987.35 607.663 989.579 613.281 991.999C618.898 994.419 624.666 997.123 630.625 999.979C636.584 1002.83 642.59 1005.87 648.653 1009.02C654.716 1012.17 660.846 1015.39 666.89 1018.61C672.934 1021.84 678.883 1025 684.766 1028.17C690.649 1031.34 696.522 1034.58 702.376 1037.86C708.231 1041.13 713.98 1044.39 719.702 1047.66C722.738 1049.38 725.756 1051.16 728.773 1052.9H752.494L749.923 1051.44C744.381 1048.26 738.793 1045.09 733.157 1041.93Z" fill="#ACDBDB"/>
        <path d="M911.773 140.077C905.511 140.653 899.186 141.383 892.797 142.269C886.408 143.155 879.924 144.189 873.346 145.372C870.063 145.96 866.745 146.57 863.392 147.203L853.221 149.167C849.786 149.838 846.263 150.502 842.651 151.16C839.039 151.817 835.354 152.45 831.597 153.057C827.839 153.646 824.009 154.218 820.106 154.775C816.207 155.344 812.241 155.894 808.189 156.473C804.137 157.052 799.991 157.669 795.778 158.371C791.565 159.073 787.239 159.737 782.931 160.487C778.623 161.236 774.059 162.119 769.514 163.02C764.969 163.921 760.349 164.918 755.633 165.924C750.917 166.929 746.078 168.049 741.173 169.197C736.267 170.345 731.286 171.56 726.276 172.831C721.266 174.103 716.351 175.421 711.37 176.864C706.388 178.306 701.369 179.89 696.397 181.608C691.425 183.325 686.482 185.28 681.652 187.301C676.823 189.322 672.164 191.637 667.533 194.075C663.145 196.62 658.932 199.457 654.923 202.568C650.905 205.688 647.234 209.232 643.974 213.138C640.683 217.155 637.857 221.532 635.548 226.184C633.164 231.019 631.221 236.059 629.741 241.242C628.201 246.605 626.981 252.054 626.088 257.562C625.139 263.132 624.466 268.758 623.896 274.328C623.327 279.898 622.834 285.306 622.388 290.629C621.942 295.952 621.439 301.123 620.936 306.048C620.433 310.972 619.788 315.612 619.038 319.891C618.398 323.769 617.543 327.608 616.477 331.391C615.632 334.4 614.521 337.328 613.156 340.139C612.102 342.333 610.759 344.376 609.161 346.212C607.866 347.678 606.337 348.919 604.635 349.884C603.117 350.738 601.464 351.328 599.749 351.63C598.058 351.915 596.334 351.944 594.634 351.715C592.802 351.459 591.009 350.968 589.302 350.254C587.383 349.472 585.538 348.519 583.789 347.408C581.809 346.15 579.922 344.752 578.144 343.223C574.348 339.95 570.458 336.287 566.596 332.302C562.735 328.317 558.854 324.133 554.973 319.901C551.092 315.669 547.193 311.437 543.321 307.348C539.45 303.258 535.617 299.283 531.831 295.506C528.045 291.73 524.335 288.21 520.739 285.012C517.143 281.814 513.67 278.968 510.302 276.472C507.233 274.179 504.002 272.111 500.633 270.286C497.827 268.76 494.873 267.52 491.818 266.586C489.178 265.779 486.458 265.264 483.706 265.049C481.202 264.851 478.683 264.946 476.201 265.333C473.805 265.722 471.462 266.384 469.217 267.307C466.926 268.252 464.736 269.424 462.68 270.808C460.486 272.277 458.4 273.901 456.436 275.666C454.396 277.478 452.385 279.461 450.402 281.568C448.419 283.674 446.464 285.885 444.509 288.21C442.555 290.534 440.61 292.821 438.608 295.165C434.604 299.909 430.685 304.653 426.928 309.397C423.161 314.039 419.636 318.872 416.367 323.876C413.265 328.649 410.429 333.591 407.875 338.678C405.478 343.426 403.42 348.337 401.717 353.376C400.165 357.984 398.898 362.683 397.922 367.447C397.045 371.728 396.474 376.065 396.214 380.427C395.984 384.3 396.038 388.185 396.375 392.05C396.665 395.52 397.268 398.956 398.178 402.317C399.744 408.359 402.588 413.996 406.518 418.845C410.523 423.609 415.423 427.542 420.94 430.421C423.787 431.987 426.956 433.457 430.296 434.871C433.636 436.285 437.184 437.623 440.942 438.942C444.699 440.261 448.627 441.864 452.717 443.515C457.058 445.303 461.283 447.363 465.365 449.683C470.416 452.69 475.131 456.23 479.427 460.243C481.952 462.597 484.34 465.094 486.581 467.72C488.981 470.5 491.391 473.546 493.811 476.914C496.231 480.283 498.622 484.04 501.013 488.177C503.404 492.314 505.757 496.821 508.129 501.66C510.501 506.499 512.873 511.67 515.169 517.126C517.466 522.582 519.819 528.275 522.105 534.262C524.392 540.249 526.65 546.464 528.88 552.85C529.987 556.05 531.091 559.267 532.191 562.499C533.292 565.732 534.386 569.024 535.474 572.377C536.569 575.717 537.654 579.075 538.729 582.453C539.804 585.831 540.886 589.212 541.974 592.596C543.056 595.993 544.153 599.349 545.266 602.664C546.377 605.975 547.496 609.248 548.635 612.456C550.903 618.936 553.199 625.217 555.561 631.214C557.924 637.211 560.362 642.856 562.934 648.037C565.305 652.881 568.053 657.532 571.151 661.947C573.808 665.759 576.925 669.229 580.43 672.28C583.529 674.963 587.057 677.106 590.868 678.618C594.495 680.033 598.361 680.735 602.254 680.686C606.457 680.596 610.62 679.844 614.588 678.457C619.217 676.837 623.651 674.705 627.806 672.099C632.758 669.016 637.474 665.568 641.915 661.786C646.754 657.734 651.707 653.142 656.745 648.065C659.275 645.535 661.806 642.913 664.336 640.199C666.888 637.495 669.441 634.706 672.012 631.859C674.583 629.013 677.145 626.166 679.717 623.215C682.288 620.264 684.869 617.314 687.459 614.268C690.049 611.222 692.649 608.157 695.259 605.045C697.868 601.933 700.487 598.811 703.105 595.68C705.724 592.549 708.343 589.427 710.952 586.363C713.562 583.298 716.161 580.271 718.761 577.292C721.361 574.312 723.961 571.361 726.551 568.448C729.141 565.536 731.741 562.67 734.322 559.909C736.903 557.148 739.474 554.406 742.017 551.796C744.56 549.187 747.112 546.673 749.608 544.206C754.646 539.348 759.628 534.907 764.543 530.979C769.11 527.276 773.972 523.95 779.079 521.035C783.588 518.473 788.36 516.402 793.311 514.858C797.807 513.473 802.464 512.676 807.164 512.486C811.704 512.326 816.248 512.666 820.714 513.501C825.239 514.348 829.684 515.583 833.997 517.192C838.44 518.842 842.795 520.721 847.044 522.819C851.371 524.935 855.688 527.136 860.014 529.375C864.341 531.615 868.668 533.882 872.995 536.207C877.321 538.532 881.638 540.894 885.984 543.304C894.669 548.124 903.361 553.122 912.058 558.296C918.785 562.3 925.465 566.465 932.126 570.697V522.866C923.422 517.61 914.728 512.518 906.043 507.59C901.172 504.832 896.317 502.115 891.478 499.44C886.639 496.764 881.797 494.117 876.951 491.498C872.112 488.866 867.264 486.257 862.406 483.67C857.557 481.061 852.69 478.48 847.784 476.022C842.949 473.718 837.977 471.712 832.897 470.016C828.02 468.426 822.998 467.317 817.905 466.705C812.892 466.45 807.867 466.701 802.904 467.454C797.706 468.649 792.702 470.565 788.036 473.147C782.607 476.246 777.571 479.986 773.035 484.287C770.501 486.63 767.92 489.211 765.321 491.982C762.721 494.752 760.064 497.675 757.388 500.825C754.713 503.975 752.008 507.173 749.285 510.484C746.562 513.796 743.801 517.192 741.03 520.646L732.719 531.026C729.948 534.493 727.177 537.972 724.407 541.464L716.104 551.901L707.868 562.253C705.136 565.675 702.422 569.046 699.728 572.367C697.033 575.688 694.351 578.993 691.681 582.283C689.018 585.559 686.377 588.766 683.759 591.904C681.14 595.041 678.556 598.081 676.007 601.022C673.476 603.964 670.946 606.778 668.416 609.467C665.886 612.155 663.447 614.714 661.1 617.143C656.293 622.014 651.628 626.375 647.105 630.227C642.972 633.783 638.6 637.051 634.021 640.01C630.238 642.473 626.205 644.527 621.989 646.139C618.486 647.482 614.802 648.291 611.059 648.54C607.735 648.742 604.402 648.344 601.219 647.363C598.02 646.357 595.044 644.747 592.452 642.619C589.601 640.286 586.995 637.669 584.672 634.81C582.096 631.637 579.762 628.275 577.688 624.753C575.496 621.052 573.418 617 571.435 612.731C569.452 608.461 567.564 603.935 565.742 599.21C563.921 594.485 562.203 589.484 560.543 584.379C558.882 579.275 557.279 574.066 555.704 568.8C554.129 563.533 552.61 558.277 551.102 553.02C549.593 547.764 548.122 542.507 546.69 537.251C545.257 531.994 543.843 526.814 542.439 521.766C541.035 516.718 539.668 511.774 538.34 506.907C537.012 502.039 535.702 497.305 534.44 492.674C533.178 488.044 531.954 483.623 530.749 479.334C529.544 475.045 528.396 470.956 527.276 466.999C526.157 463.042 525.075 459.342 524.022 455.822C521.906 448.791 519.989 442.358 518.281 436.408C516.574 430.459 515.074 425.022 513.793 420.041C512.513 415.06 511.459 410.553 510.643 406.463C509.011 398.275 508.508 391.68 509.135 386.632C509.761 381.585 511.497 378.017 514.353 376.195C515.799 375.179 517.54 374.669 519.306 374.743C521.558 374.854 523.762 375.432 525.777 376.442C528.579 377.801 531.212 379.482 533.624 381.452C536.851 384.044 539.903 386.846 542.762 389.839C546.468 393.753 549.953 397.871 553.199 402.174C556.899 406.975 560.789 412.308 564.907 417.973C566.969 420.8 569.082 423.612 571.246 426.408C573.418 429.254 575.648 431.996 577.887 434.701C580.127 437.405 582.527 439.957 584.947 442.291C587.279 444.56 589.789 446.638 592.452 448.506C595.001 450.299 597.737 451.81 600.612 453.013C603.446 454.198 606.457 454.903 609.522 455.1C612.845 455.271 616.171 454.81 619.323 453.744C623.197 452.396 626.797 450.361 629.95 447.737C634.106 444.283 637.785 440.291 640.89 435.868C642.84 433.143 644.602 430.29 646.166 427.328C648.002 423.868 649.643 420.307 651.081 416.663C652.752 412.399 654.208 408.055 655.445 403.645C656.887 398.475 658.062 393.233 658.966 387.942C659.971 382.249 660.787 375.967 661.442 369.297C661.765 365.967 662.059 362.532 662.305 359.021C662.552 355.511 662.751 351.905 662.922 348.233C663.093 344.561 663.235 340.87 663.368 337.122C663.501 333.374 663.624 329.607 663.748 325.793C663.871 321.979 664.004 318.202 664.175 314.341C664.345 310.479 664.545 306.75 664.791 302.955C665.038 299.159 665.38 295.468 665.74 291.834C666.101 288.2 666.689 284.661 667.258 281.217C668.371 274.67 670.099 268.243 672.42 262.022C674.561 256.327 677.38 250.911 680.817 245.892C684.119 241.15 688.002 236.841 692.374 233.063C696.749 229.28 701.455 225.898 706.436 222.958C711.496 220.175 716.652 217.664 721.902 215.424C727.272 213.138 732.681 211.088 738.032 209.266C743.384 207.445 748.792 205.841 754.162 204.399C759.533 202.957 764.694 201.742 769.884 200.603C775.075 199.465 780.189 198.488 785.199 197.615C790.209 196.742 795.086 195.973 799.858 195.3C804.631 194.626 809.28 194.038 813.816 193.478C818.351 192.918 822.744 192.406 827.042 191.931C831.341 191.457 835.582 190.982 839.69 190.612C843.799 190.242 847.831 189.749 851.76 189.274C855.688 188.8 859.521 188.326 863.279 187.766C867.036 187.206 870.698 186.694 874.285 186.134L884.808 184.502C891.677 183.439 898.366 182.452 904.875 181.608C911.384 180.763 917.799 180.109 924.127 179.653C926.794 179.454 929.431 179.321 932.069 179.198V138.844H930.247C924.181 139.116 918.023 139.527 911.773 140.077Z" fill="#ACDBDB"/>
        <path d="M674.414 1036.66C668.816 1033.74 663.183 1030.83 657.515 1027.95C651.848 1025.07 646.174 1022.24 640.493 1019.47C634.848 1016.73 629.259 1014.09 623.784 1011.62C618.309 1009.15 613.015 1006.88 607.929 1004.98C602.843 1003.08 597.947 1001.25 593.308 999.789C588.668 998.328 584.237 997.123 580.024 996.117C575.811 995.111 571.731 994.305 567.841 993.669C561.326 992.975 554.752 993.058 548.257 993.916C543.057 994.642 538.045 996.358 533.493 998.973C529.477 1001.34 525.984 1004.5 523.227 1008.26C520.45 1012.12 518.299 1016.39 516.85 1020.91C515.255 1025.85 514.155 1030.93 513.567 1036.09C512.911 1041.68 512.594 1047.3 512.619 1052.92H544.727C545.723 1048.65 547.287 1044.53 549.376 1040.67C551.466 1036.84 554.348 1033.49 557.831 1030.85C561.639 1028.08 566.012 1026.17 570.64 1025.27C576.513 1024.17 582.525 1024 588.45 1024.79C596.201 1025.77 603.851 1027.44 611.307 1029.78C615.491 1031.03 619.847 1032.52 624.372 1034.18C628.898 1035.84 633.519 1037.69 638.273 1039.69C643.027 1041.69 647.837 1043.79 652.695 1046C657.553 1048.21 662.449 1050.49 667.421 1052.91H704.132C699.834 1050.49 695.535 1048.06 691.228 1045.68C685.591 1042.58 679.987 1039.57 674.414 1036.66Z" fill="#ACDBDB"/>
        <path d="M911.698 214.02C905.512 214.655 899.117 215.339 892.551 216.069C889.255 216.43 885.918 216.806 882.541 217.198C879.153 217.578 875.718 217.957 872.227 218.308C868.735 218.659 865.044 219.03 861.363 219.362C857.681 219.694 853.952 219.997 850.128 220.31C846.305 220.624 842.386 220.889 838.401 221.259C834.416 221.629 830.298 221.961 826.123 222.388C821.948 222.815 817.707 223.337 813.361 223.916C809.015 224.495 804.556 225.131 800.011 225.871C795.466 226.611 790.854 227.455 786.234 228.414C781.613 229.372 776.916 230.52 772.191 231.839C767.466 233.158 762.703 234.685 757.958 236.384C753.161 238.112 748.455 240.085 743.859 242.295C739.262 244.479 734.824 246.981 730.575 249.781C726.261 252.652 722.246 255.948 718.591 259.621C714.83 263.417 711.496 267.614 708.647 272.136C705.634 276.938 703.153 282.054 701.246 287.393C699.176 293.263 697.589 299.292 696.502 305.421C695.908 308.666 695.382 311.981 694.927 315.365C694.472 318.749 694.076 322.193 693.741 325.698C693.399 329.202 693.083 332.713 692.792 336.23C692.508 339.75 692.251 343.28 692.005 346.8C691.758 350.32 691.511 353.869 691.265 357.398C691.018 360.928 690.781 364.458 690.524 367.959C690.022 374.81 689.433 381.508 688.712 387.941C687.991 394.375 687.147 400.57 686.179 406.472C685.211 412.374 684.11 418.048 682.896 423.551C681.681 429.055 680.315 434.254 678.863 439.169C677.412 444.084 675.856 448.714 674.261 453.07C672.667 457.425 671.026 461.476 669.346 465.243C667.667 469.01 665.969 472.492 664.251 475.728C662.534 478.963 660.807 481.943 659.099 484.685C655.664 490.179 652.381 494.866 649.288 498.917C646.195 502.969 643.263 506.375 640.53 509.355C637.798 512.334 635.217 515.048 632.816 517.23C628.072 521.699 623.774 525.314 619.988 528.445C616.269 531.092 612.891 533.37 609.883 535.22C606.875 537.07 604.19 538.588 601.856 539.888C599.522 541.188 597.463 542.365 595.698 543.551C594.045 544.633 592.543 545.928 591.229 547.403C588.79 550.249 587.376 554.045 586.959 559.045C586.637 565.182 587.219 571.333 588.686 577.301C589.509 580.957 590.584 584.552 591.902 588.061C593.27 591.71 594.969 595.226 596.979 598.564C598.937 601.847 601.352 604.834 604.152 607.436C607.01 610.14 610.474 612.121 614.254 613.213C618.034 614.306 622.02 614.479 625.88 613.717C631.185 612.656 636.263 610.671 640.881 607.853C643.882 606.117 646.772 604.196 649.535 602.103C652.558 599.832 655.721 597.223 659.023 594.275C662.325 591.334 665.779 587.956 669.375 584.218C672.971 580.479 676.7 576.437 680.543 572.092C684.386 567.746 688.447 563.011 692.64 557.926C694.741 555.395 696.879 552.761 699.055 550.022C701.231 547.283 703.445 544.474 705.696 541.596C707.948 538.693 710.219 535.732 712.509 532.715C714.799 529.698 717.12 526.611 719.473 523.454C721.814 520.292 724.17 517.059 726.542 513.757C728.914 510.455 731.277 507.109 733.63 503.718C735.983 500.334 738.333 496.928 740.68 493.5C743.027 490.071 745.336 486.668 747.606 483.29C749.884 479.9 752.142 476.594 754.381 473.375C756.611 470.168 758.831 467.065 761.023 464.095C763.215 461.125 765.445 458.336 767.665 455.679C769.885 453.022 772.134 450.498 774.402 448.088C778.631 443.599 783.29 439.534 788.312 435.953C792.797 433.143 797.678 431.019 802.791 429.652C807.615 428.458 812.608 428.092 817.555 428.571C822.632 429.126 827.633 430.233 832.471 431.873C837.596 433.831 842.618 436.048 847.519 438.514C852.481 441.133 857.406 443.866 862.273 446.665L876.819 455.015L891.298 463.355L905.73 471.705C910.538 474.501 915.367 477.322 920.219 480.168C924.128 482.465 928.066 484.818 932.003 487.18V450.432C928.863 448.458 925.722 446.475 922.629 444.511C918.346 441.797 914.093 439.09 909.867 436.389C905.642 433.688 901.416 430.99 897.191 428.295L884.533 420.183C880.314 417.482 876.089 414.752 871.857 411.994C867.625 409.252 863.402 406.51 859.19 403.806C854.977 401.102 850.783 398.483 846.589 396.035C842.395 393.587 838.173 391.386 833.989 389.46C829.912 387.718 825.709 386.287 821.417 385.18C817.338 384.336 813.189 383.872 809.025 383.795C805.018 383.97 801.044 384.606 797.183 385.693C793.306 386.797 789.585 388.391 786.11 390.437C782.556 392.536 779.179 394.922 776.015 397.572C772.809 400.249 769.77 403.12 766.915 406.169C764.088 409.61 761.399 413.124 758.85 416.71C756.301 420.297 753.866 423.931 751.544 427.612C749.22 431.256 746.999 434.814 744.902 438.239C742.805 441.665 740.727 445.005 738.763 448.269C736.799 451.533 734.911 454.626 733.07 457.539C731.23 460.451 729.493 463.184 727.795 465.737C724.426 470.813 721.343 475.111 718.544 478.593C716.266 481.503 713.783 484.246 711.114 486.801C708.192 487.92 706.664 486.279 706.636 481.392C706.703 478.002 707.02 474.621 707.585 471.278C708.249 466.951 709.217 461.562 710.488 455.043C711.076 451.751 711.731 448.155 712.443 444.226C713.154 440.298 713.894 436.057 714.663 431.474C715.431 426.891 716.2 421.986 716.969 416.777C717.737 411.567 718.487 405.846 719.236 399.792C719.986 393.739 720.745 387.391 721.551 380.74C721.956 377.419 722.38 374.038 722.823 370.597C723.266 367.156 723.724 363.676 724.199 360.159C724.683 356.639 725.148 353.081 725.764 349.504C726.381 345.927 726.969 342.321 727.662 338.716C728.355 335.11 729.161 331.543 730.082 328.041C731.002 324.54 732.027 321.115 733.213 317.803C735.478 311.435 738.4 305.32 741.932 299.557C745.535 294.284 749.728 289.439 754.429 285.116C759.141 280.88 764.313 277.185 769.847 274.1C775.508 271.096 781.37 268.487 787.391 266.291C793.418 264.111 799.56 262.264 805.789 260.759C810.42 259.63 815.012 258.7 819.604 257.913C824.197 257.125 828.761 256.518 833.315 256.015C837.869 255.512 842.291 255.133 846.694 254.801C851.096 254.469 855.442 254.146 859.693 253.852C865.386 253.415 871.003 252.979 876.553 252.504C882.104 252.03 887.588 251.556 892.987 251.053C898.386 250.55 903.681 250.104 908.918 249.753C914.156 249.402 919.299 249.013 924.384 248.728C926.915 248.557 929.445 248.409 931.975 248.282V212.388C931.225 212.388 930.485 212.445 929.736 212.492C923.91 212.853 917.942 213.384 911.698 214.02Z" fill="#ACDBDB"/>
        <path d="M592.86 1048.01C588.295 1048.6 583.901 1050.12 579.956 1052.5C579.757 1052.62 579.576 1052.76 579.387 1052.9H630.624C623.939 1050.79 617.095 1049.22 610.158 1048.21C604.429 1047.34 598.607 1047.27 592.86 1048.01Z" fill="#ACDBDB"/>
    </g>
    <defs>
        <clipPath id="clip0_1779_10271">
            <rect width="932.146" height="1053" fill="white"/>
        </clipPath>
    </defs>
</svg>
