<svg width="257" height="485" viewBox="0 0 257 485" fill="none" xmlns="http://www.w3.org/2000/svg">
    <g clip-path="url(#clip0_1779_14771)">
        <path d="M8.10387 481.898C6.53421 481.747 4.81985 481.622 2.95466 481.537C2.03081 481.493 1.07202 481.46 0.078125 481.438V484.46H14.2905C16.6483 483.527 18.1653 482.962 18.1653 482.962C18.1653 482.962 14.3759 482.489 8.10387 481.898Z" fill="#ACDBDB"/>
        <path d="M15.2582 466.07C18.056 466.458 20.7619 466.865 23.3561 467.266C25.9503 467.666 28.4459 468.034 30.8168 468.349C33.1877 468.665 35.4143 468.94 37.5422 469.164C39.6701 469.387 41.6141 469.558 43.453 469.63C50.743 469.932 55.1499 469.775 55.1499 469.775C55.1499 469.775 57.685 468.698 61.5533 466.931C63.4842 466.044 65.7629 464.915 68.2127 463.601C70.6624 462.288 73.2698 460.757 75.8706 459.089C78.4714 457.421 81.0526 455.602 83.4301 453.776C85.8075 451.95 87.9746 450.137 89.7741 448.522C93.3732 445.238 95.685 442.913 95.685 442.913C95.685 442.913 93.8987 443.99 90.5098 445.882C88.8219 446.834 86.6873 447.918 84.1522 449.067C81.3063 450.346 78.3901 451.462 75.4175 452.41C73.1252 453.14 70.7947 453.742 68.4362 454.216C65.8933 454.726 63.3232 455.09 60.7388 455.306C57.9954 455.533 55.2416 455.609 52.4899 455.536C49.6658 455.47 46.7763 455.247 43.834 454.879C40.8917 454.511 37.877 454.098 34.8231 453.566C31.7692 453.034 28.6496 452.515 25.4906 451.976C22.3316 451.438 19.1069 450.906 15.8297 450.459C12.5524 450.013 9.21611 449.651 5.84037 449.422C3.9489 449.29 2.03759 449.218 0.113281 449.192V464.809C2.30686 464.855 4.47423 464.941 6.58243 465.112C9.55098 465.355 12.467 465.676 15.2582 466.07Z" fill="#ACDBDB"/>
        <path d="M19.4409 436.069C23.3157 436.68 27.1576 437.382 30.9537 438.098C34.7498 438.814 38.4935 439.504 42.1911 440.069C45.8153 440.648 49.4674 441.036 53.1325 441.231C56.6651 441.421 60.2074 441.333 63.7263 440.968C70.2485 440.273 76.5963 438.43 82.4766 435.524C85.1628 434.201 87.7602 432.704 90.2526 431.045C92.6892 429.429 94.9552 427.761 97.0437 426.099C99.1322 424.438 101.076 422.815 102.836 421.331C106.37 418.33 109.404 415.814 111.965 413.916C113.966 412.37 116.131 411.049 118.421 409.976C120.161 409.187 121.962 408.541 123.807 408.045C123.807 408.045 125.245 406.574 127.373 404.722C129.729 402.692 132.335 400.972 135.129 399.606C137.577 398.435 140.133 397.504 142.761 396.827C144.803 396.302 146.13 396 146.13 396C146.13 396 144.002 394.411 140.035 391.79C137.719 390.473 135.266 389.414 132.719 388.631C131.221 388.183 129.68 387.895 128.121 387.771C126.413 387.637 124.695 387.694 122.999 387.942C121.065 388.251 119.197 388.886 117.475 389.82C115.406 390.925 113.46 392.246 111.67 393.76C109.502 395.584 107.432 397.522 105.47 399.566C103.322 401.779 101.056 404.164 98.6461 406.725C96.4263 409.056 94.0488 411.421 91.4218 413.7C88.8178 416.013 86.028 418.109 83.0808 419.965C80.1029 421.854 76.919 423.397 73.5908 424.562C70.2397 425.725 66.767 426.503 63.2401 426.881C59.634 427.265 56.001 427.326 52.384 427.065C48.7062 426.815 44.9824 426.329 41.2717 425.751C37.561 425.173 33.6729 424.346 29.8243 423.61C25.9756 422.875 22.0745 422.178 18.1273 421.587C14.1802 420.996 10.2463 420.497 6.3714 420.123C4.25663 419.926 2.14851 419.781 0.046875 419.676V434.42C2.5557 434.466 5.07091 434.558 7.57973 434.749C11.5991 434.979 15.5463 435.458 19.4409 436.069Z" fill="#ACDBDB"/>
        <path d="M13.7969 405.806C17.7375 406.362 21.6385 406.986 25.5003 407.677C29.3883 408.373 33.2302 409.089 37.0263 409.766C40.8223 410.442 44.5661 411.027 48.2374 411.427C51.8084 411.829 55.4068 411.933 58.995 411.736C62.4208 411.539 65.8091 410.919 69.0827 409.891C72.3081 408.856 75.3839 407.403 78.2315 405.569C81.1446 403.671 83.8479 401.47 86.2964 399.002C88.7877 396.499 91.1466 393.869 93.3633 391.12C95.5897 388.395 97.7438 385.709 99.852 383.154C101.844 380.718 103.959 378.385 106.19 376.166C108.152 374.204 110.306 372.444 112.619 370.912C114.634 369.575 116.827 368.529 119.134 367.805C121.221 367.16 123.393 366.828 125.577 366.82C127.656 366.824 129.727 367.093 131.738 367.622C133.715 368.131 135.638 368.832 137.478 369.717C139.304 370.592 141.04 371.51 142.686 372.468C144.328 373.408 145.878 374.36 147.316 375.299C150.193 377.177 152.688 378.911 154.803 380.409C156.918 381.906 158.678 383.134 160.057 384.087C162.829 385.985 164.293 386.95 164.293 386.95C164.293 386.95 165.187 385.893 166.441 384.1C168.054 381.685 169.443 379.129 170.592 376.462C171.913 373.431 173.081 370.336 174.092 367.188C174.972 364.456 175.537 362.591 175.537 362.591C175.537 362.591 174.532 362.348 172.641 361.816C169.774 360.968 166.955 359.968 164.195 358.821C162.338 358.063 160.215 357.109 157.824 355.957C155.434 354.808 152.767 353.468 149.786 352.017C148.295 351.275 146.718 350.513 145.05 349.751C143.382 348.989 141.635 348.208 139.796 347.446C137.902 346.667 135.966 345.994 133.997 345.43C131.95 344.83 129.856 344.401 127.738 344.149C125.556 343.896 123.352 343.896 121.17 344.149C118.89 344.433 116.653 344.998 114.511 345.83C112.199 346.731 109.995 347.89 107.943 349.285C105.715 350.796 103.623 352.499 101.691 354.375C99.6168 356.388 97.6628 358.522 95.8393 360.765C93.9478 363.077 92.0956 365.52 90.2632 367.989C88.4309 370.459 86.5986 372.935 84.7334 375.286C82.9157 377.591 80.98 379.801 78.9341 381.906C76.9675 383.939 74.8344 385.804 72.557 387.482C70.3167 389.13 67.8923 390.512 65.3327 391.6C62.7041 392.689 59.9709 393.505 57.1758 394.036C54.0918 394.421 50.9821 394.562 47.8759 394.457C44.6513 394.339 41.3415 394.004 37.9854 393.57C34.6294 393.137 31.1354 392.539 27.5889 392.033C24.0424 391.528 20.43 391.081 16.7719 390.72C13.1137 390.359 9.28502 390.017 5.47581 389.794C3.66316 389.689 1.85047 389.61 0.03125 389.544V404.591C0.615766 404.591 1.20023 404.63 1.78475 404.663C5.85666 404.939 9.84322 405.326 13.7969 405.806Z" fill="#ACDBDB"/>
        <path d="M12.8202 374.905C16.5506 374.997 20.2089 375.115 23.762 375.24C27.315 375.364 30.7431 375.509 34.0729 375.693C37.4027 375.877 40.4632 375.837 43.4843 375.693C46.2866 375.333 49.0456 374.692 51.7201 373.782C54.2387 372.889 56.6368 371.686 58.8592 370.202C61.0521 368.725 63.0996 367.043 64.9736 365.178C66.859 363.304 68.6436 361.331 70.3198 359.267C72.0076 357.198 73.6364 355.09 75.2323 352.962C76.8282 350.834 78.4239 348.707 80.0329 346.592C81.642 344.477 83.3168 342.369 84.9849 340.28C86.6531 338.192 88.4067 336.162 90.239 334.218C92.0258 332.283 93.9157 330.446 95.9004 328.715C97.8456 327.027 99.9016 325.472 102.054 324.058C104.132 322.7 106.313 321.505 108.576 320.486C112.81 318.579 117.31 317.33 121.921 316.781C124.064 316.535 126.221 316.436 128.377 316.486C130.411 316.533 132.441 316.686 134.459 316.946C136.429 317.195 138.294 317.524 140.1 317.905C141.907 318.285 143.647 318.706 145.308 319.126C146.97 319.546 148.553 319.96 150.07 320.361L154.424 321.497C157.189 322.226 159.744 322.896 162.089 323.526C164.433 324.157 166.594 324.748 168.571 325.3L173.996 326.817C177.28 327.723 179.854 328.432 181.641 328.899C183.427 329.365 184.386 329.608 184.386 329.608C184.386 329.608 184.996 327.533 185.949 324.452C186.901 321.372 188.241 317.353 189.666 313.439C191.091 309.524 192.595 305.748 193.791 303.035C194.986 300.323 195.82 298.583 195.82 298.583L193.245 297.21C191.564 296.317 189.141 295.03 186.074 293.421C184.537 292.619 182.855 291.752 181.016 290.826C179.178 289.9 177.194 288.955 175.053 287.996C172.912 287.037 170.64 286.104 168.21 285.244C165.685 284.346 163.105 283.611 160.486 283.044C157.636 282.429 154.756 281.967 151.856 281.658C150.339 281.487 148.77 281.356 147.154 281.251C145.538 281.146 143.87 281.06 142.143 281.021C140.416 280.981 138.655 281.021 136.849 281.073C135.043 281.126 133.198 281.29 131.306 281.5C129.415 281.71 127.484 281.999 125.527 282.361C123.57 282.722 121.586 283.162 119.564 283.674C117.541 284.187 115.524 284.791 113.482 285.461C111.439 286.13 109.397 286.873 107.354 287.7C105.312 288.528 103.282 289.427 101.266 290.419C99.2498 291.411 97.2533 292.468 95.2831 293.585C93.3128 294.701 91.3886 295.877 89.5168 297.138C87.6451 298.399 85.839 299.765 84.0986 301.177C82.3582 302.589 80.6767 304.106 79.0414 305.656C77.4061 307.206 75.8299 308.782 74.3062 310.457C72.7825 312.132 71.3377 313.911 69.9256 315.77C68.5136 317.629 67.2261 319.75 65.9258 321.858C64.6254 323.966 63.3711 326.245 62.1035 328.537C60.836 330.83 59.5554 333.135 58.2287 335.42C56.9021 337.706 55.4966 339.959 53.9992 342.113C52.5408 344.221 50.9015 346.199 49.0998 348.024C45.5194 351.683 41.0284 354.321 36.0894 355.668C33.4104 356.393 30.6939 356.972 27.952 357.402C25.0185 357.796 22.0151 358.131 18.9415 358.407C15.7693 358.604 12.551 358.762 9.26066 358.84C6.23957 358.913 3.17254 358.926 0.105469 358.906V374.668H1.49114C5.30035 374.74 9.09642 374.78 12.8202 374.905Z" fill="#ACDBDB"/>
        <path d="M9.71947 339.263C12.4394 338.89 15.1378 338.375 17.8039 337.72C20.2531 337.04 22.6538 336.195 24.9891 335.191C27.1578 334.144 29.2074 332.867 31.1033 331.382C32.9876 329.854 34.6655 328.088 36.0947 326.128C37.6009 324.06 38.9197 321.862 40.0353 319.56C41.1978 317.196 42.2488 314.72 43.2142 312.192C44.1797 309.663 45.1123 307.121 46.0317 304.613C46.9512 302.104 47.9033 299.674 48.9015 297.323C49.8998 294.971 50.9574 292.725 52.0936 290.617C53.1941 288.56 54.4406 286.585 55.8238 284.706C57.1527 282.91 58.6056 281.21 60.1716 279.616C61.7128 278.031 63.324 276.523 65.0053 275.091C66.6866 273.659 68.4204 272.274 70.2068 270.934C71.9976 269.62 73.8496 268.348 75.7629 267.118C77.6763 265.888 79.6466 264.721 81.6738 263.618C83.7097 262.501 85.7984 261.417 87.9066 260.334C90.0148 259.25 92.1494 258.232 94.3036 257.214C96.4578 256.196 98.6448 255.244 100.871 254.285C103.098 253.326 105.35 252.453 107.616 251.605C109.882 250.758 112.18 249.95 114.479 249.202C116.778 248.453 119.077 247.763 121.382 247.126C123.687 246.489 125.979 245.918 128.225 245.406C130.471 244.893 132.73 244.453 134.937 244.092C137.144 243.731 139.318 243.468 141.433 243.265C143.547 243.061 145.603 242.936 147.606 242.884C149.609 242.831 151.546 242.884 153.451 242.976C155.303 243.082 157.149 243.281 158.981 243.573C160.754 243.843 162.509 244.22 164.235 244.703C167.505 245.614 170.69 246.81 173.752 248.276C176.644 249.679 179.438 251.279 182.112 253.064C184.739 254.797 187.169 256.564 189.448 258.318C191.727 260.071 193.842 261.752 195.793 263.342C197.743 264.931 199.549 266.422 201.178 267.788C204.462 270.527 207.01 272.655 208.777 274.086C210.543 275.518 211.483 276.267 211.483 276.267C211.483 276.267 212.592 275.196 214.293 273.699C215.994 272.201 218.313 270.336 220.664 268.602C223.015 266.869 225.38 265.095 227.133 263.802C228.887 262.508 230.049 261.628 230.049 261.628C230.049 261.628 229.208 260.971 227.619 259.657C226.03 258.344 223.724 256.282 220.782 253.53C219.311 252.151 217.696 250.568 215.916 248.795C214.136 247.021 212.251 245.071 210.209 242.949C208.166 240.828 205.986 238.569 203.641 236.204C201.296 233.84 198.847 231.371 196.213 228.888C193.52 226.33 190.683 223.929 187.715 221.697C184.651 219.401 181.384 217.389 177.955 215.687C176.188 214.813 174.359 214.069 172.484 213.461C170.551 212.823 168.576 212.321 166.573 211.957C164.471 211.568 162.345 211.32 160.209 211.215C157.94 211.1 155.666 211.113 153.399 211.254C151.061 211.394 148.653 211.639 146.174 211.99C143.696 212.34 141.172 212.778 138.602 213.303C136.021 213.842 133.381 214.466 130.721 215.168C128.061 215.871 125.303 216.646 122.544 217.487C119.786 218.327 117.001 219.227 114.21 220.16C111.418 221.092 108.588 222.051 105.764 223.023L97.2981 225.966C94.4938 226.944 91.7091 227.936 88.9639 228.901C86.2186 229.867 83.539 230.872 80.9186 231.89C78.2981 232.908 75.7501 233.912 73.261 234.93C70.7719 235.948 68.3681 236.979 66.0366 238.024C63.7051 239.068 61.4391 240.132 59.3112 241.235C57.1833 242.339 55.1211 243.481 53.1836 244.683C51.2773 245.853 49.4339 247.123 47.6605 248.486C45.9411 249.812 44.2944 251.231 42.7281 252.735C41.1666 254.228 39.7011 255.818 38.3408 257.497C36.942 259.212 35.6733 261.03 34.5449 262.935C33.3551 264.973 32.3063 267.091 31.4057 269.272C30.4687 271.51 29.6191 273.841 28.8572 276.267C28.0888 278.69 27.3796 281.16 26.69 283.649C26.0004 286.138 25.3174 288.607 24.5819 291.024C23.8802 293.377 23.0557 295.692 22.1123 297.96C21.2357 300.066 20.1534 302.081 18.8811 303.975C17.6835 305.751 16.2719 307.372 14.6779 308.803C13.0896 310.208 11.339 311.419 9.46325 312.408C7.5111 313.436 5.46875 314.282 3.36192 314.937C2.29797 315.272 1.19462 315.594 0.078125 315.83V339.992H0.984376C3.90671 339.901 6.82251 339.658 9.71947 339.263Z" fill="#ACDBDB"/>
        <path d="M4.04498 271.537C5.05138 269.338 5.92855 267.081 6.67202 264.779C7.47327 262.362 8.22855 259.86 8.98383 257.332C9.7391 254.803 10.5271 252.281 11.3809 249.825C12.1986 247.445 13.1412 245.11 14.2049 242.83C15.1994 240.701 16.3248 238.634 17.5743 236.644C18.758 234.77 20.1004 233.001 21.587 231.357C23.0482 229.738 24.675 228.276 26.4405 226.996C28.294 225.675 30.274 224.542 32.3514 223.613C34.6092 222.601 36.9251 221.724 39.2868 220.986C41.7694 220.185 44.429 219.463 47.2596 218.773C50.0903 218.083 53.072 217.368 56.1916 216.619C59.3112 215.87 62.5754 215.049 65.9314 214.156C69.2875 213.263 72.7552 212.271 76.3017 211.207C79.8482 210.143 83.434 208.994 87.0593 207.799C90.6847 206.603 94.3298 205.355 97.9879 204.068C101.646 202.781 105.291 201.441 108.903 200.128L119.602 196.187C123.102 194.906 126.544 193.678 129.907 192.529C133.269 191.38 136.559 190.335 139.758 189.396C142.956 188.457 146.069 187.643 149.077 186.96C152.085 186.277 154.988 185.745 157.786 185.351C160.457 184.975 163.148 184.756 165.844 184.694C168.299 184.63 170.755 184.747 173.193 185.042C175.446 185.306 177.675 185.745 179.859 186.355C181.919 186.947 183.928 187.7 185.869 188.608C187.749 189.491 189.566 190.502 191.307 191.636C193.02 192.749 194.673 193.952 196.259 195.241C197.842 196.516 199.359 197.868 200.81 199.241C203.713 202.019 206.432 204.837 208.987 207.648C211.542 210.459 213.965 213.217 216.264 215.864C218.562 218.51 220.756 221.019 222.831 223.344C224.907 225.669 226.897 227.823 228.742 229.787C230.588 231.751 232.387 233.524 234.042 235.1C235.697 236.676 237.234 238.056 238.639 239.231C241.463 241.576 243.71 243.251 245.266 244.314C246.823 245.378 247.657 245.91 247.657 245.91C247.657 245.91 249.785 243.828 251.906 241.773C254.027 239.717 256.162 237.694 256.162 237.694C256.162 237.694 254.546 233.386 253.016 228.828C251.486 224.27 250.041 219.482 250.041 219.482C250.041 219.482 249.259 218.78 247.801 217.407C246.343 216.034 244.242 213.939 241.628 211.135C240.314 209.736 238.902 208.14 237.378 206.367C235.855 204.594 234.226 202.637 232.499 200.502C230.772 198.368 228.952 196.089 227.034 193.685C225.117 191.281 223.094 188.759 220.979 186.165C218.865 183.571 216.605 180.911 214.215 178.323C211.794 175.668 209.227 173.151 206.524 170.784C205.153 169.586 203.715 168.467 202.215 167.434C200.699 166.386 199.118 165.436 197.48 164.59C195.801 163.727 194.058 162.993 192.266 162.397C190.382 161.77 188.449 161.304 186.486 161.005C184.357 160.678 182.204 160.522 180.05 160.538C177.649 160.554 175.252 160.719 172.872 161.031C170.177 161.392 167.502 161.892 164.859 162.528C162.042 163.185 159.067 164.032 155.934 165.03C152.801 166.029 149.491 167.178 146.004 168.472C142.516 169.766 138.871 171.191 135.062 172.734C131.253 174.278 127.299 175.92 123.24 177.647C121.191 178.522 119.118 179.398 117.021 180.274C114.926 181.141 112.798 182.021 110.637 182.901C108.476 183.781 106.309 184.641 104.122 185.489C101.935 186.336 99.7282 187.17 97.5149 187.984C95.3016 188.799 93.0883 189.587 90.8684 190.349C88.6486 191.11 86.429 191.853 84.2091 192.575C81.9893 193.297 79.7693 193.888 77.5626 194.493C75.3559 195.097 73.1558 195.642 70.995 196.135C66.6473 197.113 62.4177 197.849 58.2604 198.42C54.2804 198.854 50.3795 199.175 46.6622 199.353C43.0435 199.53 39.5625 199.609 36.2984 199.655C33.0343 199.701 29.9869 199.74 27.0643 199.806C24.3059 199.957 21.6723 200.174 19.2226 200.522C16.9277 200.832 14.6703 201.373 12.4844 202.137C10.5131 202.837 8.63762 203.781 6.90195 204.948C5.26056 206.161 3.79493 207.596 2.54739 209.211C1.65154 210.382 0.827065 211.605 0.078125 212.875V278.059C0.301423 277.77 0.550992 277.507 0.734885 277.212C2.00556 275.423 3.11338 273.524 4.04498 271.537Z" fill="#ACDBDB"/>
        <path d="M6.10053 178.232C8.78011 178.502 11.5714 178.843 14.54 179.29C17.5085 179.736 20.6543 180.268 23.9709 180.846C27.2876 181.424 30.775 182.028 34.4791 182.626C38.1832 183.224 42.0647 183.729 46.176 184.071C50.4818 184.421 54.8055 184.496 59.1207 184.294C61.3669 184.183 63.6657 183.966 65.9972 183.637C68.3287 183.309 70.6996 182.908 73.0836 182.396C75.4677 181.884 77.8646 181.286 80.2618 180.623C82.659 179.96 85.0561 179.224 87.4467 178.429C89.8373 177.635 92.2216 176.801 94.5925 175.927C96.9634 175.054 99.3146 174.134 101.653 173.188C103.991 172.243 106.309 171.271 108.588 170.279C110.867 169.287 113.113 168.309 115.313 167.258C117.513 166.207 119.687 165.215 121.802 164.197C123.917 163.179 125.992 162.175 128.015 161.163C132.074 159.14 135.935 157.199 139.6 155.338C143.265 153.477 146.737 151.726 150.016 150.084C153.3 148.448 156.42 146.938 159.369 145.578C162.317 144.219 165.122 143.004 167.775 141.933C170.428 140.863 172.95 139.963 175.341 139.175C177.732 138.387 180.004 137.776 182.165 137.303C184.199 136.85 186.258 136.521 188.332 136.318C190.176 136.129 192.032 136.096 193.881 136.219C197.159 136.417 200.392 137.081 203.483 138.19C206.298 139.239 208.969 140.643 211.43 142.367C213.764 144.022 215.981 145.836 218.063 147.798C220.034 149.834 221.918 151.863 223.626 153.906C225.333 155.948 226.91 157.945 228.361 159.863C229.813 161.781 231.126 163.593 232.302 165.281C234.686 168.644 236.557 171.33 237.845 173.162C239.132 174.995 239.815 175.967 239.815 175.967L238.311 168.539C237.858 166.306 237.339 163.679 236.768 160.855C236.196 158.03 235.599 155.003 234.988 151.975C234.377 148.947 233.76 145.926 233.175 143.109C232.591 140.291 232.033 137.671 231.54 135.458C230.548 131.024 229.846 128.135 229.846 128.135C229.846 128.135 229.038 127.156 227.468 125.429C225.278 123.052 222.899 120.856 220.355 118.861C218.65 117.525 216.812 116.368 214.871 115.407C212.648 114.297 210.297 113.463 207.87 112.924C205.026 112.298 202.11 112.055 199.201 112.202C195.669 112.393 192.171 112.994 188.778 113.995C184.573 115.233 180.471 116.799 176.51 118.677C174.31 119.689 171.998 120.878 169.575 122.198C167.151 123.518 164.629 124.963 161.976 126.552C159.322 128.141 156.538 129.836 153.602 131.681C150.666 133.527 147.56 135.477 144.289 137.54C141.019 139.602 137.551 141.762 133.873 144.002C132.034 145.119 130.143 146.248 128.199 147.391C126.255 148.534 124.256 149.683 122.203 150.839C120.154 151.995 118.052 153.142 115.898 154.28C113.744 155.419 111.537 156.544 109.278 157.656C107.025 158.766 104.713 159.843 102.362 160.881C100.01 161.919 97.6199 162.923 95.1899 163.869C92.7599 164.815 90.3037 165.715 87.8277 166.549C85.3517 167.383 82.8561 168.138 80.3538 168.828C77.8516 169.517 75.3426 170.102 72.847 170.621C70.3513 171.139 67.8752 171.396 65.419 171.593C63.0164 171.793 60.6046 171.861 58.1946 171.796C55.8368 171.73 53.512 171.553 51.2396 171.264C48.9672 170.975 46.7409 170.607 44.5736 170.194C42.4063 169.78 40.2848 169.34 38.1897 168.88C34.0259 167.908 29.9803 166.91 26.0791 165.852C22.178 164.795 18.4214 163.718 14.8289 162.667C11.2364 161.616 7.81487 160.644 4.49166 159.718C2.99863 159.324 1.53377 158.948 0.0976562 158.589V178.062C1.98912 178.075 3.99233 178.108 6.10053 178.232Z" fill="#ACDBDB"/>
        <path d="M15.0517 148.395C18.7624 149.708 22.5915 150.962 26.5123 152.197C30.4332 153.432 34.4789 154.601 38.6165 155.691C42.7541 156.781 46.9835 157.767 51.2656 158.627C53.4394 159.008 55.6199 159.323 57.8332 159.533C60.0699 159.754 62.3176 159.847 64.5649 159.809C66.8591 159.766 69.1487 159.586 71.4215 159.271C73.707 158.955 76.0189 158.515 78.2716 157.99C80.5243 157.464 82.8294 156.749 85.0624 156.02C87.2954 155.291 89.5087 154.502 91.6826 153.636C93.8565 152.769 96.0039 151.862 98.1056 150.91C100.207 149.958 102.27 148.94 104.286 147.915C106.302 146.891 108.279 145.813 110.197 144.73C112.114 143.646 113.999 142.556 115.832 141.446C119.496 139.213 122.966 136.974 126.241 134.727C129.516 132.481 132.612 130.292 135.528 128.16C138.444 126.006 141.215 123.917 143.829 121.927C146.443 119.937 148.959 118.033 151.369 116.226C153.779 114.42 156.091 112.7 158.311 111.104C160.531 109.508 162.691 108.004 164.787 106.598C166.882 105.193 168.924 103.893 170.901 102.658C174.5 100.444 178.216 98.4268 182.033 96.6156C185.132 95.1349 188.321 93.8516 191.582 92.7736C194.153 91.9109 196.789 91.2521 199.463 90.8033C202.931 90.198 206.455 89.9777 209.972 90.1466C212.303 90.3239 213.505 90.521 213.505 90.521C213.505 90.521 212.054 88.9381 209.722 86.8693C206.909 84.454 203.766 82.4507 200.389 80.9191C197.046 79.4046 193.537 78.2849 189.934 77.5827C186.952 77.0245 184.923 76.7881 184.923 76.7881C184.923 76.7881 183.209 77.5762 180.004 79.2049C178.392 80.0193 176.422 81.1008 174.093 82.4494C171.788 83.8023 169.154 85.4113 166.212 87.2962C163.269 89.1811 160.051 91.4535 156.538 94.1003C154.786 95.4138 152.961 96.8302 151.06 98.3495C149.16 99.8688 147.201 101.463 145.182 103.131C143.159 104.821 141.058 106.594 138.877 108.45C136.697 110.307 134.444 112.24 132.119 114.25C129.788 116.22 127.299 118.335 124.658 120.463C122.018 122.591 119.214 124.745 116.226 126.899C113.238 129.053 110.078 131.168 106.735 133.217C103.393 135.266 99.892 137.223 96.2273 139.023C92.4994 140.841 88.6736 142.45 84.767 143.843C80.8311 145.167 76.7876 146.147 72.6824 146.772C68.5895 147.366 64.4413 147.479 60.3223 147.107C56.1923 146.644 52.0949 145.924 48.0539 144.953C43.9689 143.988 39.9168 142.871 35.9106 141.669C31.9044 140.468 27.9638 139.161 24.0889 137.821C20.214 136.481 16.4047 135.135 12.6678 133.801C8.93081 132.468 5.23989 131.174 1.5686 129.861L0.117188 129.375V143.305C1.48982 143.758 2.86891 144.218 4.28094 144.697L15.0517 148.395Z" fill="#ACDBDB"/>
        <path d="M10.9005 119.301L21.3102 122.873C24.791 124.069 28.2652 125.231 31.7131 126.335C35.1611 127.438 38.5828 128.476 42.0045 129.428C45.4262 130.38 48.8284 131.227 52.2042 131.91C55.526 132.589 58.8859 133.065 62.2656 133.336C68.8722 133.747 75.4975 132.916 81.7978 130.886C84.8795 129.848 87.897 128.629 90.8347 127.234C93.669 125.872 96.433 124.369 99.1163 122.729C101.743 121.12 104.233 119.445 106.577 117.718C108.922 115.991 111.129 114.25 113.191 112.516C115.253 110.783 117.23 109.075 119.102 107.413C120.973 105.752 122.793 104.13 124.52 102.58C127.974 99.4534 131.133 96.603 133.977 94.0811C136.821 91.5591 139.389 89.3261 141.628 87.4215C143.868 85.5169 145.799 83.921 147.369 82.6666C150.508 80.1578 152.202 78.8574 152.202 78.8574C152.202 78.8574 150.232 79.1923 147.375 79.7243C144.518 80.2563 140.749 80.9787 137.117 81.6946C133.485 82.4105 129.971 83.0475 127.41 83.4744C124.848 83.9013 123.187 84.1311 123.187 84.1311C123.187 84.1311 121.341 85.8059 117.933 88.873C116.238 90.4098 114.15 92.2684 111.7 94.3963C109.25 96.5242 106.446 98.8885 103.274 101.371C99.8617 104.047 96.3104 106.539 92.6344 108.838C90.6213 110.095 88.5356 111.231 86.3884 112.24C84.1423 113.302 81.8352 114.23 79.4793 115.019C74.4892 116.631 69.2524 117.345 64.0127 117.127C61.2246 117.007 58.4446 116.74 55.6849 116.326C52.8542 115.905 49.9645 115.386 46.996 114.782C44.0274 114.178 40.9735 113.469 37.8671 112.72C34.7606 111.971 31.5883 111.117 28.3636 110.224C25.1389 109.331 21.8551 108.372 18.5122 107.374L8.29299 104.32C5.574 103.506 2.81574 102.698 0.0507812 101.903V115.695L0.530203 115.846C4.00446 116.949 7.45904 118.112 10.9005 119.301Z" fill="#ACDBDB"/>
        <path d="M12.8267 90.7973C15.7033 91.4497 18.5206 92.0693 21.279 92.656C24.0373 93.2427 26.7411 93.79 29.39 94.2979C32.017 94.8101 34.6441 95.2829 37.1727 95.7033C39.7012 96.1236 42.1838 96.5111 44.5875 96.8461C47.1292 97.2007 49.6118 97.5028 52.0024 97.7393C54.2914 97.9733 56.5906 98.0916 58.8916 98.0939C62.9155 98.1092 66.9322 97.753 70.8906 97.0299C74.2585 96.3898 77.5573 95.4288 80.742 94.1599C83.4483 93.0761 86.0809 91.8168 88.6231 90.3901C90.9218 89.0766 92.8922 87.8616 94.5013 86.7648C97.7128 84.5712 99.4597 83.2906 99.4597 83.2906C99.4597 83.2906 98.1461 82.8768 96.1759 82.1281C93.7988 81.1771 91.4999 80.0418 89.2998 78.7326C87.0295 77.3953 84.8368 75.9307 82.7322 74.3455C80.9852 73.032 79.8293 72.0928 79.8293 72.0928C79.8293 72.0928 77.7866 72.9465 74.0497 74.2798C71.7773 75.061 69.4644 75.7187 67.121 76.25C63.9987 76.954 60.8421 77.4955 57.6637 77.8723C54.0515 78.1481 50.0453 78.2664 45.6778 78.2072C43.458 78.1065 41.1505 77.9554 38.7556 77.754C36.3518 77.5504 33.8692 77.3009 31.3144 77.025C29.0814 76.7755 26.7892 76.5128 24.438 76.2172C22.0868 75.9217 19.6765 75.613 17.2136 75.2846C14.7508 74.9562 12.2486 74.6279 9.70035 74.2272C7.15213 73.8266 4.5447 73.4654 1.89139 73.0648L0 72.7758V87.8813L3.98674 88.8008L12.8267 90.7973Z" fill="#ACDBDB"/>
        <path d="M18.9483 57.5977C21.2929 57.775 23.5785 57.9326 25.7853 58.0639C30.1987 58.3201 34.3229 58.4514 38.0402 58.4843C41.7312 58.412 45.0612 58.2413 47.9509 57.972C50.8406 57.7027 53.3033 57.3612 55.2933 56.9869C59.2732 56.2316 61.4735 55.6733 61.4735 55.6733L58.5707 52.9412C56.8237 51.2993 54.492 49.0795 52.1474 46.8399L45.6785 40.6269L42.7164 37.7832C42.7164 37.7832 39.656 38.1707 34.3363 38.637C31.6501 38.7815 28.3727 38.8931 24.6029 38.8997C20.8331 38.9062 16.5577 38.8078 11.9276 38.6304L4.7032 38.3283L0.046875 38.1247V56.0542L5.79994 56.5272C10.3776 56.9081 14.7647 57.2759 18.9483 57.5977Z" fill="#ACDBDB"/>
        <path d="M14.7763 19.5518C20.234 19.4204 23.4851 19.2562 23.4851 19.2562L20.4377 16.3008C18.6053 14.521 16.149 12.1304 13.6927 9.73318C11.2365 7.33601 8.76716 4.89946 6.9151 3.0671L3.8282 0H0.078125V19.4007L5.01024 19.4927C8.7275 19.5321 12.0311 19.5583 14.7763 19.5518Z" fill="#ACDBDB"/>
    </g>
    <defs>
        <clipPath id="clip0_1779_14771">
            <rect width="256.162" height="484.46" fill="white"/>
        </clipPath>
    </defs>
</svg>
