<svg width="426" height="742" viewBox="0 0 426 742" fill="none" xmlns="http://www.w3.org/2000/svg">
    <g clip-path="url(#clip0_1779_14755)">
        <path d="M316.688 717.379C311.953 718.305 307.112 719.284 302.686 720.177L291.521 722.449L286.996 723.362C286.996 723.362 288.224 724.374 290.043 725.93C291.862 727.487 294.22 729.634 296.506 731.887C298.791 734.14 301.011 736.484 302.64 738.336C304.269 740.188 305.339 741.449 305.339 741.449L311.25 737.082C313.023 735.768 315.112 734.192 317.371 732.485C319.63 730.777 322.047 728.925 324.504 727.027C326.96 725.129 329.41 723.204 331.728 721.359C334.046 719.513 336.227 717.773 338.105 716.249C341.862 713.202 344.39 711.12 344.39 711.12C344.39 711.12 338.328 712.696 330.158 714.568C326.047 715.507 321.404 716.453 316.688 717.379Z" fill="#ACDBDB"/>
        <path d="M407.611 654.599C405.28 654.488 402.764 654.428 400.091 654.448C397.418 654.468 394.594 654.599 391.646 654.862C388.697 655.125 385.63 655.519 382.451 656.129C379.272 656.74 375.975 657.502 372.6 658.467C369.224 659.433 365.782 660.543 362.295 661.686C358.808 662.828 355.301 664.05 351.741 665.206C348.181 666.362 344.575 667.504 340.917 668.66C337.259 669.816 333.542 670.992 329.799 672.187C326.055 673.382 322.279 674.565 318.515 675.74C314.752 676.916 310.989 678.065 307.272 679.175C303.554 680.285 299.87 681.356 296.291 682.341C292.711 683.326 289.217 684.239 285.848 685.066C282.479 685.894 279.241 686.623 276.167 687.234C273.094 687.844 270.204 688.357 267.518 688.764C264.832 689.171 262.375 689.421 260.188 689.572C255.656 689.793 251.115 689.71 246.594 689.322C246.594 689.322 247.625 690.819 249.306 692.875C251.335 695.293 253.541 697.557 255.906 699.646C258.428 701.879 261.009 703.974 262.967 705.492C264.924 707.009 266.25 707.987 266.25 707.987C266.25 707.987 268.3 707.639 271.892 706.956C275.485 706.273 280.568 705.222 286.649 703.856C289.67 703.199 292.935 702.392 296.35 701.551C299.765 700.71 303.325 699.811 306.963 698.884C310.602 697.958 314.319 696.98 318.036 696.014C321.753 695.049 325.464 694.077 329.102 693.144C332.741 692.212 336.327 691.279 339.867 690.314C343.407 689.348 346.835 688.344 350.158 687.339C353.481 686.334 356.686 685.296 359.707 684.304C362.729 683.313 365.572 682.374 368.153 681.677C373.309 680.226 377.551 679.261 380.513 678.702C383.475 678.144 385.157 677.901 385.157 677.901C385.157 677.901 387.692 676.147 391.495 673.698C395.297 671.248 400.413 668.279 405.589 665.633C410.764 662.986 416.011 660.654 420.037 659.065C422.159 658.218 423.892 657.541 425.075 657.095V656.208C423.045 655.978 419.243 655.551 414.1 655.059C412.11 654.895 409.95 654.711 407.611 654.599Z" fill="#ACDBDB"/>
        <path d="M411.19 614.267C406.941 613.978 402.652 613.873 398.259 613.985C393.865 614.097 389.484 614.425 385.124 614.924C380.763 615.423 376.376 616.093 372.08 616.894C367.785 617.696 363.542 618.694 359.359 619.837C355.175 620.979 351.044 622.273 346.986 623.698C342.927 625.124 338.953 626.647 335.039 628.23C331.125 629.813 327.243 631.409 323.388 632.965C319.533 634.522 315.678 636.039 311.829 637.49C307.981 638.942 304.152 640.308 300.375 641.562C296.599 642.817 292.895 643.946 289.296 644.899C285.884 645.825 282.422 646.554 278.926 647.079C275.852 647.56 272.733 647.673 269.633 647.414C266.935 647.156 264.284 646.535 261.751 645.569C259.411 644.676 257.217 643.439 255.243 641.897C251.558 638.967 248.419 635.409 245.969 631.389C243.798 627.856 242.019 624.097 240.663 620.178C238.292 613.177 237.235 608.908 237.235 608.908C237.235 608.908 236.913 612.126 236.578 616.868C236.414 619.232 236.276 621.958 236.184 624.835C236.092 627.711 236.039 630.745 236.039 633.688C236.039 639.599 236.203 645.273 236.446 649.332C236.689 653.391 236.932 655.985 236.932 655.985C239.591 658.958 242.546 661.652 245.753 664.024C248.695 666.276 252.813 667.964 257.988 669.015C260.911 669.474 263.878 669.593 266.828 669.37C270.335 669.109 273.823 668.631 277.271 667.938C280.948 667.222 284.803 666.296 288.757 665.225C292.711 664.155 296.756 662.96 300.868 661.666C304.979 660.372 309.156 658.993 313.346 657.548C317.536 656.103 321.766 654.599 325.976 653.056C330.186 651.512 334.382 649.969 338.54 648.419C342.697 646.869 346.822 645.345 350.893 643.868C354.965 642.39 359.103 641.103 363.234 639.874C367.365 638.646 371.529 637.556 375.712 636.591C379.896 635.625 384.106 634.87 388.269 634.351C392.333 633.84 396.423 633.568 400.518 633.537C404.504 633.537 408.399 633.675 412.163 633.977C415.926 634.279 419.597 634.679 423.104 635.165L425.074 635.448V615.745C424.634 615.679 424.201 615.607 423.761 615.548C419.623 615.003 415.453 614.556 411.19 614.267Z" fill="#ACDBDB"/>
        <path d="M397.327 576.608C392.474 576.608 387.66 576.753 382.878 577.081C378.097 577.409 373.382 577.895 368.705 578.506C364.029 579.117 359.399 579.82 354.848 580.687C350.297 581.554 345.844 582.434 341.542 583.373C337.24 584.312 333.083 585.271 329.096 586.23C325.11 587.189 321.301 588.128 317.662 589.027C314.024 589.927 310.556 590.735 307.246 591.444C303.936 592.154 300.797 592.712 297.822 593.093C295.056 593.449 292.267 593.581 289.481 593.487C287.015 593.401 284.573 592.974 282.224 592.219C280.014 591.494 277.95 590.382 276.129 588.936C274.223 587.407 272.577 585.579 271.256 583.524C269.746 581.187 268.526 578.675 267.624 576.043C266.617 573.124 265.766 570.154 265.075 567.144C264.359 564.057 263.762 560.859 263.335 557.588C262.908 554.318 262.534 551.021 262.251 547.809C261.969 544.598 261.772 541.406 261.595 538.319C261.417 535.232 261.325 532.283 261.22 529.499C261.115 526.714 261.036 524.087 260.964 521.618C260.826 516.725 260.668 512.581 260.465 509.277C260.058 502.637 259.71 499.091 259.71 499.091C259.71 499.091 258.954 502.276 257.739 507.156C257.129 509.599 256.426 512.495 255.612 515.694C254.797 518.892 253.983 522.261 253.142 525.768C252.301 529.275 251.481 532.802 250.719 536.139C249.957 539.475 249.254 542.621 248.669 545.333C247.494 550.732 246.699 554.318 246.699 554.318C246.699 554.318 246.969 559.152 247.625 567.643C247.947 571.886 248.492 576.884 249.339 582.381C249.76 585.126 250.298 587.937 250.968 590.774C251.638 593.612 252.433 596.469 253.379 599.312C254.302 602.094 255.455 604.794 256.827 607.384C258.14 609.88 259.719 612.227 261.536 614.385C263.27 616.448 265.348 618.197 267.676 619.554C270.019 620.912 272.593 621.823 275.268 622.24C278.195 622.672 281.165 622.736 284.108 622.43C287.425 622.098 290.715 621.534 293.953 620.742C297.388 619.902 300.935 618.858 304.593 617.636C308.251 616.414 312.014 615.009 315.909 613.544C319.803 612.08 323.829 610.51 327.993 608.947C332.157 607.384 336.465 605.906 340.905 604.514C345.345 603.122 349.922 601.847 354.598 600.711C359.274 599.575 364.049 598.597 368.89 597.795C373.73 596.994 378.629 596.383 383.542 595.963C388.454 595.543 393.393 595.306 398.411 595.26C403.428 595.214 408.433 595.346 413.438 595.726C417.332 596.022 421.194 596.455 425.029 596.994V578.973C420.642 578.316 416.262 577.784 411.894 577.37C407.054 576.904 402.181 576.641 397.327 576.608Z" fill="#ACDBDB"/>
        <path d="M410.855 539.403C406.065 539.127 401.249 538.965 396.406 538.917C391.572 538.871 386.739 538.917 381.957 539.088C377.176 539.258 372.447 539.442 367.883 539.62C363.318 539.797 358.958 539.928 354.8 539.974C350.643 540.02 346.663 539.974 342.906 539.764C339.15 539.554 335.603 539.232 332.287 538.74C329.177 538.297 326.104 537.627 323.092 536.736C320.447 535.951 317.893 534.885 315.474 533.558C313.264 532.339 311.233 530.82 309.438 529.046C307.67 527.283 306.142 525.296 304.893 523.135C303.566 520.84 302.466 518.42 301.609 515.911C300.681 513.201 299.91 510.44 299.298 507.642C298.641 504.739 298.056 501.731 297.472 498.618C296.887 495.505 296.27 492.353 295.574 489.128C294.878 485.903 294.057 482.659 293.078 479.415C292.095 476.137 290.944 472.913 289.63 469.754C288.305 466.574 286.781 463.481 285.066 460.493C283.381 457.531 281.452 454.715 279.299 452.074C277.22 449.527 274.947 447.145 272.502 444.948C270.193 442.87 267.703 441.004 265.061 439.372C262.568 437.825 259.941 436.507 257.212 435.431C254.66 434.425 252.023 433.652 249.331 433.119C244.628 432.158 239.833 431.718 235.034 431.806C226.607 432.042 221.898 432.607 221.898 432.607C221.898 432.607 225.425 432.844 230.318 433.665C235.741 434.599 240.957 436.482 245.726 439.227C249.895 441.715 253.582 444.934 256.608 448.731C258.651 452.014 259.794 454.28 259.794 454.28C262.061 456.638 264.161 459.151 266.079 461.8C268.291 464.905 270.106 468.274 271.484 471.829C273.325 476.494 274.683 481.335 275.536 486.278C276.035 489.01 276.449 491.886 276.79 494.888C277.132 497.889 277.401 501.009 277.631 504.214C277.861 507.419 278.038 510.735 278.222 514.065C278.406 517.395 278.629 520.804 278.912 524.192C279.194 527.581 279.568 530.885 280.133 534.083C280.639 537.156 281.355 540.191 282.274 543.166C283.103 545.862 284.215 548.461 285.591 550.922C286.833 553.136 288.406 555.147 290.254 556.886C292.055 558.549 294.119 559.902 296.362 560.892C298.786 561.941 301.332 562.682 303.941 563.099C306.909 563.571 309.907 563.831 312.912 563.874C316.15 563.913 319.611 563.821 323.276 563.611C326.941 563.401 330.829 563.105 334.901 562.731C338.972 562.357 343.255 561.923 347.694 561.418C352.134 560.912 356.744 560.4 361.486 559.841C366.228 559.283 371.095 558.784 376.04 558.403C380.985 558.022 385.996 557.792 391.054 557.746C396.111 557.7 401.174 557.786 406.231 558.088C411.288 558.39 416.293 558.876 421.264 559.474C422.545 559.657 423.813 559.861 425.087 560.058V540.579H425.054C420.338 540.066 415.623 539.679 410.855 539.403Z" fill="#ACDBDB"/>
        <path d="M402.974 500.589C398.771 500.53 394.601 500.353 390.496 500.031C386.547 499.673 382.62 499.099 378.733 498.31C375.06 497.557 371.45 496.521 367.936 495.21C364.527 493.931 361.241 492.347 358.118 490.475C354.919 488.553 351.876 486.383 349.015 483.986C345.923 481.404 342.966 478.663 340.155 475.777C337.2 472.762 334.192 469.472 331.086 465.925C327.979 462.379 324.754 458.524 321.346 454.458C319.643 452.423 317.891 450.349 316.092 448.239C314.292 446.129 312.434 443.985 310.516 441.809C308.607 439.62 306.637 437.477 304.605 435.38C302.576 433.265 300.494 431.203 298.326 429.193C296.159 427.183 293.933 425.252 291.621 423.486C289.322 421.696 286.921 420.043 284.429 418.534C281.958 417.048 279.388 415.732 276.739 414.593C274.075 413.453 271.334 412.502 268.536 411.749C265.669 410.982 262.752 410.413 259.807 410.048C256.756 409.676 253.686 409.481 250.613 409.464C247.478 409.464 244.295 409.586 241.064 409.832C237.832 410.077 234.573 410.464 231.284 410.994C228.001 411.506 224.717 412.091 221.433 412.735C218.149 413.378 214.937 414.087 211.739 414.849C208.541 415.611 205.415 416.412 202.334 417.246C199.254 418.081 196.226 418.928 193.264 419.795C190.302 420.662 187.413 421.522 184.595 422.369L176.386 424.852C171.073 426.454 166.088 427.958 161.431 429.305C156.775 430.651 152.434 431.932 148.421 433.041C144.408 434.151 140.711 435.202 137.315 436.109C133.92 437.015 130.787 437.81 127.917 438.506C125.047 439.202 122.433 439.819 120.036 440.325C115.303 441.358 111.461 442.146 108.51 442.689C102.599 443.799 99.6172 444.298 99.6172 444.298C99.6172 444.298 102.599 444.725 107.308 445.113C109.659 445.31 112.516 445.435 115.675 445.467C118.834 445.5 122.308 445.415 125.894 445.205C129.48 444.995 133.204 444.673 136.764 444.272C140.323 443.872 143.725 443.425 146.7 442.959C152.657 442.052 156.729 441.363 156.729 441.363C156.729 441.363 161.523 439.76 170.81 436.726C173.135 435.964 175.775 435.091 178.691 434.138C181.607 433.186 184.884 432.129 188.431 430.992C191.977 429.856 195.813 428.7 199.911 427.538C204.009 426.375 208.37 425.252 212.941 424.254C217.512 423.256 222.32 422.349 227.245 421.693C232.193 421.016 237.18 420.661 242.173 420.629C247.069 420.59 251.955 421.043 256.76 421.982C261.416 422.907 265.936 424.421 270.211 426.487C274.479 428.569 278.49 431.142 282.163 434.151C285.881 437.208 289.329 440.578 292.468 444.226C295.556 447.782 298.439 451.509 301.105 455.391C303.732 459.194 306.07 462.99 308.204 466.694C310.339 470.398 312.276 473.991 314.049 477.445C315.822 480.9 317.464 484.177 319.034 487.257C320.604 490.337 322.147 493.227 323.743 495.9C325.262 498.479 326.989 500.93 328.905 503.229C330.769 505.432 332.877 507.415 335.19 509.14C337.622 510.954 340.245 512.496 343.012 513.738C346.106 515.111 349.315 516.21 352.601 517.021C356.353 517.959 360.161 518.657 364.002 519.11C368.101 519.616 372.455 519.957 377.026 520.154C381.597 520.351 386.345 520.391 391.172 520.377C396 520.364 400.847 520.377 405.654 520.377C410.462 520.377 415.236 520.502 419.919 520.627C421.62 520.666 423.295 520.719 424.969 520.771V500.077C421.83 500.254 418.658 500.405 415.413 500.484C411.361 500.616 407.158 500.629 402.974 500.589Z" fill="#ACDBDB"/>
        <path d="M422.089 437.73C420.142 439.473 417.992 440.975 415.686 442.203C413.261 443.489 410.721 444.546 408.1 445.362C402.199 447.335 395.961 448.103 389.757 447.621C386.145 447.392 382.558 446.852 379.039 446.006C375.089 445.088 371.223 443.842 367.48 442.282C363.208 440.462 359.078 438.324 355.126 435.885C353.005 434.572 350.851 433.159 348.664 431.603C346.477 430.046 344.244 428.378 341.978 426.592C339.712 424.805 337.42 422.907 335.088 420.931C332.757 418.954 330.367 416.905 327.936 414.796C325.506 412.688 323.011 410.56 320.456 408.413C317.901 406.265 315.274 404.15 312.575 402.114C309.876 400.078 307.163 398.174 304.345 396.348C301.528 394.533 298.607 392.884 295.597 391.409C289.484 388.421 282.929 386.438 276.184 385.538C272.649 385.058 269.085 384.825 265.518 384.842C261.776 384.862 258.038 385.081 254.32 385.498C250.517 385.906 246.662 386.457 242.761 387.127C238.86 387.797 234.933 388.552 230.992 389.4C227.051 390.247 223.111 391.147 219.17 392.086C215.23 393.025 211.375 393.984 207.526 394.943C203.677 395.901 199.888 396.847 196.164 397.806L185.229 400.617C181.665 401.532 178.195 402.408 174.819 403.244C171.444 404.08 168.16 404.833 164.968 405.503C161.798 406.199 158.733 406.826 155.773 407.382C152.798 407.94 149.909 408.439 147.124 408.873C141.555 409.739 136.36 410.429 131.539 410.908C126.718 411.388 122.239 411.651 118.075 411.775C113.977 411.775 110.122 411.692 106.51 411.526C102.897 411.359 99.5481 411.081 96.4614 410.692C93.3746 410.311 90.4781 409.877 87.7526 409.378C85.027 408.879 82.4985 408.4 80.0751 407.881C75.2807 406.837 70.9987 405.819 67.1172 404.958C63.2358 404.098 59.7486 403.395 56.6553 402.837C50.4751 401.72 45.7529 400.972 42.5939 400.545C39.4349 400.118 37.793 399.927 37.793 399.927C37.793 399.927 39.3626 401.543 41.7335 403.999C44.1044 406.456 47.224 409.753 50.3699 413.095C53.5157 416.438 56.655 419.814 59.0588 422.349C61.4625 424.884 63.1241 426.539 63.1241 426.539C63.1241 426.539 65.0946 426.802 68.9432 427.282C70.8741 427.525 73.3631 427.787 76.4302 428.043C79.4973 428.299 83.1883 428.51 87.5951 428.615C92.002 428.72 97.2036 428.654 103.325 428.332C106.39 428.17 109.741 427.901 113.379 427.525C117.018 427.15 120.952 426.651 125.201 425.994C129.45 425.337 134.081 424.503 139.052 423.479C144.024 422.454 149.383 421.259 155.123 419.913C157.991 419.243 160.968 418.505 164.055 417.699C167.142 416.894 170.325 416.038 173.604 415.131C176.897 414.225 180.284 413.279 183.765 412.294L194.456 409.299C198.108 408.288 201.83 407.296 205.621 406.324C209.413 405.352 213.244 404.424 217.115 403.54C220.99 402.646 224.897 401.806 228.798 401.044C232.7 400.282 236.588 399.632 240.43 399.074C244.272 398.515 248.055 398.174 251.772 397.977C255.399 397.767 259.034 397.767 262.661 397.977C266.124 398.177 269.568 398.629 272.966 399.33C276.269 400.008 279.511 400.957 282.659 402.167C285.807 403.386 288.855 404.848 291.775 406.541C294.732 408.254 297.583 410.142 300.313 412.196C303.058 414.249 305.718 416.412 308.293 418.684C310.874 420.95 313.396 423.282 315.872 425.692C318.348 428.102 320.758 430.473 323.096 432.838C325.434 435.202 327.792 437.507 330.084 439.766C332.376 442.026 334.589 444.114 336.803 446.17C339.016 448.225 341.21 450.189 343.37 452.081C345.531 453.972 347.678 455.686 349.813 457.335C351.947 458.983 354.062 460.507 356.184 461.932C360.226 464.614 364.43 467.042 368.774 469.202C372.82 471.049 376.989 472.611 381.252 473.879C385.221 475.025 389.272 475.868 393.369 476.401C397.257 476.823 401.17 476.979 405.079 476.867C408.749 476.75 412.41 476.439 416.047 475.934C419.16 475.507 422.122 474.929 424.999 474.259V434.663C424.103 435.754 423.131 436.779 422.089 437.73Z" fill="#ACDBDB"/>
        <path d="M412.57 307.166C410.511 308.692 408.67 310.493 407.099 312.519C405.453 314.661 403.982 316.932 402.699 319.31C401.385 321.74 400.105 324.275 398.889 326.849C397.674 329.424 396.598 332.208 395.52 334.98C394.443 337.751 393.393 340.529 392.302 343.216C391.212 345.902 390.056 348.47 388.809 350.834C387.641 353.09 386.257 355.228 384.677 357.218C383.214 359.025 381.56 360.669 379.745 362.124C377.988 363.523 376.07 364.708 374.031 365.65C371.956 366.594 369.797 367.339 367.582 367.877C365.22 368.465 362.792 368.748 360.357 368.718C359.025 368.693 357.694 368.598 356.371 368.435C355.012 368.271 353.613 368.061 352.181 367.778C350.749 367.496 349.278 367.2 347.767 366.839C346.257 366.478 344.707 366.045 343.111 365.526C341.515 365.007 339.86 364.481 338.172 363.884C336.484 363.286 334.75 362.643 332.977 361.953C331.204 361.263 329.372 360.554 327.5 359.838C325.628 359.122 323.704 358.4 321.707 357.684C319.711 356.968 317.662 356.279 315.54 355.622C313.419 354.965 311.225 354.361 308.973 353.816C306.72 353.271 304.375 352.798 301.952 352.417C299.529 352.036 297.033 351.76 294.471 351.563C291.91 351.366 289.171 351.313 286.406 351.366C283.641 351.419 280.804 351.589 277.868 351.878C274.933 352.167 271.925 352.535 268.845 353.074C265.764 353.612 262.612 354.197 259.401 354.899C256.189 355.602 252.938 356.37 249.641 357.185C246.344 357.999 243.021 358.86 239.658 359.746C236.296 360.633 232.939 361.519 229.597 362.373C226.254 363.227 222.924 364.074 219.62 364.895C216.317 365.716 213.053 366.498 209.861 367.253C206.669 368.008 203.484 368.731 200.364 369.42C197.245 370.11 194.191 370.734 191.17 371.331C188.149 371.929 185.213 372.448 182.336 372.934C179.46 373.42 176.649 373.867 173.903 374.247C171.158 374.628 168.492 375.009 165.878 375.318C160.657 375.975 155.665 376.382 150.871 376.632C146.077 376.881 141.479 376.96 137.079 376.875C132.679 376.789 128.469 376.553 124.43 376.152C120.391 375.751 116.549 375.2 112.838 374.51C109.127 373.821 105.613 373.039 102.225 372.205C98.8357 371.371 95.6111 370.497 92.4784 369.65L83.3626 367.194C80.4116 366.406 77.5656 365.655 74.8248 364.941C69.308 363.516 64.1457 362.248 59.371 361.139C54.5964 360.029 50.2093 359.07 46.19 358.223C42.1706 357.375 38.473 356.725 35.2745 356.134C28.8186 354.945 23.8994 354.131 20.6222 353.625L15.6442 352.883C15.6442 352.883 11.572 355.018 7.61174 357.27C3.75656 359.648 0 362.157 0 362.157C0 362.157 3.19181 365.289 6.36396 368.422L12.7084 374.674C12.7084 374.674 14.3044 374.806 17.3846 375.088C20.4648 375.371 25.0489 375.85 31.0976 376.638C34.1187 377.032 37.5403 377.558 41.3364 378.201C45.1325 378.845 49.3029 379.626 53.8149 380.546C58.3268 381.465 63.2789 382.555 68.5724 383.83C71.1994 384.469 73.9447 385.156 76.8082 385.892C79.6519 386.627 82.5942 387.409 85.6481 388.217C88.7021 389.025 91.8807 389.819 95.217 390.575C98.5534 391.33 102.067 392.019 105.765 392.63C109.462 393.241 113.35 393.74 117.462 394.101C121.573 394.463 125.947 394.646 130.597 394.64C135.247 394.633 140.192 394.436 145.472 394.042C148.099 393.845 150.829 393.58 153.662 393.248C156.495 392.915 159.393 392.516 162.358 392.052C165.348 391.588 168.433 391.052 171.612 390.443C174.79 389.835 178.061 389.178 181.423 388.473C184.79 387.75 188.238 386.982 191.767 386.168C195.296 385.353 198.895 384.502 202.565 383.613C206.229 382.72 209.953 381.794 213.729 380.861C217.506 379.928 221.308 378.976 225.163 378.05C229.019 377.124 232.894 376.205 236.755 375.331C240.617 374.458 244.472 373.63 248.295 372.881C252.117 372.133 255.893 371.469 259.604 370.951C263.315 370.432 266.96 370.077 270.519 369.926C273.967 369.767 277.421 369.813 280.863 370.064C284.129 370.3 287.374 370.76 290.577 371.443C293.668 372.109 296.709 372.987 299.68 374.07C302.564 375.127 305.39 376.337 308.145 377.695C310.864 379.035 313.491 380.463 316.026 381.978C318.561 383.488 321.018 385.064 323.402 386.647C325.786 388.23 328.097 389.806 330.35 391.33C332.603 392.853 334.783 394.311 336.918 395.691C339.052 397.07 341.114 398.383 343.131 399.598C345.147 400.813 347.111 401.93 349.042 402.961C350.972 403.992 352.831 404.931 354.657 405.818C356.483 406.705 358.256 407.433 359.99 408.077C361.647 408.698 363.335 409.235 365.047 409.686C366.625 410.106 368.226 410.437 369.841 410.678C372.773 411.116 375.738 411.285 378.701 411.184C381.399 411.094 384.085 410.786 386.733 410.264C389.169 409.676 391.525 408.794 393.747 407.637C395.903 406.496 397.932 405.131 399.802 403.565C401.666 401.877 403.352 400.002 404.833 397.97C406.396 395.728 407.752 393.35 408.886 390.863C410.146 388.107 411.243 385.278 412.169 382.391C413.161 379.37 414.094 376.231 415.033 373.059C415.972 369.887 416.951 366.734 418.008 363.654C419.021 360.671 420.192 357.745 421.515 354.886C422.59 352.586 423.785 350.343 425.094 348.168V302.194C423.235 302.563 421.404 303.066 419.617 303.698C417.132 304.554 414.764 305.719 412.57 307.166Z" fill="#ACDBDB"/>
        <path d="M409.541 250.449C405.496 249.385 401.575 248.393 397.864 247.592C394.154 246.791 390.64 246.199 387.356 245.799C384.308 245.406 381.235 245.228 378.162 245.267C375.523 245.299 372.895 245.62 370.326 246.226C368.087 246.79 365.918 247.601 363.857 248.643C362.05 249.729 360.334 250.961 358.728 252.327C357.22 253.73 355.801 255.226 354.479 256.806C353.165 258.363 351.937 259.972 350.761 261.633C349.586 263.295 348.443 264.996 347.313 266.723C346.184 268.451 345.041 270.171 343.826 271.813C342.656 273.5 341.396 275.123 340.05 276.673C338.701 278.226 337.244 279.681 335.689 281.027C334.089 282.414 332.373 283.659 330.56 284.751C328.708 285.881 326.704 286.919 324.603 287.937C322.501 288.955 320.268 289.966 317.897 290.951C315.526 291.936 313.004 292.889 310.344 293.847C307.684 294.806 304.887 295.772 301.958 296.803C299.028 297.834 295.968 298.931 292.822 300.146C289.676 301.361 286.478 302.681 283.155 304.086C279.831 305.492 276.403 306.989 272.843 308.546C269.284 310.102 265.619 311.731 261.816 313.419C258.014 315.107 254.119 316.834 250.113 318.581C246.107 320.328 242.009 322.068 237.825 323.789C233.641 325.51 229.379 327.158 225.058 328.728C220.736 330.298 216.329 331.775 211.922 333.108C207.516 334.442 203.174 335.598 198.846 336.596C194.518 337.594 190.269 338.441 186.098 339.144C181.928 339.847 177.876 340.385 173.935 340.793C169.995 341.2 166.173 341.449 162.488 341.633C158.804 341.817 155.264 341.843 151.927 341.797C148.591 341.751 145.36 341.6 142.339 341.325C139.318 341.049 136.428 340.701 133.656 340.3C130.885 339.899 128.304 339.453 125.841 338.986C120.915 338.001 116.508 336.931 112.581 335.933C108.653 334.934 105.199 334.061 102.224 333.306L94.6908 331.434L88.4975 329.884C88.4975 329.884 86.4155 330.58 83.2434 331.591C80.0712 332.603 75.5791 333.877 71.008 335.105C66.3385 336.307 61.5966 337.515 57.9976 338.435L51.9883 339.972L57.5903 341.285C59.4358 341.725 61.7147 342.27 64.4205 342.94C67.1264 343.61 70.2526 344.398 73.7925 345.311C77.3324 346.224 81.2666 347.281 85.5815 348.378L99.6428 352.049C102.165 352.706 104.785 353.363 107.524 354.072C110.263 354.782 113.08 355.425 116.062 356.043C119.043 356.66 122.11 357.225 125.355 357.704C128.599 358.184 132.014 358.571 135.567 358.886C139.12 359.202 142.871 359.267 146.778 359.293C150.686 359.32 154.778 359.202 159.053 358.952C163.329 358.702 167.729 358.295 172.306 357.776C176.884 357.258 181.633 356.588 186.512 355.767C191.392 354.946 196.364 353.954 201.434 352.831C206.504 351.708 211.653 350.46 216.789 349.107C221.925 347.754 227.048 346.29 232.131 344.753C237.214 343.216 242.271 341.627 247.269 340.031C252.267 338.435 257.173 336.885 261.948 335.433C266.722 333.982 271.339 332.622 275.786 331.434C280.232 330.245 284.488 329.234 288.566 328.432C292.645 327.631 296.546 327.007 300.309 326.462C303.928 326.055 307.468 325.759 310.876 325.621C314.285 325.484 317.562 325.477 320.662 325.516L329.528 325.654C332.339 325.707 335.006 325.654 337.554 325.549C340.102 325.444 342.46 325.162 344.745 324.814C346.907 324.495 349.032 323.964 351.09 323.231C353.057 322.514 354.941 321.589 356.712 320.472C358.463 319.354 360.094 318.058 361.578 316.604C363.097 315.101 364.498 313.482 365.768 311.764C367.094 309.98 368.328 308.13 369.466 306.221C370.628 304.25 371.751 302.234 372.848 300.139C373.945 298.044 375.035 295.91 376.132 293.795C377.229 291.68 378.365 289.598 379.573 287.595C380.728 285.631 382.06 283.778 383.553 282.059C385.009 280.402 386.683 278.953 388.531 277.75C390.477 276.505 392.583 275.528 394.791 274.847C397.295 274.097 399.883 273.656 402.494 273.534C405.521 273.392 408.554 273.423 411.577 273.626C414.947 273.967 418.447 274.394 422.178 274.939L425.067 275.392V254.928L422.512 254.192C417.994 252.839 413.692 251.644 409.541 250.449Z" fill="#ACDBDB"/>
        <path d="M405.826 212.85C401.281 211.3 396.789 209.828 392.389 208.495C387.989 207.162 383.667 205.98 379.412 204.949C375.156 203.918 370.985 203.064 366.933 202.414C362.881 201.763 358.927 201.31 355.052 200.982C351.243 200.791 347.526 200.739 343.927 200.883C340.423 201.022 336.93 201.357 333.465 201.888C330.183 202.395 326.93 203.07 323.718 203.911C320.721 204.762 317.776 205.786 314.898 206.978C312.241 208.08 309.657 209.35 307.161 210.781C304.855 212.105 302.631 213.568 300.502 215.161C298.497 216.657 296.575 218.26 294.742 219.962C292.949 221.624 291.274 223.338 289.698 225.092C288.122 226.845 286.611 228.618 285.173 230.418C283.735 232.217 282.329 234.043 280.943 235.882C279.558 237.721 278.172 239.56 276.76 241.412C275.348 243.264 273.883 245.129 272.327 246.988C270.77 248.847 269.128 250.725 267.368 252.59C265.608 254.455 263.749 256.334 261.792 258.219C259.835 260.103 257.793 261.982 255.658 263.873C253.524 265.765 251.304 267.636 248.992 269.495C246.68 271.354 244.29 273.219 241.833 275.051C239.377 276.884 236.868 278.683 234.287 280.443C231.706 282.203 229.033 283.904 226.367 285.527C223.7 287.149 220.909 288.686 218.131 290.124C215.353 291.562 212.588 292.922 209.869 294.176C207.15 295.431 204.464 296.586 201.784 297.624C199.105 298.662 196.464 299.594 193.864 300.383C191.263 301.171 188.701 301.88 186.18 302.405C181.543 303.396 176.855 304.131 172.138 304.605C167.843 305.019 164.014 305.19 160.684 305.183C157.354 305.177 154.53 305.065 152.225 304.855C147.628 304.435 145.158 304.1 145.158 304.1C145.158 304.1 143.694 305.118 141.428 306.582C139.162 308.047 136.029 309.899 132.89 311.725C129.554 313.38 126.178 315.009 123.617 316.23C121.055 317.452 119.184 318.128 119.184 318.128C119.184 318.128 121.377 318.686 125.561 319.731C127.656 320.256 130.257 320.86 133.357 321.484C136.456 322.108 140.049 322.699 144.134 323.172C148.735 323.691 153.361 323.961 157.991 323.98C160.557 323.98 163.241 323.927 166.043 323.822C168.846 323.717 171.755 323.509 174.772 323.198C177.793 322.909 180.893 322.476 184.084 321.931C187.276 321.386 190.54 320.736 193.87 319.961C197.2 319.186 200.563 318.246 203.951 317.182C207.34 316.118 210.743 314.91 214.138 313.583C217.533 312.257 220.902 310.805 224.245 309.262C227.588 307.719 230.931 306.09 234.235 304.395C237.538 302.701 240.802 300.967 244.014 299.187C247.225 297.407 250.345 295.608 253.386 293.802C256.427 291.996 259.369 290.19 262.246 288.403C265.122 286.617 267.913 284.857 270.626 283.149C273.338 281.442 275.985 279.767 278.54 278.132C281.094 276.496 283.544 274.9 285.882 273.357C288.22 271.813 290.48 270.29 292.529 268.76C294.578 267.229 296.561 265.758 298.393 264.248C300.226 262.737 301.94 261.22 303.549 259.69C305.158 258.159 306.695 256.623 308.146 255.092C309.598 253.562 310.938 251.992 312.245 250.443C313.552 248.893 314.806 247.329 316.021 245.766C317.236 244.203 318.444 242.64 319.666 241.084C320.888 239.527 322.122 237.984 323.436 236.486C324.749 234.989 326.155 233.518 327.652 232.093C329.222 230.675 330.881 229.359 332.617 228.152C334.478 226.879 336.444 225.77 338.495 224.835C340.747 223.807 343.085 222.98 345.483 222.366C348.175 221.673 350.922 221.212 353.693 220.987C356.793 220.734 359.905 220.682 363.012 220.829C366.459 220.989 369.894 221.335 373.303 221.867C376.885 222.423 380.607 223.165 384.468 224.093C388.31 225.006 392.303 226.096 396.441 227.338C400.579 228.579 404.867 229.965 409.268 231.488C413.668 233.012 418.186 234.542 422.849 236.151L425.096 236.913V219.667L419.809 217.788C415.089 216.116 410.428 214.47 405.826 212.85Z" fill="#ACDBDB"/>
        <path d="M402.678 177.332C398.738 176.207 394.797 175.145 390.857 174.147C386.916 173.148 382.976 172.229 379.035 171.388C375.095 170.554 371.154 169.812 367.26 169.182C363.365 168.551 359.464 168.045 355.595 167.664C351.727 167.283 347.898 167.008 344.089 166.935C340.28 166.863 336.497 166.837 332.753 166.981C329.01 167.126 325.299 167.402 321.628 167.809C317.957 168.216 314.331 168.728 310.752 169.365C307.173 170.002 303.639 170.745 300.165 171.592C296.691 172.439 293.269 173.391 289.913 174.422C286.557 175.454 283.267 176.583 280.062 177.779C276.857 178.974 273.678 180.248 270.598 181.588C267.517 182.928 264.529 184.333 261.652 185.824C258.776 187.315 256.011 188.884 253.364 190.513C250.718 192.142 248.215 193.797 245.858 195.557C243.5 197.317 241.26 199.077 239.211 200.89C237.162 202.703 235.205 204.541 233.392 206.394C231.58 208.246 229.872 210.091 228.256 211.93C226.641 213.769 225.117 215.595 223.659 217.388C220.75 220.967 217.998 224.389 215.338 227.6C212.678 230.812 210.084 233.78 207.457 236.493C205.032 239.062 202.462 241.489 199.76 243.763C197.382 245.755 194.857 247.564 192.207 249.175C189.744 250.646 187.485 251.868 185.495 252.853C183.505 253.838 181.771 254.613 180.326 255.164C177.423 256.274 175.814 256.787 175.814 256.787C175.814 256.787 175.348 258.757 174.566 261.607C173.628 264.977 172.503 268.292 171.197 271.538C169.961 274.61 168.509 277.59 166.849 280.456C165.536 282.735 164.551 284.193 164.551 284.193C164.551 284.193 166.771 284.082 170.849 283.668C173.31 283.404 175.755 283.005 178.172 282.473C181.374 281.763 184.538 280.886 187.649 279.846C191.403 278.589 195.074 277.1 198.643 275.386C200.567 274.473 202.538 273.462 204.554 272.358C206.57 271.255 208.534 270.06 210.511 268.773C212.488 267.485 214.451 266.146 216.362 264.661C218.273 263.177 220.191 261.686 222.083 260.103C223.974 258.521 225.774 256.885 227.527 255.197C229.281 253.509 230.982 251.776 232.611 249.989C234.239 248.203 235.816 246.37 237.32 244.505C238.824 242.64 240.301 240.729 241.74 238.805C243.178 236.88 244.61 234.93 246.035 232.966C247.46 231.002 248.911 229.025 250.389 227.055C251.867 225.085 253.404 223.115 255.026 221.112C256.917 218.806 258.966 216.514 261.147 214.255C263.434 211.926 265.845 209.722 268.371 207.655C271.064 205.44 273.879 203.379 276.804 201.481C279.92 199.467 283.147 197.631 286.471 195.984C290.015 194.234 293.65 192.675 297.361 191.314C301.17 189.902 305.117 188.648 309.182 187.558C312.654 186.625 316.216 185.83 319.868 185.174C323.519 184.517 327.241 184.026 331.033 183.702C334.816 183.37 338.664 183.208 342.579 183.216C346.493 183.225 350.455 183.413 354.466 183.781C358.477 184.149 362.54 184.685 366.655 185.39C370.771 186.095 374.931 186.951 379.134 187.958C383.333 188.957 387.562 190.066 391.822 191.288C396.083 192.51 400.38 193.823 404.714 195.229C409.043 196.627 413.384 198.086 417.725 199.563L425.166 202.118V183.952L414.467 180.747C410.501 179.598 406.606 178.448 402.678 177.332Z" fill="#ACDBDB"/>
        <path d="M406.374 141.539L396.214 139.995C392.772 139.479 389.27 138.957 385.706 138.432C382.142 137.907 378.545 137.408 374.915 136.935C371.276 136.462 367.599 136.024 363.881 135.621C360.177 135.214 356.454 134.859 352.717 134.57C348.98 134.281 345.301 134.071 341.617 133.914C337.933 133.756 334.288 133.73 330.663 133.756C327.037 133.782 323.438 133.9 319.905 134.084C316.371 134.268 312.844 134.538 309.396 134.879C305.948 135.221 302.52 135.641 299.144 136.133C295.769 136.626 292.439 137.204 289.155 137.854C285.871 138.504 282.64 139.24 279.448 140.041C276.257 140.842 273.111 141.716 270.011 142.635C266.911 143.555 263.87 144.527 260.888 145.538C257.907 146.55 254.977 147.581 252.114 148.618C249.251 149.656 246.44 150.7 243.701 151.738C240.962 152.776 238.296 153.8 235.708 154.805C233.121 155.81 230.625 156.775 228.214 157.747C223.394 159.672 218.961 161.511 215.033 163.264C211.106 165.018 207.658 166.653 204.748 168.131C201.839 169.608 199.402 170.915 197.485 171.986C193.636 174.127 191.574 175.309 191.574 175.309C191.574 175.309 190.326 178.022 188.73 182.166C186.861 187.19 185.354 192.341 184.218 197.58C182.977 203.215 182.071 208.745 181.539 212.856C181.007 216.967 180.711 219.601 180.711 219.601C180.711 219.601 182.195 218.55 184.875 216.495C186.219 215.461 187.837 214.126 189.728 212.488C191.62 210.86 193.774 208.916 196.191 206.689C198.608 204.463 201.32 201.954 204.361 199.215C207.402 196.476 210.83 193.547 214.705 190.507C218.944 187.21 223.355 184.141 227.919 181.312C230.382 179.769 233.029 178.265 235.8 176.787C238.572 175.309 241.435 173.871 244.403 172.459C247.372 171.047 250.413 169.681 253.533 168.347C256.652 167.014 259.831 165.72 263.075 164.479C266.32 163.238 269.643 162.056 272.973 160.946C276.302 159.836 279.737 158.805 283.198 157.852C286.66 156.9 290.173 156.033 293.707 155.225C297.24 154.418 300.885 153.761 304.543 153.17C308.201 152.579 311.892 152.08 315.636 151.685C319.379 151.291 323.156 151.029 326.971 150.825C330.787 150.622 334.636 150.576 338.517 150.622C342.399 150.668 346.293 150.819 350.227 151.088C354.161 151.357 358.109 151.745 362.049 152.231C365.99 152.717 369.996 153.301 373.976 153.964C377.956 154.628 381.903 155.363 385.837 156.151C389.771 156.94 393.679 157.78 397.54 158.647C401.402 159.514 405.198 160.381 408.929 161.274C412.659 162.167 416.33 162.982 419.936 163.803L424.98 164.932V144.251C422.07 143.857 419.122 143.437 416.107 143.003C412.955 142.539 409.71 142.051 406.374 141.539Z" fill="#ACDBDB"/>
        <path d="M409.853 97.9096L394.484 97.2529C389.184 97.0296 383.727 96.8063 378.184 96.5961C375.412 96.491 372.621 96.3969 369.81 96.3137C366.999 96.2305 364.177 96.1561 361.344 96.0904C358.507 96.016 355.661 95.9525 352.807 95.8999C349.952 95.8474 347.093 95.7971 344.229 95.7489C341.37 95.7007 338.524 95.6635 335.691 95.6373C332.841 95.6373 330.011 95.5847 327.2 95.5781C321.571 95.5781 316.035 95.5781 310.734 95.6175C305.434 95.6569 300.384 95.9984 295.629 96.4385C290.874 96.8785 286.48 97.4696 282.422 98.1329C278.363 98.7963 274.659 99.5056 271.381 100.195C268.104 100.885 265.254 101.509 262.903 102.106C258.201 103.243 255.534 103.919 255.534 103.919C255.534 103.919 253.564 105.889 250.536 108.937C247.508 111.984 243.384 116.089 239.168 120.292C237.053 122.387 234.912 124.495 232.895 126.485L227.346 131.936L221.875 137.296C221.875 137.296 224.62 136.422 229.533 134.833C231.989 134.045 234.977 133.073 238.419 131.956C241.86 130.84 245.755 129.598 250.017 128.272C254.28 126.945 258.916 125.553 263.849 124.173C268.781 122.794 274.022 121.468 279.512 120.272C282.257 119.672 285.06 119.121 287.919 118.617C290.778 118.114 293.689 117.676 296.654 117.304C299.616 116.903 302.643 116.601 305.73 116.365C308.817 116.128 311.963 115.951 315.161 115.826C318.36 115.701 321.604 115.636 324.894 115.616C328.185 115.596 331.508 115.616 334.864 115.701C338.22 115.787 341.583 115.898 344.952 116.043C348.321 116.187 351.67 116.365 355.007 116.555C358.343 116.745 361.653 116.956 364.937 117.172C368.221 117.389 371.505 117.632 374.703 117.875C377.902 118.118 381.107 118.368 384.239 118.617L393.519 119.366L402.51 120.102L411.232 120.817C415.996 121.211 420.604 121.581 425.057 121.927V98.4876C423.087 98.435 421.018 98.3694 418.883 98.2905L409.853 97.9096Z" fill="#ACDBDB"/>
        <path d="M412.59 53.5783L408.715 49.7297C408.715 49.7297 402.482 49.7297 393.137 49.6772L381.479 49.6246L368.186 49.5655L354.237 49.5195H340.622H328.327H318.325L309.13 49.5524L305.236 53.3747C302.898 55.6668 299.785 58.7207 296.698 61.8075C293.611 64.8943 290.419 68.0336 288.009 70.457C285.599 72.8805 283.977 74.5486 283.977 74.5486C283.977 74.5486 288.134 74.1743 295.108 73.7934C298.589 73.6161 302.78 73.5241 307.482 73.4716C312.184 73.419 317.366 73.3534 322.896 73.3074C325.654 73.3074 328.505 73.268 331.434 73.2548C334.829 73.2548 338.324 73.2548 341.863 73.2548C345.403 73.2548 349.002 73.2548 352.621 73.2942C356.24 73.3336 359.878 73.3534 363.504 73.3928C367.129 73.4322 370.728 73.4781 374.301 73.5307C377.873 73.5832 381.374 73.6423 384.809 73.708L394.818 73.8919L410.219 74.1809C414.895 74.2597 419.046 74.2925 422.487 74.2794L425.081 74.2137V65.8072L421.141 61.9454C418.015 58.9309 414.915 55.8835 412.59 53.5783Z" fill="#ACDBDB"/>
        <path d="M358.96 0L334.082 24.8846H383.845L358.96 0Z" fill="#ACDBDB"/>
    </g>
    <defs>
        <clipPath id="clip0_1779_14755">
            <rect width="425.166" height="741.449" fill="white"/>
        </clipPath>
    </defs>
</svg>
