<svg width="530" height="531" viewBox="0 0 258 531" fill="none" xmlns="http://www.w3.org/2000/svg">
    <g clip-path="url(#clip0_1779_14429)">
        <path d="M331.54 449.284C330.818 447.398 330.672 445.341 331.12 443.372C331.567 441.403 332.589 439.61 334.055 438.222C335.521 436.833 337.366 435.911 339.357 435.571C341.347 435.231 343.394 435.489 345.238 436.312C347.082 437.135 348.64 438.486 349.716 440.195C350.792 441.904 351.337 443.894 351.282 445.912C351.227 447.931 350.575 449.888 349.408 451.536C348.24 453.184 346.611 454.449 344.725 455.17C343.473 455.65 342.138 455.878 340.798 455.841C339.458 455.805 338.138 455.505 336.913 454.958C335.689 454.411 334.584 453.629 333.663 452.656C332.741 451.682 332.019 450.537 331.54 449.284Z" fill="#46BABA"/>
        <path d="M314.043 451.964C311.868 446.28 305.497 443.436 299.812 445.611C294.128 447.787 291.284 454.158 293.46 459.842C295.635 465.526 302.006 468.371 307.69 466.195C313.374 464.02 316.219 457.649 314.043 451.964Z" fill="#46BABA"/>
        <path d="M254.071 462.871C253.234 460.684 253.064 458.298 253.583 456.015C254.102 453.731 255.287 451.653 256.987 450.043C258.687 448.432 260.827 447.363 263.135 446.968C265.443 446.574 267.817 446.873 269.955 447.828C272.093 448.782 273.901 450.35 275.148 452.331C276.396 454.313 277.028 456.62 276.964 458.961C276.9 461.302 276.144 463.571 274.791 465.482C273.437 467.393 271.548 468.86 269.361 469.697C266.428 470.82 263.169 470.731 260.302 469.451C257.434 468.171 255.193 465.804 254.071 462.871Z" fill="#46BABA"/>
        <path d="M214.961 458.297C214.07 455.968 213.889 453.426 214.442 450.995C214.995 448.563 216.257 446.349 218.067 444.634C219.878 442.919 222.157 441.78 224.615 441.36C227.074 440.94 229.602 441.259 231.879 442.275C234.156 443.292 236.081 444.961 237.41 447.072C238.738 449.182 239.412 451.64 239.344 454.133C239.276 456.626 238.47 459.043 237.029 461.078C235.588 463.113 233.575 464.676 231.246 465.567C228.122 466.76 224.653 466.664 221.6 465.301C218.546 463.938 216.159 461.419 214.961 458.297Z" fill="#46BABA"/>
        <path d="M177.648 446.271C176.71 443.824 176.518 441.153 177.097 438.597C177.677 436.041 179.001 433.714 180.903 431.91C182.805 430.107 185.199 428.908 187.783 428.466C190.366 428.023 193.023 428.357 195.416 429.425C197.81 430.492 199.833 432.246 201.23 434.463C202.628 436.681 203.335 439.263 203.265 441.883C203.194 444.503 202.348 447.044 200.833 449.183C199.318 451.322 197.203 452.963 194.756 453.9C191.475 455.156 187.831 455.057 184.623 453.627C181.415 452.196 178.906 449.55 177.648 446.271Z" fill="#46BABA"/>
        <path d="M154.532 408.953C147.055 409.959 141.81 416.836 142.816 424.313C143.822 431.79 150.698 437.035 158.175 436.029C165.652 435.023 170.897 428.147 169.891 420.67C168.886 413.193 162.009 407.947 154.532 408.953Z" fill="#46BABA"/>
        <path d="M125.238 383.475C117.679 384.492 112.376 391.444 113.393 399.003C114.41 406.562 121.362 411.866 128.921 410.849C136.48 409.832 141.783 402.879 140.766 395.32C139.749 387.762 132.797 382.458 125.238 383.475Z" fill="#46BABA"/>
        <path d="M113.354 357.029C108.144 351.527 99.4599 351.291 93.9582 356.501C88.4566 361.712 88.2206 370.396 93.431 375.897C98.6414 381.399 107.325 381.635 112.827 376.424C118.329 371.214 118.565 362.53 113.354 357.029Z" fill="#46BABA"/>
        <path d="M73.5786 336.615C72.629 334.134 72.4366 331.427 73.0258 328.836C73.6149 326.246 74.9591 323.888 76.8883 322.062C78.8176 320.235 81.2451 319.022 83.8639 318.575C86.4827 318.129 89.1752 318.469 91.6007 319.553C94.0261 320.637 96.0757 322.416 97.49 324.665C98.9043 326.914 99.6199 329.531 99.5462 332.187C99.4725 334.842 98.6129 337.417 97.076 339.584C95.5392 341.751 93.3942 343.413 90.9124 344.361C89.2657 344.991 87.5109 345.291 85.7484 345.242C83.9859 345.194 82.2502 344.799 80.6404 344.08C79.0307 343.36 77.5784 342.331 76.3667 341.05C75.155 339.769 74.2076 338.262 73.5786 336.615Z" fill="#46BABA"/>
        <path d="M63.742 299.081C62.823 296.68 62.6367 294.06 63.2067 291.552C63.7766 289.045 65.0773 286.763 66.9441 284.995C68.8109 283.227 71.1601 282.053 73.6946 281.62C76.229 281.187 78.8349 281.515 81.1827 282.563C83.5305 283.612 85.5149 285.332 86.8847 287.508C88.2545 289.684 88.9484 292.217 88.8785 294.787C88.8086 297.358 87.9781 299.849 86.4921 301.948C85.006 304.046 82.9312 305.656 80.5299 306.575C77.3098 307.808 73.7321 307.71 70.5838 306.305C67.4355 304.899 64.9744 302.301 63.742 299.081Z" fill="#46BABA"/>
        <path d="M61.5564 260.3C60.6804 258.016 60.5015 255.525 61.0421 253.14C61.5827 250.755 62.8187 248.584 64.5935 246.902C66.3684 245.219 68.6023 244.101 71.0128 243.689C73.4232 243.277 75.9018 243.589 78.1348 244.586C80.3678 245.583 82.2549 247.22 83.5573 249.289C84.8597 251.359 85.519 253.769 85.4516 256.213C85.3841 258.658 84.5931 261.027 83.1785 263.022C81.7639 265.017 79.7894 266.547 77.5048 267.42C74.4458 268.59 71.0469 268.498 68.0559 267.162C65.065 265.827 62.7271 263.359 61.5564 260.3Z" fill="#46BABA"/>
        <path d="M67.1123 221.631C66.2908 219.484 66.1242 217.142 66.6337 214.901C67.1431 212.66 68.3057 210.621 69.9744 209.04C71.643 207.46 73.7428 206.41 76.0082 206.023C78.2736 205.636 80.6029 205.929 82.7015 206.866C84.8 207.803 86.5737 209.341 87.7982 211.286C89.0226 213.231 89.6428 215.496 89.5804 217.793C89.5179 220.09 88.7755 222.318 87.4473 224.193C86.119 226.069 84.2644 227.508 82.118 228.329C79.2398 229.431 76.0418 229.344 73.2277 228.088C70.4135 226.832 68.2138 224.509 67.1123 221.631Z" fill="#46BABA"/>
        <path d="M80.1853 184.643C79.4246 182.656 79.2703 180.487 79.7421 178.412C80.2138 176.337 81.2904 174.448 82.8356 172.985C84.3807 171.521 86.3251 170.549 88.4228 170.191C90.5206 169.832 92.6776 170.104 94.6208 170.972C96.5641 171.839 98.2064 173.264 99.3402 175.065C100.474 176.866 101.048 178.962 100.99 181.09C100.933 183.217 100.245 185.279 99.0152 187.016C97.7853 188.753 96.068 190.086 94.0804 190.846C91.4152 191.866 88.4539 191.786 85.8481 190.622C83.2422 189.459 81.2053 187.308 80.1853 184.643Z" fill="#46BABA"/>
        <path d="M118.486 143.635C116.559 138.6 110.916 136.081 105.882 138.008C100.848 139.935 98.3289 145.577 100.256 150.612C102.182 155.646 107.825 158.165 112.859 156.238C117.894 154.312 120.413 148.669 118.486 143.635Z" fill="#46BABA"/>
        <path d="M126.572 120.978C125.954 119.367 125.827 117.609 126.208 115.927C126.588 114.244 127.46 112.713 128.711 111.525C129.963 110.338 131.538 109.549 133.238 109.257C134.939 108.965 136.687 109.184 138.263 109.887C139.838 110.589 141.17 111.743 142.09 113.202C143.01 114.662 143.476 116.361 143.429 118.086C143.383 119.81 142.826 121.482 141.829 122.89C140.833 124.298 139.441 125.379 137.83 125.995C136.761 126.406 135.622 126.601 134.478 126.571C133.333 126.541 132.206 126.286 131.161 125.82C130.115 125.354 129.172 124.686 128.385 123.855C127.597 123.024 126.981 122.047 126.572 120.978Z" fill="#46BABA"/>
        <path d="M172.386 91.4204C170.888 87.5055 166.5 85.5466 162.585 87.0449C158.67 88.5432 156.711 92.9313 158.209 96.8463C159.707 100.761 164.096 102.72 168.01 101.222C171.925 99.7237 173.884 95.3353 172.386 91.4204Z" fill="#46BABA"/>
        <path d="M193.917 79.1638C193.459 77.9727 193.365 76.6728 193.646 75.428C193.927 74.1833 194.571 73.0498 195.497 72.1712C196.422 71.2926 197.587 70.7084 198.845 70.4923C200.103 70.2763 201.396 70.4382 202.562 70.9575C203.728 71.4768 204.713 72.3301 205.393 73.4096C206.074 74.4891 206.419 75.7463 206.385 77.0219C206.351 78.2976 205.939 79.5344 205.201 80.5759C204.464 81.6175 203.434 82.417 202.243 82.8732C200.647 83.484 198.873 83.4363 197.312 82.7409C195.751 82.0455 194.53 80.7589 193.917 79.1638Z" fill="#46BABA"/>
        <path d="M232.269 68.5012C231.891 67.513 231.814 66.435 232.049 65.4032C232.284 64.3714 232.819 63.4323 233.587 62.7047C234.355 61.9771 235.322 61.4936 236.365 61.3155C237.408 61.1373 238.481 61.2724 239.447 61.7038C240.413 62.1351 241.23 62.8433 241.793 63.7387C242.357 64.6342 242.643 65.6767 242.614 66.7344C242.585 67.7921 242.243 68.8177 241.632 69.6812C241.02 70.5447 240.166 71.2074 239.178 71.5857C238.522 71.8381 237.823 71.9586 237.12 71.9402C236.417 71.9218 235.725 71.7648 235.083 71.4783C234.441 71.1917 233.862 70.7812 233.38 70.2704C232.897 69.7595 232.519 69.1582 232.269 68.5012Z" fill="#46BABA"/>
        <path d="M271.856 65.374C271.552 64.5852 271.489 63.7237 271.675 62.8991C271.861 62.0744 272.288 61.3236 272.901 60.7415C273.514 60.1595 274.286 59.7726 275.119 59.6298C275.953 59.487 276.809 59.5946 277.581 59.9392C278.353 60.2838 279.006 60.85 279.455 61.5657C279.905 62.2814 280.133 63.1145 280.109 63.9595C280.085 64.8045 279.811 65.6234 279.321 66.3124C278.831 67.0014 278.148 67.5294 277.358 67.8297C276.302 68.2308 275.131 68.1978 274.1 67.7375C273.069 67.2773 272.262 66.4275 271.856 65.374Z" fill="#46BABA"/>
        <path d="M311.179 69.8889C310.944 69.2756 310.896 68.6065 311.042 67.9662C311.187 67.3259 311.52 66.7433 311.996 66.2918C312.473 65.8403 313.073 65.5402 313.72 65.4297C314.368 65.3191 315.033 65.4031 315.633 65.6708C316.232 65.9384 316.739 66.3777 317.089 66.9334C317.439 67.4891 317.616 68.136 317.598 68.7924C317.58 69.4488 317.368 70.0852 316.989 70.621C316.609 71.1569 316.079 71.5682 315.466 71.8029C314.644 72.1176 313.73 72.0928 312.926 71.7339C312.122 71.3749 311.493 70.7112 311.179 69.8889Z" fill="#46BABA"/>
        <path d="M348.674 81.8887C348.496 81.4273 348.458 80.9231 348.566 80.4402C348.674 79.9572 348.923 79.5171 349.281 79.1757C349.64 78.8344 350.091 78.6071 350.579 78.5226C351.066 78.4381 351.568 78.5001 352.02 78.701C352.473 78.9018 352.855 79.2322 353.119 79.6506C353.384 80.069 353.518 80.5565 353.505 81.0512C353.492 81.5459 353.332 82.0256 353.047 82.4296C352.761 82.8336 352.362 83.1438 351.899 83.3206C351.282 83.557 350.596 83.539 349.991 83.2706C349.387 83.0022 348.913 82.5054 348.674 81.8887Z" fill="#46BABA"/>
        <path d="M382.935 100.769C382.807 100.433 382.781 100.066 382.861 99.7149C382.94 99.3639 383.122 99.0444 383.384 98.7969C383.645 98.5494 383.974 98.385 384.329 98.3244C384.684 98.2638 385.048 98.3097 385.377 98.4564C385.706 98.6032 385.984 98.8441 386.175 99.1487C386.367 99.4533 386.464 99.8079 386.455 100.168C386.445 100.528 386.329 100.877 386.12 101.17C385.912 101.464 385.622 101.689 385.286 101.818C384.835 101.991 384.334 101.977 383.893 101.78C383.453 101.584 383.108 101.22 382.935 100.769Z" fill="#46BABA"/>
        <path d="M412.68 125.92C412.585 125.678 412.565 125.413 412.621 125.159C412.677 124.906 412.807 124.674 412.995 124.495C413.183 124.315 413.421 124.196 413.677 124.152C413.933 124.107 414.196 124.14 414.434 124.246C414.671 124.352 414.872 124.526 415.01 124.747C415.148 124.967 415.217 125.223 415.209 125.483C415.201 125.743 415.116 125.994 414.964 126.206C414.813 126.417 414.602 126.578 414.359 126.669C414.037 126.793 413.679 126.783 413.364 126.642C413.049 126.502 412.803 126.242 412.68 125.92Z" fill="#46BABA"/>
        <path d="M438.504 155.707C438.318 155.223 437.775 154.98 437.29 155.165C436.805 155.351 436.562 155.895 436.748 156.379C436.934 156.864 437.477 157.107 437.962 156.921C438.447 156.736 438.689 156.192 438.504 155.707Z" fill="#46BABA"/>
        <path d="M454.223 190.935C454.172 190.802 454.162 190.657 454.194 190.518C454.225 190.379 454.297 190.253 454.401 190.155C454.504 190.057 454.634 189.992 454.774 189.968C454.915 189.944 455.059 189.962 455.189 190.02C455.319 190.078 455.429 190.173 455.505 190.294C455.581 190.414 455.619 190.555 455.615 190.697C455.611 190.839 455.566 190.977 455.483 191.094C455.401 191.21 455.286 191.299 455.153 191.35C454.975 191.418 454.776 191.413 454.602 191.335C454.428 191.257 454.291 191.113 454.223 190.935Z" fill="#46BABA"/>
        <path d="M464.363 228.312C464.302 228.153 464.289 227.979 464.327 227.814C464.365 227.648 464.451 227.497 464.574 227.38C464.698 227.263 464.853 227.185 465.021 227.156C465.189 227.128 465.361 227.15 465.516 227.219C465.672 227.288 465.803 227.402 465.893 227.546C465.984 227.69 466.03 227.858 466.025 228.028C466.021 228.198 465.966 228.362 465.868 228.501C465.769 228.64 465.632 228.746 465.473 228.807C465.26 228.889 465.023 228.882 464.815 228.789C464.607 228.696 464.444 228.525 464.363 228.312Z" fill="#46BABA"/>
        <path d="M466.492 267.166C466.384 266.884 466.362 266.575 466.429 266.28C466.496 265.985 466.649 265.717 466.869 265.509C467.089 265.301 467.365 265.162 467.664 265.111C467.962 265.06 468.268 265.099 468.545 265.222C468.821 265.346 469.055 265.548 469.216 265.804C469.377 266.06 469.459 266.359 469.451 266.661C469.442 266.964 469.345 267.257 469.17 267.504C468.995 267.751 468.751 267.94 468.468 268.048C468.089 268.193 467.668 268.182 467.297 268.017C466.927 267.851 466.637 267.545 466.492 267.166Z" fill="#46BABA"/>
        <path d="M460.493 305.995C460.297 305.489 460.256 304.937 460.375 304.408C460.493 303.878 460.766 303.396 461.159 303.022C461.552 302.648 462.046 302.399 462.581 302.307C463.115 302.214 463.665 302.282 464.161 302.503C464.656 302.723 465.075 303.085 465.365 303.543C465.655 304.002 465.802 304.536 465.787 305.078C465.773 305.62 465.598 306.146 465.285 306.589C464.972 307.032 464.534 307.372 464.028 307.565C463.351 307.825 462.598 307.805 461.936 307.51C461.273 307.216 460.755 306.671 460.493 305.995Z" fill="#46BABA"/>
        <path d="M446.744 343.282C446.436 342.479 446.374 341.602 446.565 340.763C446.756 339.924 447.191 339.161 447.815 338.569C448.44 337.978 449.226 337.585 450.074 337.44C450.922 337.295 451.794 337.405 452.58 337.755C453.365 338.106 454.03 338.682 454.488 339.41C454.946 340.138 455.178 340.986 455.155 341.846C455.132 342.706 454.854 343.54 454.356 344.242C453.859 344.944 453.165 345.483 452.361 345.79C451.284 346.203 450.087 346.17 449.033 345.7C447.98 345.229 447.156 344.36 446.744 343.282Z" fill="#46BABA"/>
        <path d="M425.911 377.565C425.477 376.43 425.389 375.192 425.658 374.008C425.928 372.823 426.543 371.745 427.425 370.911C428.307 370.076 429.418 369.521 430.615 369.317C431.813 369.114 433.044 369.269 434.153 369.766C435.262 370.262 436.198 371.076 436.845 372.104C437.491 373.133 437.817 374.33 437.783 375.545C437.748 376.759 437.354 377.936 436.651 378.926C435.947 379.916 434.966 380.676 433.831 381.108C433.078 381.398 432.276 381.535 431.47 381.514C430.664 381.492 429.87 381.312 429.134 380.982C428.398 380.653 427.735 380.182 427.182 379.595C426.628 379.009 426.197 378.319 425.911 377.565Z" fill="#46BABA"/>
        <path d="M398.99 407.408C398.437 405.964 398.325 404.388 398.668 402.88C399.011 401.372 399.793 399.999 400.916 398.935C402.039 397.872 403.452 397.165 404.977 396.905C406.501 396.644 408.069 396.842 409.481 397.472C410.894 398.103 412.087 399.138 412.911 400.447C413.735 401.756 414.153 403.28 414.111 404.826C414.069 406.372 413.569 407.871 412.675 409.133C411.781 410.395 410.533 411.364 409.089 411.917C407.151 412.655 405 412.595 403.107 411.75C401.214 410.905 399.733 409.344 398.99 407.408Z" fill="#46BABA"/>
        <path d="M384.302 425.074C382.486 420.329 377.167 417.954 372.422 419.77C367.676 421.587 365.302 426.906 367.118 431.651C368.934 436.396 374.253 438.771 378.998 436.955C383.744 435.139 386.118 429.82 384.302 425.074Z" fill="#46BABA"/>
        <path d="M410.437 331.62C409.715 329.734 409.568 327.677 410.016 325.707C410.464 323.738 411.485 321.946 412.951 320.558C414.417 319.169 416.263 318.246 418.253 317.906C420.244 317.566 422.29 317.824 424.134 318.647C425.978 319.471 427.536 320.822 428.612 322.531C429.688 324.24 430.233 326.23 430.178 328.248C430.123 330.267 429.471 332.224 428.304 333.872C427.137 335.52 425.507 336.784 423.621 337.506C422.369 337.986 421.035 338.214 419.695 338.177C418.354 338.141 417.034 337.84 415.81 337.294C414.586 336.747 413.481 335.965 412.559 334.991C411.637 334.018 410.916 332.872 410.437 331.62Z" fill="#46BABA"/>
        <path d="M390.148 364.665C389.356 362.6 389.194 360.346 389.682 358.189C390.171 356.031 391.289 354.067 392.895 352.546C394.5 351.024 396.521 350.012 398.701 349.639C400.882 349.267 403.124 349.549 405.143 350.451C407.163 351.352 408.87 352.833 410.048 354.705C411.227 356.578 411.823 358.757 411.762 360.968C411.701 363.18 410.985 365.323 409.705 367.127C408.425 368.931 406.639 370.316 404.573 371.104C401.806 372.163 398.732 372.08 396.027 370.872C393.322 369.664 391.207 367.432 390.148 364.665Z" fill="#46BABA"/>
        <path d="M362.825 392.339C361.967 390.098 361.793 387.654 362.325 385.314C362.857 382.975 364.07 380.846 365.812 379.196C367.554 377.546 369.746 376.45 372.111 376.046C374.476 375.642 376.907 375.949 379.098 376.927C381.289 377.905 383.14 379.51 384.418 381.541C385.697 383.571 386.344 385.934 386.279 388.333C386.213 390.731 385.439 393.056 384.052 395.014C382.666 396.972 380.729 398.474 378.489 399.332C375.484 400.482 372.146 400.391 369.208 399.079C366.271 397.768 363.974 395.343 362.825 392.339Z" fill="#46BABA"/>
        <path d="M329.976 413.08C329.057 410.678 328.871 408.058 329.441 405.551C330.011 403.044 331.312 400.762 333.179 398.994C335.045 397.226 337.394 396.052 339.929 395.619C342.463 395.186 345.069 395.514 347.417 396.562C349.765 397.61 351.749 399.331 353.119 401.507C354.489 403.683 355.183 406.216 355.113 408.786C355.043 411.357 354.213 413.848 352.727 415.947C351.24 418.045 349.166 419.655 346.764 420.574C343.544 421.806 339.967 421.709 336.818 420.304C333.67 418.898 331.209 416.3 329.976 413.08Z" fill="#46BABA"/>
        <path d="M293.561 425.839C292.6 423.332 292.404 420.597 292.997 417.979C293.591 415.36 294.948 412.977 296.897 411.13C298.845 409.283 301.298 408.056 303.944 407.604C306.59 407.151 309.312 407.494 311.763 408.588C314.215 409.683 316.286 411.48 317.716 413.752C319.146 416.024 319.87 418.669 319.796 421.353C319.722 424.037 318.854 426.638 317.301 428.828C315.748 431.018 313.58 432.699 311.072 433.657C307.714 434.942 303.982 434.841 300.698 433.375C297.414 431.908 294.847 429.198 293.561 425.839Z" fill="#46BABA"/>
        <path d="M255.527 429.891C254.55 427.338 254.352 424.552 254.958 421.886C255.564 419.221 256.948 416.794 258.933 414.915C260.918 413.036 263.416 411.787 266.111 411.328C268.806 410.868 271.577 411.218 274.072 412.334C276.568 413.449 278.677 415.279 280.133 417.594C281.588 419.908 282.325 422.601 282.249 425.334C282.173 428.067 281.288 430.716 279.707 432.946C278.126 435.176 275.918 436.886 273.365 437.862C271.67 438.51 269.864 438.818 268.05 438.769C266.237 438.719 264.451 438.313 262.794 437.572C261.138 436.832 259.643 435.773 258.396 434.455C257.149 433.137 256.174 431.586 255.527 429.891Z" fill="#46BABA"/>
        <path d="M217.958 424.943C216.988 422.414 216.79 419.655 217.389 417.013C217.988 414.372 219.357 411.967 221.323 410.104C223.289 408.241 225.763 407.003 228.433 406.547C231.102 406.09 233.847 406.436 236.321 407.54C238.794 408.644 240.884 410.457 242.327 412.749C243.769 415.042 244.499 417.71 244.425 420.418C244.35 423.125 243.474 425.75 241.908 427.959C240.341 430.168 238.154 431.864 235.624 432.83C232.235 434.124 228.471 434.02 225.159 432.542C221.847 431.063 219.257 428.33 217.958 424.943Z" fill="#46BABA"/>
        <path d="M182.786 411.325C181.845 408.87 181.653 406.191 182.234 403.627C182.815 401.063 184.144 398.729 186.053 396.92C187.961 395.111 190.363 393.909 192.955 393.466C195.547 393.023 198.212 393.358 200.613 394.43C203.014 395.502 205.043 397.262 206.443 399.487C207.844 401.713 208.552 404.304 208.48 406.932C208.407 409.56 207.557 412.108 206.036 414.253C204.515 416.398 202.392 418.043 199.936 418.981C196.646 420.237 192.993 420.137 189.777 418.701C186.562 417.266 184.048 414.613 182.786 411.325Z" fill="#46BABA"/>
        <path d="M151.845 389.846C150.948 387.503 150.767 384.947 151.323 382.501C151.879 380.055 153.148 377.829 154.97 376.105C156.791 374.381 159.083 373.235 161.556 372.814C164.029 372.392 166.571 372.713 168.861 373.737C171.151 374.76 173.086 376.44 174.421 378.563C175.756 380.686 176.432 383.158 176.362 385.665C176.293 388.173 175.481 390.603 174.03 392.649C172.579 394.695 170.553 396.264 168.21 397.159C166.655 397.754 164.999 398.037 163.334 397.991C161.67 397.946 160.032 397.573 158.512 396.894C156.992 396.214 155.621 395.242 154.477 394.033C153.333 392.824 152.439 391.401 151.845 389.846Z" fill="#46BABA"/>
        <path d="M126.871 361.575C126.031 359.381 125.861 356.987 126.382 354.696C126.903 352.405 128.091 350.319 129.797 348.704C131.503 347.088 133.65 346.014 135.966 345.619C138.282 345.223 140.663 345.523 142.809 346.481C144.955 347.439 146.768 349.012 148.02 351C149.271 352.988 149.906 355.303 149.842 357.652C149.778 360.001 149.019 362.278 147.661 364.195C146.303 366.113 144.407 367.585 142.212 368.424C139.27 369.551 136 369.462 133.123 368.177C130.246 366.893 127.997 364.518 126.871 361.575Z" fill="#46BABA"/>
        <path d="M109.225 328.059C108.452 326.046 108.294 323.849 108.77 321.746C109.247 319.643 110.336 317.729 111.901 316.245C113.465 314.761 115.435 313.775 117.56 313.411C119.685 313.046 121.871 313.321 123.84 314.199C125.809 315.077 127.474 316.519 128.623 318.344C129.773 320.168 130.355 322.292 130.297 324.448C130.239 326.603 129.543 328.693 128.297 330.453C127.051 332.212 125.311 333.563 123.297 334.334C120.599 335.366 117.601 335.286 114.962 334.109C112.324 332.933 110.26 330.757 109.225 328.059Z" fill="#46BABA"/>
        <path d="M118.029 284.14C116.11 279.126 110.491 276.618 105.477 278.536C100.464 280.455 97.9546 286.075 99.8734 291.089C101.792 296.102 107.412 298.611 112.426 296.692C117.439 294.773 119.948 289.154 118.029 284.14Z" fill="#46BABA"/>
        <path d="M99.2737 252.675C98.6742 251.109 98.5526 249.4 98.9244 247.764C99.2962 246.129 100.145 244.64 101.362 243.487C102.58 242.334 104.112 241.568 105.766 241.285C107.419 241.003 109.119 241.217 110.65 241.901C112.182 242.584 113.476 243.707 114.37 245.126C115.263 246.546 115.716 248.198 115.67 249.875C115.625 251.551 115.083 253.177 114.114 254.545C113.144 255.914 111.791 256.965 110.224 257.564C108.124 258.368 105.79 258.304 103.737 257.388C101.683 256.471 100.078 254.776 99.2737 252.675Z" fill="#46BABA"/>
        <path d="M107.637 214.826C107.133 213.511 107.031 212.076 107.344 210.703C107.656 209.33 108.368 208.08 109.39 207.112C110.413 206.143 111.699 205.5 113.088 205.263C114.476 205.026 115.903 205.206 117.189 205.78C118.475 206.354 119.561 207.296 120.312 208.488C121.062 209.68 121.442 211.067 121.404 212.475C121.365 213.882 120.911 215.247 120.097 216.396C119.283 217.546 118.146 218.428 116.831 218.931C115.068 219.606 113.108 219.553 111.384 218.783C109.66 218.013 108.312 216.59 107.637 214.826Z" fill="#46BABA"/>
        <path d="M124.389 179.674C123.977 178.603 123.892 177.433 124.145 176.314C124.398 175.194 124.978 174.174 125.811 173.384C126.644 172.594 127.692 172.069 128.824 171.875C129.955 171.681 131.119 171.828 132.167 172.296C133.215 172.764 134.101 173.532 134.712 174.504C135.324 175.476 135.633 176.607 135.6 177.755C135.568 178.902 135.196 180.014 134.532 180.95C133.867 181.886 132.939 182.604 131.866 183.012C130.432 183.559 128.84 183.514 127.438 182.888C126.037 182.263 124.94 181.107 124.389 179.674Z" fill="#46BABA"/>
        <path d="M148.667 148.991C148.349 148.162 148.285 147.257 148.482 146.391C148.678 145.525 149.128 144.737 149.773 144.126C150.417 143.516 151.229 143.11 152.104 142.96C152.979 142.811 153.879 142.924 154.69 143.286C155.501 143.648 156.187 144.243 156.66 144.994C157.133 145.746 157.372 146.621 157.348 147.508C157.324 148.396 157.037 149.257 156.524 149.981C156.011 150.706 155.294 151.262 154.465 151.58C153.353 152.005 152.117 151.972 151.03 151.486C149.942 151.001 149.092 150.103 148.667 148.991Z" fill="#46BABA"/>
        <path d="M179.172 124.542C178.935 123.923 178.887 123.248 179.034 122.602C179.181 121.955 179.516 121.367 179.997 120.912C180.478 120.456 181.083 120.153 181.736 120.042C182.389 119.93 183.061 120.015 183.666 120.285C184.271 120.555 184.782 120.999 185.135 121.559C185.488 122.12 185.667 122.773 185.649 123.435C185.631 124.097 185.417 124.74 185.034 125.28C184.651 125.821 184.117 126.236 183.498 126.473C182.668 126.79 181.746 126.765 180.935 126.403C180.124 126.041 179.489 125.371 179.172 124.542Z" fill="#46BABA"/>
        <path d="M214.275 107.628C214.106 107.187 214.071 106.705 214.176 106.244C214.281 105.783 214.52 105.364 214.863 105.039C215.207 104.714 215.639 104.498 216.104 104.418C216.57 104.339 217.049 104.399 217.481 104.592C217.913 104.784 218.278 105.101 218.529 105.501C218.781 105.901 218.909 106.366 218.896 106.839C218.883 107.311 218.73 107.77 218.457 108.155C218.184 108.541 217.803 108.837 217.361 109.006C216.769 109.233 216.111 109.215 215.533 108.956C214.954 108.698 214.501 108.22 214.275 107.628Z" fill="#46BABA"/>
        <path d="M252.058 99.0028C251.943 98.7017 251.919 98.3733 251.991 98.059C252.062 97.7446 252.225 97.4585 252.459 97.2368C252.694 97.0151 252.988 96.8678 253.306 96.8135C253.624 96.7592 253.95 96.8004 254.245 96.9318C254.539 97.0632 254.788 97.2791 254.96 97.5519C255.131 97.8248 255.219 98.1422 255.21 98.4645C255.201 98.7868 255.097 99.0991 254.911 99.3622C254.724 99.6253 254.464 99.8274 254.163 99.9427C253.759 100.094 253.312 100.081 252.918 99.9048C252.523 99.7289 252.215 99.4049 252.058 99.0028Z" fill="#46BABA"/>
        <path d="M292.615 98.4932C292.398 97.9258 291.761 97.6421 291.194 97.8592C290.627 98.0764 290.343 98.7122 290.56 99.2796C290.777 99.847 291.413 100.131 291.98 99.9138C292.548 99.6967 292.832 99.0606 292.615 98.4932Z" fill="#46BABA"/>
        <path d="M327.711 108.446C327.654 108.3 327.64 108.141 327.673 107.987C327.706 107.834 327.784 107.694 327.897 107.585C328.01 107.477 328.152 107.404 328.306 107.376C328.461 107.349 328.62 107.368 328.763 107.43C328.907 107.493 329.028 107.598 329.112 107.73C329.196 107.862 329.239 108.016 329.235 108.173C329.232 108.329 329.181 108.481 329.091 108.609C329.001 108.737 328.874 108.836 328.728 108.892C328.534 108.966 328.318 108.961 328.128 108.877C327.938 108.794 327.788 108.639 327.711 108.446Z" fill="#46BABA"/>
        <path d="M361.418 125.933C361.36 125.781 361.348 125.616 361.384 125.458C361.42 125.3 361.502 125.156 361.62 125.044C361.738 124.933 361.886 124.859 362.046 124.831C362.205 124.804 362.37 124.825 362.518 124.891C362.666 124.957 362.791 125.066 362.878 125.203C362.964 125.34 363.008 125.5 363.003 125.662C362.999 125.824 362.947 125.981 362.853 126.114C362.759 126.246 362.628 126.348 362.477 126.406C362.274 126.483 362.048 126.477 361.849 126.388C361.651 126.3 361.496 126.136 361.418 125.933Z" fill="#46BABA"/>
        <path d="M389.522 150.993C389.409 150.698 389.386 150.375 389.456 150.067C389.526 149.758 389.686 149.477 389.916 149.26C390.146 149.042 390.435 148.898 390.747 148.844C391.059 148.791 391.379 148.831 391.668 148.96C391.957 149.089 392.202 149.301 392.37 149.569C392.539 149.837 392.624 150.149 392.615 150.465C392.607 150.781 392.505 151.088 392.322 151.346C392.139 151.605 391.884 151.803 391.588 151.916C391.192 152.067 390.751 152.056 390.364 151.883C389.976 151.71 389.673 151.39 389.522 150.993Z" fill="#46BABA"/>
        <path d="M410.381 182.328C410.16 181.75 410.115 181.118 410.253 180.514C410.39 179.91 410.704 179.361 411.154 178.935C411.604 178.509 412.171 178.227 412.781 178.123C413.392 178.02 414.02 178.1 414.585 178.353C415.15 178.607 415.628 179.022 415.957 179.547C416.286 180.072 416.451 180.683 416.433 181.302C416.415 181.921 416.213 182.521 415.854 183.025C415.494 183.53 414.993 183.917 414.414 184.136C414.03 184.283 413.622 184.352 413.211 184.341C412.801 184.329 412.397 184.237 412.022 184.069C411.648 183.901 411.31 183.661 411.028 183.362C410.747 183.064 410.527 182.712 410.381 182.328Z" fill="#46BABA"/>
        <path d="M423.095 218.15C422.731 217.198 422.657 216.16 422.883 215.167C423.108 214.174 423.624 213.27 424.363 212.57C425.103 211.869 426.033 211.404 427.037 211.232C428.041 211.061 429.074 211.191 430.004 211.606C430.934 212.021 431.72 212.703 432.263 213.565C432.805 214.427 433.08 215.431 433.053 216.449C433.025 217.467 432.696 218.454 432.107 219.285C431.519 220.117 430.697 220.754 429.745 221.119C428.47 221.607 427.052 221.568 425.805 221.012C424.558 220.455 423.583 219.425 423.095 218.15Z" fill="#46BABA"/>
        <path d="M427.314 256.398C426.803 255.065 426.7 253.61 427.017 252.217C427.333 250.825 428.055 249.558 429.092 248.576C430.129 247.594 431.434 246.941 432.841 246.701C434.249 246.46 435.696 246.643 437 247.225C438.304 247.807 439.406 248.763 440.167 249.971C440.928 251.18 441.313 252.587 441.274 254.014C441.235 255.441 440.774 256.825 439.949 257.991C439.124 259.156 437.971 260.05 436.638 260.561C434.849 261.245 432.862 261.191 431.114 260.411C429.365 259.63 427.998 258.187 427.314 256.398Z" fill="#46BABA"/>
        <path d="M422.976 294.945C422.34 293.282 422.211 291.468 422.606 289.732C423 287.997 423.901 286.417 425.193 285.193C426.486 283.969 428.112 283.156 429.867 282.856C431.621 282.556 433.425 282.784 435.051 283.509C436.676 284.235 438.05 285.426 438.998 286.933C439.947 288.439 440.427 290.193 440.379 291.972C440.33 293.752 439.755 295.477 438.726 296.929C437.698 298.382 436.261 299.497 434.599 300.133C432.37 300.986 429.893 300.919 427.713 299.946C425.534 298.973 423.83 297.174 422.976 294.945Z" fill="#46BABA"/>
        <path d="M386.308 238.804C385.586 236.918 385.439 234.86 385.887 232.89C386.335 230.921 387.357 229.128 388.824 227.74C390.291 226.351 392.137 225.429 394.128 225.09C396.119 224.751 398.166 225.009 400.01 225.834C401.854 226.658 403.412 228.011 404.487 229.721C405.562 231.43 406.105 233.421 406.049 235.44C405.993 237.459 405.339 239.416 404.17 241.063C403.001 242.71 401.37 243.974 399.483 244.694C396.955 245.659 394.147 245.58 391.677 244.476C389.206 243.372 387.275 241.332 386.308 238.804Z" fill="#46BABA"/>
        <path d="M408.693 269.21C406.433 263.304 399.813 260.349 393.907 262.609C388.001 264.869 385.045 271.489 387.306 277.395C389.566 283.301 396.186 286.256 402.092 283.996C407.998 281.736 410.953 275.116 408.693 269.21Z" fill="#46BABA"/>
        <path d="M376.968 314.845C376.075 312.51 375.894 309.962 376.448 307.525C377.002 305.087 378.267 302.868 380.082 301.149C381.897 299.43 384.181 298.288 386.645 297.867C389.11 297.446 391.643 297.766 393.926 298.785C396.209 299.804 398.138 301.477 399.47 303.593C400.802 305.708 401.477 308.171 401.409 310.67C401.341 313.169 400.533 315.592 399.088 317.632C397.643 319.672 395.626 321.238 393.291 322.132C390.16 323.33 386.682 323.236 383.621 321.869C380.559 320.502 378.167 317.976 376.968 314.845Z" fill="#46BABA"/>
        <path d="M356.403 347.834C355.449 345.342 355.256 342.624 355.847 340.022C356.439 337.42 357.788 335.052 359.726 333.218C361.663 331.383 364.101 330.164 366.731 329.715C369.361 329.266 372.065 329.607 374.501 330.694C376.937 331.782 378.996 333.568 380.418 335.825C381.839 338.083 382.559 340.712 382.487 343.379C382.414 346.046 381.552 348.632 380.01 350.809C378.468 352.986 376.315 354.658 373.823 355.611C370.482 356.89 366.77 356.789 363.503 355.331C360.236 353.872 357.682 351.176 356.403 347.834Z" fill="#46BABA"/>
        <path d="M327.634 373.385C326.657 370.832 326.459 368.047 327.065 365.382C327.671 362.716 329.054 360.29 331.039 358.411C333.023 356.531 335.52 355.283 338.215 354.822C340.909 354.362 343.679 354.711 346.175 355.825C348.671 356.94 350.781 358.769 352.237 361.082C353.693 363.395 354.431 366.088 354.356 368.821C354.282 371.553 353.399 374.202 351.819 376.433C350.24 378.663 348.034 380.375 345.481 381.352C343.786 382.002 341.98 382.312 340.165 382.263C338.351 382.214 336.564 381.808 334.906 381.068C333.248 380.328 331.753 379.269 330.505 377.951C329.258 376.632 328.282 375.081 327.634 373.385Z" fill="#46BABA"/>
        <path d="M293.231 389.133C292.273 386.631 292.079 383.902 292.673 381.29C293.267 378.679 294.623 376.302 296.568 374.46C298.513 372.619 300.96 371.396 303.6 370.946C306.241 370.495 308.955 370.838 311.4 371.931C313.846 373.024 315.912 374.817 317.338 377.085C318.764 379.352 319.485 381.991 319.411 384.668C319.337 387.346 318.47 389.941 316.921 392.126C315.371 394.311 313.209 395.987 310.707 396.942C309.046 397.577 307.277 397.88 305.5 397.831C303.723 397.782 301.973 397.384 300.35 396.659C298.727 395.933 297.263 394.896 296.042 393.604C294.82 392.313 293.865 390.793 293.231 389.133Z" fill="#46BABA"/>
        <path d="M255.986 393.879C255.075 391.498 254.89 388.901 255.456 386.415C256.021 383.929 257.31 381.666 259.161 379.913C261.012 378.16 263.342 376.995 265.855 376.566C268.368 376.137 270.952 376.463 273.28 377.502C275.608 378.541 277.575 380.247 278.933 382.405C280.292 384.562 280.98 387.074 280.91 389.623C280.841 392.171 280.017 394.642 278.544 396.722C277.07 398.802 275.013 400.399 272.632 401.311C269.439 402.532 265.892 402.436 262.77 401.042C259.649 399.649 257.208 397.072 255.986 393.879Z" fill="#46BABA"/>
        <path d="M239.028 374.687C234.516 369.923 226.997 369.718 222.233 374.23C217.469 378.742 217.265 386.261 221.776 391.025C226.288 395.789 233.807 395.993 238.571 391.481C243.335 386.97 243.539 379.451 239.028 374.687Z" fill="#46BABA"/>
        <path d="M186.465 369.4C185.716 367.444 185.564 365.31 186.029 363.267C186.493 361.225 187.553 359.366 189.073 357.926C190.594 356.486 192.508 355.529 194.572 355.176C196.637 354.823 198.76 355.091 200.672 355.945C202.585 356.799 204.201 358.2 205.317 359.973C206.433 361.745 206.998 363.809 206.941 365.903C206.884 367.996 206.208 370.026 204.997 371.735C203.787 373.445 202.097 374.757 200.14 375.505C197.517 376.506 194.604 376.426 192.04 375.281C189.476 374.137 187.471 372.022 186.465 369.4Z" fill="#46BABA"/>
        <path d="M175.4 332.937C171.978 329.324 166.275 329.169 162.662 332.59C159.05 336.012 158.894 341.715 162.316 345.328C165.738 348.941 171.441 349.096 175.054 345.674C178.667 342.252 178.822 336.55 175.4 332.937Z" fill="#46BABA"/>
        <path d="M157.267 303.097C155.822 299.321 151.59 297.432 147.815 298.877C144.039 300.322 142.149 304.554 143.595 308.33C145.04 312.106 149.272 313.995 153.047 312.55C156.823 311.105 158.712 306.873 157.267 303.097Z" fill="#46BABA"/>
        <path d="M137.428 270.344C137.032 269.307 136.951 268.176 137.198 267.094C137.444 266.012 138.006 265.027 138.812 264.264C139.618 263.501 140.633 262.994 141.727 262.808C142.821 262.622 143.946 262.765 144.959 263.218C145.972 263.671 146.828 264.415 147.419 265.355C148.009 266.295 148.307 267.389 148.276 268.499C148.244 269.608 147.884 270.683 147.241 271.588C146.598 272.493 145.701 273.187 144.664 273.582C143.976 273.845 143.243 273.97 142.507 273.95C141.771 273.929 141.047 273.764 140.375 273.463C139.703 273.162 139.096 272.732 138.591 272.197C138.085 271.661 137.69 271.032 137.428 270.344Z" fill="#46BABA"/>
        <path d="M142.516 231.767C142.233 231.028 142.175 230.221 142.351 229.45C142.526 228.679 142.926 227.977 143.501 227.433C144.075 226.889 144.798 226.527 145.578 226.394C146.358 226.261 147.16 226.362 147.882 226.684C148.604 227.007 149.215 227.536 149.636 228.206C150.058 228.875 150.271 229.655 150.25 230.446C150.228 231.236 149.973 232.003 149.516 232.649C149.058 233.294 148.42 233.79 147.681 234.073C146.69 234.452 145.589 234.422 144.621 233.989C143.652 233.557 142.895 232.757 142.516 231.767Z" fill="#46BABA"/>
        <path d="M158.431 196.05C158.242 195.562 158.203 195.03 158.317 194.52C158.431 194.01 158.694 193.545 159.072 193.185C159.451 192.824 159.928 192.584 160.442 192.495C160.957 192.406 161.487 192.472 161.965 192.684C162.442 192.896 162.846 193.245 163.125 193.687C163.404 194.129 163.546 194.643 163.532 195.166C163.518 195.688 163.35 196.195 163.048 196.621C162.746 197.048 162.325 197.375 161.837 197.562C161.184 197.812 160.46 197.793 159.821 197.509C159.183 197.226 158.683 196.701 158.431 196.05Z" fill="#46BABA"/>
        <path d="M183.72 166.305C183.602 166.002 183.577 165.671 183.647 165.353C183.718 165.036 183.881 164.747 184.117 164.522C184.352 164.298 184.649 164.149 184.97 164.093C185.29 164.038 185.62 164.08 185.917 164.212C186.214 164.345 186.465 164.563 186.637 164.838C186.81 165.113 186.897 165.434 186.887 165.759C186.878 166.084 186.771 166.399 186.582 166.664C186.393 166.928 186.13 167.13 185.825 167.245C185.421 167.399 184.973 167.387 184.578 167.211C184.183 167.035 183.875 166.709 183.72 166.305Z" fill="#46BABA"/>
        <path d="M216.277 145.171C216.207 144.987 216.192 144.785 216.236 144.592C216.28 144.399 216.38 144.224 216.524 144.088C216.667 143.952 216.848 143.862 217.043 143.828C217.238 143.795 217.438 143.82 217.619 143.901C217.8 143.982 217.952 144.114 218.058 144.281C218.163 144.449 218.216 144.643 218.211 144.841C218.206 145.039 218.142 145.231 218.027 145.392C217.913 145.553 217.753 145.677 217.569 145.748C217.321 145.843 217.046 145.835 216.804 145.727C216.561 145.619 216.372 145.419 216.277 145.171Z" fill="#46BABA"/>
        <path d="M253.204 134.562C253.137 134.382 253.145 134.183 253.224 134.008C253.304 133.833 253.449 133.697 253.628 133.629C253.806 133.56 254.004 133.565 254.179 133.643C254.353 133.721 254.49 133.865 254.558 134.044C254.626 134.222 254.621 134.42 254.543 134.594C254.465 134.769 254.321 134.905 254.143 134.973C253.963 135.042 253.764 135.037 253.589 134.96C253.413 134.883 253.275 134.74 253.204 134.562Z" fill="#46BABA"/>
        <path d="M290.685 135.53C290.582 135.262 290.562 134.969 290.625 134.69C290.689 134.41 290.834 134.155 291.042 133.958C291.25 133.761 291.512 133.63 291.795 133.582C292.078 133.533 292.368 133.57 292.63 133.687C292.892 133.804 293.113 133.996 293.266 134.239C293.419 134.481 293.496 134.764 293.489 135.05C293.481 135.337 293.388 135.615 293.222 135.849C293.057 136.083 292.825 136.263 292.557 136.365C292.198 136.503 291.799 136.492 291.448 136.335C291.097 136.178 290.822 135.889 290.685 135.53Z" fill="#46BABA"/>
        <path d="M331.443 145.779C330.774 144.031 328.814 143.156 327.065 143.825C325.316 144.494 324.441 146.454 325.111 148.203C325.78 149.951 327.74 150.826 329.488 150.157C331.237 149.488 332.112 147.528 331.443 145.779Z" fill="#46BABA"/>
        <path d="M353.744 171.262C353.303 170.142 353.205 168.916 353.463 167.74C353.721 166.565 354.324 165.492 355.194 164.66C356.063 163.829 357.161 163.275 358.347 163.069C359.533 162.863 360.754 163.016 361.853 163.506C362.952 163.997 363.88 164.804 364.519 165.824C365.157 166.844 365.478 168.031 365.439 169.234C365.401 170.437 365.005 171.602 364.302 172.579C363.599 173.556 362.621 174.301 361.492 174.721C360.005 175.276 358.36 175.224 356.91 174.577C355.461 173.93 354.324 172.739 353.744 171.262Z" fill="#46BABA"/>
        <path d="M374.634 202.432C374.029 200.856 373.905 199.136 374.278 197.49C374.651 195.843 375.503 194.345 376.728 193.183C377.953 192.022 379.495 191.25 381.159 190.965C382.822 190.681 384.533 190.896 386.075 191.584C387.616 192.272 388.918 193.402 389.817 194.831C390.716 196.259 391.171 197.923 391.124 199.61C391.077 201.297 390.531 202.933 389.554 204.309C388.577 205.686 387.214 206.742 385.637 207.343C383.526 208.148 381.183 208.083 379.12 207.162C377.057 206.241 375.444 204.54 374.634 202.432Z" fill="#46BABA"/>
        <path d="M304.435 179.006C303.713 177.12 303.566 175.062 304.014 173.092C304.462 171.123 305.484 169.331 306.951 167.942C308.418 166.554 310.264 165.631 312.255 165.292C314.246 164.953 316.293 165.212 318.137 166.036C319.981 166.86 321.539 168.213 322.614 169.923C323.689 171.633 324.232 173.623 324.176 175.642C324.12 177.661 323.466 179.618 322.297 181.265C321.128 182.912 319.497 184.176 317.61 184.896C315.082 185.861 312.274 185.782 309.803 184.678C307.333 183.574 305.402 181.534 304.435 179.006Z" fill="#46BABA"/>
        <path d="M332.485 202.75C331.646 200.563 331.474 198.177 331.991 195.892C332.509 193.608 333.692 191.529 335.392 189.917C337.091 188.305 339.231 187.234 341.539 186.839C343.848 186.443 346.222 186.741 348.361 187.695C350.5 188.649 352.308 190.216 353.556 192.197C354.805 194.179 355.438 196.486 355.374 198.828C355.311 201.169 354.555 203.439 353.202 205.35C351.848 207.262 349.958 208.729 347.771 209.566C344.839 210.685 341.584 210.596 338.718 209.318C335.853 208.041 333.611 205.678 332.485 202.75Z" fill="#46BABA"/>
        <path d="M349.602 235.977C348.665 233.529 348.475 230.858 349.057 228.302C349.638 225.747 350.964 223.421 352.867 221.619C354.771 219.817 357.166 218.62 359.749 218.179C362.333 217.739 364.99 218.074 367.382 219.144C369.775 220.213 371.797 221.968 373.193 224.187C374.588 226.406 375.294 228.988 375.221 231.608C375.149 234.228 374.301 236.768 372.784 238.906C371.268 241.044 369.152 242.684 366.703 243.619C365.079 244.241 363.347 244.536 361.608 244.489C359.87 244.441 358.157 244.051 356.569 243.342C354.981 242.632 353.548 241.616 352.353 240.352C351.157 239.089 350.222 237.602 349.602 235.977Z" fill="#46BABA"/>
        <path d="M353.636 273.46C352.659 270.908 352.461 268.123 353.067 265.457C353.673 262.792 355.056 260.366 357.04 258.486C359.025 256.607 361.522 255.358 364.217 254.898C366.911 254.438 369.681 254.787 372.177 255.901C374.673 257.015 376.783 258.845 378.239 261.158C379.695 263.471 380.433 266.164 380.358 268.896C380.284 271.629 379.401 274.278 377.821 276.508C376.242 278.739 374.036 280.451 371.483 281.428C369.788 282.078 367.982 282.387 366.167 282.339C364.353 282.29 362.566 281.884 360.908 281.144C359.25 280.404 357.755 279.345 356.507 278.026C355.26 276.708 354.284 275.156 353.636 273.46Z" fill="#46BABA"/>
        <path d="M343.873 309.501C342.922 307.02 342.727 304.313 343.315 301.722C343.902 299.131 345.244 296.773 347.172 294.945C349.1 293.117 351.527 291.902 354.145 291.454C356.764 291.005 359.456 291.343 361.883 292.426C364.309 293.508 366.36 295.285 367.776 297.533C369.192 299.781 369.909 302.398 369.837 305.053C369.766 307.709 368.908 310.284 367.373 312.452C365.838 314.62 363.694 316.284 361.213 317.234C357.888 318.506 354.194 318.407 350.942 316.956C347.691 315.506 345.148 312.825 343.873 309.501Z" fill="#46BABA"/>
        <path d="M321.707 338.703C320.831 336.42 320.652 333.929 321.192 331.544C321.733 329.159 322.969 326.988 324.744 325.306C326.519 323.623 328.753 322.505 331.163 322.093C333.574 321.681 336.052 321.993 338.285 322.99C340.518 323.987 342.405 325.624 343.708 327.693C345.01 329.763 345.669 332.173 345.602 334.617C345.535 337.062 344.743 339.431 343.329 341.426C341.914 343.421 339.94 344.951 337.655 345.823C334.596 346.994 331.197 346.902 328.206 345.567C325.216 344.231 322.878 341.762 321.707 338.703Z" fill="#46BABA"/>
        <path d="M290.461 356.551C289.702 354.563 289.55 352.395 290.023 350.32C290.497 348.246 291.574 346.358 293.12 344.896C294.666 343.434 296.611 342.464 298.708 342.107C300.806 341.75 302.962 342.022 304.905 342.891C306.847 343.759 308.489 345.184 309.622 346.985C310.754 348.786 311.328 350.882 311.27 353.009C311.211 355.136 310.524 357.198 309.294 358.934C308.064 360.67 306.347 362.003 304.36 362.763C303.039 363.269 301.632 363.509 300.219 363.47C298.805 363.431 297.414 363.114 296.123 362.537C294.832 361.961 293.668 361.135 292.696 360.108C291.725 359.08 290.965 357.872 290.461 356.551Z" fill="#46BABA"/>
        <path d="M255.078 360.369C254.462 358.758 254.337 357.001 254.719 355.319C255.102 353.637 255.974 352.107 257.226 350.921C258.478 349.735 260.054 348.947 261.754 348.657C263.454 348.366 265.202 348.587 266.777 349.29C268.352 349.993 269.683 351.147 270.602 352.606C271.521 354.066 271.986 355.765 271.939 357.489C271.892 359.213 271.335 360.885 270.338 362.292C269.342 363.699 267.95 364.78 266.339 365.396C265.27 365.807 264.13 366.003 262.985 365.972C261.84 365.942 260.712 365.685 259.666 365.219C258.62 364.752 257.676 364.083 256.889 363.251C256.102 362.419 255.487 361.439 255.078 360.369Z" fill="#46BABA"/>
        <path d="M221.032 349.436C220.576 348.244 220.484 346.944 220.767 345.699C221.05 344.455 221.696 343.323 222.623 342.446C223.55 341.569 224.716 340.986 225.974 340.772C227.232 340.558 228.525 340.722 229.69 341.243C230.855 341.764 231.839 342.619 232.518 343.699C233.197 344.78 233.54 346.038 233.504 347.313C233.468 348.589 233.054 349.825 232.315 350.866C231.576 351.906 230.545 352.704 229.352 353.158C228.562 353.461 227.719 353.604 226.873 353.581C226.027 353.558 225.194 353.368 224.421 353.022C223.648 352.676 222.951 352.182 222.37 351.566C221.788 350.951 221.334 350.227 221.032 349.436Z" fill="#46BABA"/>
        <path d="M193.491 325.511C193.187 324.722 193.124 323.86 193.31 323.036C193.496 322.211 193.922 321.46 194.536 320.878C195.149 320.296 195.921 319.909 196.754 319.766C197.587 319.623 198.444 319.731 199.216 320.076C199.988 320.42 200.64 320.986 201.09 321.702C201.54 322.418 201.768 323.251 201.744 324.096C201.72 324.941 201.445 325.76 200.956 326.449C200.466 327.138 199.783 327.666 198.992 327.966C197.937 328.368 196.766 328.334 195.735 327.874C194.704 327.414 193.897 326.564 193.491 325.511Z" fill="#46BABA"/>
        <path d="M176.715 292.143C176.537 291.681 176.499 291.177 176.607 290.694C176.715 290.211 176.964 289.771 177.322 289.43C177.681 289.088 178.132 288.861 178.62 288.776C179.107 288.692 179.609 288.754 180.061 288.955C180.514 289.156 180.896 289.486 181.161 289.905C181.425 290.323 181.559 290.811 181.546 291.305C181.533 291.8 181.374 292.28 181.088 292.684C180.802 293.088 180.403 293.398 179.94 293.575C179.635 293.693 179.309 293.75 178.981 293.742C178.653 293.734 178.33 293.662 178.031 293.528C177.731 293.395 177.461 293.205 177.235 292.967C177.009 292.729 176.833 292.449 176.715 292.143Z" fill="#46BABA"/>
        <path d="M173.28 254.429C173.187 254.187 173.168 253.923 173.226 253.67C173.283 253.417 173.414 253.188 173.603 253.009C173.791 252.831 174.027 252.713 174.283 252.669C174.538 252.626 174.801 252.659 175.037 252.764C175.274 252.87 175.474 253.043 175.612 253.262C175.75 253.482 175.82 253.737 175.813 253.996C175.806 254.255 175.722 254.506 175.572 254.718C175.423 254.929 175.214 255.091 174.972 255.184C174.647 255.308 174.286 255.298 173.969 255.157C173.652 255.015 173.404 254.753 173.28 254.429Z" fill="#46BABA"/>
        <path d="M183.951 218.051C183.898 217.918 183.886 217.773 183.916 217.633C183.946 217.494 184.017 217.366 184.12 217.267C184.222 217.168 184.352 217.101 184.493 217.076C184.633 217.051 184.778 217.068 184.909 217.125C185.04 217.182 185.151 217.277 185.227 217.398C185.304 217.518 185.343 217.659 185.34 217.802C185.337 217.944 185.291 218.083 185.209 218.199C185.126 218.316 185.011 218.406 184.878 218.457C184.701 218.524 184.505 218.52 184.331 218.444C184.158 218.368 184.021 218.227 183.951 218.051Z" fill="#46BABA"/>
        <path d="M206.342 188.764C206.234 188.481 206.212 188.173 206.279 187.878C206.346 187.583 206.499 187.314 206.719 187.106C206.938 186.898 207.215 186.76 207.513 186.709C207.811 186.658 208.118 186.697 208.395 186.82C208.671 186.943 208.904 187.146 209.066 187.402C209.227 187.658 209.308 187.956 209.3 188.258C209.292 188.561 209.194 188.854 209.019 189.101C208.844 189.348 208.6 189.538 208.318 189.646C207.939 189.791 207.518 189.78 207.147 189.614C206.777 189.449 206.487 189.143 206.342 188.764Z" fill="#46BABA"/>
        <path d="M244.568 168.233C243.71 165.989 241.195 164.866 238.951 165.725C236.707 166.584 235.584 169.099 236.443 171.342C237.302 173.586 239.817 174.709 242.061 173.85C244.304 172.992 245.427 170.477 244.568 168.233Z" fill="#46BABA"/>
        <path d="M270.463 168.046C269.91 166.601 269.798 165.025 270.141 163.517C270.483 162.009 271.266 160.636 272.389 159.572C273.512 158.509 274.925 157.803 276.449 157.542C277.974 157.282 279.542 157.479 280.954 158.11C282.366 158.74 283.56 159.775 284.384 161.084C285.208 162.393 285.625 163.917 285.583 165.463C285.541 167.009 285.042 168.508 284.148 169.77C283.254 171.032 282.006 172.001 280.561 172.554C278.624 173.295 276.472 173.237 274.578 172.391C272.684 171.546 271.204 169.983 270.463 168.046Z" fill="#46BABA"/>
    </g>
    <defs>
        <clipPath id="clip0_1779_14429">
            <rect width="411.531" height="409.76" fill="white" transform="translate(147.096 530.806) rotate(-110.943)"/>
        </clipPath>
    </defs>
</svg>
