<svg width="773" height="1031" viewBox="0 0 773 1031" fill="none" xmlns="http://www.w3.org/2000/svg">
    <g clip-path="url(#clip0_1779_14526)">
        <path d="M622.067 379.652C625.563 385.48 629.131 391.486 632.521 397.234C635.75 402.723 639.246 407.986 643.064 413.314C646.481 418.595 650.237 423.649 654.309 428.442C658.418 433.076 662.688 437.887 667.128 442.812C671.568 447.736 676.008 452.878 680.537 458.101C685.066 463.324 689.853 468.822 694.721 474.464C699.588 480.107 704.513 486.008 709.485 491.974C714.458 497.94 719.721 503.849 725.001 509.734C729.605 516.017 733.384 522.864 736.246 530.109C739.273 537.374 741.897 544.971 744.472 552.849C746.522 560.591 748.783 568.026 751.003 575.541C751.266 576.925 751.514 578.3 751.745 579.667L773.001 558.411C770.995 550.868 768.596 543.433 765.816 536.139C762.95 528.389 760.044 520.091 756.702 512.632C752.463 505.225 747.8 498.069 742.736 491.199C742.405 490.731 742.066 490.303 741.727 489.843L603.92 352.051C606.342 355.781 608.675 359.446 611.032 362.877C614.761 368.261 618.572 373.823 622.067 379.652Z" fill="#ACDBDB"/>
        <path d="M99.7209 577.268C107.132 573.087 114.303 569.301 121.234 565.91C127.633 562.572 134.211 559.591 140.94 556.982C154.171 551.92 163.543 547.489 172.318 543.735C181.504 539.82 189.198 536.671 195.066 533.838C200.201 530.77 204.931 528.066 209.823 525.676C212.988 523.384 215.539 520.994 216.653 518.597C217.767 516.199 217.323 513.802 216.217 511.493C213.771 509.155 210.994 507.191 207.975 505.664C203.549 503.43 198.907 501.65 194.122 500.353C187.664 498.569 181.079 497.285 174.425 496.51C166.106 495.521 157.727 495.127 149.351 495.331C139.096 495.458 128.863 496.348 118.74 497.995C107.116 499.875 95.6593 502.677 84.4799 506.375C78.4819 508.256 72.3063 510.46 66.0824 512.986C59.8584 515.513 53.4649 518.387 46.8211 521.624C40.1774 524.861 33.5578 528.47 26.9625 532.474C20.3672 536.478 13.8042 540.893 7.26535 545.737C4.84356 547.521 2.42178 549.394 0 551.331L0.670089 552.001C6.75683 547.158 12.892 542.693 19.0756 538.609C25.5014 534.357 31.9595 530.493 38.4498 527.016C44.9483 523.537 51.4467 520.413 57.7434 517.644C64.04 514.875 70.1106 512.445 76.0682 510.379C87.285 506.35 98.7814 503.148 110.466 500.797C120.491 498.8 130.654 497.566 140.867 497.108C149.398 496.7 157.947 496.859 166.457 497.584C173.087 498.142 179.662 499.221 186.122 500.813C190.955 501.971 195.664 503.593 200.184 505.656C203.922 507.44 206.643 509.313 208.306 511.218C209.167 512.17 209.815 513.295 210.208 514.517C210.6 515.739 210.728 517.031 210.582 518.306C208.967 520.728 206.191 523.085 203.042 525.459C198.853 527.945 194.348 530.835 189.125 533.854C183.676 536.744 176.314 539.989 167.329 544.058C158.667 547.989 148.988 552.486 136.088 557.725C129.616 560.386 123.296 563.404 117.158 566.766C110.417 570.14 103.596 573.918 96.5807 578.164C89.2588 582.596 81.7917 587.569 74.3729 593.131C68.0602 597.167 61.5375 601.696 55.0472 606.427L55.596 606.976C62.8614 601.72 70.1267 596.78 77.0772 592.324C84.6413 586.754 92.2618 581.797 99.7209 577.268Z" fill="#ACDBDB"/>
        <path d="M375.844 152.367L370.742 157.469C374.456 157.566 378.129 157.687 381.689 157.808C389.132 157.735 396.671 157.945 404.356 158.486C406.509 158.637 408.689 158.817 410.895 159.027L405.051 153.19C401.765 152.932 398.488 152.714 395.226 152.569C388.712 152.278 382.262 152.23 375.844 152.367Z" fill="#ACDBDB"/>
        <path d="M203.526 744.493C201.948 740.051 200.865 735.449 200.297 730.769C199.799 726.213 199.602 721.628 199.708 717.046C199.843 712.378 200.356 707.729 201.242 703.145C202.593 698.415 204.274 693.787 206.271 689.292C208.281 684.739 210.59 680.315 212.923 675.988C215.813 671.677 219.053 667.611 222.61 663.831C226.437 659.8 230.68 656.184 235.268 653.046C245.012 646.349 255.444 640.714 266.388 636.239C272.749 634.624 279.385 633.26 285.124 631.662C290.38 629.813 295.796 628.271 301.197 626.818C306.041 625.268 311.005 623.896 315.485 622.314C319.966 620.731 323.929 618.705 326.787 615.686C331.34 610.923 334.488 603.787 338.291 597.926C342.212 592.853 345.796 587.527 349.019 581.983C352.128 576.958 354.747 571.646 356.841 566.12C358.76 560.781 360.332 555.323 361.548 549.781C362.223 543.152 362.463 536.486 362.266 529.826C362.128 524.669 361.43 519.542 360.183 514.536C356.685 509.686 352.835 505.099 348.664 500.813C341.773 496.179 334.453 492.218 326.803 488.986C319.336 485.757 311.312 482.867 302.15 479.751C292.493 476.47 282.678 473.673 272.741 471.372C266.549 469.935 259.946 468.571 253.125 467.408C246.303 466.246 239.353 465.382 232.249 464.833C225.145 464.284 217.718 463.824 209.904 463.421C202.09 463.017 193.985 462.823 185.339 462.734C176.693 462.646 167.579 462.734 158.352 463.307C149.125 463.881 139.979 464.922 130.485 466.359C120.92 467.793 111.438 469.733 102.078 472.171C92.6896 474.593 83.511 477.653 74.2114 481.051C65.4042 484.28 56.7099 487.808 48.2256 491.876C39.7466 495.944 31.5072 500.494 23.5477 505.503C22.805 505.955 22.0704 506.431 21.3277 506.892L7.82227 520.397C11.1401 518.064 14.474 515.788 17.8645 513.608C25.9371 508.425 33.9291 503.695 42.0097 499.416C50.3889 494.968 59.0136 490.998 67.8421 487.525C76.6654 484.054 85.6906 481.067 94.3929 478.492C102.981 475.903 111.701 473.771 120.516 472.107C129.331 470.444 138.276 469.241 147.155 468.434C155.919 467.504 164.724 467.03 173.537 467.013C182.279 467.013 190.586 467.207 198.513 467.634C206.441 468.062 213.916 468.643 221.036 469.362C227.954 469.927 234.477 470.532 240.79 471.412C250.9 472.825 260.929 474.768 270.836 477.233C280.184 479.566 288.596 482.076 296.846 484.966C304.846 488.195 312.377 491.489 318.811 494.395C324.733 497.022 330.453 500.082 335.925 503.549C340.357 506.144 344.569 509.098 348.519 512.381C352.059 515.707 355.118 519.511 357.608 523.682C358.675 529.43 358.947 535.298 358.416 541.119C357.867 545.495 357.108 547.618 356.252 547.319C355.001 546.891 352.288 547.44 348.47 547.82C344.321 548.99 336.91 550.241 328.184 552.445C323.833 553.382 319.021 554.221 313.976 555.311C308.541 556.622 303.041 557.652 297.5 558.395C290.622 558.298 282.081 557.378 273.096 556.635C265.153 556.877 257.016 557.394 248.37 558.136C239.369 558.677 229.246 559.331 218.816 560.558C213.504 561.156 208.031 561.955 202.283 562.915C196.156 563.723 189.658 564.764 183.393 566.144C177.484 567.493 171.583 569.034 165.634 570.77C159.531 572.473 153.153 574.338 146.663 576.421C140.447 578.786 134.28 581.329 128.217 584.058C122.155 586.786 116.197 589.708 109.973 592.8C102.708 596.417 95.9105 600.146 89.5009 604.029C83.0912 607.912 77.061 611.916 71.2325 616.065C70.0216 617.026 68.8108 618.011 67.6322 618.988L69.8279 621.183C72.465 619.165 75.1558 617.166 77.9005 615.185C83.3737 611.241 89.0569 607.371 94.9499 603.577C101.586 599.888 108.609 596.312 115.519 593.026C122.429 589.741 128.726 586.738 135.184 583.896C142.029 581.16 149.069 578.617 156.172 576.413C163.276 574.209 170.34 572.328 177.024 570.697C183.708 569.067 190.295 567.799 197.109 566.831C203.922 565.862 210.291 565.006 216.483 564.36C222.416 563.626 228.204 563.093 233.936 562.746C239.668 562.399 245.351 562.302 250.792 562.318C260.479 561.906 269.512 561.616 278.311 561.632C287.724 562.488 297.096 563.836 304.749 563.811C311.837 562.843 318.569 561.955 324.64 561.269C330.831 560.566 335.191 560.671 338.613 561.422C341.261 562.875 343.239 565.071 343.401 569.495C343.562 573.918 341.988 580.796 337.596 592.098C334.191 597.757 331.079 603.588 328.272 609.567C326.16 612.113 323.907 614.538 321.524 616.832C318.025 618.732 314.406 620.401 310.69 621.829C306.46 623.331 301.681 624.703 296.563 626.253C291.445 627.803 286.069 629.619 280.539 631.847C273.514 633.316 266.646 635.451 260.027 638.225C253.294 641.092 246.813 644.519 240.652 648.469C234.445 652.396 228.692 656.999 223.498 662.192C218.566 667.115 214.187 672.561 210.437 678.434C207.27 684.487 204.639 690.805 202.574 697.316C200.547 703.809 199.195 710.494 198.538 717.264C198.809 724.172 199.774 731.036 201.419 737.752C203.182 744.844 205.615 751.753 208.685 758.385C209.331 759.629 210.009 760.807 210.695 762.075L212.221 763.6C211.179 761.679 210.162 759.742 209.185 757.764C207.037 753.457 205.147 749.025 203.526 744.493Z" fill="#ACDBDB"/>
        <path d="M476.631 830.667C473.402 818.622 470.915 806.893 469.051 796.294C468.041 790.514 467.153 784.742 466.362 778.655C465.514 772.4 465.343 766.072 465.854 759.781C466.427 753.323 468.857 747.01 471.973 739.979C476.243 732.714 481.555 724.601 487.311 715.487C491.078 709.029 494.576 702.748 497.805 696.645C500.428 691.263 502.748 685.738 504.756 680.097C505.661 675.66 506.262 671.166 506.556 666.648C506.686 662.476 506.562 658.3 506.184 654.143C505.929 650.413 505.146 646.739 503.859 643.229C502.986 640.041 501.427 637.082 499.29 634.559C497.244 632.139 494.576 630.325 491.573 629.312C488.522 627.9 485.364 626.734 482.128 625.824C478.092 625.929 473.539 627.568 468.712 630.272C463.352 633.396 458.226 636.903 453.374 640.767C447.997 644.9 442.766 648.395 437.462 652.012C432.554 653.957 427.38 657.186 421.987 661.546C416.667 665.582 411.848 669.295 407.666 672.089C403.485 674.882 399.691 677.215 396.47 679.112C393.297 681.202 390.722 682.898 388.639 683.382C386.556 683.866 385.144 683.511 385.112 681.558C385.055 677.643 386.314 671.653 389.576 663.217C391.061 659.382 392.982 655.184 395.227 650.414C397.471 645.643 400.07 640.428 402.823 635.011C405.576 629.594 408.312 624.153 411 618.688C413.689 613.223 416.344 607.629 418.903 601.34C421.462 595.052 423.828 589.013 426.04 583.056C428.252 577.098 430.318 571.181 432.231 565.409C434.096 559.758 435.832 554.495 437.414 549.482C438.996 544.469 440.409 539.706 441.62 535.145C443.94 526.293 445.479 517.255 446.221 508.134C446.932 499.625 447.222 492.304 447.238 486.071C447.254 479.839 447.004 474.608 446.617 470.298C445.228 461.951 443.88 455.92 442.532 452.078C441.038 448.348 439.771 446.621 438.786 446.935C434.831 448.203 433.45 455.476 433.886 457.777C434.104 458.923 434.798 459.311 435.993 460.465C437.188 461.619 438.762 463.791 440.732 468.538C442.048 471.694 443.154 479.605 443.363 492.586C443.468 499.044 443.008 507.117 442.241 516.481C441.483 520.679 440.554 525.183 439.44 530.067C438.326 534.951 437.018 540.287 435.582 545.978C433.757 551.718 431.707 558.2 429.414 565.272C427.121 572.343 424.49 579.746 421.705 587.318C418.779 595.281 415.424 603.08 411.654 610.68C407.941 617.946 404.002 626.018 399.884 634.244C395.041 642.68 390.706 649.986 387.073 657.332C383.44 664.678 380.526 671.257 377.846 677.045C375.102 682.97 372.849 687.54 371.889 690.922C370.46 693.691 370.839 695.644 373.382 696.573C375.925 697.501 379.961 696.403 385.66 693.424C388.429 691.745 391.755 689.517 395.396 686.853C398.851 683.939 402.726 680.872 407.109 677.82C411.493 674.769 416.401 670.853 421.559 667.197C426.487 663.513 431.706 660.236 437.164 657.396C442.685 653.449 448.554 649.324 454.431 645.078C460.308 640.831 466.104 636.763 471.383 634.874C475.737 633.437 480.457 633.574 484.719 635.261C488.57 636.706 491.759 638.749 493.906 641.953C496.156 645.554 497.64 649.58 498.265 653.78C499.428 657.961 499.387 663.225 499.218 668.569C499.066 674.638 498.036 680.652 496.158 686.425C493.285 693.887 489.816 701.106 485.785 708.012C481.313 715.866 476.098 724.205 470.334 732.94C464.57 741.674 460.413 750.401 458.693 760.031C458.166 769.082 458.365 778.161 459.291 787.18C460.098 796.173 461.188 805.02 462.52 813.698C463.852 822.376 465.507 830.812 467.42 838.933C469.034 845.698 470.778 852.229 472.732 858.582L482.104 849.218C482.047 849.056 481.991 848.903 481.942 848.749C480.053 842.76 478.237 836.681 476.631 830.667Z" fill="#ACDBDB"/>
        <path d="M91.6395 461.596C98.9049 459.61 106.227 457.866 113.436 456.3C120.644 454.734 128.071 453.459 135.603 452.466C143.135 451.473 150.707 450.746 157.988 450.157C165.27 449.568 172.454 449.196 179.356 448.898C186.259 448.599 192.878 448.316 199.376 448.09C205.875 447.864 212.373 447.889 218.848 448.05C225.322 448.212 231.764 448.591 238.222 449.204C244.68 449.818 250.791 450.383 256.854 451.126C262.916 451.868 268.962 452.813 274.936 453.887C281.394 455.275 287.659 456.494 293.689 457.745C299.879 459.041 305.994 460.674 312.006 462.637C318.149 464.263 324.155 466.371 329.967 468.942C337.232 473.503 345.781 480.978 354.476 490.173C358.778 495.234 362.976 500.732 366.383 509.24C367.068 517.197 367.27 525.187 366.988 533.168C366.511 538.354 365.702 543.504 364.566 548.586C363.285 554.515 361.643 560.359 359.65 566.088C357.228 572.949 353.612 579.391 349.39 586.269C347.097 589.627 344.587 593.212 341.931 596.885C340.906 598.289 339.88 599.767 338.855 601.276C342.017 597.49 344.981 593.542 347.735 589.45C350.488 585.413 352.99 581.619 355.251 578.051C357.301 573.813 359.085 569.672 360.675 565.765C362.177 561.535 363.484 557.539 364.598 553.704C365.913 547.446 366.886 541.122 367.513 534.758C368.046 528.825 368.264 523.505 368.32 518.742C367.779 509.692 366.399 502.54 364.243 497.608C359.48 491.182 354.359 485.029 348.905 479.178C343.473 474.423 338.161 470.242 333.051 466.601C328.54 463.308 323.77 460.387 318.786 457.866C309.559 455.21 300.09 452.716 290.113 450.536C280.135 448.357 270.004 446.5 259.695 445.031C249.386 443.562 239.279 442.738 228.494 442.125C217.912 441.548 207.307 441.508 196.721 442.004C186.444 442.431 175.845 442.948 164.955 443.82C153.858 444.514 142.578 445.698 131.115 447.372C119.786 448.985 108.56 451.249 97.4922 454.153C86.3116 456.995 75.131 460.409 64.3945 464.187L63.8617 464.397L52.5762 475.675C58.4127 473.075 64.4106 470.613 70.6103 468.345C77.3967 465.831 84.4065 463.582 91.6395 461.596Z" fill="#ACDBDB"/>
        <path d="M109.441 617.123C118.67 611.189 128.198 605.733 137.986 600.776C144 598.354 150.555 595.932 157.263 593.793C162.971 591.501 169.041 589.353 175.322 587.392C182.337 585.246 189.482 583.553 196.714 582.322C204.238 580.998 211.737 579.949 219.657 579.246C227.43 578.552 236.084 578.439 244.238 578.358C252.391 578.278 260.504 578.665 268.633 579.238C276.835 580.11 284.464 580.748 291.527 581.797C298.228 582.595 304.803 584.222 311.103 586.641C314.459 590.401 316.335 595.252 316.382 600.292C315.556 603.545 314.548 606.749 313.363 609.89C311.337 612.554 308.415 614.968 304.831 617.72C300.56 620.247 293.876 622.984 285.327 626.326C281.008 628.013 276.262 630.152 269.739 632.146C265.885 633.329 262.094 634.709 258.381 636.279C267.002 633.22 275.438 631.024 281.945 628.844C288.048 626.423 293.723 624.469 298.72 622.758C303.563 620.957 307.527 619.109 311.143 617.43C315.32 614.864 318.628 611.1 320.637 606.629C322.253 603.281 323.186 599.645 323.382 595.932C322.857 590.411 321.379 585.704 317.827 582.491C313.589 579.545 306.009 578.06 297.807 576.631C289.614 575.638 281.743 575.145 273.695 574.782C265.412 574.257 256.395 573.668 247.402 573.579C238.256 573.426 228.835 573.668 219.148 574.064C210.357 574.976 201.727 576.163 193.364 577.785C184.788 579.268 176.299 581.216 167.935 583.622C160.647 585.745 153.497 588.317 146.527 591.323C139.14 594.173 131.431 597.264 124.214 600.493C117.923 603.927 111.968 607.404 106.349 610.923C100.731 614.443 95.4783 618.03 90.5917 621.684C86.4827 624.752 82.8017 627.755 79.3789 630.725L85.6755 637.03C86.9671 635.803 88.283 634.608 89.6553 633.341C95.8309 627.868 102.337 622.499 109.441 617.123Z" fill="#ACDBDB"/>
        <path d="M450.007 812.529C448.51 804.456 447.353 796.922 446.535 789.925C445.728 782.918 444.921 776.202 444.275 769.8C443.731 764.126 443.475 758.427 443.508 752.727C445.413 742.636 449.442 734.281 452.969 727.338C457.393 719.799 461.236 712.808 461.849 708.481C462.309 700.642 461.276 694.822 459.718 690.317C458.798 685.24 455.988 683.004 451.645 683.981C446.871 685.439 442.27 687.413 437.922 689.865C433.361 692.287 428.864 695.096 424.772 697.526C417.797 702.58 412.792 707.827 410.628 710.709C408.263 713.3 408.917 713.672 411.751 712.614C415.189 710.852 418.911 709.707 422.745 709.232C427.645 707.972 431.714 709.094 434.007 713.671C435.177 716.004 435.315 719.766 434.58 724.626C433.845 729.486 432.094 735.774 428.542 745.437C427.387 754.091 429.018 764.811 431.262 777.873C432.376 784.371 433.361 790.918 434.612 798.216C435.864 805.514 437.656 813.61 439.916 822.434C442.394 832.121 445.454 842.68 449.377 854.442C451.339 860.327 453.543 866.551 455.972 873.081C456.182 873.646 456.4 874.22 456.618 874.785L457.821 873.582C456.513 869.99 455.254 866.478 454.108 863.087C451 853.99 448.392 845.602 446.39 838.062C444.453 830.754 442.838 824.008 441.547 817.824C440.239 811.633 439.222 805.885 438.431 800.42C436.816 789.498 435.428 779.512 434.394 771.552C433.361 763.593 432.634 756.973 433.03 751.484C434.644 745.09 436.259 740.029 438.382 735.831C443.952 726.499 446.858 721.68 448.513 719.589C450.168 717.498 451.322 717.522 451.88 719.048C451 722.204 448.077 728.259 443.169 738.931C441.259 745.968 440.443 753.256 440.747 760.541C441.272 765.32 442.015 770.737 442.83 776.549C443.645 782.361 444.541 788.658 445.591 795.439C446.899 803.673 448.465 812.545 450.54 822.256C452.558 831.798 455.181 842.091 458.733 853.796C460.097 858.317 461.639 863.095 463.326 868.076L464.206 867.188C460.84 857.017 458.055 847.378 455.73 838.377C453.373 829.199 451.492 820.593 450.007 812.529Z" fill="#ACDBDB"/>
        <path d="M405.648 177.545C396.348 176.35 386.758 175.39 377.321 174.962C369.143 174.582 361.111 174.615 353.224 174.962L344.57 183.624C351.028 183.341 357.398 183.212 363.848 183.293C372.413 183.132 380.98 183.401 389.519 184.1C398.253 184.802 407.101 185.989 415.956 187.603C424.812 189.218 432.457 190.235 440.013 191.47C441.474 191.801 442.927 192.148 444.388 192.495L433.006 181.113L431.754 180.903C423.294 179.628 414.947 178.748 405.648 177.545Z" fill="#ACDBDB"/>
        <path d="M266.671 638.475C274.913 635.625 284.068 633.833 291.373 631.5C298.679 629.167 306.074 627.318 312.693 625.22C316.576 624.207 320.336 622.773 323.906 620.941C319.353 622.787 314.711 624.404 309.997 625.785C304.112 627.343 298.009 629.014 291.737 631.008C285.464 633.002 278.094 634.713 270.175 636.424C263.278 638.997 256.577 642.065 250.122 645.603C243.829 649.091 237.809 653.05 232.112 657.445C231.644 657.833 231.208 658.253 230.748 658.632C234.858 655.375 239.172 652.385 243.664 649.68C250.913 645.138 258.626 641.382 266.671 638.475Z" fill="#ACDBDB"/>
        <path d="M236.938 648.178C232.497 651.226 228.281 654.587 224.32 658.237C220.223 662.012 216.535 666.209 213.317 670.757C212.243 672.267 211.242 673.833 210.266 675.415C213.222 670.934 216.532 666.696 220.163 662.741C223.867 658.724 227.973 655.097 232.417 651.916C236.873 648.687 241.216 645.902 245.438 643.391C249.418 641.018 253.26 638.903 256.966 636.933C254.544 637.983 252.203 639.089 249.846 640.348C245.397 642.709 241.087 645.324 236.938 648.178Z" fill="#ACDBDB"/>
        <path d="M459.533 842.47C457.709 835.199 456.132 828.168 454.803 821.376C453.473 814.584 452.351 808.043 451.436 801.752C450.5 795.455 449.693 789.263 449.014 783.265C447.739 772.457 447.259 761.57 447.577 750.692C450.492 741.304 455.093 733.594 459.033 726.41C463.238 719.064 467.323 711.766 470.609 704.945C471.568 700.487 471.9 695.916 471.593 691.367C471.489 687.68 471.016 684.013 470.181 680.42C468.849 673.534 465.087 669.014 458.387 669.369C453.91 670.929 449.615 672.967 445.576 675.447C440.732 678.249 435.42 681.817 429.866 685.328C424.627 687.968 418.952 692.206 413.035 697.437C407.44 703.088 401.33 708.02 395.622 713.316C389.762 718.103 380.882 719.04 371.356 718.967C361.968 718.967 352.684 718.66 344.192 718.216C337.274 718.886 330.751 719.742 324.93 720.759C319.11 721.776 314.032 722.842 309.827 724.464C306.598 726.538 303.619 728.976 300.947 731.73C298.617 734.165 296.708 736.969 295.296 740.028C294.837 745.747 295.292 751.502 296.644 757.078C298.743 766.531 302.039 775.679 306.452 784.299C309.974 791.358 313.929 798.192 318.295 804.763C322.452 810.97 326.609 816.67 330.533 821.57C333.841 825.807 337.446 829.805 341.318 833.533C347.719 839.483 350.464 838.966 348.583 830.732C347.185 825.366 345.485 820.084 343.489 814.91C341.068 808.274 338.097 800.379 335.045 791.499C331.873 782.682 329.677 773.543 328.498 764.246C327.969 760.004 328.154 755.704 329.048 751.524C329.847 747.528 331.84 743.868 334.763 741.029C340.196 738.519 347.251 736.993 354.589 736.299C362.811 735.77 371.06 735.867 379.267 736.589C396.405 737.929 407.36 738.745 411.679 741.062C413.842 742.224 414.908 745.615 415.642 750.749C417.79 755.382 419.154 763.051 421.455 771.633C422.601 775.938 423.852 780.73 425.208 786.01C426.556 791.483 427.985 797.578 429.6 804.399C431.214 811.221 433.345 818.93 436.058 827.471C438.77 836.012 442.024 845.36 445.745 855.45C447.828 861.101 450.04 866.954 452.413 873.073C452.954 874.486 453.535 875.931 454.1 877.36L455.053 876.407C453.869 873.372 452.733 870.412 451.646 867.527C447.553 856.54 444.123 846.659 441.241 837.804C438.359 828.948 436.034 820.9 434.201 813.586C432.369 806.272 430.972 799.572 429.907 793.76C427.848 782.216 425.911 772.771 423.545 763.891C422.06 754.462 422.189 747.027 421.786 742.184C422.698 736.751 422.682 732.803 421.204 730.6C418.234 726.176 411.283 727.605 402.201 733.522C395.501 733.425 387.307 732.973 378.331 732.505C369.741 732.069 360.708 731.358 352.644 731.964C345.925 732.413 339.284 733.671 332.866 735.71C327.49 737.687 323.179 739.907 320.757 742.636C318.702 748.109 317.771 753.941 318.02 759.782C318.351 769.275 318.731 776.064 317.399 777.848C316.067 779.633 312.717 776.282 308.196 769.429C304.915 763.14 302.7 756.35 301.641 749.336C300.767 744.626 301.473 739.759 303.651 735.492C308.796 730.24 315.207 726.404 322.266 724.351C327.81 723.096 333.426 722.182 339.082 721.615C346.538 720.913 354.028 720.643 361.516 720.807C370.161 720.977 379.13 720.92 388.155 720.888C395.122 718.087 400.434 712.945 406.327 707.778C411.334 702.084 416.912 696.918 422.972 692.36C428.268 689.365 433.547 686.305 438.706 683.173C443.125 680.36 447.804 677.978 452.679 676.061C456.764 674.592 460.023 674.847 462.455 676.828C464.877 678.814 466.137 682.132 466.685 686.071C467.378 690.211 467.767 694.395 467.848 698.592C467.985 703.128 466.685 708.876 461.882 717.215C457.805 724.884 453.398 732.892 448.474 742.095C445.995 751.257 445.624 762.414 446.811 775.249C447.456 781.707 448.272 788.399 449.232 795.237C450.193 802.074 451.259 809.202 452.534 816.621C453.81 824.04 455.513 831.846 457.547 840.032C459.582 848.217 461.995 856.669 464.813 865.444L465.152 866.453L466.007 865.59C465.951 865.396 465.886 865.202 465.83 865.017C463.44 857.243 461.366 849.743 459.533 842.47Z" fill="#ACDBDB"/>
        <path d="M106.672 443.756C112.557 442.553 118.555 441.496 124.626 440.592C130.712 439.558 136.945 438.719 143.193 437.992C149.441 437.266 155.423 436.571 161.485 436.022C167.548 435.474 173.538 434.973 179.487 434.561C185.437 434.15 191.346 433.819 197.247 433.609C209.065 433.189 221.101 433.52 232.766 433.786C238.579 434.287 244.552 434.917 250.647 435.74C256.742 436.563 262.99 437.58 269.343 438.84C280.847 440.236 292.383 442.497 303.434 444.596C311.424 447.487 319.104 451.17 326.36 455.59C335.59 462.083 344.285 469.304 352.362 477.185C356.833 482.2 361.042 487.444 364.972 492.894C366.78 496.478 368.071 501.435 368.814 507.602C369.613 515.044 369.866 522.534 369.573 530.012C369.013 535.918 368.08 541.782 366.78 547.57C365.239 554.216 363.353 560.777 361.129 567.227C358.27 574.118 354.755 580.72 350.635 586.94C348.31 590.233 345.791 593.689 343.184 597.249C340.576 600.809 337.856 604.595 335.305 608.825C333.368 613.225 330.511 617.158 326.925 620.36C322.889 622.701 317.965 624.235 312.919 625.737C307.624 627.351 302.118 628.966 296.209 630.58C290.3 632.195 284.472 634.173 277.198 635.505C270.478 637.2 263.936 639.535 257.662 642.479C251.55 645.394 245.595 648.628 239.822 652.167C234.555 655.832 229.658 660.004 225.202 664.623C224.46 665.43 223.757 666.237 223.047 666.988C227.312 662.703 231.9 658.752 236.77 655.17C242.359 651.108 248.26 647.494 254.417 644.36C260.886 641.102 267.699 638.576 274.728 636.829C281.993 634.964 288.532 633.115 294.74 631.267C301.101 629.652 307.196 628.134 313.169 626.843C317.803 624.994 322.413 623.315 326.53 621.192C326.982 620.934 327.442 620.691 327.87 620.385C331.434 616.829 334.429 612.744 336.75 608.276C339.044 603.98 341.721 599.9 344.75 596.086C347.454 592.155 349.916 588.498 352.217 585.099C354.498 581.814 356.553 578.378 358.368 574.815C361.685 567.893 364.349 560.677 366.328 553.261C368.122 546.728 369.364 540.055 370.041 533.314C371.002 523.57 371.139 515.15 370.388 507.974C369.637 500.797 368.192 494.815 366.352 490.448C362.221 484.647 357.707 479.129 352.838 473.931C348.458 469.285 343.753 464.955 338.76 460.975C330.622 454.463 321.96 448.634 312.863 443.546C305.848 440.26 298.554 437.607 291.067 435.619C279.684 433.665 268.197 432.027 255.83 430.372C249.646 429.564 243.487 428.862 237.392 428.321C231.297 427.78 225.283 427.361 219.398 427.054C207.362 426.957 195.778 427.054 184.516 427.861C173.255 428.668 161.84 429.702 150.087 430.993C138.333 432.285 126.402 433.907 114.826 436.014C105.058 437.693 95.5079 439.679 86.3212 441.98L76.957 451.336C81.0902 450.093 85.2475 448.914 89.4776 447.776C95.0477 446.291 100.779 444.951 106.672 443.756Z" fill="#ACDBDB"/>
        <path d="M240.879 314.723C250.073 314.933 258.437 315.466 265.444 315.619C272.709 316.144 279.167 316.701 284.818 317.331C290.469 317.96 295.312 318.404 299.728 318.945C305.661 318.945 309.9 318.509 311.667 316.903C313.879 315.595 313.766 313.238 311.514 310.089C307.598 306.209 303.44 302.58 299.066 299.224C294.222 295.462 288.919 291.789 283.591 288.277C278.513 284.935 273.209 281.706 267.954 278.655C263.877 276.297 259.882 274.078 256.233 271.963L234.824 293.371C236.293 295.397 236.011 297.359 234.776 299.353C233.969 300.709 231.272 301.702 227.179 302.582C226.542 302.76 225.847 302.929 225.129 303.099L212.576 315.643C222.618 314.893 231.983 314.521 240.879 314.723Z" fill="#ACDBDB"/>
        <path d="M460.939 810.293C460.018 803.216 459.23 796.252 458.573 789.401C457.917 782.55 457.427 775.852 457.104 769.308C457.23 763.27 457.846 757.252 458.945 751.314C461.073 745.968 463.697 740.833 466.783 735.976C473.839 725.692 479.699 716.311 484.712 707.625C489.33 699.02 492.955 691.149 495.336 683.811C496.687 677.977 497.189 671.98 496.829 666.003C497.142 660.998 496.49 655.98 494.908 651.222C493.829 647.322 491.669 643.807 488.676 641.083C485.306 638.721 481.382 637.272 477.286 636.877C472.854 636.538 467.599 638.443 461.746 642.391C455.982 646.039 449.863 650.463 443.873 654.693C437.883 658.923 432.176 661.845 426.557 665.188C420.632 669.781 414.893 674.245 409.718 678.41C404.543 682.576 399.902 686.483 395.672 690.326C390.998 693.555 386.832 696.719 383.167 699.109C374.957 702.249 367.531 701.385 363.139 699.682C358.748 697.978 357.093 696.057 358.247 694.346C359.401 692.634 362.84 690.64 367.248 687.605C371.306 681.668 375.054 675.524 378.477 669.2C382.264 660.591 386.519 652.197 391.224 644.053C393.645 639.84 395.978 635.464 398.279 631.008C400.58 626.552 402.84 622.128 405.1 617.6C407.215 613.143 409.226 608.838 411.131 604.683C413.036 600.558 414.836 596.611 416.491 592.421C419.776 583.678 422.682 574.984 425.371 567.138C428.059 559.291 429.98 551.905 431.627 545.091C433.274 538.278 434.469 532.563 435.284 527.719C436.008 523.633 436.437 519.5 436.567 515.352C436.705 508.482 436.075 504.163 434.775 502.662C433.476 501.16 431.546 502.5 429.003 506.698C427.323 509.547 425.853 512.515 424.604 515.578C422.989 519.461 421.157 524.401 419.131 530.254C417.104 536.107 414.602 542.444 411.865 550.363C410.331 554.125 408.636 557.685 406.739 561.471C404.842 565.257 402.848 569.301 400.628 573.58C398.408 577.858 396.067 582.556 393.581 587.537C391.07 592.332 388.382 597.224 385.549 602.205C382.425 607.121 379.09 611.836 375.595 616.97C372.233 621.936 368.53 626.662 364.511 631.113C360.717 635.497 357.335 640.719 353.888 645.838C349.626 649.955 344.83 653.297 338.873 654.717C332.189 655.161 325.432 655.815 317.763 656.235C310.094 656.655 301.892 657.163 293.836 658.043C286.89 660.056 280.11 662.604 273.557 665.664C267.222 668.638 261.199 672.237 255.58 676.408C250.401 680.305 245.833 684.952 242.026 690.196C238.49 695.094 235.45 700.333 232.952 705.833C231.339 711.628 230.38 717.585 230.094 723.593C229.828 729.676 230.207 735.769 231.225 741.772C233.291 747.865 235.794 753.8 238.716 759.532C241.776 765.527 245.175 771.344 248.896 776.953C252.932 782.491 256.968 788.125 261.109 793.776C265.251 799.427 269.352 805.078 273.517 810.583C277.787 815.822 282.026 820.795 286.239 825.622C290.453 830.45 294.611 835.14 298.687 839.806C306.849 849.138 314.59 858.276 321.694 867.148C328.669 875.866 335.111 884.036 341.19 892.423L347.906 899.14C346.558 897.259 345.218 895.378 343.87 893.489C340.205 888.395 336.419 883.213 332.52 878.03C328.596 873.316 324.576 868.343 320.411 863.281C316.245 858.22 312.023 853.045 307.64 847.846C303.256 842.648 298.623 837.546 294.062 832.387C289.501 827.229 284.94 822.071 280.338 816.767C275.785 811.189 271.313 805.336 266.881 799.411C262.449 793.485 258.122 787.496 253.892 781.53C249.582 775.443 245.683 769.421 242.26 763.463C238.917 757.69 236.063 751.646 233.727 745.397C232.238 739.4 231.452 733.251 231.386 727.072C231.354 721.156 232.004 715.257 233.323 709.49C235.465 704.015 238.111 698.75 241.227 693.765C244.357 688.829 247.897 684.165 251.81 679.823C256.97 676.041 262.392 672.631 268.036 669.619C273.826 666.575 279.816 663.926 285.965 661.692C292.59 660.029 299.339 658.909 306.146 658.342C313.073 657.745 320.112 657.688 326.175 657.325C332.019 656.687 337.928 656.566 343.385 656.098C347.537 653.561 351.337 650.489 354.687 646.96C357.512 642.738 360.338 638.588 363.204 634.956C366.069 631.323 369.121 628.142 372.083 624.364C375.046 620.586 377.734 616.534 380.414 612.78C383.094 609.026 385.549 605.135 387.825 601.478C392.378 594.124 396.325 586.867 399.789 580.393C403.252 573.919 406.327 568.284 409.088 563.255C411.462 558.177 413.528 553.164 415.377 548.902C417.226 544.639 418.88 541.136 420.325 538.294C423.207 532.595 425.169 529.221 426.565 528.179C428.018 527.372 428.987 528.728 429.141 532.062C429.294 535.396 428.866 541.039 427.3 548.861C426.493 552.768 425.476 557.168 424.16 561.899C422.844 566.629 421.31 571.9 419.55 577.761C417.548 583.678 415.353 589.87 412.858 595.642C410.364 601.414 407.603 607.501 404.559 613.943C401.516 620.385 398.198 627.157 394.727 633.963C391.272 640.348 387.647 646.79 384.007 653.248C380.56 659.811 377.549 666.608 374.32 672.743C370.913 678.079 367.506 682.988 362.752 685.861C357.65 688.34 353.274 689.26 350.094 690.35C346.913 691.44 345.105 692.651 344.798 693.974C344.491 695.298 345.67 696.735 348.189 698.229C350.707 699.722 355.082 701.337 361.379 702.911C367.902 704.089 376.289 704.622 383.982 701.434C387.365 698.955 390.998 695.928 394.824 692.82C398.65 689.712 402.477 686.362 406.61 683.133C410.743 679.904 415.224 676.158 419.841 672.687C424.31 669.201 429.008 666.018 433.903 663.161C438.61 660.376 443.421 657.107 448.273 653.539C453.173 649.825 457.863 646.629 462.48 643.618C466.183 641.515 470.261 640.158 474.484 639.622C477.727 639.293 480.991 639.981 483.825 641.591C486.476 643.024 488.68 645.161 490.194 647.767C491.909 650.778 493.117 654.051 493.77 657.454C494.908 660.683 495.053 664.921 494.787 669.563C494.977 674.261 494.609 678.966 493.689 683.577C492.236 689.171 489.467 695.573 486.165 702.071C482.864 708.57 478.795 715.593 474.283 723.06C469.27 730.664 463.853 738.705 459.809 747.197C456.894 755.399 456.063 765.102 456.579 775.572C457.282 786.067 458.38 797.029 459.954 808.266C461.528 819.503 463.675 831.055 466.412 842.801C467.816 848.775 469.369 854.627 471.07 860.359L471.756 859.681C470.4 855.087 469.1 850.405 467.889 845.562C465.104 834.478 462.86 822.797 460.939 810.293Z" fill="#ACDBDB"/>
        <path d="M434.709 206.307C427.258 204.217 419.718 202.465 412.146 201.092C404.564 199.732 396.913 198.789 389.228 198.267C381.438 197.645 373.333 197.21 365.43 197.21C357.357 197.097 349.196 197.21 341.333 197.646C337.337 197.888 333.43 198.235 329.555 198.655L311.9 216.309C320.151 214.695 328.627 213.355 337.733 212.499C343.908 211.918 349.93 211.393 356.154 211.167C362.378 210.941 368.788 210.981 375.383 211.321C381.979 211.66 388.356 212.128 394.758 212.975C401.159 213.823 407.504 214.848 413.631 216.027C419.759 217.205 425.934 218.667 432.093 220.394C438.253 222.122 444.38 224.107 450.394 226.336C462.091 230.679 473.369 235.667 483.338 240.22C489.312 242.868 495.092 245.782 500.775 248.907L468.412 216.543C464.238 215.139 460.065 213.831 455.891 212.652C449.458 210.796 442.192 208.406 434.709 206.307Z" fill="#ACDBDB"/>
        <path d="M485.389 812.787C483.774 806.087 482.345 799.419 481.15 792.856C479.956 786.293 478.963 779.827 478.107 773.482C478.398 766.959 478.914 760.501 480.529 754.551C482.113 748.529 484.164 742.64 486.664 736.937C489.239 731.076 492.315 725.175 495.415 719.315C498.515 713.454 501.364 707.73 503.931 702.136C508.052 693.841 511.609 685.278 514.579 676.505C515.744 672.578 516.289 668.492 516.194 664.397C515.992 660.659 515.734 656.687 515.54 652.175C515.067 647.34 514.06 642.572 512.537 637.959C511.315 633.771 509.234 629.883 506.426 626.544C503.329 623.722 499.6 621.685 495.552 620.603C491.486 619.217 487.279 618.288 483.007 617.834C479.263 618.572 475.642 619.838 472.254 621.596C468.194 623.644 464.33 626.059 460.71 628.812C456.755 631.767 452.799 634.883 448.957 637.789C445.457 640.255 441.821 642.521 438.067 644.578C434.604 646.338 431.342 648.098 428.226 650.068C425.11 652.037 422.132 654.169 419.395 656.001C413.93 659.666 409.587 661.918 406.479 662.798C402.806 663.84 400.481 663.436 399.803 660.966C399.125 658.496 400.19 653.926 402.846 647.008C404.17 643.545 405.841 639.501 407.867 635.004C409.893 630.508 412.283 625.64 415.076 620.474C417.409 614.887 420.057 608.365 422.785 601.535C425.514 594.706 428.315 587.376 431.149 579.852C433.7 571.941 436.339 564.264 439.036 556.708C441.732 549.152 444.226 541.475 446.446 532.789C448.434 524.424 449.888 515.942 450.797 507.392C451.661 499.489 452.145 492.055 452.218 484.789C452.218 477.387 452.089 470.719 451.742 464.696C451.395 458.674 450.854 453.241 450.168 448.366C449.083 439.992 447.102 431.759 444.259 423.809C441.772 417.197 439.157 412.41 436.751 409.318C434.345 406.227 432.19 404.846 430.398 405.282C428.606 405.718 427.233 407.76 426.16 411.24C425.086 414.719 424.892 420.838 424.909 428.854C424.909 432.869 424.909 437.36 424.909 442.327C424.909 447.284 424.715 452.168 424.456 457.326C423.778 462.412 423.044 467.877 422.148 473.77C421.252 479.663 420.178 485.976 418.838 492.684C417.498 499.392 416.029 507.328 414.107 515.021C412.186 522.714 409.748 530.763 407.076 539.077C405.736 543.251 404.267 547.231 402.685 551.186C401.102 555.142 399.456 559.202 397.615 563.295C395.775 567.388 393.934 571.618 391.964 576.002C389.995 580.385 387.928 584.445 385.676 588.659C383.423 592.873 381.131 597.055 378.701 600.857C376.271 604.659 373.785 608.421 371.274 612.159C368.845 615.413 366.222 618.519 363.419 621.458C360.709 624.297 358.154 627.28 355.767 630.395C353.49 633.753 351.359 637.087 349.309 640.518C346.799 643.126 343.974 645.409 340.897 647.315C333.704 648.663 326.366 649.422 319.335 650.334C312.223 651.424 303.924 651.811 296.28 652.82C289.306 653.646 282.444 655.232 275.815 657.551C270.468 659.507 265.265 661.834 260.243 664.518C255.65 666.939 251.598 669.474 247.965 671.783C242.937 676.39 238.266 681.372 233.991 686.685C230.762 690.794 228.672 693.781 227.372 695.484C224.789 698.891 224.95 697.268 227.654 691.262C229.515 687.235 231.784 683.41 234.427 679.848C238.498 674.385 243.26 669.473 248.595 665.236C252.043 662.503 255.7 660.044 259.533 657.882C263.634 655.525 268.155 653.297 272.909 651.117C278.12 649.12 283.492 647.573 288.966 646.492C294.867 645.289 301.252 644.506 306.726 643.262C312.199 642.019 317.906 640.841 323.5 639.743C328.788 638.691 333.899 636.888 338.677 634.391C342.189 630.031 345.256 624.639 348.558 619.529C351.778 614.386 355.332 609.459 359.197 604.78C363.026 599.814 366.373 594.495 369.191 588.893C372.186 582.815 375.02 576.785 377.579 570.383C380.089 563.691 382.374 557.136 384.408 550.508C386.443 543.881 388.186 537.092 389.801 530.367C390.971 523.53 391.908 516.854 392.562 510.508C393.216 504.163 393.635 498.141 393.756 492.385C393.877 486.63 393.643 480.64 393.199 474.86C392.755 469.08 392.093 463.486 391.197 458.125C389.703 448.776 387.545 439.544 384.739 430.501C382.144 423.878 379.046 417.463 375.472 411.312C369.622 405.425 363.453 399.863 356.994 394.65C351.465 390.201 345.693 386.064 339.702 382.259C329.962 377.144 319.95 372.563 309.712 368.536C302.573 366.373 295.321 364.602 287.989 363.232C283.703 362.701 279.372 362.639 275.073 363.046C268.243 363.353 266.371 365.032 268.26 367.373C272.021 372.047 282.903 377.633 297.967 384.915C305.232 388.33 312.667 392.237 320.385 396.644C328.07 401.682 335.908 407.139 343.625 412.959C351.328 419.437 358.636 426.37 365.51 433.722C369.172 438.036 372.355 442.735 375.004 447.736C378.347 454.178 381.035 460.939 383.028 467.917C383.641 473.479 384.182 479.607 384.489 486.274C384.796 492.942 384.836 500.192 384.489 507.941C384.052 516.151 383.084 524.325 381.591 532.409C380.477 536.575 379.306 540.789 378.071 545.188C376.836 549.588 375.512 554.206 374.035 558.952C372.525 563.513 370.806 567.897 368.901 572.345C367.013 576.858 364.89 581.269 362.54 585.559C360.214 589.524 357.61 593.32 354.749 596.918C351.989 600.502 349.155 604.239 346.096 607.856C343.365 612.053 340.898 616.415 338.709 620.918C336.26 624.924 332.725 628.155 328.513 630.233C323.67 631.501 318.948 632.994 313.717 634.27C308.243 635.327 302.802 636.627 297.571 638.177C291.525 639.549 284.607 640.599 278.116 642.278C271.923 643.809 265.918 646.021 260.211 648.873C254.891 651.577 249.765 654.649 244.873 658.068C240.019 661.483 235.386 665.204 231.005 669.208C227.34 673.538 224.058 678.179 221.196 683.077C218.392 687.943 215.843 692.952 213.56 698.084C212.092 703.595 211.131 709.229 210.686 714.915C210.244 720.828 210.279 726.767 210.791 732.675C212.256 738.774 214.233 744.739 216.7 750.507C219.219 756.513 222.205 762.616 225.475 768.888C229.616 774.789 234.024 780.618 238.609 786.479C242.718 791.758 246.94 797.086 251.154 802.462L264.118 815.427L260.841 811.56C256.07 805.288 251.234 799.064 246.423 792.921C241.612 786.777 236.873 780.715 232.312 774.555C228.368 768.336 224.791 761.891 221.6 755.254C218.646 749.094 216.103 742.746 213.988 736.251C213.282 730.026 213.088 723.754 213.406 717.498C213.74 711.54 214.621 705.624 216.038 699.827C218.435 694.416 221.13 689.142 224.11 684.029C227.049 679.037 230.435 674.322 234.225 669.942C238.797 665.953 243.627 662.269 248.684 658.915C253.691 655.627 258.903 652.661 264.288 650.035C269.839 647.355 275.671 645.303 281.676 643.916C287.932 642.423 294.536 641.495 300.34 640.364C305.579 638.919 310.834 637.741 315.977 636.837C320.547 635.821 325.063 634.574 329.506 633.099C333.6 631.729 337.172 629.13 339.735 625.656C341.914 621.313 344.11 617.269 346.354 613.547C348.97 610.399 351.496 607 353.975 603.86C356.453 600.72 358.891 597.765 361.151 594.98C365.22 588.276 368.852 581.316 372.025 574.145C374.916 567.44 377.436 560.582 379.573 553.6C381.607 547.142 383.27 541.144 384.505 535.453C385.74 529.762 386.717 524.595 387.5 519.929C388.283 515.263 388.872 511.049 389.292 507.215C389.736 491.877 390.059 483.28 390.164 480.01C390.269 476.741 390.656 480.22 390.907 490.109C391.039 497.51 390.77 504.913 390.099 512.284C389.576 517.788 388.768 523.26 387.678 528.68C386.507 534.799 384.917 541.645 382.769 548.861C380.484 556.839 377.773 564.689 374.649 572.377C372.929 576.51 371.016 580.619 368.933 584.898C366.85 589.176 364.533 593.277 362.007 597.491C359.286 600.954 356.356 604.465 353.434 608.437C350.511 612.409 347.444 616.445 344.481 620.918C341.954 626.036 339.097 630.831 335.028 634.205C329.771 636.343 324.278 637.85 318.665 638.693C312.441 639.937 306.249 641.317 300.292 643.061C292.833 643.924 285.47 645.095 278.496 646.58C272.608 649.026 266.862 651.799 261.285 654.887C255.844 657.847 250.633 661.212 245.697 664.954C241.089 668.427 236.918 672.444 233.273 676.917C229.98 681.038 227.075 685.453 224.595 690.108C222.262 694.4 220.475 698.967 219.275 703.702C218.169 708.018 217.591 712.453 217.556 716.909C217.57 724.983 218.689 733.017 220.881 740.788C222.574 747.244 225.075 753.46 228.324 759.29C234.04 769.082 236.397 771.464 232.95 765.11C231.465 761.881 229.39 756.045 226.557 748.158C225.299 743.76 224.432 739.259 223.965 734.709C223.437 729.342 223.386 723.939 223.812 718.564C224.863 712.076 226.687 705.737 229.245 699.682C231.069 696.267 233.12 692.715 235.517 689.123C238.046 685.372 240.804 681.781 243.775 678.37C247.701 674.938 251.899 671.83 256.328 669.079C261.174 666.076 266.229 663.426 271.456 661.151C277.328 658.603 283.444 656.655 289.709 655.339C296.749 653.921 303.877 652.978 311.044 652.514C318.31 651.965 324.816 651.109 331.678 650.794C338.064 650.092 343.335 647.565 348.372 643.868C352.263 638.613 356.195 633.374 360.271 628.167C364.348 622.96 368.634 617.906 372.8 612.135C376.877 605.991 380.872 600.026 384.497 593.43C388.122 586.835 391.496 580.199 394.58 573.249C397.583 566.823 400.346 560.505 402.87 554.294C405.389 548.095 407.665 542.008 409.7 535.388C411.605 528.93 413.316 522.827 414.818 517.104C416.319 511.38 417.611 505.802 418.717 500.563C419.823 495.324 420.816 490.392 421.76 485.847C422.705 481.302 423.585 477.096 424.408 473.1C425.514 465.084 426.523 457.948 427.032 451.457C427.33 444.337 427.597 438.194 427.912 433.165C428.178 423.268 429.647 418.029 432.238 417.544C433.49 417.189 434.919 417.665 436.509 419.159C438.6 421.259 440.293 423.72 441.506 426.424C443.583 430.876 445.191 435.532 446.301 440.317C447.874 447.185 449.038 454.139 449.788 461.144C450.637 470.961 450.855 480.822 450.442 490.666C450.216 495.994 449.837 501.51 449.304 507.215C448.771 512.919 448.042 518.815 447.116 524.902C445.712 531.546 444.081 537.947 442.208 543.969C440.335 549.992 438.269 556.207 436 562.536C433.732 568.865 431.407 575.453 428.985 582.08C426.563 588.708 424.037 595.198 421.47 601.793C418.644 608.332 415.916 614.581 413.284 619.973C410.652 625.366 408.126 630.621 405.768 635.723C400.658 645.854 397.058 653.854 395.274 659.706C393.336 664.962 392.852 668.352 393.773 669.967C394.693 671.581 397.002 671.581 400.424 670.378C403.847 669.176 408.303 666.738 413.946 663.113C416.804 661.151 419.831 659.012 422.995 656.655C426.16 654.298 429.453 651.949 432.731 649.866C438.156 647.63 444.178 643.642 450.491 639.372C457.078 634.108 463.601 629.224 469.865 625.801C476.234 622.04 481.925 621.127 486.979 622.137C492.032 623.146 496.811 624.558 500.702 627.642C504.238 630.112 506.482 633.858 508.048 638.072C509.772 642.33 510.813 646.833 511.132 651.416C511.487 656.259 511.738 660.853 511.705 665.381C511.819 669.809 511.335 674.233 510.268 678.532C507.306 686.701 503.839 694.679 499.887 702.419C495.729 710.612 491.298 718.653 486.664 726.491C482.03 734.33 478.22 741.676 475.871 748.392C473.63 754.852 472.63 761.678 472.924 768.509C473.344 779.552 475.274 791.112 477.768 802.931C479.017 808.851 480.443 814.824 482.047 820.852C483.65 826.879 485.434 832.969 487.399 839.12C487.786 840.347 488.206 841.542 488.634 842.793L492.823 838.611C492.161 836.669 491.518 834.707 490.894 832.727C488.819 826.18 487.003 819.487 485.389 812.787Z" fill="#ACDBDB"/>
        <path d="M197.441 731.802C196.709 727.403 196.344 722.95 196.351 718.49C196.35 714.191 196.717 709.9 197.449 705.663C198.157 701.523 199.285 697.466 200.815 693.554C203.632 686.436 206.83 679.476 210.397 672.703C215.305 666.259 220.805 660.289 226.825 654.87C231.904 650.364 237.299 646.229 242.97 642.495C247.687 639.329 252.652 636.548 257.816 634.18C262.268 632.16 266.853 630.447 271.539 629.054C278.102 625.93 282.905 623.403 286.724 621.401C289.727 619.934 292.496 618.029 294.942 615.75C301.061 609.664 304.177 604.11 303.305 598.322C299.785 594.35 294.304 591.323 286.312 589.555C276.528 588.328 266.397 587.197 256.322 586.422C247.305 586.487 238.296 586.697 229.779 587.432C221.482 588.062 213.224 589.123 205.037 590.612C198.035 591.905 191.13 593.677 184.371 595.916C177.913 597.958 171.011 600.065 164.997 602.277C156.135 606.385 147.632 611.227 139.576 616.751C133.227 621.094 127.15 625.823 121.38 630.911C117.522 634.731 114.132 638.996 111.282 643.617C109.558 647 108.279 650.593 107.479 654.305C107.284 655.642 107.174 656.99 107.148 658.341L125.304 676.505C127.902 676.809 130.518 676.949 133.134 676.925C137.183 676.885 141.225 676.615 145.243 676.117C148.674 677.514 150.894 681.655 152.347 687.903C153.558 693.215 154.712 700.012 156.512 707.641L175.192 726.321C174.385 723.39 173.683 720.533 173.094 717.756C171.978 712.738 171.295 707.633 171.051 702.499C170.888 697.826 171.031 693.147 171.479 688.493C171.899 684.069 172.496 679.903 173.021 675.988C174.014 668.642 175.201 662.362 176.444 656.921C177.687 651.48 178.664 646.596 179.98 642.39C178.906 637.466 175.386 635.221 174.087 632.307C172.787 629.393 173.586 625.76 177.477 621.377C179.801 618.802 182.403 616.493 185.235 614.491C188.946 611.864 192.803 609.449 196.787 607.258C202.438 605.094 208.896 602.939 216.524 600.703C225.983 598.795 235.539 597.404 245.15 596.537C256.007 596.029 268.472 596.4 278.409 598.257C283.761 602.85 285.448 608.751 282.203 615.419C279.684 617.623 276.835 619.916 273.565 622.515C270.296 625.115 265.759 627.698 259.753 630.434C255.717 632.395 251.817 634.626 248.08 637.11C243.333 640.146 237.586 644.174 230.579 649.55C226.719 652.528 223.114 655.822 219.802 659.399C215.839 663.687 212.214 668.275 208.96 673.122C206.183 678.596 203.463 684.634 200.67 691.294C199.175 694.886 198.011 698.607 197.19 702.41C196.317 706.58 195.716 710.803 195.39 715.051C195.479 721.011 196.076 726.953 197.174 732.811C198.407 739.208 200.225 745.477 202.607 751.54C203.414 753.154 204.222 754.769 205.118 756.448L206.272 757.594C204.254 753.59 202.427 749.656 200.791 745.792C199.363 741.209 198.244 736.535 197.441 731.802Z" fill="#ACDBDB"/>
        <path d="M194.767 718.224C194.658 713.885 194.928 709.544 195.574 705.252C196.882 697.066 199.408 690.277 201.903 684.19C204.158 678.749 206.858 673.503 209.975 668.505C212.539 664.431 215.371 660.531 218.452 656.832C224.555 650.996 229.406 646.653 233.531 643.222C237.656 639.791 240.998 637.127 244.098 634.665C250.451 628.288 256.708 624.041 259.719 620.433C261.22 616.873 260.349 614.701 257.959 613.692C251.916 612.551 245.673 613.127 239.941 615.355C231.699 618.302 225.087 622.903 218.557 628.796C214.714 632.07 211.075 635.575 207.659 639.291C203.937 643.388 200.46 647.701 197.245 652.207C194.306 657.72 191.239 663.767 188.365 670.653C186.29 677.805 184.45 685.377 182.779 693.256C182.182 698.016 181.939 702.813 182.052 707.609C182.208 712.872 182.767 718.116 183.723 723.294C184.97 728.99 186.643 734.584 188.728 740.029L203.534 754.834C200.046 747.189 197.205 740.101 196.074 732.973C195.284 728.095 194.847 723.166 194.767 718.224Z" fill="#ACDBDB"/>
        <path d="M204.051 734.482C203.365 730.333 203.011 726.135 202.994 721.929C202.957 714.105 203.846 706.304 205.642 698.688C207.111 694.959 208.701 691.27 210.485 687.677C212.269 684.085 214.175 680.59 216.136 677.183C220.615 670.501 226.056 664.517 232.281 659.423C239.03 654.083 246.272 649.395 253.908 645.425C261.825 641.202 270.279 638.074 279.038 636.126C288.007 634.124 295.587 631.718 303.256 629.724C306.42 628.917 309.391 628.061 312.249 627.214C307.05 628.441 301.706 629.781 296.103 631.25C290.001 632.864 283.995 634.842 276.729 636.57C269.769 638.181 263.002 640.538 256.548 643.601C250.472 646.55 244.637 649.969 239.095 653.829C233.73 657.556 228.651 661.679 223.902 666.164C219.994 670.967 216.507 676.099 213.48 681.502C211.357 685.247 209.444 689.138 207.62 693.094C207.127 694.168 206.643 695.249 206.167 696.323C205.86 697.017 205.553 697.712 205.254 698.406C205.157 698.834 205.085 699.262 204.996 699.689C204.851 700.359 204.713 701.021 204.592 701.691C203.646 706.611 203.074 711.595 202.881 716.601C202.696 722.478 202.909 728.36 203.519 734.208C203.567 734.741 203.608 735.265 203.664 735.822C203.769 736.161 203.89 736.5 203.987 736.84C205.923 743.109 208.297 749.235 211.091 755.172C213.456 760.226 216.112 765.304 218.978 770.357L219.147 770.527C214.844 762.958 210.995 755.141 207.62 747.116C205.958 743.053 204.761 738.815 204.051 734.482Z" fill="#ACDBDB"/>
        <path d="M728.238 570.593C725.842 560.91 722.6 551.455 718.551 542.339C715.291 534.894 711.447 527.72 707.055 520.882C701.526 514.73 696.125 508.175 690.716 501.968C685.308 495.76 679.818 489.859 674.329 484.402C668.84 478.945 663.544 474.303 658.555 469.177C653.566 464.051 648.828 459.256 644.259 454.146C639.689 449.036 635.322 443.95 631.116 439.009C626.854 433.439 623.044 427.821 619.492 422.138C615.94 416.455 612.719 410.836 609.231 404.547C605.744 398.259 602.241 391.857 598.737 385.722C595.234 379.587 591.334 373.129 587.484 366.856C583.544 360.455 579.113 352.972 574.382 345.375C569.651 337.779 564.533 330.312 559.44 323.281C554.346 316.249 548.598 309.299 542.754 302.695C536.296 296.003 529.958 290.062 523.476 284.532C516.518 279.059 509.511 273.86 502.31 268.936C494.294 263.624 485.713 258.175 476.373 252.968C466.873 247.72 457.056 243.067 446.98 239.035C436.275 235.267 425.358 232.129 414.286 229.638C403.238 227.065 391.989 225.444 380.664 224.795C370.229 224.35 359.776 224.642 349.382 225.667C339.829 226.534 330.361 228.173 321.072 230.567C313.3 232.319 305.684 234.701 298.299 237.687C291.889 240.343 287.611 243.467 285.455 246.93C284.239 248.373 283.454 250.131 283.193 252C282.931 253.87 283.204 255.775 283.978 257.497C285.103 260.15 286.612 262.622 288.458 264.835C290.868 267.791 293.45 270.603 296.192 273.255C299.276 276.29 302.819 279.527 306.686 283.047C310.553 286.566 315.009 290.554 319.99 294.97C325.221 299.612 330.702 304.722 336.095 310.203C341.487 315.684 346.508 321.335 351.158 327.091C354.613 332.548 356.454 337.109 356.712 340.459C356.781 340.789 356.775 341.13 356.695 341.457C356.615 341.784 356.463 342.09 356.251 342.351C356.038 342.612 355.77 342.823 355.466 342.967C355.162 343.112 354.829 343.187 354.492 343.188C353.249 343.688 350.876 343.188 347.534 342.13C343.586 340.976 338.654 339.321 332.696 337.182C326.86 335.422 319.861 333.218 311.82 330.828C303.506 328.544 294.246 326.251 284.188 324.233C274.226 322.78 263.062 321.392 250.606 320.051C244.148 319.729 237.69 319.594 231.232 319.648C224.717 319.704 218.17 319.955 211.381 320.286C210.146 320.407 208.959 320.536 207.692 320.673L201.371 326.994C207.894 326.187 214.441 325.686 221.028 325.46C231.522 325.097 242.017 325.404 252.099 326.025C262.545 327.309 272.781 329.02 282.331 331.014C291.418 332.67 300.371 334.993 309.116 337.965C317.398 340.794 325.525 344.057 333.463 347.741C340.496 350.944 347.339 354.548 353.959 358.534C360.163 362.488 365.97 367.033 371.299 372.104C376.409 377.69 380.575 383.026 384.038 387.595C387.089 392.043 389.584 395.619 391.303 397.565C393.023 399.51 394.088 399.986 394.758 399.47C395.428 398.953 395.638 397.306 395.453 394.731C395.121 391.172 394.425 387.655 393.378 384.237C390.73 374.937 387.889 365.67 384.797 356.79C381.705 347.91 378.597 339.975 375.715 333.161C372.89 327.955 370.145 323.087 367.546 318.631C365.355 314.664 363.377 310.951 361.612 307.491C358.316 301.876 355.432 296.03 352.983 289.997C351.355 286.208 350.315 282.193 349.899 278.09C349.629 274.964 350.227 271.824 351.627 269.016C353.095 266.266 355.304 263.982 358.004 262.421C361.093 260.245 364.566 258.673 368.24 257.788C372.686 256.386 377.304 255.601 381.963 255.455C387.446 255.222 392.938 255.413 398.391 256.028C403.97 256.401 409.521 257.115 415.013 258.167C421.008 259.339 426.906 260.958 432.659 263.01C438.839 265.192 444.899 267.698 450.815 270.518C456.683 273.529 462.496 276.895 467.888 280.358C473.281 283.822 478.471 287.527 483.598 291.442C488.724 295.357 493.527 299.41 498.128 303.551C502.73 307.692 507.056 311.898 511.157 316.144C515.258 320.391 519.351 324.766 523.339 329.19C526.859 333.573 530.289 338.07 533.656 342.663C537.022 347.256 540.275 352.003 543.198 356.766C546.12 361.529 549.026 366.453 551.924 371.062C554.588 375.623 557.155 380.112 559.73 384.576L567.262 398.364C569.821 403.046 572.283 407.744 574.689 412.806C577.094 417.867 579.371 422.905 581.72 428.265C584.069 433.625 586.402 439.187 588.533 444.313C590.47 449.169 592.677 453.912 595.145 458.521C597.373 462.587 599.91 466.476 602.733 470.154C607.872 476.882 613.463 483.252 619.468 489.221C625.659 494.065 632.077 500.095 638.729 506.432C645.187 512.494 651.798 518.541 658.442 524.087C665.371 529.664 671.159 536.524 675.491 544.292C678.631 552.728 681.225 561.357 683.257 570.125C684.874 577.761 685.705 585.544 685.736 593.35C685.365 600.832 684.105 608.244 681.982 615.428C679.633 622.071 676.789 628.529 673.473 634.746C670.002 640.446 666.177 645.922 662.018 651.141C657.812 656.381 653.26 661.563 648.545 666.81C643.572 672.461 638.495 678.112 633.207 683.811C627.92 689.51 622.527 695.113 616.747 700.909C610.967 706.705 604.905 712.574 598.624 718.992C592.166 725.571 585.764 732.19 579.08 738.947C572.396 745.704 563.387 756.44 555.355 764.594C548.622 771.431 548.09 776.138 542.875 784.88C542.197 786.648 541.615 788.473 541.066 790.313L731.669 599.711C731.669 599.226 731.612 598.758 731.572 598.274C730.87 589.838 730.232 580.474 728.238 570.593Z" fill="#ACDBDB"/>
        <path d="M151.691 426.238C162.331 424.955 172.68 423.816 183.602 423.146C194.524 422.476 206.407 422.541 218.112 422.936C223.933 423.074 229.898 423.429 235.969 423.994C242.04 424.559 248.207 425.334 254.415 426.303C266.292 427.153 278.094 428.842 289.732 431.356C297.577 433.808 305.252 436.774 312.707 440.236C321.888 445.545 330.734 451.414 339.193 457.81C343.561 461.766 347.879 465.883 352.206 470.524C356.533 475.166 360.868 480.211 365.179 485.749C367.125 489.132 368.723 493.733 369.861 499.61C371.097 506.629 371.745 513.739 371.799 520.865C371.363 525.515 370.798 530.714 369.998 536.478C369.199 542.241 368.069 548.393 366.568 554.859C364.44 561.822 361.782 568.613 358.616 575.17C356.914 578.49 354.986 581.689 352.844 584.744C350.713 587.86 348.461 591.202 346.031 594.738C342.762 598.864 339.821 603.24 337.232 607.823C334.535 612.594 331.621 617.074 328.077 620.255L327.851 620.384C327.424 620.659 326.963 620.901 326.511 621.192C322.882 623.185 319.104 624.894 315.21 626.301C318.229 625.389 321.143 624.493 324.041 623.638C329.566 620.039 333.947 614.936 336.667 608.929C340.477 603.545 344.327 598.685 347.75 593.72C351.173 588.756 354.402 584.203 357.195 579.852C359.6 574.97 361.755 569.969 363.653 564.869C365.429 559.961 366.947 555.376 368.247 551.008C370.014 542.403 371.225 534.532 371.96 527.493C372.645 521.162 373.004 514.801 373.034 508.433C371.484 499.013 369.377 491.981 366.939 486.452C364.856 481.696 362.096 477.267 358.745 473.301C353.386 466.829 347.441 460.865 340.985 455.485C335.226 450.68 329.217 446.183 322.984 442.012C316.994 438.702 311.125 435.675 305.377 432.93C299.621 430.177 294.076 427.828 288.691 425.762C278.552 423.025 269.422 421.007 261.083 419.619C253.656 419.045 246.278 418.577 238.044 417.705C229.809 416.833 221.713 416.268 213.826 416.091C205.939 415.913 198.229 415.937 190.359 416.171C182.488 416.406 174.924 416.833 167.675 417.463C160.425 418.093 153.483 418.916 146.46 419.772C139.437 420.628 132.43 421.507 125.471 422.428C118.512 423.348 111.941 424.414 105.338 425.512L102.109 426.06L92.6074 435.562C101.221 433.689 109.899 431.986 118.876 430.549C129.782 428.781 140.599 427.32 151.691 426.238Z" fill="#ACDBDB"/>
        <path d="M492.833 795.754C491.202 789.487 490.052 783.104 489.395 776.662C489.433 770.504 489.949 764.359 490.936 758.281C492.301 752.557 494.004 746.979 495.683 741.53C497.855 735.007 501.738 726.999 506.177 718.321C510.617 709.643 514.952 700.739 518.351 692.723C522.387 683.892 525.398 675.771 527.174 668.287C528.247 662.101 527.402 655.735 524.753 650.043C523.639 646.33 522.379 642.479 521.079 638.33C520.008 634.097 518.379 630.025 516.236 626.221C514.066 622.42 510.834 619.334 506.936 617.341C502.845 614.91 498.322 613.292 493.616 612.578C490.156 611.947 486.627 611.778 483.122 612.078C479.433 612.401 475.405 614.306 471.28 616.865C467.155 619.424 463.11 622.112 459.009 625.155C454.908 628.199 450.864 631.291 447.021 633.745C443.592 636.065 439.989 638.119 436.244 639.888C433.081 641.256 429.995 642.798 427.001 644.505C421.149 648.453 416.757 650.398 413.544 650.818C411.623 651.068 410.259 650.633 409.605 649.373C408.951 648.114 408.798 646.144 409.282 643.424C409.933 639.971 410.931 636.593 412.261 633.341C413.803 629.41 415.837 624.841 418.396 618.931C420.761 612.57 423.425 605.499 426.469 597.547C429.512 589.596 432.563 580.958 435.881 571.578C437.536 566.895 439.175 562.246 440.797 557.507C442.42 552.768 444.026 547.949 445.593 542.92C447.102 537.148 448.458 531.223 449.629 525.233C450.799 519.243 451.889 513.196 452.817 507.102C453.294 500.926 453.689 494.807 453.924 488.753C454.158 482.698 454.271 476.862 454.206 471.356C454.077 461.104 453.399 451.804 452.519 443.401C451.273 436.026 449.55 428.74 447.36 421.588C445.636 416.16 443.477 410.879 440.902 405.798C439.051 402.015 436.717 398.488 433.96 395.304C431.74 392.834 429.738 391.373 428.027 391.001C426.315 390.63 424.911 391.284 423.813 392.955C422.715 394.626 421.916 397.322 421.342 400.769C420.69 405.569 420.638 410.431 421.189 415.243C421.512 421.702 421.916 429.427 422.214 438.178C422.215 446.893 421.752 455.602 420.826 464.268C420.358 468.926 419.736 473.883 418.977 479.082C418.218 484.28 417.314 489.754 416.289 495.534C415.207 501.677 413.867 507.715 412.414 513.907C410.961 520.099 409.274 526.492 407.498 532.982C405.464 539.134 403.3 545.091 400.967 551.113C398.634 557.136 396.124 563.222 393.468 569.277C390.812 575.331 387.954 581.111 384.975 586.722C382.11 592.175 378.957 597.473 375.53 602.592C372.5 607.276 369.164 611.756 365.545 616.001C362.17 619.771 358.852 623.218 355.728 626.705C353.032 630.782 350.546 634.608 348.261 638.443C345.617 641.3 342.525 643.708 339.107 645.571C331.478 646.532 324.633 647.186 318.82 647.993C307.067 649.22 298.873 649.325 296.322 649.131C293.771 648.937 296.863 648.082 304.992 646.564C309.028 645.805 313.662 644.61 319.434 643.545C325.656 642.495 331.763 640.849 337.67 638.629C340.513 636.311 342.874 633.458 344.62 630.233C346.527 626.348 348.654 622.575 350.99 618.931C353.662 615.428 356.431 611.876 359.272 608.372C362.341 604.596 365.098 600.576 367.514 596.352C370.138 591.751 372.584 586.835 374.917 581.822C377.25 576.809 379.381 571.263 381.375 565.588C383.369 559.913 385.25 554.456 386.937 548.772C388.624 543.089 390.166 537.293 391.579 531.545C392.58 525.765 393.444 519.937 394.162 514.197C394.88 508.458 395.47 502.815 395.962 497.245C396.067 491.659 395.962 485.943 395.664 480.228C395.365 474.513 394.969 468.926 394.437 463.275C392.459 452.256 390.578 442.093 388.108 432.672C385.068 423.767 381.413 415.084 377.169 406.686C370.274 398.554 362.468 391.241 353.904 384.89C346.519 379.425 338.8 374.426 330.792 369.924C323.212 366.461 315.85 363.522 308.189 360.568C300.893 357.747 293.459 355.295 285.916 353.222C278.804 351.777 272.08 350.711 265.735 349.993C259.39 349.274 253.214 348.677 247.281 348.273C238.402 348.331 229.549 349.217 220.835 350.921C214.366 352.033 207.98 353.582 201.719 355.555C196.924 357.492 192.767 359.179 190.296 360.842C188.101 362.618 186.656 364.265 186.115 365.807C185.881 366.543 185.857 367.33 186.047 368.079C186.236 368.828 186.632 369.509 187.188 370.045C189.4 372.596 195.366 374.598 204.238 376.455C213.11 378.311 224 380.491 236.528 382.913C242.542 384.422 248.976 386.142 255.902 388.111C262.829 390.081 270.135 392.446 277.779 395.054C285.654 397.79 293.347 401.026 300.81 404.741C308.632 408.569 316.217 412.86 323.527 417.593C331.564 422.78 339.127 428.666 346.13 435.183C354.177 442.751 361.554 451.003 368.176 459.845C371.551 464.963 374.634 472.559 377.153 483.053C378.022 489.034 378.535 495.062 378.687 501.104C378.864 508.231 378.594 515.362 377.88 522.456C377.387 526.67 376.588 531.198 375.563 536.058C374.537 540.918 373.302 546.157 371.882 551.775C370.31 557.251 368.451 562.641 366.312 567.921C364.139 573.333 361.684 578.628 358.957 583.783C355.728 588.361 352.322 592.768 348.963 597.507C345.605 602.245 342.037 606.54 338.655 611.319C335.934 616.97 332.689 621.757 328.572 625.042C323.035 627.386 317.285 629.189 311.402 630.427C305.065 632.041 298.55 633.656 292.221 635.666C285.117 637.28 277.158 638.701 269.343 640.509C262.865 643.363 256.548 646.57 250.421 650.116C244.562 653.521 239.006 657.424 233.816 661.781C228.926 665.969 224.586 670.759 220.9 676.037C217.31 681.194 214.241 686.694 211.737 692.457C209.29 698.07 207.596 703.982 206.7 710.039C205.811 716.22 205.5 722.471 205.772 728.711C206.748 735.199 208.44 741.558 210.817 747.673C213.292 754.074 216.1 760.342 219.229 766.45C222.329 771.052 225.598 775.68 229.037 780.335L237.109 788.408C232.435 782.434 227.931 776.347 223.515 770.188C221.093 765.958 218.865 761.728 216.766 757.465C214.668 753.203 212.787 748.884 211.035 744.477C209.67 740.03 208.693 735.473 208.113 730.858C207.563 726.221 207.458 721.542 207.798 716.884C207.987 712.211 208.614 707.564 209.671 703.008C210.77 698.319 212.434 693.782 214.627 689.494C216.915 684.955 219.507 680.575 222.385 676.384C225.442 671.978 228.864 667.836 232.613 664.001C237.129 660.439 241.828 657.117 246.692 654.047C251.916 650.811 257.305 647.847 262.837 645.167C269.294 642.674 275.951 640.732 282.736 639.363C289.815 637.902 295.733 636.134 301.731 634.6C307.866 633.067 314.057 631.751 320.023 630.411C325.432 628.594 330.388 626.261 334.328 622.645C337.557 617.696 340.729 612.449 344.112 607.557C347.494 602.665 350.933 597.692 354.606 593.026C358.252 588.14 361.443 582.93 364.14 577.462C366.885 571.303 369.436 565.232 371.865 559.105C373.674 552.712 375.329 546.302 376.79 540.127C378.251 533.951 379.518 527.969 380.527 521.842C381.052 516.248 381.335 510.976 381.545 506.036C381.755 501.096 381.73 496.462 381.601 491.998C380.804 484.166 379.61 476.379 378.025 468.668C374.198 458.4 369.347 451.158 364.148 444.45C358.82 438.525 353.072 432.519 346.962 426.626C340.738 421.597 334.441 416.866 328.152 412.531C321.864 408.196 315.583 404.24 309.327 400.543C302.933 397.395 296.492 394.384 290.033 391.591C283.575 388.798 277.117 386.23 270.659 383.962C257.557 379.24 246.829 375.55 238.845 372.451C230.861 369.351 226.381 366.444 226.502 363.45C226.567 361.956 228.407 360.592 231.765 359.284C236.184 357.616 240.716 356.267 245.327 355.248C251.422 354.271 260.883 354.505 271.636 355.038C278.358 356.102 285.019 357.52 291.591 359.284C298.819 361.2 306.623 363.697 315.002 366.775C323.476 370.386 331.716 374.524 339.672 379.167C348.679 384.671 357.252 390.853 365.319 397.661C370.437 402.757 374.925 408.448 378.687 414.614C382.812 422.226 386.614 431.825 389.738 443.804C390.998 450.262 392.16 456.963 393.064 463.857C393.968 470.751 394.679 477.847 395.123 484.999C395.074 492.361 394.525 499.094 394.122 506.44C393.438 513.834 392.429 521.347 391.094 528.978C389.335 536.696 387.341 544.365 385.072 551.84C382.804 559.315 380.1 567.178 377.105 574.839C374.043 581.866 370.596 588.72 366.78 595.368C362.994 601.705 358.901 606.927 354.905 612.603C350.934 618.153 347.329 623.956 344.112 629.975C340.659 634.713 335.783 638.226 330.195 640.001C324.253 641.099 318.304 642.124 312.596 643.286C306.889 644.449 301.295 645.619 295.337 646.362C290.259 647.443 285.246 648.809 280.322 650.455C276.284 651.817 272.33 653.415 268.48 655.242C261.618 658.544 256.686 661.531 253.715 663.831C247.822 668.392 248.653 668.675 256.548 664.517C260.488 662.443 266.704 659.73 275.059 656.445C280.022 654.608 285.162 653.288 290.397 652.505C296.395 651.513 303.184 650.939 309.973 650.358C316.633 649.785 323.179 648.97 330.308 648.566C337.016 647.815 342.796 645.046 348.172 640.59C350.199 637.289 352.265 634.084 354.477 630.952C356.647 627.808 359.06 624.839 361.694 622.072C364.42 619.374 366.955 616.49 369.282 613.442C371.704 609.987 374.126 606.298 376.548 602.697C378.969 599.097 381.391 595.23 383.668 591.033C385.944 586.835 388.164 582.58 390.247 578.173C392.329 573.765 394.332 569.293 396.261 564.829C398.19 560.365 400.039 556.03 401.734 551.662C403.429 547.295 405.028 542.896 406.578 538.488C408.128 534.08 409.403 529.221 410.695 524.652C413.116 516.078 415.17 507.422 416.854 498.682C418.38 490.9 419.809 483.546 421.036 476.652C421.843 469.871 422.65 463.445 423.264 457.544C423.53 451.57 423.748 446.097 423.684 440.535C423.571 434.884 423.433 429.718 423.304 425.148C423.062 416.01 423.167 409.383 424.232 405.427C425.298 401.472 426.767 399.179 428.769 398.816C430.771 398.452 433.306 400.059 436.115 403.659C438.925 407.26 441.887 412.789 444.721 420.305C447.97 429.321 450.196 438.674 451.356 448.188C452.099 453.726 452.608 459.909 452.858 466.876C453.108 473.842 453.068 481.665 452.616 490.448C452.164 499.231 451.389 507.667 450.25 516.434C448.765 525.184 446.763 534.395 444.656 543.138C441.847 551.162 439.005 559.073 436.317 566.702C433.629 574.33 431.038 581.951 428.664 589.014C426.073 595.602 423.635 601.672 421.302 607.444C418.969 613.216 416.749 618.617 414.674 623.073C411.221 630.262 408.199 637.651 405.625 645.2C403.809 650.851 403.349 654.556 404.277 656.501C405.205 658.447 407.627 658.754 411.252 657.64C414.618 656.606 419.219 654.055 424.733 650.245C430.392 646.589 436.26 643.269 442.307 640.3C445.576 638.055 448.846 635.924 452.18 633.519C455.619 630.758 459.034 628.07 462.416 625.519C468.142 621.143 474.522 617.7 481.322 615.315C485.822 615.315 490.292 616.054 494.553 617.503C498.824 618.14 502.847 619.904 506.21 622.613C509.608 625.107 511.982 628.732 513.604 632.937C515.447 637.111 516.739 641.507 517.447 646.015C518.69 653.401 519.869 659.173 520.409 664.582C520.038 670.596 518.375 676.772 516.01 683.464C513.79 689.115 510.981 695.355 508.276 701.385C505.572 707.415 502.626 713.494 499.397 719.629C496.168 725.764 493.108 731.819 490.065 737.97C488.176 743.831 486.19 749.837 484.212 755.924C483.005 761.764 482.464 767.721 482.597 773.683C482.869 780.026 483.723 786.33 485.148 792.517C487.812 805.078 490.71 816.896 493.859 826.922C494.666 829.586 495.586 832.274 496.515 834.995L502.868 828.642C501.043 823.524 499.302 818.255 497.645 812.835C495.941 807.386 494.335 801.808 492.833 795.754Z" fill="#ACDBDB"/>
        <path d="M461.342 822.854C459.84 814.531 458.645 806.345 457.693 798.369C456.74 790.394 456.03 782.668 455.529 775.185C455.099 768.122 455.307 761.036 456.151 754.01C457.927 747.859 460.994 742.136 464.369 736.582C468.244 730.882 471.804 725.458 474.783 720.356C480.4 711.224 485.432 701.743 489.846 691.972C492.518 683.601 493.438 676.764 493.075 671.032C493.522 665.537 492.86 660.008 491.13 654.774C489.644 650.116 487.214 646.516 483.727 644.449C481.801 643.045 479.593 642.074 477.256 641.605C474.919 641.135 472.508 641.177 470.189 641.729C464.409 643.642 457.733 648.187 450.686 653.167C447.166 655.67 443.525 658.398 439.998 660.723C436.694 662.969 433.235 664.979 429.648 666.738C425.97 669.222 422.424 671.898 419.025 674.754C415.521 677.603 412.091 680.493 408.765 683.222C402.113 688.679 396.187 693.991 390.246 698.632C384.385 703.476 378.258 706.196 371.784 706.172C358.698 704.558 348.479 702.047 342.351 699.714C336.224 697.381 333.907 695.347 334.489 693.337C334.876 691.383 338.355 689.704 344.273 688.098C350.456 686.653 358.262 685.022 365.35 680.727C367.772 677.183 370.307 673.462 372.793 669.49C375.28 665.519 377.507 660.384 379.986 655.63C382.464 650.875 384.95 646.419 387.413 641.85C389.875 637.281 392.337 632.905 394.678 628.481C397.035 623.791 399.207 619.222 401.184 614.911C403.162 610.601 404.954 606.508 406.577 602.802C409.806 595.384 412.567 588.538 414.714 582.379C416.512 576.659 418.021 570.853 419.235 564.982C420.995 556.062 420.486 552.768 417.984 555.029C416.732 556.159 414.964 558.936 412.583 563.319C410.105 566.928 406.932 572.07 402.977 578.738C400.999 582.08 398.835 586.003 396.414 590.322C393.992 594.641 391.263 599.323 388.163 604.256C385.064 609.188 381.584 614.274 377.871 619.593C374.166 625.017 370.175 630.239 365.915 635.238C361.693 640.082 357.843 646.144 353.185 651.763C347.445 655.549 340.212 657.737 331.437 657.946C327.256 658.342 322.937 658.754 317.714 658.754C312.491 658.754 307.219 659.012 302.093 659.504C297.059 659.998 292.092 661.021 287.272 662.556C282.543 664.08 277.918 665.911 273.427 668.037C268.911 670.089 264.549 672.463 260.374 675.141C256.365 677.732 252.632 680.726 249.234 684.077C246.469 687.626 243.893 691.317 241.516 695.137C239.114 699.09 236.996 703.209 235.179 707.464C233.902 711.948 233.053 716.543 232.645 721.187C232.26 725.998 232.417 730.837 233.113 735.613C233.871 740.654 235.179 745.597 237.012 750.354C238.961 755.424 241.25 760.357 243.865 765.118C246.99 770.067 250.324 774.951 253.787 779.851C257.25 784.751 260.826 789.675 264.386 794.688C267.946 799.701 271.651 804.553 275.446 809.267C279.24 813.982 283.082 818.583 286.933 823.072C294.683 831.596 302.481 840.726 310.012 849.453C317.544 858.179 324.632 867.043 331.542 875.172C338.476 884.189 345.048 893.198 351.223 902.014L352.789 904.201L362.67 914.082L357.076 906.413C351.247 898.413 345.144 889.767 338.598 881.194C332.051 872.621 325.318 864.541 318.529 856.323C311.74 848.105 304.644 840.105 297.427 831.879C290.21 823.653 283.211 815.798 276.342 807.483C269.633 798.967 263.425 789.974 257.242 781.151C251.246 773.034 245.883 764.468 241.202 755.528C237.973 747.1 235.365 738.842 234.526 730.713C234.735 722.983 235.868 715.305 237.9 707.843C240.903 700.941 245.109 694.588 249.395 688.639C254.531 683.381 260.324 678.809 266.63 675.036C272.958 671.281 279.619 668.119 286.529 665.591C293.833 663.696 301.293 662.464 308.818 661.91C316.204 661.361 323.478 661.45 329.936 661.506C335.869 661.046 341.714 660.974 346.953 660.166C350.897 657.883 354.482 655.03 357.592 651.698C361.724 645.586 366.462 639.906 371.736 634.746C376.041 629.364 379.641 625.059 382.537 621.83C384.626 619.393 386.849 617.076 389.197 614.887C392.313 612.191 393.144 613.273 391.966 617.696C390.787 622.12 387.558 629.466 382.399 639.032C379.905 643.997 377.273 649.446 374.585 655.395C371.841 660.788 368.547 665.89 365.084 671.339C361.37 676.441 356.317 679.137 350.158 680.404C343.683 681.657 337.145 682.557 330.573 683.101C323.857 683.73 319.199 684.893 315.728 686.394C312.709 688.485 310.594 690.431 309.472 692.287C307.978 694.152 307.615 695.88 308.325 697.308C309.036 698.737 310.828 699.884 313.71 700.796C317.747 701.943 321.873 702.753 326.045 703.218C331.389 703.928 338.694 705.316 347.34 706.753C357.581 708.547 367.951 709.511 378.347 709.635C383.279 708.521 387.493 705.97 391.263 702.717C394.993 699.335 398.908 696.259 402.621 693.03C406.391 689.898 410.331 686.459 414.327 682.907C418.323 679.355 422.335 675.924 426.315 672.873C430.109 670.863 433.87 668.836 437.665 666.415C441.459 663.993 445.285 661.143 448.869 658.689C456.038 653.797 462.633 649.494 468.09 647.775C473.103 646.847 476.97 648.235 479.497 651.004C482.464 653.194 484.604 656.324 485.567 659.884C486.986 663.712 487.702 667.765 487.683 671.847C487.763 676.323 487.55 680.8 487.045 685.248C486.455 689.865 484.792 695.218 481.289 701.603C478.367 707.399 475.234 713.042 472.183 718.426C469.132 723.811 465.798 729.163 462.431 734.475C456.797 744.155 453.45 754.996 452.647 766.168C453.091 776.904 453.745 785.623 454.391 792.25C455.037 798.878 455.634 803.439 456.006 805.845C456.756 810.688 455.925 806.563 454.326 793.736C453.519 787.342 452.712 779.35 451.905 769.978C451.671 760.799 452.405 750.604 457.313 740.836C463.029 730.777 468.76 720.913 473.806 710.757C476.51 705.478 479.456 699.698 480.877 694.895C481.518 690.873 481.805 686.802 481.733 682.729C481.796 679.012 481.477 675.298 480.78 671.646C480.319 668.391 479.042 665.305 477.067 662.677C475.318 660.079 472.792 658.1 469.85 657.026C466.766 656.009 462.464 657.026 456.934 660.255C451.404 663.484 445.374 667.448 438.545 672.299C435.315 674.164 431.957 676.384 428.623 678.394C424.898 680.61 421.385 683.163 418.129 686.023C414.421 689.252 410.769 692.688 407.174 696.332C403.671 699.561 399.966 702.402 396.155 705.341C392.684 708.699 389.181 712.041 384.773 714.221C378.904 714.552 372.809 714.656 366.706 714.592C354.694 714.083 343.958 713.058 334.545 712.977C327.071 713.26 319.625 714.069 312.265 715.399C306.722 716.48 301.386 718.437 296.459 721.195C287.451 725.771 280.445 733.505 276.778 742.919C275.373 746.672 274.057 749.53 273.331 752.138C272.728 754.564 272.387 757.049 272.313 759.548C272.313 762.035 272.919 765.199 274.291 769.235C275.664 773.272 278.376 778.697 282.566 785.381C287.724 793.581 293.386 801.453 299.518 808.953C303.094 813.344 306.985 817.97 311.086 822.797C315.187 827.625 319.482 832.646 323.865 837.828C328.248 843.011 332.745 848.282 337.266 853.659C341.786 859.035 346.363 864.549 350.9 870.312C359.966 881.84 367.933 891.229 374.496 897.832C381.059 904.435 385.798 908.197 388.874 909.36C391.949 910.522 393.096 908.31 392.192 902.563C391.288 896.815 388.301 887.757 383.368 875.802C380.898 869.82 377.992 863.289 374.747 856.218C371.518 849.025 367.869 841.251 364.042 833.041C360.216 824.831 356.478 816.42 352.975 808.016C349.518 799.849 346.524 791.494 344.006 782.991C341.875 774.83 341.157 767.467 342.263 761.357C342.713 758.482 343.729 755.726 345.254 753.248C346.778 750.771 348.78 748.62 351.142 746.923C358.553 744.122 367.869 743.968 376.579 745.034C385.394 745.954 392.942 748.586 398.852 752.759C405.213 757.239 410.508 764.594 414.819 775.976C416.967 781.627 419.332 788.48 421.971 796.335C424.611 804.69 427.776 814.498 431.747 826.317C433.733 832.226 435.977 838.49 438.52 845.247C441.063 852.004 443.864 859.293 446.972 867.124C448.528 871.053 450.177 875.134 451.921 879.37L453.027 878.264C452.219 876.189 451.332 874.107 450.532 872.096C446.052 860.868 442.242 850.712 439.037 841.55C435.832 832.387 433.168 824.073 431.11 816.63C429.051 809.187 427.243 802.527 425.645 796.497C424.046 790.466 422.561 785.195 421.188 780.198C418.654 772.053 416.183 764.917 413.6 759.427C412.364 755.261 409.92 751.556 406.577 748.779C401.523 743.807 390.932 740.755 375.562 739.544C368.667 739.121 361.751 739.181 354.864 739.722C348.204 740.529 342.553 742.144 339.147 744.913C336.722 748.065 335.064 751.738 334.303 755.641C333.498 760.047 333.319 764.545 333.77 769.001C334.846 774.125 336.23 779.369 337.92 784.735C339.591 790.103 341.528 795.552 343.699 800.937C348.051 811.705 352.579 822.111 356.373 831.233C360.168 840.355 363.13 848.105 364.963 854.111C366.795 860.117 367.514 864.266 366.884 866.284C365.633 870.321 359.619 866.284 350.593 856.202C346.097 851.164 341.318 845.772 336.523 840.153C331.728 834.535 326.925 828.69 322.388 822.765C317.851 816.84 313.758 811.173 310.166 805.74C306.809 800.715 303.757 795.494 301.028 790.103C298.326 784.627 296.028 778.961 294.15 773.151C292.277 765.479 290.849 757.706 289.871 749.869C289.521 745.191 290.187 740.493 291.825 736.097C295.697 731.347 300.157 727.108 305.096 723.48C308.709 721.676 312.561 720.396 316.535 719.678C320.959 718.79 326.085 718.015 331.534 717.474C338.095 716.869 344.693 716.75 351.272 717.119C359.054 717.28 367.417 717.563 375.861 717.522C384.418 717.232 391.271 715.157 396.341 710.757C401.322 706.14 406.335 701.538 411.267 696.638C416.009 692.38 421.066 688.486 426.395 684.99C431.182 681.825 435.985 678.628 440.748 675.472C444.889 672.648 449.203 670.087 453.664 667.803C456.762 666.146 460.139 665.076 463.626 664.647C468.615 665.93 471.699 669.966 473.192 675.642C475.008 680.929 475.614 687.468 474.726 695.331C474.395 699.189 473.111 703.863 469.632 710.16C466.5 716.077 463.174 722.067 459.719 728.331C456.296 734.297 452.276 740.86 449.467 748.416C448.436 757.142 448.328 765.952 449.144 774.701C450.048 784.291 451.251 794.43 452.849 804.989C454.448 815.548 456.571 826.664 459.396 838.434C460.801 844.319 462.407 850.357 464.24 856.5C465.047 859.18 465.854 861.877 466.734 864.573L470.335 860.964C469.059 856.697 467.875 852.418 466.782 848.129C464.676 839.653 462.843 831.185 461.342 822.854Z" fill="#ACDBDB"/>
        <path d="M522.268 -9.76724e-06L3.71289 518.555L9.42109 524.263L527.976 5.70819L522.268 -9.76724e-06Z" fill="#ACDBDB"/>
        <path d="M555.344 764.659L295.312 1024.69L301.021 1030.4L561.052 770.367L555.344 764.659Z" fill="#ACDBDB"/>
        <path d="M523.62 445.72L497 419.1L523.62 392.47L527.86 396.72L505.48 419.1L527.86 441.47L523.62 445.72Z" fill="#222222"/>
        <path d="M732.099 445.72L727.859 441.47L750.24 419.1L727.859 396.72L732.099 392.47L758.719 419.1L732.099 445.72Z" fill="#222222"/>
        <path d="M652.99 318.86L630.61 296.48L608.24 318.86L604 314.62L630.61 288L657.23 314.62L652.99 318.86Z" fill="#222222"/>
        <path d="M630.61 549.72L604 523.1L608.24 518.86L630.61 541.24L652.99 518.86L657.23 523.1L630.61 549.72Z" fill="#222222"/>
    </g>
    <defs>
        <clipPath id="clip0_1779_14526">
            <rect width="773.001" height="1030.4" fill="white"/>
        </clipPath>
    </defs>
</svg>
