<svg width="378" height="379" viewBox="50 0 378 379" fill="none" xmlns="http://www.w3.org/2000/svg">
    <g clip-path="url(#clip0_1779_14416)">
        <path d="M152.52 7.72923C114.069 14.3026 78.676 32.8513 51.3901 60.7292C23.8059 88.8772 5.81983 125.021 0 163.999C4.71853 124.249 21.8667 87.0028 48.9993 57.5718C76.1318 28.1408 111.864 8.02738 151.1 0.0992203C151.607 -0.0173611 152.132 -0.0313824 152.645 0.0580826C153.157 0.147548 153.647 0.338627 154.084 0.620094C154.522 0.901561 154.899 1.26771 155.192 1.697C155.486 2.12628 155.691 2.61002 155.795 3.11973C155.899 3.62944 155.9 4.15489 155.798 4.66502C155.696 5.17514 155.493 5.65961 155.201 6.09007C154.909 6.52052 154.534 6.88815 154.097 7.17136C153.661 7.45458 153.172 7.64773 152.66 7.73923L152.52 7.72923Z" fill="#7AD8D8"/>
        <path d="M370.049 176.569C367.613 130.401 347.994 86.8145 315.049 54.3793C281.733 21.6318 237.383 2.51506 190.699 0.779297C238.149 1.33982 283.671 19.6407 318.305 52.08C352.94 84.5192 374.178 128.747 377.839 176.059C377.891 177.072 377.547 178.064 376.88 178.827C376.213 179.59 375.275 180.064 374.264 180.147C373.254 180.23 372.251 179.917 371.468 179.273C370.685 178.63 370.183 177.706 370.069 176.699C370.069 176.699 370.049 176.599 370.049 176.569Z" fill="#7AD8D8"/>
        <path d="M17.42 261.919C33.4954 298.901 61.1362 329.668 96.1905 349.598C131.245 369.529 171.82 377.547 211.82 372.449C251.821 367.35 289.087 349.411 318.021 321.324C346.955 293.237 365.995 256.521 372.28 216.689C367.78 247.067 355.978 275.9 337.887 300.714C319.796 325.529 295.956 345.585 268.411 359.162C240.866 372.739 210.439 379.432 179.74 378.667C149.04 377.902 118.984 369.702 92.15 354.769C55.9681 334.371 27.2698 302.922 10.2598 265.029C9.86629 264.09 9.85602 263.034 10.231 262.087C10.606 261.14 11.3366 260.377 12.2667 259.962C13.1967 259.546 14.2523 259.511 15.2078 259.864C16.1633 260.217 16.943 260.929 17.3799 261.849L17.42 261.919Z" fill="#7AD8D8"/>
        <path d="M120.271 40.6494C100.456 49.2944 82.538 61.7585 67.5409 77.3295C59.994 85.0826 53.2899 93.6135 47.5409 102.779C41.6706 111.923 36.7453 121.64 32.8409 131.779C28.9652 141.948 26.0655 152.462 24.181 163.179C22.4414 173.952 21.6783 184.86 21.901 195.769C22.5211 217.729 27.5366 239.341 36.651 259.329C26.9753 239.479 21.3783 217.89 20.191 195.84C19.6694 184.798 20.1547 173.733 21.641 162.779C23.2797 151.817 25.9585 141.035 29.641 130.579C33.373 120.124 38.1541 110.072 43.911 100.579C49.5968 91.0007 56.2806 82.0508 63.8509 73.8794C78.9815 57.3318 97.226 43.9297 117.541 34.4395C118.356 34.104 119.269 34.0943 120.091 34.4124C120.913 34.7304 121.582 35.352 121.959 36.1487C122.337 36.9455 122.393 37.8566 122.118 38.6941C121.843 39.5316 121.257 40.2315 120.481 40.6494H120.421H120.271Z" fill="#7AD8D8"/>
        <path d="M341.181 140.499C335.367 121.279 326.106 103.276 313.851 87.3693C301.569 71.3267 286.361 57.7544 269.031 47.3693C251.677 36.8384 232.513 29.6322 212.521 26.1193C192.414 22.6297 171.838 22.8499 151.811 26.7692C171.83 22.2672 192.504 21.4708 212.811 24.4192C254.045 30.5734 291.51 51.8636 317.901 84.1392C331.063 100.282 341.178 118.685 347.75 138.449C347.901 138.879 347.965 139.334 347.938 139.789C347.911 140.244 347.794 140.688 347.593 141.097C347.392 141.506 347.112 141.87 346.769 142.17C346.426 142.469 346.026 142.697 345.594 142.841C345.162 142.984 344.706 143.04 344.251 143.005C343.797 142.97 343.355 142.845 342.95 142.638C342.544 142.43 342.185 142.144 341.891 141.795C341.598 141.447 341.376 141.044 341.24 140.609L341.181 140.499Z" fill="#7AD8D8"/>
        <path d="M90.5991 319.519C116.005 338.474 146.407 349.571 178.049 351.439C185.939 352.039 193.819 351.359 201.719 351.109C205.659 350.809 209.549 350.059 213.469 349.559L219.339 348.709L225.089 347.279C240.589 343.989 255.339 337.709 269.089 329.919C283.009 322.259 295.389 311.999 306.379 300.559C317.44 289.066 326.686 275.956 333.799 261.679C348.539 233.319 353.849 200.469 350.669 168.619C354.419 200.399 349.669 233.529 335.339 262.449C328.385 277.034 319.254 290.478 308.259 302.319C297.259 314.139 284.889 324.799 270.829 332.879C256.769 340.959 241.919 347.779 226.089 351.449L220.199 353.019L214.199 354.019C210.199 354.609 206.199 355.449 202.199 355.829C194.089 356.249 185.969 357.069 177.829 356.599C144.985 355.23 113.262 344.269 86.579 325.069C85.8677 324.528 85.3953 323.731 85.2626 322.848C85.13 321.964 85.3474 321.063 85.8686 320.338C86.3898 319.612 87.1737 319.118 88.0534 318.962C88.9331 318.805 89.8394 318.998 90.579 319.499L90.5991 319.519Z" fill="#7AD8D8"/>
        <path d="M100.789 78.9095C74.2125 99.3156 55.7958 128.541 48.8564 161.322C41.9171 194.103 46.9113 228.284 62.9394 257.71C73.7046 277.413 88.9682 294.298 107.489 306.99C78.888 288.211 57.9331 259.835 48.3994 226.975C38.8657 194.115 41.3799 158.93 55.4892 127.759C64.973 106.899 79.2427 88.57 97.1394 74.2594C97.7534 73.8219 98.5118 73.6361 99.2585 73.7402C100.005 73.8442 100.684 74.2304 101.155 74.8191C101.626 75.4079 101.854 76.1546 101.791 76.9061C101.729 77.6575 101.381 78.3565 100.819 78.8595L100.789 78.9095Z" fill="#7AD8D8"/>
        <path d="M305.53 116.73C301.058 109.272 295.97 102.2 290.32 95.5895C284.537 89.0626 278.207 83.0407 271.4 77.5895C257.607 66.7416 241.907 58.5679 225.11 53.4895C208.21 48.4414 190.524 46.5565 172.94 47.9295C155.26 49.3727 138.008 54.1216 122.08 61.9295C137.872 53.6579 155.077 48.4271 172.8 46.5094C208.837 42.6094 245.017 52.4715 274.09 74.1195C281.285 79.5576 287.999 85.603 294.16 92.1895C300.224 98.8928 305.716 106.091 310.58 113.71C310.87 114.365 310.915 115.103 310.708 115.79C310.5 116.476 310.054 117.065 309.449 117.451C308.845 117.837 308.122 117.993 307.413 117.892C306.703 117.791 306.053 117.439 305.58 116.899V116.84L305.53 116.73Z" fill="#7AD8D8"/>
        <path d="M196.41 327.56C218.123 326.065 239.215 319.668 258.1 308.85C277.087 297.806 293.22 282.463 305.204 264.054C317.187 245.645 324.687 224.682 327.1 202.85C329.554 180.862 326.842 158.605 319.18 137.85C327.336 158.54 330.551 180.848 328.57 203C325.455 236.762 310.54 268.347 286.446 292.203C262.352 316.059 230.622 330.66 196.83 333.44C196.13 333.377 195.474 333.07 194.977 332.573C194.48 332.076 194.173 331.421 194.11 330.721C194.047 330.021 194.231 329.321 194.632 328.743C195.032 328.165 195.622 327.746 196.3 327.56H196.41Z" fill="#7AD8D8"/>
        <path d="M92.4794 115.3C77.9975 133.481 69.1385 155.495 66.9894 178.64C65.8994 190.19 66.8494 201.83 68.7794 213.25C71.2091 224.624 75.1192 235.631 80.4095 245.99C91.4272 266.749 108.243 283.856 128.809 295.23C139.152 300.747 150.172 304.885 161.589 307.54C173.103 309.855 184.867 310.671 196.589 309.97C178.823 311.566 160.921 309.272 144.131 303.246C127.341 297.22 112.066 287.608 99.3688 275.078C86.6716 262.549 76.8574 247.402 70.6093 230.694C64.3611 213.986 61.8292 196.116 63.1896 178.33C65.0014 154.291 73.7907 131.304 88.4794 112.19C88.9063 111.72 89.4942 111.429 90.1261 111.372C90.758 111.316 91.388 111.499 91.8912 111.885C92.3945 112.272 92.7342 112.833 92.8431 113.458C92.9521 114.083 92.8222 114.726 92.4794 115.26V115.3Z" fill="#7AD8D8"/>
        <path d="M278.34 112.91C268.387 100.579 256.108 90.3245 242.2 82.7298C228.222 75.08 212.839 70.3381 196.98 68.7897C181.002 67.1441 164.856 68.7069 149.491 73.3864C134.125 78.0658 119.849 85.7676 107.5 96.0397C119.715 85.3573 133.941 77.2223 149.343 72.1118C164.745 67.0014 181.012 65.0186 197.19 66.2797C213.505 67.4426 229.415 71.8988 243.96 79.3797C258.583 86.8762 271.587 97.1789 282.23 109.7C282.445 109.952 282.608 110.244 282.71 110.559C282.812 110.874 282.85 111.206 282.824 111.536C282.798 111.866 282.706 112.188 282.555 112.483C282.405 112.778 282.197 113.04 281.945 113.255C281.693 113.469 281.401 113.632 281.086 113.734C280.771 113.836 280.439 113.875 280.109 113.849C279.779 113.822 279.457 113.731 279.162 113.58C278.867 113.429 278.605 113.222 278.39 112.97L278.34 112.91Z" fill="#7AD8D8"/>
        <path d="M267.94 275.579C287.532 257.695 300.666 233.838 305.299 207.719C307.557 194.632 307.682 181.266 305.67 168.139C303.622 154.95 299.405 142.191 293.19 130.379C299.804 142.053 304.44 154.741 306.91 167.929C309.372 181.19 309.669 194.763 307.789 208.119C305.85 221.536 301.707 234.541 295.529 246.609C289.318 258.737 281.164 269.766 271.39 279.259C271.153 279.491 270.873 279.674 270.566 279.797C270.259 279.921 269.931 279.983 269.6 279.98C269.269 279.977 268.941 279.908 268.637 279.778C268.332 279.649 268.056 279.46 267.825 279.224C267.593 278.988 267.41 278.708 267.286 278.401C267.162 278.094 267.1 277.765 267.104 277.434C267.107 277.103 267.175 276.776 267.305 276.471C267.435 276.167 267.623 275.891 267.859 275.659L267.94 275.579Z" fill="#7AD8D8"/>
    </g>
    <defs>
        <clipPath id="clip0_1779_14416">
            <rect width="377.844" height="378.726" fill="white"/>
        </clipPath>
    </defs>
</svg>
