<svg width="431" height="581" viewBox="0 0 431 581" fill="none" xmlns="http://www.w3.org/2000/svg">
<path d="M5.85449 433.244C7.21327 431.75 8.98451 430.693 10.9442 430.206C12.9039 429.719 14.9641 429.823 16.8641 430.507C18.7642 431.191 20.419 432.423 21.619 434.047C22.819 435.671 23.5104 437.614 23.6059 439.632C23.7013 441.649 23.1966 443.649 22.1553 445.379C21.1141 447.109 19.5831 448.492 17.7561 449.352C15.9291 450.212 13.8881 450.511 11.8911 450.211C9.89418 449.911 8.03099 449.026 6.53718 447.667C5.54533 446.765 4.74081 445.676 4.16971 444.463C3.59862 443.25 3.27221 441.936 3.20882 440.597C3.14543 439.258 3.34637 437.919 3.80033 436.657C4.25429 435.396 4.95229 434.236 5.85449 433.244Z" fill="#46BABA"/>
<path d="M-4.41753 418.828C-0.322246 414.326 -0.652147 407.356 -5.15439 403.261C-9.65663 399.166 -16.6262 399.496 -20.7215 403.998C-24.8168 408.5 -24.487 415.47 -19.9848 419.565C-15.4825 423.66 -8.51282 423.33 -4.41753 418.828Z" fill="#46BABA"/>
<path d="M-9.72884 152.181C-7.94124 150.216 -5.61092 148.825 -3.03269 148.185C-0.45447 147.544 2.25582 147.682 4.75538 148.582C7.25494 149.482 9.43154 151.103 11.0097 153.24C12.5878 155.377 13.4966 157.935 13.6212 160.588C13.7458 163.242 13.0806 165.873 11.7097 168.149C10.3388 170.424 8.32385 172.242 5.91962 173.372C3.5154 174.502 0.829966 174.894 -1.79695 174.498C-4.42387 174.102 -6.87426 172.935 -8.83816 171.146C-10.1425 169.96 -11.2002 168.528 -11.9509 166.933C-12.7017 165.337 -13.1306 163.61 -13.2134 161.848C-13.2961 160.087 -13.0309 158.327 -12.433 156.668C-11.8351 155.01 -10.9162 153.485 -9.72884 152.181Z" fill="#46BABA"/>
<path d="M19.353 126.496C21.083 124.594 23.3383 123.247 25.8335 122.627C28.3287 122.007 30.9519 122.14 33.3712 123.011C35.7905 123.881 37.8974 125.45 39.4253 127.518C40.9532 129.586 41.8336 132.06 41.9551 134.628C42.0767 137.197 41.434 139.743 40.1082 141.946C38.7824 144.149 36.8332 145.91 34.5069 147.005C32.1807 148.1 29.5818 148.481 27.0392 148.099C24.4966 147.717 22.1242 146.59 20.2222 144.86C17.6717 142.54 16.1472 139.302 15.9842 135.858C15.8212 132.414 17.033 129.046 19.353 126.496Z" fill="#46BABA"/>
<path d="M52.9977 107.078C54.6417 105.268 56.7858 103.986 59.1586 103.394C61.5315 102.803 64.0264 102.929 66.3277 103.756C68.6291 104.583 70.6334 106.074 72.087 108.04C73.5406 110.007 74.3781 112.36 74.4937 114.803C74.6094 117.246 73.9979 119.668 72.7365 121.763C71.4752 123.858 69.6207 125.532 67.4077 126.572C65.1948 127.613 62.7228 127.974 60.3047 127.609C57.8866 127.245 55.6311 126.171 53.8234 124.524C51.4004 122.32 49.9523 119.244 49.7974 115.972C49.6426 112.7 50.7937 109.501 52.9977 107.078Z" fill="#46BABA"/>
<path d="M90.0219 94.623C91.5684 92.9229 93.5842 91.7194 95.8146 91.165C98.0449 90.6105 100.39 90.7299 102.552 91.5081C104.715 92.2862 106.598 93.6881 107.963 95.5365C109.329 97.3849 110.116 99.5966 110.225 101.892C110.334 104.188 109.759 106.464 108.574 108.433C107.389 110.403 105.647 111.976 103.567 112.955C101.488 113.934 99.165 114.274 96.8923 113.933C94.6195 113.592 92.4991 112.584 90.799 111.038C88.5192 108.964 87.1565 106.07 87.0108 102.991C86.8651 99.9128 87.9482 96.9027 90.0219 94.623V94.623Z" fill="#46BABA"/>
<path d="M128.936 89.638C130.368 88.0637 132.234 86.9493 134.299 86.4359C136.365 85.9225 138.536 86.0332 140.538 86.7537C142.541 87.4742 144.284 88.7723 145.549 90.4839C146.814 92.1955 147.543 94.2438 147.643 96.3695C147.744 98.4953 147.212 100.603 146.114 102.426C145.017 104.25 143.404 105.707 141.478 106.613C139.553 107.52 137.402 107.835 135.297 107.519C133.193 107.203 131.229 106.27 129.655 104.838C127.544 102.918 126.282 100.237 126.147 97.3868C126.012 94.5363 127.015 91.749 128.936 89.638Z" fill="#46BABA"/>
<path d="M182.8 105.366C186.427 101.378 186.135 95.2057 182.148 91.5786C178.16 87.9516 171.987 88.2438 168.36 92.2312C164.733 96.2187 165.025 102.391 169.013 106.019C173 109.646 179.173 109.353 182.8 105.366Z" fill="#46BABA"/>
<path d="M206.669 102.381C207.829 101.104 209.341 100.199 211.015 99.7808C212.688 99.3629 214.448 99.4509 216.072 100.034C217.696 100.616 219.11 101.668 220.136 103.054C221.163 104.441 221.754 106.101 221.837 107.824C221.919 109.547 221.489 111.256 220.6 112.734C219.711 114.213 218.404 115.394 216.843 116.129C215.283 116.865 213.539 117.12 211.833 116.865C210.127 116.609 208.535 115.853 207.259 114.692C206.412 113.923 205.724 112.994 205.235 111.959C204.747 110.923 204.467 109.802 204.413 108.659C204.358 107.515 204.529 106.372 204.916 105.295C205.304 104.218 205.899 103.228 206.669 102.381Z" fill="#46BABA"/>
<path d="M253.692 129.973C256.513 126.872 256.285 122.071 253.184 119.251C250.084 116.43 245.283 116.657 242.463 119.758C239.642 122.859 239.869 127.66 242.97 130.48C246.071 133.301 250.872 133.074 253.692 129.973Z" fill="#46BABA"/>
<path d="M274.334 143.677C275.191 142.732 276.309 142.062 277.547 141.753C278.785 141.443 280.087 141.508 281.288 141.938C282.49 142.369 283.536 143.146 284.295 144.172C285.055 145.198 285.493 146.425 285.554 147.7C285.615 148.975 285.297 150.239 284.64 151.333C283.983 152.426 283.015 153.301 281.861 153.845C280.707 154.389 279.417 154.578 278.155 154.389C276.893 154.199 275.715 153.64 274.771 152.781C273.507 151.632 272.751 150.027 272.669 148.32C272.587 146.613 273.186 144.943 274.334 143.677Z" fill="#46BABA"/>
<path d="M301.123 173.118C301.835 172.336 302.763 171.782 303.79 171.526C304.817 171.271 305.897 171.326 306.892 171.684C307.888 172.043 308.755 172.688 309.384 173.539C310.013 174.39 310.375 175.408 310.425 176.465C310.475 177.522 310.211 178.57 309.665 179.477C309.119 180.384 308.317 181.108 307.36 181.559C306.402 182.009 305.333 182.166 304.287 182.009C303.24 181.852 302.264 181.388 301.481 180.676C300.96 180.204 300.538 179.634 300.238 178.998C299.938 178.362 299.766 177.674 299.733 176.972C299.7 176.269 299.805 175.568 300.044 174.906C300.283 174.245 300.649 173.638 301.123 173.118Z" fill="#46BABA"/>
<path d="M321.745 207.055C322.313 206.428 323.053 205.984 323.873 205.779C324.693 205.573 325.556 205.616 326.352 205.901C327.148 206.186 327.841 206.702 328.343 207.381C328.846 208.061 329.136 208.874 329.176 209.719C329.216 210.563 329.004 211.401 328.568 212.125C328.132 212.849 327.49 213.427 326.725 213.786C325.96 214.145 325.105 214.269 324.269 214.142C323.433 214.015 322.654 213.643 322.03 213.073C321.197 212.311 320.699 211.25 320.645 210.123C320.592 208.995 320.988 207.892 321.745 207.055Z" fill="#46BABA"/>
<path d="M335.425 244.196C335.867 243.711 336.443 243.367 337.08 243.208C337.718 243.05 338.388 243.084 339.005 243.307C339.623 243.529 340.161 243.929 340.552 244.457C340.942 244.986 341.167 245.618 341.198 246.273C341.229 246.929 341.065 247.58 340.726 248.142C340.387 248.705 339.89 249.154 339.296 249.434C338.701 249.714 338.038 249.811 337.388 249.714C336.739 249.616 336.133 249.328 335.647 248.886C334.996 248.294 334.607 247.467 334.565 246.587C334.523 245.708 334.833 244.848 335.425 244.196Z" fill="#46BABA"/>
<path d="M341.597 283.077C341.929 282.71 342.362 282.449 342.842 282.328C343.322 282.207 343.827 282.231 344.293 282.397C344.759 282.564 345.165 282.864 345.46 283.262C345.755 283.659 345.926 284.135 345.95 284.629C345.975 285.123 345.852 285.614 345.598 286.038C345.343 286.463 344.968 286.802 344.521 287.013C344.073 287.224 343.573 287.298 343.084 287.225C342.594 287.151 342.137 286.935 341.771 286.602C341.282 286.157 340.989 285.536 340.957 284.875C340.924 284.215 341.154 283.568 341.597 283.077Z" fill="#46BABA"/>
<path d="M340.17 322.171C340.412 321.904 340.728 321.716 341.077 321.629C341.427 321.542 341.794 321.561 342.133 321.683C342.471 321.805 342.766 322.024 342.98 322.314C343.194 322.603 343.317 322.95 343.334 323.309C343.351 323.669 343.261 324.025 343.076 324.334C342.89 324.642 342.617 324.889 342.292 325.042C341.966 325.195 341.602 325.249 341.246 325.195C340.89 325.142 340.558 324.984 340.292 324.742C339.935 324.417 339.721 323.964 339.698 323.482C339.675 322.999 339.845 322.528 340.17 322.171Z" fill="#46BABA"/>
<path d="M331.109 360.056C331.283 359.863 331.51 359.725 331.762 359.661C332.013 359.597 332.279 359.609 332.524 359.696C332.769 359.783 332.982 359.941 333.137 360.15C333.292 360.359 333.381 360.609 333.394 360.869C333.406 361.128 333.341 361.385 333.206 361.608C333.072 361.83 332.874 362.008 332.638 362.118C332.403 362.228 332.14 362.265 331.883 362.225C331.626 362.185 331.387 362.069 331.196 361.893C330.941 361.661 330.789 361.337 330.772 360.993C330.756 360.648 330.877 360.311 331.109 360.056Z" fill="#46BABA"/>
<path d="M316.144 396.527C316.494 396.143 316.465 395.549 316.081 395.199C315.697 394.85 315.103 394.878 314.754 395.262C314.404 395.646 314.432 396.241 314.817 396.59C315.201 396.939 315.795 396.911 316.144 396.527Z" fill="#46BABA"/>
<path d="M291.774 426.427C291.869 426.322 291.994 426.247 292.133 426.213C292.271 426.179 292.416 426.186 292.55 426.234C292.684 426.283 292.801 426.369 292.885 426.484C292.97 426.598 293.019 426.735 293.025 426.878C293.032 427.02 292.997 427.161 292.923 427.283C292.85 427.405 292.742 427.503 292.613 427.563C292.484 427.624 292.34 427.645 292.199 427.624C292.058 427.603 291.927 427.54 291.822 427.444C291.68 427.316 291.596 427.137 291.587 426.946C291.578 426.755 291.645 426.569 291.774 426.427Z" fill="#46BABA"/>
<path d="M262.969 452.314C263.084 452.188 263.233 452.099 263.398 452.058C263.563 452.017 263.737 452.026 263.897 452.083C264.057 452.141 264.196 452.245 264.297 452.382C264.398 452.518 264.456 452.682 264.464 452.852C264.472 453.022 264.43 453.19 264.342 453.336C264.255 453.482 264.126 453.598 263.972 453.671C263.818 453.743 263.646 453.769 263.478 453.743C263.309 453.718 263.153 453.643 263.027 453.529C262.858 453.375 262.757 453.161 262.746 452.933C262.736 452.705 262.816 452.483 262.969 452.314Z" fill="#46BABA"/>
<path d="M229.237 471.714C229.44 471.49 229.705 471.332 229.999 471.259C230.293 471.186 230.601 471.201 230.886 471.304C231.171 471.406 231.419 471.591 231.599 471.834C231.779 472.078 231.882 472.369 231.897 472.671C231.911 472.973 231.835 473.273 231.679 473.532C231.523 473.792 231.294 473.999 231.02 474.128C230.746 474.257 230.44 474.301 230.141 474.256C229.842 474.212 229.563 474.079 229.339 473.875C229.039 473.602 228.859 473.221 228.84 472.816C228.821 472.411 228.964 472.014 229.237 471.714Z" fill="#46BABA"/>
<path d="M191.864 483.846C192.228 483.444 192.702 483.158 193.228 483.026C193.754 482.893 194.308 482.92 194.819 483.102C195.329 483.284 195.775 483.614 196.098 484.049C196.421 484.485 196.608 485.006 196.635 485.548C196.661 486.09 196.527 486.627 196.248 487.092C195.969 487.557 195.558 487.929 195.067 488.16C194.577 488.392 194.029 488.473 193.492 488.392C192.956 488.312 192.455 488.074 192.054 487.709C191.518 487.222 191.197 486.541 191.161 485.817C191.126 485.093 191.378 484.384 191.864 483.846Z" fill="#46BABA"/>
<path d="M152.38 488.362C152.959 487.726 153.714 487.275 154.549 487.068C155.384 486.86 156.261 486.905 157.071 487.196C157.88 487.487 158.585 488.012 159.097 488.704C159.608 489.396 159.903 490.224 159.943 491.083C159.984 491.943 159.769 492.795 159.325 493.532C158.882 494.269 158.229 494.858 157.451 495.225C156.672 495.591 155.803 495.719 154.952 495.591C154.101 495.463 153.307 495.086 152.671 494.507C151.818 493.731 151.308 492.647 151.253 491.495C151.198 490.342 151.604 489.216 152.38 488.362Z" fill="#46BABA"/>
<path d="M112.389 485.202C113.207 484.303 114.272 483.667 115.451 483.374C116.63 483.081 117.87 483.145 119.013 483.557C120.155 483.968 121.15 484.71 121.872 485.687C122.593 486.665 123.008 487.834 123.065 489.048C123.121 490.261 122.816 491.464 122.189 492.505C121.561 493.545 120.639 494.376 119.54 494.892C118.44 495.408 117.212 495.586 116.011 495.404C114.81 495.222 113.69 494.687 112.793 493.868C112.195 493.327 111.711 492.673 111.367 491.943C111.023 491.214 110.827 490.424 110.79 489.619C110.752 488.814 110.874 488.009 111.149 487.251C111.423 486.493 111.845 485.796 112.389 485.202Z" fill="#46BABA"/>
<path d="M73.6214 474.606C74.6621 473.462 76.0186 472.652 77.5196 472.279C79.0206 471.906 80.5986 471.986 82.0539 472.51C83.5092 473.034 84.7764 473.977 85.6955 475.221C86.6147 476.465 87.1443 477.954 87.2175 479.498C87.2906 481.043 86.904 482.575 86.1065 483.9C85.309 485.226 84.1364 486.285 82.737 486.943C81.3377 487.602 79.7744 487.831 78.2449 487.602C76.7154 487.372 75.2884 486.694 74.1443 485.653C72.6124 484.256 71.6971 482.309 71.5991 480.238C71.5011 478.167 72.2283 476.142 73.6214 474.606Z" fill="#46BABA"/>
<path d="M51.2315 469.449C54.6504 465.691 54.375 459.872 50.6163 456.453C46.8577 453.034 41.0391 453.31 37.6202 457.068C34.2012 460.827 34.4767 466.646 38.2353 470.065C41.994 473.483 47.8125 473.208 51.2315 469.449Z" fill="#46BABA"/>
<path d="M146.444 450.693C147.803 449.199 149.574 448.142 151.534 447.655C153.494 447.167 155.554 447.272 157.454 447.956C159.354 448.64 161.009 449.871 162.209 451.495C163.409 453.12 164.1 455.063 164.196 457.08C164.291 459.097 163.786 461.097 162.745 462.827C161.704 464.558 160.173 465.94 158.346 466.8C156.519 467.661 154.478 467.96 152.481 467.66C150.484 467.36 148.621 466.475 147.127 465.116C146.135 464.214 145.331 463.125 144.76 461.912C144.188 460.699 143.862 459.385 143.799 458.046C143.735 456.706 143.936 455.368 144.39 454.106C144.844 452.845 145.542 451.685 146.444 450.693Z" fill="#46BABA"/>
<path d="M107.801 447.461C109.288 445.823 111.228 444.663 113.374 444.128C115.52 443.593 117.777 443.707 119.859 444.455C121.941 445.203 123.754 446.551 125.069 448.33C126.384 450.109 127.141 452.238 127.246 454.447C127.35 456.657 126.797 458.848 125.656 460.743C124.515 462.638 122.838 464.152 120.836 465.093C118.834 466.035 116.598 466.361 114.411 466.031C112.224 465.701 110.183 464.73 108.548 463.24C106.357 461.246 105.047 458.464 104.907 455.505C104.767 452.546 105.808 449.652 107.801 447.461Z" fill="#46BABA"/>
<path d="M70.787 435.528C72.4013 433.754 74.5056 432.498 76.8338 431.919C79.1621 431.34 81.6096 431.465 83.867 432.277C86.1244 433.089 88.0903 434.553 89.516 436.482C90.9417 438.412 91.7632 440.721 91.8766 443.117C91.99 445.513 91.3903 447.89 90.1533 449.945C88.9162 452.001 87.0974 453.643 84.9268 454.665C82.7563 455.687 80.3314 456.042 77.9589 455.686C75.5864 455.33 73.3729 454.278 71.5982 452.664C69.2183 450.499 67.7959 447.477 67.6438 444.264C67.4917 441.051 68.6223 437.908 70.787 435.528Z" fill="#46BABA"/>
<path d="M37.478 415.542C39.208 413.64 41.4633 412.294 43.9585 411.674C46.4537 411.054 49.0767 411.187 51.496 412.058C53.9154 412.928 56.0221 414.497 57.55 416.565C59.078 418.633 59.9586 421.107 60.0801 423.675C60.2017 426.244 59.559 428.79 58.2332 430.993C56.9074 433.196 54.9579 434.957 52.6317 436.052C50.3054 437.147 47.7067 437.528 45.164 437.146C42.6214 436.764 40.2492 435.637 38.3472 433.907C35.7967 431.587 34.2721 428.349 34.1091 424.905C33.9461 421.461 35.158 418.093 37.478 415.542Z" fill="#46BABA"/>
<path d="M9.68294 388.776C11.488 386.789 13.842 385.381 16.4471 384.732C19.0522 384.083 21.7913 384.221 24.3178 385.129C26.8443 386.037 29.0447 387.675 30.6405 389.833C32.2364 391.992 33.1559 394.576 33.2829 397.258C33.4098 399.94 32.7384 402.599 31.3536 404.899C29.9689 407.199 27.933 409.037 25.5036 410.179C23.0741 411.322 20.3603 411.718 17.7055 411.318C15.0508 410.918 12.5742 409.739 10.5895 407.931C7.92916 405.511 6.33907 402.134 6.16903 398.541C5.99899 394.949 7.26302 391.436 9.68294 388.776Z" fill="#46BABA"/>
<path d="M-11.064 356.642C-9.22448 354.62 -6.82653 353.189 -4.17345 352.53C-1.52037 351.87 1.26875 352.013 3.84088 352.939C6.41302 353.865 8.65269 355.533 10.2767 357.732C11.9006 359.931 12.8358 362.563 12.9641 365.293C13.0924 368.024 12.4079 370.731 10.9972 373.073C9.58651 375.415 7.51304 377.285 5.03903 378.449C2.56502 379.612 -0.198423 380.015 -2.90162 379.607C-5.60481 379.199 -8.12634 377.999 -10.1473 376.158C-11.4895 374.937 -12.578 373.464 -13.3505 371.822C-14.123 370.18 -14.5645 368.403 -14.6496 366.59C-14.7347 364.778 -14.4618 362.966 -13.8466 361.259C-13.2313 359.553 -12.2858 357.984 -11.064 356.642Z" fill="#46BABA"/>
<path d="M-23.5683 320.87C-21.7472 318.865 -19.3725 317.445 -16.7444 316.79C-14.1163 316.136 -11.3529 316.275 -8.80403 317.191C-6.25518 318.107 -4.03549 319.759 -2.42555 321.937C-0.815607 324.115 0.112139 326.722 0.240198 329.427C0.368256 332.132 -0.309042 334.815 -1.70606 337.136C-3.10307 339.456 -5.15701 341.31 -7.60793 342.462C-10.0589 343.615 -12.7965 344.015 -15.4747 343.611C-18.1529 343.208 -20.6515 342.019 -22.6537 340.195C-25.3353 337.752 -26.9377 334.345 -27.1092 330.722C-27.2807 327.098 -26.0071 323.555 -23.5683 320.87Z" fill="#46BABA"/>
<path d="M-27.2477 283.335C-25.4799 281.388 -23.1745 280.01 -20.6232 279.374C-18.0718 278.739 -15.3892 278.874 -12.9148 279.763C-10.4404 280.653 -8.2855 282.256 -6.72257 284.37C-5.15964 286.485 -4.25907 289.015 -4.13475 291.642C-4.01044 294.268 -4.66796 296.872 -6.02418 299.125C-7.3804 301.378 -9.37425 303.177 -11.7536 304.296C-14.1329 305.415 -16.7907 305.803 -19.3907 305.412C-21.9907 305.02 -24.4161 303.865 -26.3598 302.095C-28.9629 299.723 -30.5184 296.416 -30.6849 292.898C-30.8514 289.381 -29.6151 285.941 -27.2477 283.335Z" fill="#46BABA"/>
<path d="M-22.0069 246.035C-20.3192 244.18 -18.1189 242.866 -15.6847 242.261C-13.2504 241.657 -10.6913 241.787 -8.33136 242.637C-5.97137 243.487 -3.91653 245.017 -2.42655 247.035C-0.936566 249.053 -0.0784263 251.467 0.0391785 253.973C0.156783 256.478 -0.471391 258.963 -1.76582 261.111C-3.06024 263.259 -4.9628 264.976 -7.23281 266.043C-9.50283 267.11 -12.0383 267.48 -14.5185 267.105C-16.9987 266.731 -19.3122 265.63 -21.1664 263.941C-22.3979 262.82 -23.3966 261.469 -24.1053 259.962C-24.8141 258.456 -25.219 256.825 -25.2971 255.162C-25.3751 253.499 -25.1246 251.837 -24.5601 250.271C-23.9955 248.705 -23.1281 247.266 -22.0069 246.035Z" fill="#46BABA"/>
<path d="M-8.01387 211.005C-6.43284 209.267 -4.3719 208.036 -2.09165 207.469C0.188592 206.903 2.58567 207.025 4.79654 207.82C7.00742 208.616 8.93277 210.049 10.3291 211.939C11.7254 213.829 12.53 216.09 12.6411 218.437C12.7522 220.784 12.1648 223.111 10.9532 225.124C9.74163 227.138 7.96026 228.746 5.83442 229.747C3.70857 230.748 1.33374 231.096 -0.989849 230.747C-3.31344 230.398 -5.48145 229.368 -7.2196 227.787C-9.55038 225.667 -10.9433 222.707 -11.0923 219.56C-11.2413 216.413 -10.134 213.335 -8.01387 211.005Z" fill="#46BABA"/>
<path d="M13.9644 180.155C15.4138 178.559 17.3043 177.428 19.3964 176.906C21.4886 176.384 23.6883 176.495 25.7177 177.223C27.7471 177.952 29.5149 179.266 30.7973 181C32.0797 182.733 32.819 184.808 32.9219 186.962C33.0249 189.116 32.4867 191.252 31.3755 193.099C30.2643 194.947 28.63 196.424 26.6794 197.343C24.7287 198.262 22.5494 198.581 20.417 198.261C18.2846 197.942 16.2951 196.996 14.7 195.545C12.5628 193.601 11.2847 190.888 11.1468 188.002C11.0089 185.117 12.0223 182.294 13.9644 180.155Z" fill="#46BABA"/>
<path d="M57.1438 168.236C60.756 164.265 60.465 158.118 56.4939 154.506C52.5228 150.893 46.3752 151.184 42.7631 155.155C39.1509 159.126 39.442 165.274 43.4131 168.886C47.3842 172.498 53.5316 172.207 57.1438 168.236Z" fill="#46BABA"/>
<path d="M76.7881 137.32C77.9166 136.079 79.3879 135.201 81.0156 134.796C82.6432 134.392 84.3543 134.479 85.9324 135.046C87.5105 135.614 88.8848 136.637 89.8814 137.986C90.8781 139.335 91.4524 140.95 91.5317 142.625C91.611 144.3 91.1918 145.961 90.327 147.398C89.4622 148.835 88.1905 149.984 86.6731 150.698C85.1556 151.412 83.4605 151.661 81.8019 151.412C80.1434 151.163 78.5958 150.427 77.3551 149.299C75.6914 147.785 74.6971 145.673 74.5908 143.427C74.4844 141.18 75.2747 138.983 76.7881 137.32Z" fill="#46BABA"/>
<path d="M114.35 127.742C115.297 126.7 116.532 125.963 117.899 125.623C119.266 125.283 120.702 125.356 122.027 125.833C123.352 126.31 124.506 127.169 125.343 128.302C126.18 129.434 126.662 130.789 126.729 132.196C126.795 133.603 126.443 134.997 125.717 136.204C124.991 137.41 123.923 138.375 122.649 138.974C121.375 139.574 119.952 139.783 118.559 139.574C117.167 139.365 115.867 138.747 114.826 137.8C113.429 136.529 112.594 134.756 112.505 132.869C112.415 130.983 113.079 129.139 114.35 127.742Z" fill="#46BABA"/>
<path d="M153.279 126.867C154.05 126.017 155.056 125.414 156.17 125.136C157.283 124.857 158.455 124.916 159.535 125.303C160.616 125.691 161.557 126.391 162.239 127.314C162.922 128.237 163.315 129.342 163.369 130.488C163.424 131.635 163.137 132.772 162.544 133.755C161.952 134.739 161.081 135.524 160.042 136.012C159.003 136.5 157.842 136.669 156.707 136.497C155.572 136.325 154.514 135.82 153.666 135.046C152.532 134.012 151.855 132.57 151.783 131.037C151.71 129.504 152.248 128.004 153.279 126.867Z" fill="#46BABA"/>
<path d="M191.607 134.723C192.205 134.067 192.983 133.602 193.845 133.387C194.707 133.173 195.613 133.219 196.449 133.52C197.284 133.821 198.012 134.362 198.54 135.077C199.067 135.791 199.371 136.645 199.413 137.532C199.455 138.419 199.234 139.299 198.776 140.06C198.318 140.821 197.645 141.429 196.841 141.807C196.038 142.185 195.14 142.317 194.262 142.185C193.384 142.053 192.564 141.664 191.907 141.066C191.026 140.265 190.5 139.147 190.444 137.957C190.387 136.768 190.806 135.604 191.607 134.723Z" fill="#46BABA"/>
<path d="M227.176 150.95C227.622 150.459 228.203 150.113 228.846 149.953C229.489 149.793 230.165 149.827 230.788 150.052C231.412 150.276 231.955 150.68 232.349 151.213C232.742 151.746 232.969 152.383 233.001 153.045C233.032 153.707 232.866 154.363 232.525 154.931C232.183 155.499 231.681 155.952 231.081 156.235C230.482 156.517 229.812 156.615 229.157 156.517C228.502 156.418 227.89 156.128 227.4 155.682C226.743 155.084 226.35 154.25 226.308 153.362C226.266 152.475 226.578 151.607 227.176 150.95Z" fill="#46BABA"/>
<path d="M258.089 174.674C258.407 174.325 258.821 174.077 259.28 173.963C259.739 173.849 260.221 173.874 260.666 174.034C261.11 174.194 261.498 174.482 261.779 174.862C262.06 175.243 262.222 175.697 262.244 176.17C262.266 176.642 262.148 177.11 261.904 177.515C261.661 177.92 261.302 178.244 260.875 178.445C260.447 178.646 259.969 178.716 259.502 178.646C259.034 178.576 258.598 178.369 258.248 178.051C257.78 177.624 257.499 177.029 257.469 176.396C257.439 175.763 257.662 175.143 258.089 174.674Z" fill="#46BABA"/>
<path d="M282.804 204.524C283.021 204.285 283.304 204.116 283.616 204.039C283.929 203.961 284.258 203.978 284.562 204.087C284.865 204.196 285.129 204.393 285.321 204.652C285.512 204.911 285.623 205.221 285.638 205.543C285.653 205.865 285.572 206.185 285.406 206.461C285.24 206.737 284.996 206.958 284.704 207.095C284.412 207.233 284.087 207.28 283.768 207.232C283.449 207.184 283.151 207.043 282.913 206.826C282.595 206.534 282.406 206.128 282.386 205.697C282.365 205.266 282.516 204.845 282.804 204.524Z" fill="#46BABA"/>
<path d="M301.524 240.504C301.933 240.055 301.9 239.359 301.45 238.951C301.001 238.542 300.305 238.575 299.896 239.024C299.488 239.474 299.521 240.169 299.97 240.578C300.419 240.987 301.115 240.954 301.524 240.504Z" fill="#46BABA"/>
<path d="M308.447 276.322C308.551 276.205 308.687 276.121 308.839 276.081C308.99 276.042 309.15 276.049 309.298 276.1C309.446 276.152 309.575 276.246 309.67 276.371C309.764 276.497 309.818 276.647 309.827 276.804C309.835 276.96 309.797 277.115 309.717 277.25C309.637 277.385 309.518 277.492 309.377 277.56C309.235 277.627 309.077 277.65 308.922 277.627C308.767 277.604 308.622 277.536 308.506 277.431C308.353 277.291 308.26 277.096 308.249 276.888C308.238 276.681 308.309 276.477 308.447 276.322Z" fill="#46BABA"/>
<path d="M308.013 314.293C308.122 314.173 308.264 314.088 308.422 314.049C308.579 314.01 308.744 314.019 308.897 314.073C309.05 314.128 309.182 314.227 309.279 314.358C309.375 314.488 309.431 314.644 309.438 314.806C309.446 314.968 309.406 315.129 309.322 315.268C309.238 315.407 309.115 315.518 308.969 315.587C308.822 315.656 308.658 315.68 308.497 315.656C308.337 315.632 308.187 315.561 308.067 315.452C307.907 315.305 307.81 315.101 307.8 314.884C307.79 314.667 307.866 314.454 308.013 314.293Z" fill="#46BABA"/>
<path d="M298.295 350.672C298.508 350.438 298.786 350.273 299.093 350.196C299.4 350.12 299.723 350.136 300.021 350.244C300.318 350.351 300.578 350.544 300.766 350.798C300.954 351.053 301.062 351.357 301.077 351.673C301.092 351.989 301.013 352.303 300.85 352.574C300.687 352.845 300.447 353.062 300.16 353.196C299.874 353.331 299.554 353.378 299.241 353.331C298.928 353.284 298.636 353.145 298.402 352.933C298.088 352.647 297.901 352.249 297.881 351.825C297.861 351.401 298.01 350.986 298.295 350.672Z" fill="#46BABA"/>
<path d="M279.712 383.408C280.128 382.95 280.672 382.625 281.273 382.476C281.874 382.327 282.506 382.359 283.089 382.57C283.672 382.78 284.179 383.158 284.547 383.657C284.914 384.156 285.125 384.752 285.154 385.371C285.182 385.99 285.026 386.603 284.706 387.133C284.385 387.663 283.915 388.086 283.353 388.349C282.792 388.611 282.166 388.702 281.554 388.608C280.941 388.514 280.37 388.241 279.914 387.823C279.61 387.546 279.364 387.213 279.189 386.841C279.015 386.47 278.915 386.067 278.896 385.657C278.877 385.247 278.94 384.837 279.08 384.451C279.22 384.065 279.434 383.711 279.712 383.408Z" fill="#46BABA"/>
<path d="M253.454 410.891C254.139 410.138 255.032 409.604 256.021 409.358C257.009 409.113 258.049 409.166 259.007 409.511C259.965 409.855 260.8 410.477 261.405 411.296C262.011 412.115 262.359 413.095 262.408 414.113C262.456 415.13 262.201 416.139 261.676 417.012C261.151 417.885 260.378 418.582 259.457 419.016C258.535 419.45 257.506 419.601 256.499 419.449C255.491 419.298 254.551 418.851 253.798 418.166C252.788 417.247 252.184 415.964 252.119 414.6C252.054 413.236 252.534 411.901 253.454 410.891Z" fill="#46BABA"/>
<path d="M221.206 431.886C222.167 430.829 223.419 430.082 224.805 429.737C226.191 429.393 227.648 429.467 228.991 429.95C230.335 430.434 231.505 431.305 232.354 432.453C233.202 433.602 233.691 434.976 233.759 436.402C233.826 437.829 233.469 439.243 232.733 440.467C231.997 441.69 230.914 442.668 229.622 443.276C228.33 443.884 226.887 444.096 225.475 443.884C224.063 443.672 222.745 443.046 221.689 442.085C220.272 440.796 219.425 438.998 219.335 437.085C219.244 435.172 219.917 433.302 221.206 431.886Z" fill="#46BABA"/>
<path d="M184.837 445.372C186.035 444.055 187.596 443.123 189.324 442.693C191.051 442.264 192.867 442.356 194.542 442.959C196.217 443.562 197.676 444.648 198.733 446.079C199.791 447.511 200.401 449.224 200.485 451.002C200.569 452.78 200.124 454.543 199.206 456.068C198.288 457.593 196.939 458.812 195.328 459.57C193.718 460.328 191.919 460.592 190.158 460.328C188.398 460.063 186.756 459.283 185.439 458.085C183.673 456.479 182.618 454.237 182.505 451.853C182.392 449.469 183.231 447.137 184.837 445.372Z" fill="#46BABA"/>
<path d="M218.444 387.348C219.803 385.854 221.575 384.796 223.535 384.309C225.495 383.822 227.556 383.928 229.456 384.612C231.357 385.296 233.011 386.529 234.211 388.154C235.411 389.779 236.102 391.723 236.196 393.74C236.291 395.758 235.784 397.758 234.742 399.488C233.699 401.218 232.167 402.6 230.339 403.459C228.511 404.318 226.469 404.615 224.472 404.314C222.475 404.012 220.612 403.125 219.12 401.764C217.12 399.941 215.925 397.399 215.798 394.696C215.672 391.993 216.623 389.35 218.444 387.348Z" fill="#46BABA"/>
<path d="M201.379 421.03C205.634 416.352 205.292 409.11 200.614 404.855C195.936 400.6 188.694 400.943 184.439 405.621C180.184 410.298 180.527 417.54 185.204 421.795C189.882 426.05 197.124 425.707 201.379 421.03Z" fill="#46BABA"/>
<path d="M146.349 413.257C148.031 411.408 150.224 410.099 152.65 409.496C155.076 408.893 157.627 409.023 159.979 409.869C162.331 410.716 164.38 412.241 165.865 414.251C167.351 416.262 168.207 418.668 168.325 421.165C168.444 423.662 167.819 426.138 166.529 428.28C165.24 430.422 163.345 432.134 161.083 433.199C158.822 434.264 156.295 434.634 153.822 434.262C151.35 433.891 149.044 432.795 147.194 431.113C144.714 428.857 143.232 425.709 143.074 422.36C142.915 419.012 144.093 415.737 146.349 413.257Z" fill="#46BABA"/>
<path d="M107.632 409.751C109.427 407.778 111.767 406.381 114.357 405.737C116.946 405.093 119.668 405.232 122.178 406.135C124.689 407.039 126.875 408.666 128.461 410.812C130.046 412.958 130.96 415.526 131.086 418.191C131.212 420.856 130.545 423.499 129.169 425.785C127.794 428.071 125.771 429.897 123.357 431.034C120.943 432.17 118.246 432.565 115.608 432.169C112.969 431.773 110.508 430.603 108.534 428.808C105.887 426.4 104.305 423.04 104.136 419.466C103.967 415.893 105.224 412.398 107.632 409.751Z" fill="#46BABA"/>
<path d="M71.8618 395.573C73.701 393.551 76.0985 392.12 78.7511 391.46C81.4037 390.801 84.1924 390.943 86.7643 391.868C89.3362 392.794 91.5758 394.461 93.2001 396.66C94.8244 398.858 95.7604 401.489 95.8896 404.219C96.0189 406.949 95.3356 409.657 93.9262 411.998C92.5168 414.34 90.4445 416.212 87.9715 417.376C85.4985 418.54 82.7358 418.945 80.0328 418.539C77.3297 418.133 74.8078 416.935 72.7858 415.096C71.4421 413.875 70.3522 412.402 69.5785 410.76C68.8047 409.118 68.3622 407.339 68.2764 405.526C68.1906 403.713 68.4631 401.9 69.0783 400.193C69.6935 398.485 70.6394 396.915 71.8618 395.573Z" fill="#46BABA"/>
<path d="M42.3062 371.949C44.1084 369.968 46.4578 368.565 49.0571 367.92C51.6565 367.274 54.389 367.413 56.909 368.321C59.4291 369.228 61.6233 370.862 63.2144 373.017C64.8055 375.171 65.7218 377.749 65.8474 380.425C65.9731 383.1 65.3024 385.753 63.9202 388.047C62.5381 390.341 60.5067 392.174 58.0828 393.314C55.6589 394.453 52.9513 394.848 50.3029 394.449C47.6545 394.049 45.1841 392.873 43.2041 391.069C41.8891 389.873 40.8226 388.43 40.0658 386.821C39.3089 385.213 38.8765 383.471 38.7931 381.695C38.7097 379.92 38.977 378.145 39.5798 376.473C40.1826 374.8 41.1091 373.263 42.3062 371.949Z" fill="#46BABA"/>
<path d="M21.2945 340.833C23.0099 338.947 25.2462 337.613 27.7203 336.998C30.1944 336.382 32.7951 336.515 35.1939 337.378C37.5928 338.241 39.6819 339.796 41.1969 341.847C42.7119 343.897 43.5848 346.351 43.7054 348.897C43.8259 351.444 43.1886 353.969 41.8741 356.153C40.5595 358.338 38.6267 360.083 36.3201 361.169C34.0136 362.255 31.4369 362.632 28.9157 362.254C26.3946 361.875 24.0424 360.758 22.1565 359.042C19.6275 356.742 18.116 353.531 17.9543 350.116C17.7927 346.701 18.9941 343.362 21.2945 340.833Z" fill="#46BABA"/>
<path d="M30.7929 317.047C33.0143 310.874 29.8106 304.068 23.6369 301.847C17.4633 299.625 10.6577 302.829 8.43628 309.003C6.21485 315.177 9.41879 321.982 15.5924 324.203C21.7661 326.425 28.5715 323.221 30.7929 317.047Z" fill="#46BABA"/>
<path d="M11.8406 267.737C13.2499 266.188 15.0872 265.091 17.1198 264.586C19.1525 264.08 21.2893 264.189 23.2601 264.898C25.2309 265.607 26.947 266.885 28.1917 268.57C29.4364 270.254 30.1536 272.27 30.2527 274.362C30.3517 276.454 29.8282 278.529 28.7482 280.323C27.6682 282.118 26.0803 283.552 24.1853 284.444C22.2903 285.336 20.1733 285.646 18.102 285.335C16.0307 285.024 14.0983 284.106 12.5488 282.697C10.4735 280.805 9.23329 278.168 9.10053 275.363C8.96777 272.559 9.95319 269.816 11.8406 267.737Z" fill="#46BABA"/>
<path d="M39.4126 241.437C41.0973 236.755 38.6674 231.593 33.9852 229.908C29.303 228.224 24.1416 230.653 22.4568 235.336C20.772 240.018 23.2019 245.179 27.8841 246.864C32.5663 248.549 37.7278 246.119 39.4126 241.437Z" fill="#46BABA"/>
<path d="M57.8883 211.807C60.6086 208.817 60.3893 204.187 57.3987 201.467C54.4081 198.746 49.7786 198.965 47.0584 201.956C44.3381 204.947 44.5571 209.576 47.5477 212.297C50.5383 215.017 55.168 214.798 57.8883 211.807Z" fill="#46BABA"/>
<path d="M78.1968 179.343C78.9437 178.522 79.9173 177.941 80.9946 177.673C82.0718 177.406 83.2044 177.464 84.2486 177.84C85.2929 178.217 86.2021 178.894 86.8611 179.787C87.5201 180.68 87.8994 181.749 87.9508 182.858C88.0023 183.966 87.7238 185.066 87.1504 186.016C86.577 186.966 85.7345 187.725 84.7296 188.197C83.7247 188.668 82.6025 188.831 81.5051 188.664C80.4077 188.498 79.3843 188.01 78.5646 187.261C78.0199 186.766 77.5783 186.168 77.265 185.502C76.9517 184.835 76.7729 184.114 76.7387 183.378C76.7046 182.643 76.8159 181.908 77.0661 181.216C77.3163 180.523 77.7005 179.887 78.1968 179.343Z" fill="#46BABA"/>
<path d="M114.934 166.513C115.466 165.927 116.16 165.513 116.928 165.322C117.696 165.131 118.503 165.173 119.247 165.44C119.991 165.708 120.64 166.191 121.11 166.827C121.58 167.464 121.851 168.225 121.888 169.015C121.926 169.805 121.728 170.589 121.32 171.267C120.912 171.945 120.312 172.486 119.596 172.823C118.881 173.16 118.081 173.277 117.299 173.16C116.516 173.042 115.786 172.696 115.201 172.163C114.416 171.449 113.947 170.453 113.897 169.393C113.847 168.334 114.22 167.297 114.934 166.513Z" fill="#46BABA"/>
<path d="M153.992 164.637C154.342 164.249 154.8 163.973 155.307 163.846C155.813 163.718 156.347 163.743 156.839 163.919C157.331 164.094 157.76 164.412 158.072 164.832C158.383 165.251 158.563 165.754 158.589 166.276C158.614 166.798 158.485 167.315 158.216 167.764C157.947 168.212 157.551 168.57 157.079 168.793C156.606 169.016 156.078 169.094 155.561 169.017C155.044 168.939 154.562 168.71 154.176 168.358C153.659 167.888 153.35 167.233 153.315 166.535C153.281 165.838 153.524 165.155 153.992 164.637Z" fill="#46BABA"/>
<path d="M191.937 173.82C192.154 173.578 192.438 173.406 192.754 173.326C193.069 173.246 193.401 173.262 193.707 173.371C194.014 173.48 194.281 173.678 194.474 173.939C194.668 174.2 194.779 174.513 194.795 174.838C194.81 175.163 194.729 175.485 194.56 175.763C194.392 176.042 194.145 176.264 193.851 176.402C193.556 176.539 193.227 176.586 192.906 176.536C192.584 176.487 192.285 176.342 192.046 176.122C191.726 175.831 191.535 175.425 191.514 174.993C191.494 174.562 191.646 174.139 191.937 173.82Z" fill="#46BABA"/>
<path d="M225.47 193.37C225.603 193.223 225.776 193.12 225.968 193.072C226.16 193.024 226.362 193.035 226.548 193.102C226.734 193.169 226.896 193.289 227.014 193.448C227.131 193.607 227.199 193.798 227.208 193.995C227.218 194.193 227.168 194.389 227.066 194.558C226.964 194.728 226.815 194.863 226.636 194.947C226.457 195.031 226.257 195.061 226.061 195.032C225.865 195.002 225.683 194.915 225.537 194.782C225.34 194.604 225.223 194.355 225.211 194.09C225.198 193.825 225.291 193.566 225.47 193.37Z" fill="#46BABA"/>
<path d="M251.57 221.561C251.701 221.421 251.882 221.338 252.074 221.33C252.266 221.323 252.453 221.391 252.595 221.52C252.736 221.648 252.821 221.827 252.83 222.018C252.839 222.209 252.772 222.396 252.643 222.537C252.515 222.678 252.335 222.762 252.145 222.772C251.954 222.781 251.767 222.713 251.626 222.585C251.484 222.456 251.399 222.276 251.388 222.084C251.378 221.893 251.443 221.705 251.57 221.561Z" fill="#46BABA"/>
<path d="M267.589 255.463C267.782 255.25 268.034 255.1 268.312 255.031C268.59 254.962 268.883 254.977 269.153 255.074C269.423 255.171 269.658 255.346 269.828 255.576C269.998 255.807 270.096 256.083 270.11 256.37C270.124 256.656 270.052 256.94 269.904 257.186C269.756 257.432 269.539 257.628 269.279 257.75C269.02 257.872 268.73 257.915 268.446 257.872C268.163 257.83 267.898 257.704 267.686 257.511C267.401 257.252 267.231 256.891 267.213 256.507C267.195 256.123 267.33 255.747 267.589 255.463Z" fill="#46BABA"/>
<path d="M276.793 296.467C278.052 295.082 277.951 292.938 276.566 291.678C275.181 290.419 273.037 290.52 271.777 291.905C270.517 293.29 270.619 295.434 272.004 296.694C273.389 297.953 275.533 297.852 276.793 296.467Z" fill="#46BABA"/>
<path d="M264.085 327.855C264.886 326.957 265.936 326.317 267.102 326.018C268.268 325.719 269.497 325.774 270.631 326.176C271.766 326.578 272.755 327.309 273.472 328.275C274.19 329.241 274.604 330.399 274.661 331.602C274.717 332.804 274.415 333.996 273.792 335.026C273.169 336.056 272.253 336.876 271.162 337.384C270.07 337.891 268.852 338.062 267.663 337.874C266.474 337.687 265.368 337.149 264.486 336.331C263.32 335.253 262.625 333.761 262.55 332.175C262.475 330.59 263.026 329.038 264.085 327.855Z" fill="#46BABA"/>
<path d="M245.663 360.546C246.797 359.296 248.277 358.41 249.914 358.002C251.552 357.593 253.274 357.679 254.863 358.25C256.451 358.821 257.835 359.85 258.838 361.207C259.842 362.564 260.42 364.189 260.5 365.875C260.58 367.561 260.158 369.232 259.287 370.678C258.416 372.124 257.136 373.28 255.608 373.998C254.081 374.716 252.374 374.964 250.705 374.712C249.036 374.46 247.48 373.718 246.232 372.581C244.563 371.059 243.566 368.937 243.459 366.681C243.352 364.425 244.145 362.218 245.663 360.546Z" fill="#46BABA"/>
<path d="M234.964 287.319C236.323 285.824 238.095 284.767 240.055 284.28C242.015 283.793 244.076 283.898 245.976 284.583C247.876 285.267 249.531 286.499 250.731 288.124C251.93 289.749 252.621 291.694 252.715 293.711C252.81 295.729 252.304 297.729 251.262 299.459C250.219 301.189 248.687 302.571 246.859 303.43C245.031 304.289 242.989 304.586 240.992 304.284C238.995 303.983 237.132 303.095 235.639 301.735C233.639 299.912 232.445 297.37 232.318 294.666C232.191 291.963 233.143 289.32 234.964 287.319Z" fill="#46BABA"/>
<path d="M226.398 323.055C227.972 321.321 230.026 320.093 232.298 319.526C234.571 318.96 236.96 319.08 239.165 319.871C241.369 320.663 243.289 322.09 244.682 323.973C246.075 325.856 246.878 328.11 246.99 330.45C247.101 332.789 246.517 335.109 245.31 337.116C244.103 339.124 242.327 340.728 240.208 341.726C238.09 342.724 235.722 343.071 233.406 342.723C231.09 342.376 228.929 341.349 227.196 339.773C224.877 337.66 223.49 334.713 223.34 331.579C223.191 328.445 224.29 325.38 226.398 323.055Z" fill="#46BABA"/>
<path d="M204.439 353.302C206.203 351.363 208.502 349.991 211.046 349.359C213.589 348.727 216.263 348.864 218.729 349.751C221.195 350.639 223.343 352.239 224.9 354.347C226.457 356.456 227.353 358.978 227.476 361.596C227.599 364.215 226.943 366.81 225.59 369.056C224.238 371.301 222.25 373.094 219.878 374.209C217.506 375.324 214.856 375.711 212.265 375.32C209.673 374.929 207.255 373.778 205.318 372.013C204.031 370.842 202.987 369.43 202.247 367.856C201.506 366.282 201.083 364.577 201.001 362.84C200.92 361.102 201.181 359.365 201.771 357.729C202.361 356.093 203.268 354.588 204.439 353.302Z" fill="#46BABA"/>
<path d="M172.788 373.786C174.627 371.764 177.024 370.333 179.677 369.673C182.33 369.014 185.118 369.156 187.69 370.081C190.262 371.007 192.502 372.674 194.126 374.872C195.75 377.071 196.686 379.701 196.815 382.432C196.945 385.162 196.261 387.869 194.852 390.211C193.443 392.553 191.37 394.425 188.897 395.589C186.424 396.753 183.662 397.158 180.959 396.752C178.256 396.346 175.734 395.148 173.712 393.308C172.368 392.088 171.278 390.615 170.504 388.973C169.73 387.331 169.288 385.552 169.202 383.739C169.116 381.926 169.389 380.113 170.004 378.405C170.619 376.698 171.565 375.128 172.788 373.786Z" fill="#46BABA"/>
<path d="M136.214 381.301C138 379.334 140.329 377.941 142.907 377.299C145.485 376.656 148.195 376.792 150.695 377.691C153.196 378.589 155.373 380.208 156.953 382.344C158.533 384.48 159.443 387.036 159.57 389.69C159.697 392.344 159.033 394.975 157.664 397.252C156.295 399.528 154.281 401.348 151.878 402.48C149.474 403.612 146.789 404.005 144.162 403.611C141.535 403.217 139.084 402.052 137.118 400.265C134.485 397.869 132.91 394.526 132.74 390.97C132.571 387.414 133.82 383.936 136.214 381.301Z" fill="#46BABA"/>
<path d="M100.158 374.662C101.802 372.852 103.946 371.57 106.319 370.979C108.692 370.387 111.187 370.513 113.488 371.34C115.789 372.167 117.794 373.658 119.247 375.625C120.701 377.591 121.538 379.945 121.654 382.387C121.77 384.83 121.158 387.252 119.897 389.347C118.635 391.442 116.781 393.116 114.568 394.157C112.355 395.197 109.883 395.558 107.465 395.194C105.047 394.829 102.791 393.755 100.984 392.108C98.5605 389.904 97.1123 386.828 96.9574 383.556C96.8026 380.285 97.9539 377.085 100.158 374.662Z" fill="#46BABA"/>
<path d="M70.1493 354.803C71.5825 353.23 73.4496 352.118 75.5149 351.606C77.5802 351.095 79.7508 351.207 81.7523 351.928C83.7539 352.65 85.4965 353.949 86.7599 355.661C88.0233 357.373 88.7509 359.421 88.8505 361.547C88.9501 363.672 88.4173 365.779 87.3196 367.602C86.2218 369.425 84.6082 370.881 82.683 371.787C80.7577 372.693 78.6072 373.007 76.5031 372.691C74.3991 372.375 72.436 371.442 70.862 370.01C69.8161 369.059 68.968 367.911 68.3661 366.631C67.7642 365.352 67.4202 363.967 67.354 362.554C67.2878 361.142 67.5006 359.731 67.9802 358.4C68.4598 357.07 69.197 355.848 70.1493 354.803Z" fill="#46BABA"/>
<path d="M50.8052 324.931C51.9657 323.655 53.4784 322.752 55.1521 322.336C56.8258 321.92 58.5853 322.009 60.2081 322.593C61.8309 323.177 63.244 324.229 64.2689 325.616C65.2938 327.003 65.8844 328.663 65.9659 330.386C66.0475 332.109 65.6165 333.817 64.7272 335.294C63.8379 336.772 62.5303 337.953 60.9699 338.688C59.4095 339.422 57.6664 339.678 55.9608 339.421C54.2553 339.165 52.6639 338.409 51.3881 337.249C50.5398 336.479 49.8518 335.549 49.3633 334.513C48.8748 333.477 48.5955 332.355 48.5413 331.211C48.4872 330.066 48.6593 328.923 49.0478 327.845C49.4362 326.768 50.0334 325.777 50.8052 324.931Z" fill="#46BABA"/>
<path d="M45.2346 289.609C46.0933 288.665 47.2127 287.997 48.4512 287.689C49.6897 287.382 50.9916 287.448 52.1921 287.881C53.3927 288.313 54.4381 289.092 55.1959 290.119C55.9536 291.146 56.3897 292.374 56.4491 293.649C56.5084 294.924 56.1882 296.188 55.5291 297.28C54.87 298.373 53.9016 299.246 52.7464 299.788C51.5912 300.33 50.3011 300.518 49.0394 300.326C47.7777 300.135 46.6012 299.574 45.6585 298.714C45.0322 298.144 44.5246 297.457 44.1643 296.691C43.804 295.924 43.5981 295.095 43.5588 294.249C43.5194 293.404 43.6472 292.559 43.9347 291.762C44.2223 290.966 44.664 290.234 45.2346 289.609Z" fill="#46BABA"/>
<path d="M54.1907 254.244C54.7581 253.617 55.4989 253.173 56.3189 252.968C57.139 252.762 58.0015 252.805 58.7973 253.09C59.593 253.376 60.2862 253.891 60.789 254.57C61.2917 255.25 61.5815 256.064 61.6214 256.908C61.6614 257.753 61.4498 258.59 61.0135 259.314C60.5772 260.038 59.9358 260.616 59.1705 260.975C58.4052 261.335 57.5506 261.458 56.7148 261.331C55.879 261.204 55.0996 260.832 54.4756 260.262C53.6422 259.5 53.1444 258.44 53.0911 257.312C53.0377 256.184 53.433 255.081 54.1907 254.244Z" fill="#46BABA"/>
<path d="M76.4294 224.238C76.7609 223.871 77.1941 223.61 77.6739 223.489C78.1537 223.368 78.6586 223.392 79.1248 223.558C79.5909 223.724 79.9973 224.025 80.2924 224.422C80.5875 224.82 80.7581 225.296 80.7825 225.79C80.8069 226.284 80.6839 226.775 80.4294 227.199C80.1748 227.623 79.8 227.963 79.3525 228.174C78.905 228.385 78.4049 228.459 77.9154 228.386C77.426 228.312 76.9694 228.095 76.6033 227.762C76.3599 227.543 76.1622 227.277 76.0217 226.981C75.8811 226.685 75.8005 226.364 75.7843 226.036C75.7682 225.709 75.8169 225.382 75.9275 225.073C76.0382 224.764 76.2088 224.481 76.4294 224.238Z" fill="#46BABA"/>
<path d="M108.553 204.185C108.728 203.994 108.955 203.858 109.206 203.795C109.458 203.733 109.722 203.746 109.966 203.834C110.21 203.922 110.422 204.08 110.576 204.288C110.73 204.497 110.819 204.746 110.831 205.005C110.843 205.264 110.779 205.52 110.645 205.742C110.511 205.964 110.315 206.142 110.08 206.252C109.846 206.362 109.584 206.401 109.328 206.362C109.072 206.324 108.833 206.21 108.641 206.036C108.384 205.802 108.23 205.476 108.214 205.129C108.198 204.782 108.32 204.442 108.553 204.185Z" fill="#46BABA"/>
<path d="M145.841 197.33C145.936 197.223 146.06 197.147 146.198 197.111C146.336 197.075 146.482 197.08 146.617 197.127C146.752 197.174 146.87 197.26 146.956 197.375C147.042 197.489 147.092 197.626 147.099 197.768C147.107 197.911 147.072 198.053 146.999 198.175C146.926 198.298 146.818 198.396 146.689 198.458C146.56 198.519 146.416 198.541 146.275 198.52C146.134 198.499 146.002 198.436 145.896 198.34C145.756 198.213 145.672 198.035 145.661 197.847C145.651 197.658 145.716 197.472 145.841 197.33Z" fill="#46BABA"/>
<path d="M182.073 204.132C182.276 203.908 182.541 203.75 182.835 203.677C183.129 203.604 183.438 203.619 183.722 203.722C184.007 203.824 184.255 204.009 184.435 204.252C184.615 204.496 184.718 204.787 184.733 205.089C184.747 205.391 184.671 205.691 184.515 205.95C184.359 206.21 184.13 206.417 183.856 206.546C183.582 206.675 183.276 206.719 182.977 206.674C182.678 206.629 182.399 206.497 182.175 206.293C181.875 206.02 181.695 205.639 181.676 205.234C181.657 204.828 181.799 204.432 182.073 204.132Z" fill="#46BABA"/>
<path d="M217.621 229.015C219.237 227.238 219.107 224.487 217.33 222.87C215.553 221.254 212.801 221.384 211.185 223.161C209.568 224.938 209.698 227.689 211.476 229.306C213.253 230.922 216.004 230.792 217.621 229.015Z" fill="#46BABA"/>
<path d="M229.449 252.05C230.49 250.906 231.847 250.096 233.348 249.723C234.849 249.35 236.427 249.43 237.882 249.954C239.337 250.477 240.605 251.421 241.524 252.665C242.443 253.909 242.972 255.397 243.046 256.942C243.119 258.487 242.732 260.019 241.935 261.344C241.137 262.669 239.964 263.728 238.565 264.387C237.166 265.046 235.602 265.275 234.073 265.045C232.543 264.816 231.116 264.138 229.972 263.097C228.438 261.701 227.521 259.753 227.423 257.682C227.325 255.61 228.054 253.584 229.449 252.05Z" fill="#46BABA"/>
</svg>
